solid fault
  facet normal 1.80291 -1.07596 0
    outer loop
      vertex 30 30 0
      vertex 30 30 1
      vertex 28.924 28.1971 1
    endloop
  endfacet
  facet normal 1.80291 -1.07596 0
    outer loop
      vertex 30 30 0
      vertex 28.924 28.1971 1
      vertex 28.924 28.1971 0
    endloop
  endfacet
  facet normal 1.77248 -1.04627 0
    outer loop
      vertex 28.924 28.1971 0
      vertex 28.924 28.1971 1
      vertex 27.8778 26.4246 1
    endloop
  endfacet
  facet normal 1.77248 -1.04627 0
    outer loop
      vertex 28.924 28.1971 0
      vertex 27.8778 26.4246 1
      vertex 27.8778 26.4246 0
    endloop
  endfacet
  facet normal 1.74225 -1.01688 0
    outer loop
      vertex 27.8778 26.4246 0
      vertex 27.8778 26.4246 1
      vertex 26.8609 24.6824 1
    endloop
  endfacet
  facet normal 1.74225 -1.01688 0
    outer loop
      vertex 27.8778 26.4246 0
      vertex 26.8609 24.6824 1
      vertex 26.8609 24.6824 0
    endloop
  endfacet
  facet normal 1.71219 -0.987788 0
    outer loop
      vertex 26.8609 24.6824 0
      vertex 26.8609 24.6824 1
      vertex 25.8731 22.9702 1
    endloop
  endfacet
  facet normal 1.71219 -0.987788 0
    outer loop
      vertex 26.8609 24.6824 0
      vertex 25.8731 22.9702 1
      vertex 25.8731 22.9702 0
    endloop
  endfacet
  facet normal 1.68233 -0.959003 0
    outer loop
      vertex 25.8731 22.9702 0
      vertex 25.8731 22.9702 1
      vertex 24.9141 21.2878 1
    endloop
  endfacet
  facet normal 1.68233 -0.959003 0
    outer loop
      vertex 25.8731 22.9702 0
      vertex 24.9141 21.2878 1
      vertex 24.9141 21.2878 0
    endloop
  endfacet
  facet normal 1.65265 -0.930521 0
    outer loop
      vertex 24.9141 21.2878 0
      vertex 24.9141 21.2878 1
      vertex 23.9836 19.6352 1
    endloop
  endfacet
  facet normal 1.65265 -0.930521 0
    outer loop
      vertex 24.9141 21.2878 0
      vertex 23.9836 19.6352 1
      vertex 23.9836 19.6352 0
    endloop
  endfacet
  facet normal 1.62315 -0.902342 0
    outer loop
      vertex 23.9836 19.6352 0
      vertex 23.9836 19.6352 1
      vertex 23.0812 18.012 1
    endloop
  endfacet
  facet normal 1.62315 -0.902342 0
    outer loop
      vertex 23.9836 19.6352 0
      vertex 23.0812 18.012 1
      vertex 23.0812 18.012 0
    endloop
  endfacet
  facet normal 1.59384 -0.874467 0
    outer loop
      vertex 23.0812 18.012 0
      vertex 23.0812 18.012 1
      vertex 22.2068 16.4182 1
    endloop
  endfacet
  facet normal 1.59384 -0.874467 0
    outer loop
      vertex 23.0812 18.012 0
      vertex 22.2068 16.4182 1
      vertex 22.2068 16.4182 0
    endloop
  endfacet
  facet normal 1.56471 -0.846894 0
    outer loop
      vertex 22.2068 16.4182 0
      vertex 22.2068 16.4182 1
      vertex 21.3599 14.8535 1
    endloop
  endfacet
  facet normal 1.56471 -0.846894 0
    outer loop
      vertex 22.2068 16.4182 0
      vertex 21.3599 14.8535 1
      vertex 21.3599 14.8535 0
    endloop
  endfacet
  facet normal 1.53577 -0.819624 0
    outer loop
      vertex 21.3599 14.8535 0
      vertex 21.3599 14.8535 1
      vertex 20.5403 13.3177 1
    endloop
  endfacet
  facet normal 1.53577 -0.819624 0
    outer loop
      vertex 21.3599 14.8535 0
      vertex 20.5403 13.3177 1
      vertex 20.5403 13.3177 0
    endloop
  endfacet
  facet normal 1.50702 -0.792657 0
    outer loop
      vertex 20.5403 13.3177 0
      vertex 20.5403 13.3177 1
      vertex 19.7476 11.8107 1
    endloop
  endfacet
  facet normal 1.50702 -0.792657 0
    outer loop
      vertex 20.5403 13.3177 0
      vertex 19.7476 11.8107 1
      vertex 19.7476 11.8107 0
    endloop
  endfacet
  facet normal 1.47845 -0.765993 0
    outer loop
      vertex 19.7476 11.8107 0
      vertex 19.7476 11.8107 1
      vertex 18.9816 10.3322 1
    endloop
  endfacet
  facet normal 1.47845 -0.765993 0
    outer loop
      vertex 19.7476 11.8107 0
      vertex 18.9816 10.3322 1
      vertex 18.9816 10.3322 0
    endloop
  endfacet
  facet normal 1.45007 -0.739632 0
    outer loop
      vertex 18.9816 10.3322 0
      vertex 18.9816 10.3322 1
      vertex 18.242 8.88218 1
    endloop
  endfacet
  facet normal 1.45007 -0.739632 0
    outer loop
      vertex 18.9816 10.3322 0
      vertex 18.242 8.88218 1
      vertex 18.242 8.88218 0
    endloop
  endfacet
  facet normal 1.42187 -0.713574 0
    outer loop
      vertex 18.242 8.88218 0
      vertex 18.242 8.88218 1
      vertex 17.5284 7.46031 1
    endloop
  endfacet
  facet normal 1.42187 -0.713574 0
    outer loop
      vertex 18.242 8.88218 0
      vertex 17.5284 7.46031 1
      vertex 17.5284 7.46031 0
    endloop
  endfacet
  facet normal 1.39386 -0.687819 0
    outer loop
      vertex 17.5284 7.46031 0
      vertex 17.5284 7.46031 1
      vertex 16.8406 6.06645 1
    endloop
  endfacet
  facet normal 1.39386 -0.687819 0
    outer loop
      vertex 17.5284 7.46031 0
      vertex 16.8406 6.06645 1
      vertex 16.8406 6.06645 0
    endloop
  endfacet
  facet normal 1.36603 -0.662367 0
    outer loop
      vertex 16.8406 6.06645 0
      vertex 16.8406 6.06645 1
      vertex 16.1782 4.70042 1
    endloop
  endfacet
  facet normal 1.36603 -0.662367 0
    outer loop
      vertex 16.8406 6.06645 0
      vertex 16.1782 4.70042 1
      vertex 16.1782 4.70042 0
    endloop
  endfacet
  facet normal 1.33839 -0.637218 0
    outer loop
      vertex 16.1782 4.70042 0
      vertex 16.1782 4.70042 1
      vertex 15.541 3.36203 1
    endloop
  endfacet
  facet normal 1.33839 -0.637218 0
    outer loop
      vertex 16.1782 4.70042 0
      vertex 15.541 3.36203 1
      vertex 15.541 3.36203 0
    endloop
  endfacet
  facet normal 1.31094 -0.612372 0
    outer loop
      vertex 15.541 3.36203 0
      vertex 15.541 3.36203 1
      vertex 14.9286 2.05109 1
    endloop
  endfacet
  facet normal 1.31094 -0.612372 0
    outer loop
      vertex 15.541 3.36203 0
      vertex 14.9286 2.05109 1
      vertex 14.9286 2.05109 0
    endloop
  endfacet
  facet normal 1.28367 -0.587829 0
    outer loop
      vertex 14.9286 2.05109 0
      vertex 14.9286 2.05109 1
      vertex 14.3408 0.767423 1
    endloop
  endfacet
  facet normal 1.28367 -0.587829 0
    outer loop
      vertex 14.9286 2.05109 0
      vertex 14.3408 0.767423 1
      vertex 14.3408 0.767423 0
    endloop
  endfacet
  facet normal 1.25658 -0.563589 0
    outer loop
      vertex 14.3408 0.767423 0
      vertex 14.3408 0.767423 1
      vertex 13.7772 -0.489158 1
    endloop
  endfacet
  facet normal 1.25658 -0.563589 0
    outer loop
      vertex 14.3408 0.767423 0
      vertex 13.7772 -0.489158 1
      vertex 13.7772 -0.489158 0
    endloop
  endfacet
  facet normal 1.22968 -0.539652 0
    outer loop
      vertex 13.7772 -0.489158 0
      vertex 13.7772 -0.489158 1
      vertex 13.2376 -1.71884 1
    endloop
  endfacet
  facet normal 1.22968 -0.539652 0
    outer loop
      vertex 13.7772 -0.489158 0
      vertex 13.2376 -1.71884 1
      vertex 13.2376 -1.71884 0
    endloop
  endfacet
  facet normal 1.20297 -0.516018 0
    outer loop
      vertex 13.2376 -1.71884 0
      vertex 13.2376 -1.71884 1
      vertex 12.7215 -2.92181 1
    endloop
  endfacet
  facet normal 1.20297 -0.516018 0
    outer loop
      vertex 13.2376 -1.71884 0
      vertex 12.7215 -2.92181 1
      vertex 12.7215 -2.92181 0
    endloop
  endfacet
  facet normal 1.17644 -0.492687 0
    outer loop
      vertex 12.7215 -2.92181 0
      vertex 12.7215 -2.92181 1
      vertex 12.2288 -4.09825 1
    endloop
  endfacet
  facet normal 1.17644 -0.492687 0
    outer loop
      vertex 12.7215 -2.92181 0
      vertex 12.2288 -4.09825 1
      vertex 12.2288 -4.09825 0
    endloop
  endfacet
  facet normal 1.1501 -0.469659 0
    outer loop
      vertex 12.2288 -4.09825 0
      vertex 12.2288 -4.09825 1
      vertex 11.7592 -5.24835 1
    endloop
  endfacet
  facet normal 1.1501 -0.469659 0
    outer loop
      vertex 12.2288 -4.09825 0
      vertex 11.7592 -5.24835 1
      vertex 11.7592 -5.24835 0
    endloop
  endfacet
  facet normal 1.12394 -0.446934 0
    outer loop
      vertex 11.7592 -5.24835 0
      vertex 11.7592 -5.24835 1
      vertex 11.3123 -6.37229 1
    endloop
  endfacet
  facet normal 1.12394 -0.446934 0
    outer loop
      vertex 11.7592 -5.24835 0
      vertex 11.3123 -6.37229 1
      vertex 11.3123 -6.37229 0
    endloop
  endfacet
  facet normal 1.09797 -0.424512 0
    outer loop
      vertex 11.3123 -6.37229 0
      vertex 11.3123 -6.37229 1
      vertex 10.8877 -7.47026 1
    endloop
  endfacet
  facet normal 1.09797 -0.424512 0
    outer loop
      vertex 11.3123 -6.37229 0
      vertex 10.8877 -7.47026 1
      vertex 10.8877 -7.47026 0
    endloop
  endfacet
  facet normal 1.07218 -0.402393 0
    outer loop
      vertex 10.8877 -7.47026 0
      vertex 10.8877 -7.47026 1
      vertex 10.4853 -8.54245 1
    endloop
  endfacet
  facet normal 1.07218 -0.402393 0
    outer loop
      vertex 10.8877 -7.47026 0
      vertex 10.4853 -8.54245 1
      vertex 10.4853 -8.54245 0
    endloop
  endfacet
  facet normal 1.04658 -0.380578 0
    outer loop
      vertex 10.4853 -8.54245 0
      vertex 10.4853 -8.54245 1
      vertex 10.1048 -9.58903 1
    endloop
  endfacet
  facet normal 1.04658 -0.380578 0
    outer loop
      vertex 10.4853 -8.54245 0
      vertex 10.1048 -9.58903 1
      vertex 10.1048 -9.58903 0
    endloop
  endfacet
  facet normal 1.02117 -0.359065 0
    outer loop
      vertex 10.1048 -9.58903 0
      vertex 10.1048 -9.58903 1
      vertex 9.74571 -10.6102 1
    endloop
  endfacet
  facet normal 1.02117 -0.359065 0
    outer loop
      vertex 10.1048 -9.58903 0
      vertex 9.74571 -10.6102 1
      vertex 9.74571 -10.6102 0
    endloop
  endfacet
  facet normal 0.99594 -0.337855 0
    outer loop
      vertex 9.74571 -10.6102 0
      vertex 9.74571 -10.6102 1
      vertex 9.40785 -11.6061 1
    endloop
  endfacet
  facet normal 0.99594 -0.337855 0
    outer loop
      vertex 9.74571 -10.6102 0
      vertex 9.40785 -11.6061 1
      vertex 9.40785 -11.6061 0
    endloop
  endfacet
  facet normal 0.970897 -0.316948 0
    outer loop
      vertex 9.40785 -11.6061 0
      vertex 9.40785 -11.6061 1
      vertex 9.0909 -12.577 1
    endloop
  endfacet
  facet normal 0.970897 -0.316948 0
    outer loop
      vertex 9.40785 -11.6061 0
      vertex 9.0909 -12.577 1
      vertex 9.0909 -12.577 0
    endloop
  endfacet
  facet normal 0.946038 -0.296344 0
    outer loop
      vertex 9.0909 -12.577 0
      vertex 9.0909 -12.577 1
      vertex 8.79456 -13.5231 1
    endloop
  endfacet
  facet normal 0.946038 -0.296344 0
    outer loop
      vertex 9.0909 -12.577 0
      vertex 8.79456 -13.5231 1
      vertex 8.79456 -13.5231 0
    endloop
  endfacet
  facet normal 0.921365 -0.276043 0
    outer loop
      vertex 8.79456 -13.5231 0
      vertex 8.79456 -13.5231 1
      vertex 8.51852 -14.4444 1
    endloop
  endfacet
  facet normal 0.921365 -0.276043 0
    outer loop
      vertex 8.79456 -13.5231 0
      vertex 8.51852 -14.4444 1
      vertex 8.51852 -14.4444 0
    endloop
  endfacet
  facet normal 0.896878 -0.256045 0
    outer loop
      vertex 8.51852 -14.4444 0
      vertex 8.51852 -14.4444 1
      vertex 8.26247 -15.3413 1
    endloop
  endfacet
  facet normal 0.896878 -0.256045 0
    outer loop
      vertex 8.51852 -14.4444 0
      vertex 8.26247 -15.3413 1
      vertex 8.26247 -15.3413 0
    endloop
  endfacet
  facet normal 0.872576 -0.23635 0
    outer loop
      vertex 8.26247 -15.3413 0
      vertex 8.26247 -15.3413 1
      vertex 8.02612 -16.2139 1
    endloop
  endfacet
  facet normal 0.872576 -0.23635 0
    outer loop
      vertex 8.26247 -15.3413 0
      vertex 8.02612 -16.2139 1
      vertex 8.02612 -16.2139 0
    endloop
  endfacet
  facet normal 0.84846 -0.216958 0
    outer loop
      vertex 8.02612 -16.2139 0
      vertex 8.02612 -16.2139 1
      vertex 7.80917 -17.0624 1
    endloop
  endfacet
  facet normal 0.84846 -0.216958 0
    outer loop
      vertex 8.02612 -16.2139 0
      vertex 7.80917 -17.0624 1
      vertex 7.80917 -17.0624 0
    endloop
  endfacet
  facet normal 0.824529 -0.197869 0
    outer loop
      vertex 7.80917 -17.0624 0
      vertex 7.80917 -17.0624 1
      vertex 7.6113 -17.8869 1
    endloop
  endfacet
  facet normal 0.824529 -0.197869 0
    outer loop
      vertex 7.80917 -17.0624 0
      vertex 7.6113 -17.8869 1
      vertex 7.6113 -17.8869 0
    endloop
  endfacet
  facet normal 0.800784 -0.179083 0
    outer loop
      vertex 7.6113 -17.8869 0
      vertex 7.6113 -17.8869 1
      vertex 7.43221 -18.6877 1
    endloop
  endfacet
  facet normal 0.800784 -0.179083 0
    outer loop
      vertex 7.6113 -17.8869 0
      vertex 7.43221 -18.6877 1
      vertex 7.43221 -18.6877 0
    endloop
  endfacet
  facet normal 0.777224 -0.1606 0
    outer loop
      vertex 7.43221 -18.6877 0
      vertex 7.43221 -18.6877 1
      vertex 7.27161 -19.4649 1
    endloop
  endfacet
  facet normal 0.777224 -0.1606 0
    outer loop
      vertex 7.43221 -18.6877 0
      vertex 7.27161 -19.4649 1
      vertex 7.27161 -19.4649 0
    endloop
  endfacet
  facet normal 0.75385 -0.14242 0
    outer loop
      vertex 7.27161 -19.4649 0
      vertex 7.27161 -19.4649 1
      vertex 7.12919 -20.2187 1
    endloop
  endfacet
  facet normal 0.75385 -0.14242 0
    outer loop
      vertex 7.27161 -19.4649 0
      vertex 7.12919 -20.2187 1
      vertex 7.12919 -20.2187 0
    endloop
  endfacet
  facet normal 0.730661 -0.124543 0
    outer loop
      vertex 7.12919 -20.2187 0
      vertex 7.12919 -20.2187 1
      vertex 7.00465 -20.9494 1
    endloop
  endfacet
  facet normal 0.730661 -0.124543 0
    outer loop
      vertex 7.12919 -20.2187 0
      vertex 7.00465 -20.9494 1
      vertex 7.00465 -20.9494 0
    endloop
  endfacet
  facet normal 0.707658 -0.106969 0
    outer loop
      vertex 7.00465 -20.9494 0
      vertex 7.00465 -20.9494 1
      vertex 6.89768 -21.6571 1
    endloop
  endfacet
  facet normal 0.707658 -0.106969 0
    outer loop
      vertex 7.00465 -20.9494 0
      vertex 6.89768 -21.6571 1
      vertex 6.89768 -21.6571 0
    endloop
  endfacet
  facet normal 0.68484 -0.0896981 0
    outer loop
      vertex 6.89768 -21.6571 0
      vertex 6.89768 -21.6571 1
      vertex 6.80798 -22.3419 1
    endloop
  endfacet
  facet normal 0.68484 -0.0896981 0
    outer loop
      vertex 6.89768 -21.6571 0
      vertex 6.80798 -22.3419 1
      vertex 6.80798 -22.3419 0
    endloop
  endfacet
  facet normal 0.662208 -0.0727302 0
    outer loop
      vertex 6.80798 -22.3419 0
      vertex 6.80798 -22.3419 1
      vertex 6.73525 -23.0041 1
    endloop
  endfacet
  facet normal 0.662208 -0.0727302 0
    outer loop
      vertex 6.80798 -22.3419 0
      vertex 6.73525 -23.0041 1
      vertex 6.73525 -23.0041 0
    endloop
  endfacet
  facet normal 0.639762 -0.0560652 0
    outer loop
      vertex 6.73525 -23.0041 0
      vertex 6.73525 -23.0041 1
      vertex 6.67919 -23.6439 1
    endloop
  endfacet
  facet normal 0.639762 -0.0560652 0
    outer loop
      vertex 6.73525 -23.0041 0
      vertex 6.67919 -23.6439 1
      vertex 6.67919 -23.6439 0
    endloop
  endfacet
  facet normal 0.6175 -0.0397032 0
    outer loop
      vertex 6.67919 -23.6439 0
      vertex 6.67919 -23.6439 1
      vertex 6.63949 -24.2614 1
    endloop
  endfacet
  facet normal 0.6175 -0.0397032 0
    outer loop
      vertex 6.67919 -23.6439 0
      vertex 6.63949 -24.2614 1
      vertex 6.63949 -24.2614 0
    endloop
  endfacet
  facet normal 0.595425 -0.0236443 0
    outer loop
      vertex 6.63949 -24.2614 0
      vertex 6.63949 -24.2614 1
      vertex 6.61584 -24.8568 1
    endloop
  endfacet
  facet normal 0.595425 -0.0236443 0
    outer loop
      vertex 6.63949 -24.2614 0
      vertex 6.61584 -24.8568 1
      vertex 6.61584 -24.8568 0
    endloop
  endfacet
  facet normal 0.573535 -0.00788829 0
    outer loop
      vertex 6.61584 -24.8568 0
      vertex 6.61584 -24.8568 1
      vertex 6.60795 -25.4303 1
    endloop
  endfacet
  facet normal 0.573535 -0.00788829 0
    outer loop
      vertex 6.61584 -24.8568 0
      vertex 6.60795 -25.4303 1
      vertex 6.60795 -25.4303 0
    endloop
  endfacet
  facet normal 0.55183 0.00756468 -0
    outer loop
      vertex 6.60795 -25.4303 0
      vertex 6.60795 -25.4303 1
      vertex 6.61552 -25.9822 1
    endloop
  endfacet
  facet normal 0.55183 0.00756468 0
    outer loop
      vertex 6.60795 -25.4303 0
      vertex 6.61552 -25.9822 1
      vertex 6.61552 -25.9822 0
    endloop
  endfacet
  facet normal 0.530311 0.0227146 -0
    outer loop
      vertex 6.61552 -25.9822 0
      vertex 6.61552 -25.9822 1
      vertex 6.63823 -26.5125 1
    endloop
  endfacet
  facet normal 0.530311 0.0227146 0
    outer loop
      vertex 6.61552 -25.9822 0
      vertex 6.63823 -26.5125 1
      vertex 6.63823 -26.5125 0
    endloop
  endfacet
  facet normal 0.508977 0.0375616 -0
    outer loop
      vertex 6.63823 -26.5125 0
      vertex 6.63823 -26.5125 1
      vertex 6.67579 -27.0215 1
    endloop
  endfacet
  facet normal 0.508977 0.0375616 0
    outer loop
      vertex 6.63823 -26.5125 0
      vertex 6.67579 -27.0215 1
      vertex 6.67579 -27.0215 0
    endloop
  endfacet
  facet normal 0.487829 0.0521056 -0
    outer loop
      vertex 6.67579 -27.0215 0
      vertex 6.67579 -27.0215 1
      vertex 6.7279 -27.5093 1
    endloop
  endfacet
  facet normal 0.487829 0.0521056 0
    outer loop
      vertex 6.67579 -27.0215 0
      vertex 6.7279 -27.5093 1
      vertex 6.7279 -27.5093 0
    endloop
  endfacet
  facet normal 0.466866 0.0663466 -0
    outer loop
      vertex 6.7279 -27.5093 0
      vertex 6.7279 -27.5093 1
      vertex 6.79425 -27.9761 1
    endloop
  endfacet
  facet normal 0.466866 0.0663466 0
    outer loop
      vertex 6.7279 -27.5093 0
      vertex 6.79425 -27.9761 1
      vertex 6.79425 -27.9761 0
    endloop
  endfacet
  facet normal 0.446089 0.0802845 -0
    outer loop
      vertex 6.79425 -27.9761 0
      vertex 6.79425 -27.9761 1
      vertex 6.87453 -28.4222 1
    endloop
  endfacet
  facet normal 0.446089 0.0802845 0
    outer loop
      vertex 6.79425 -27.9761 0
      vertex 6.87453 -28.4222 1
      vertex 6.87453 -28.4222 0
    endloop
  endfacet
  facet normal 0.425498 0.0939195 -0
    outer loop
      vertex 6.87453 -28.4222 0
      vertex 6.87453 -28.4222 1
      vertex 6.96845 -28.8477 1
    endloop
  endfacet
  facet normal 0.425498 0.0939195 0
    outer loop
      vertex 6.87453 -28.4222 0
      vertex 6.96845 -28.8477 1
      vertex 6.96845 -28.8477 0
    endloop
  endfacet
  facet normal 0.405092 0.107251 -0
    outer loop
      vertex 6.96845 -28.8477 0
      vertex 6.96845 -28.8477 1
      vertex 7.0757 -29.2528 1
    endloop
  endfacet
  facet normal 0.405092 0.107251 0
    outer loop
      vertex 6.96845 -28.8477 0
      vertex 7.0757 -29.2528 1
      vertex 7.0757 -29.2528 0
    endloop
  endfacet
  facet normal 0.384871 0.12028 -0
    outer loop
      vertex 7.0757 -29.2528 0
      vertex 7.0757 -29.2528 1
      vertex 7.19598 -29.6377 1
    endloop
  endfacet
  facet normal 0.384871 0.12028 0
    outer loop
      vertex 7.0757 -29.2528 0
      vertex 7.19598 -29.6377 1
      vertex 7.19598 -29.6377 0
    endloop
  endfacet
  facet normal 0.364836 0.133006 -0
    outer loop
      vertex 7.19598 -29.6377 0
      vertex 7.19598 -29.6377 1
      vertex 7.32899 -30.0025 1
    endloop
  endfacet
  facet normal 0.364836 0.133006 0
    outer loop
      vertex 7.19598 -29.6377 0
      vertex 7.32899 -30.0025 1
      vertex 7.32899 -30.0025 0
    endloop
  endfacet
  facet normal 0.344986 0.145429 -0
    outer loop
      vertex 7.32899 -30.0025 0
      vertex 7.32899 -30.0025 1
      vertex 7.47442 -30.3475 1
    endloop
  endfacet
  facet normal 0.344986 0.145429 0
    outer loop
      vertex 7.32899 -30.0025 0
      vertex 7.47442 -30.3475 1
      vertex 7.47442 -30.3475 0
    endloop
  endfacet
  facet normal 0.325322 0.157549 -0
    outer loop
      vertex 7.47442 -30.3475 0
      vertex 7.47442 -30.3475 1
      vertex 7.63197 -30.6728 1
    endloop
  endfacet
  facet normal 0.325322 0.157549 0
    outer loop
      vertex 7.47442 -30.3475 0
      vertex 7.63197 -30.6728 1
      vertex 7.63197 -30.6728 0
    endloop
  endfacet
  facet normal 0.305844 0.169366 -0
    outer loop
      vertex 7.63197 -30.6728 0
      vertex 7.63197 -30.6728 1
      vertex 7.80133 -30.9787 1
    endloop
  endfacet
  facet normal 0.305844 0.169366 0
    outer loop
      vertex 7.63197 -30.6728 0
      vertex 7.80133 -30.9787 1
      vertex 7.80133 -30.9787 0
    endloop
  endfacet
  facet normal 0.286551 0.18088 -0
    outer loop
      vertex 7.80133 -30.9787 0
      vertex 7.80133 -30.9787 1
      vertex 7.98221 -31.2652 1
    endloop
  endfacet
  facet normal 0.286551 0.18088 0
    outer loop
      vertex 7.80133 -30.9787 0
      vertex 7.98221 -31.2652 1
      vertex 7.98221 -31.2652 0
    endloop
  endfacet
  facet normal 0.267443 0.192091 -0
    outer loop
      vertex 7.98221 -31.2652 0
      vertex 7.98221 -31.2652 1
      vertex 8.17431 -31.5327 1
    endloop
  endfacet
  facet normal 0.267443 0.192091 0
    outer loop
      vertex 7.98221 -31.2652 0
      vertex 8.17431 -31.5327 1
      vertex 8.17431 -31.5327 0
    endloop
  endfacet
  facet normal 0.248521 0.202999 -0
    outer loop
      vertex 8.17431 -31.5327 0
      vertex 8.17431 -31.5327 1
      vertex 8.3773 -31.7812 1
    endloop
  endfacet
  facet normal 0.248521 0.202999 0
    outer loop
      vertex 8.17431 -31.5327 0
      vertex 8.3773 -31.7812 1
      vertex 8.3773 -31.7812 0
    endloop
  endfacet
  facet normal 0.229785 0.213604 -0
    outer loop
      vertex 8.3773 -31.7812 0
      vertex 8.3773 -31.7812 1
      vertex 8.59091 -32.011 1
    endloop
  endfacet
  facet normal 0.229785 0.213604 0
    outer loop
      vertex 8.3773 -31.7812 0
      vertex 8.59091 -32.011 1
      vertex 8.59091 -32.011 0
    endloop
  endfacet
  facet normal 0.211234 0.223906 -0
    outer loop
      vertex 8.59091 -32.011 0
      vertex 8.59091 -32.011 1
      vertex 8.81481 -32.2222 1
    endloop
  endfacet
  facet normal 0.211234 0.223906 0
    outer loop
      vertex 8.59091 -32.011 0
      vertex 8.81481 -32.2222 1
      vertex 8.81481 -32.2222 0
    endloop
  endfacet
  facet normal 0.192868 0.233905 -0
    outer loop
      vertex 8.81481 -32.2222 0
      vertex 8.81481 -32.2222 1
      vertex 9.04872 -32.4151 1
    endloop
  endfacet
  facet normal 0.192868 0.233905 0
    outer loop
      vertex 8.81481 -32.2222 0
      vertex 9.04872 -32.4151 1
      vertex 9.04872 -32.4151 0
    endloop
  endfacet
  facet normal 0.174688 0.243601 -0
    outer loop
      vertex 9.04872 -32.4151 0
      vertex 9.04872 -32.4151 1
      vertex 9.29232 -32.5898 1
    endloop
  endfacet
  facet normal 0.174688 0.243601 0
    outer loop
      vertex 9.04872 -32.4151 0
      vertex 9.29232 -32.5898 1
      vertex 9.29232 -32.5898 0
    endloop
  endfacet
  facet normal 0.156694 0.252994 -0
    outer loop
      vertex 9.29232 -32.5898 0
      vertex 9.29232 -32.5898 1
      vertex 9.54532 -32.7465 1
    endloop
  endfacet
  facet normal 0.156694 0.252994 0
    outer loop
      vertex 9.29232 -32.5898 0
      vertex 9.54532 -32.7465 1
      vertex 9.54532 -32.7465 0
    endloop
  endfacet
  facet normal 0.138885 0.262084 -0
    outer loop
      vertex 9.54532 -32.7465 0
      vertex 9.54532 -32.7465 1
      vertex 9.8074 -32.8854 1
    endloop
  endfacet
  facet normal 0.138885 0.262084 0
    outer loop
      vertex 9.54532 -32.7465 0
      vertex 9.8074 -32.8854 1
      vertex 9.8074 -32.8854 0
    endloop
  endfacet
  facet normal 0.121262 0.270871 -0
    outer loop
      vertex 9.8074 -32.8854 0
      vertex 9.8074 -32.8854 1
      vertex 10.0783 -33.0066 1
    endloop
  endfacet
  facet normal 0.121262 0.270871 0
    outer loop
      vertex 9.8074 -32.8854 0
      vertex 10.0783 -33.0066 1
      vertex 10.0783 -33.0066 0
    endloop
  endfacet
  facet normal 0.103824 0.279355 -0
    outer loop
      vertex 10.0783 -33.0066 0
      vertex 10.0783 -33.0066 1
      vertex 10.3576 -33.1104 1
    endloop
  endfacet
  facet normal 0.103824 0.279355 0
    outer loop
      vertex 10.0783 -33.0066 0
      vertex 10.3576 -33.1104 1
      vertex 10.3576 -33.1104 0
    endloop
  endfacet
  facet normal 0.0865713 0.287536 -0
    outer loop
      vertex 10.3576 -33.1104 0
      vertex 10.3576 -33.1104 1
      vertex 10.6452 -33.197 1
    endloop
  endfacet
  facet normal 0.0865713 0.287536 0
    outer loop
      vertex 10.3576 -33.1104 0
      vertex 10.6452 -33.197 1
      vertex 10.6452 -33.197 0
    endloop
  endfacet
  facet normal 0.0695043 0.295414 -0
    outer loop
      vertex 10.6452 -33.197 0
      vertex 10.6452 -33.197 1
      vertex 10.9406 -33.2665 1
    endloop
  endfacet
  facet normal 0.0695043 0.295414 0
    outer loop
      vertex 10.6452 -33.197 0
      vertex 10.9406 -33.2665 1
      vertex 10.9406 -33.2665 0
    endloop
  endfacet
  facet normal 0.052623 0.302989 -0
    outer loop
      vertex 10.9406 -33.2665 0
      vertex 10.9406 -33.2665 1
      vertex 11.2436 -33.3191 1
    endloop
  endfacet
  facet normal 0.052623 0.302989 0
    outer loop
      vertex 10.9406 -33.2665 0
      vertex 11.2436 -33.3191 1
      vertex 11.2436 -33.3191 0
    endloop
  endfacet
  facet normal 0.0359271 0.310261 -0
    outer loop
      vertex 11.2436 -33.3191 0
      vertex 11.2436 -33.3191 1
      vertex 11.5538 -33.3551 1
    endloop
  endfacet
  facet normal 0.0359271 0.310261 0
    outer loop
      vertex 11.2436 -33.3191 0
      vertex 11.5538 -33.3551 1
      vertex 11.5538 -33.3551 0
    endloop
  endfacet
  facet normal 0.0194167 0.31723 -0
    outer loop
      vertex 11.5538 -33.3551 0
      vertex 11.5538 -33.3551 1
      vertex 11.8711 -33.3745 1
    endloop
  endfacet
  facet normal 0.0194167 0.31723 0
    outer loop
      vertex 11.5538 -33.3551 0
      vertex 11.8711 -33.3745 1
      vertex 11.8711 -33.3745 0
    endloop
  endfacet
  facet normal 0.00309183 0.323896 -0
    outer loop
      vertex 11.8711 -33.3745 0
      vertex 11.8711 -33.3745 1
      vertex 12.195 -33.3776 1
    endloop
  endfacet
  facet normal 0.00309183 0.323896 0
    outer loop
      vertex 11.8711 -33.3745 0
      vertex 12.195 -33.3776 1
      vertex 12.195 -33.3776 0
    endloop
  endfacet
  facet normal -0.0130475 0.330259 0
    outer loop
      vertex 12.195 -33.3776 0
      vertex 12.195 -33.3776 1
      vertex 12.5252 -33.3645 1
    endloop
  endfacet
  facet normal -0.0130475 0.330259 0
    outer loop
      vertex 12.195 -33.3776 0
      vertex 12.5252 -33.3645 1
      vertex 12.5252 -33.3645 0
    endloop
  endfacet
  facet normal -0.0290014 0.336319 0
    outer loop
      vertex 12.5252 -33.3645 0
      vertex 12.5252 -33.3645 1
      vertex 12.8615 -33.3355 1
    endloop
  endfacet
  facet normal -0.0290014 0.336319 0
    outer loop
      vertex 12.5252 -33.3645 0
      vertex 12.8615 -33.3355 1
      vertex 12.8615 -33.3355 0
    endloop
  endfacet
  facet normal -0.0447697 0.342076 0
    outer loop
      vertex 12.8615 -33.3355 0
      vertex 12.8615 -33.3355 1
      vertex 13.2036 -33.2908 1
    endloop
  endfacet
  facet normal -0.0447697 0.342076 0
    outer loop
      vertex 12.8615 -33.3355 0
      vertex 13.2036 -33.2908 1
      vertex 13.2036 -33.2908 0
    endloop
  endfacet
  facet normal -0.0603525 0.34753 0
    outer loop
      vertex 13.2036 -33.2908 0
      vertex 13.2036 -33.2908 1
      vertex 13.5511 -33.2304 1
    endloop
  endfacet
  facet normal -0.0603525 0.34753 0
    outer loop
      vertex 13.2036 -33.2908 0
      vertex 13.5511 -33.2304 1
      vertex 13.5511 -33.2304 0
    endloop
  endfacet
  facet normal -0.0757498 0.352681 0
    outer loop
      vertex 13.5511 -33.2304 0
      vertex 13.5511 -33.2304 1
      vertex 13.9038 -33.1547 1
    endloop
  endfacet
  facet normal -0.0757498 0.352681 0
    outer loop
      vertex 13.5511 -33.2304 0
      vertex 13.9038 -33.1547 1
      vertex 13.9038 -33.1547 0
    endloop
  endfacet
  facet normal -0.0909617 0.357529 0
    outer loop
      vertex 13.9038 -33.1547 0
      vertex 13.9038 -33.1547 1
      vertex 14.2613 -33.0637 1
    endloop
  endfacet
  facet normal -0.0909617 0.357529 0
    outer loop
      vertex 13.9038 -33.1547 0
      vertex 14.2613 -33.0637 1
      vertex 14.2613 -33.0637 0
    endloop
  endfacet
  facet normal -0.105988 0.362074 0
    outer loop
      vertex 14.2613 -33.0637 0
      vertex 14.2613 -33.0637 1
      vertex 14.6234 -32.9577 1
    endloop
  endfacet
  facet normal -0.105988 0.362074 0
    outer loop
      vertex 14.2613 -33.0637 0
      vertex 14.6234 -32.9577 1
      vertex 14.6234 -32.9577 0
    endloop
  endfacet
  facet normal -0.120829 0.366316 0
    outer loop
      vertex 14.6234 -32.9577 0
      vertex 14.6234 -32.9577 1
      vertex 14.9897 -32.8369 1
    endloop
  endfacet
  facet normal -0.120829 0.366316 0
    outer loop
      vertex 14.6234 -32.9577 0
      vertex 14.9897 -32.8369 1
      vertex 14.9897 -32.8369 0
    endloop
  endfacet
  facet normal -0.135484 0.370255 0
    outer loop
      vertex 14.9897 -32.8369 0
      vertex 14.9897 -32.8369 1
      vertex 15.36 -32.7014 1
    endloop
  endfacet
  facet normal -0.135484 0.370255 0
    outer loop
      vertex 14.9897 -32.8369 0
      vertex 15.36 -32.7014 1
      vertex 15.36 -32.7014 0
    endloop
  endfacet
  facet normal -0.149954 0.373891 0
    outer loop
      vertex 15.36 -32.7014 0
      vertex 15.36 -32.7014 1
      vertex 15.7339 -32.5514 1
    endloop
  endfacet
  facet normal -0.149954 0.373891 0
    outer loop
      vertex 15.36 -32.7014 0
      vertex 15.7339 -32.5514 1
      vertex 15.7339 -32.5514 0
    endloop
  endfacet
  facet normal -0.164238 0.377224 0
    outer loop
      vertex 15.7339 -32.5514 0
      vertex 15.7339 -32.5514 1
      vertex 16.1111 -32.3872 1
    endloop
  endfacet
  facet normal -0.164238 0.377224 0
    outer loop
      vertex 15.7339 -32.5514 0
      vertex 16.1111 -32.3872 1
      vertex 16.1111 -32.3872 0
    endloop
  endfacet
  facet normal -0.178337 0.380254 0
    outer loop
      vertex 16.1111 -32.3872 0
      vertex 16.1111 -32.3872 1
      vertex 16.4914 -32.2089 1
    endloop
  endfacet
  facet normal -0.178337 0.380254 0
    outer loop
      vertex 16.1111 -32.3872 0
      vertex 16.4914 -32.2089 1
      vertex 16.4914 -32.2089 0
    endloop
  endfacet
  facet normal -0.19225 0.382981 0
    outer loop
      vertex 16.4914 -32.2089 0
      vertex 16.4914 -32.2089 1
      vertex 16.8743 -32.0166 1
    endloop
  endfacet
  facet normal -0.19225 0.382981 0
    outer loop
      vertex 16.4914 -32.2089 0
      vertex 16.8743 -32.0166 1
      vertex 16.8743 -32.0166 0
    endloop
  endfacet
  facet normal -0.205978 0.385405 0
    outer loop
      vertex 16.8743 -32.0166 0
      vertex 16.8743 -32.0166 1
      vertex 17.2597 -31.8106 1
    endloop
  endfacet
  facet normal -0.205978 0.385405 0
    outer loop
      vertex 16.8743 -32.0166 0
      vertex 17.2597 -31.8106 1
      vertex 17.2597 -31.8106 0
    endloop
  endfacet
  facet normal -0.21952 0.387526 0
    outer loop
      vertex 17.2597 -31.8106 0
      vertex 17.2597 -31.8106 1
      vertex 17.6473 -31.5911 1
    endloop
  endfacet
  facet normal -0.21952 0.387526 0
    outer loop
      vertex 17.2597 -31.8106 0
      vertex 17.6473 -31.5911 1
      vertex 17.6473 -31.5911 0
    endloop
  endfacet
  facet normal -0.232877 0.389344 0
    outer loop
      vertex 17.6473 -31.5911 0
      vertex 17.6473 -31.5911 1
      vertex 18.0366 -31.3582 1
    endloop
  endfacet
  facet normal -0.232877 0.389344 0
    outer loop
      vertex 17.6473 -31.5911 0
      vertex 18.0366 -31.3582 1
      vertex 18.0366 -31.3582 0
    endloop
  endfacet
  facet normal -0.246048 0.390859 0
    outer loop
      vertex 18.0366 -31.3582 0
      vertex 18.0366 -31.3582 1
      vertex 18.4275 -31.1122 1
    endloop
  endfacet
  facet normal -0.246048 0.390859 0
    outer loop
      vertex 18.0366 -31.3582 0
      vertex 18.4275 -31.1122 1
      vertex 18.4275 -31.1122 0
    endloop
  endfacet
  facet normal -0.259034 0.392071 0
    outer loop
      vertex 18.4275 -31.1122 0
      vertex 18.4275 -31.1122 1
      vertex 18.8195 -30.8532 1
    endloop
  endfacet
  facet normal -0.259034 0.392071 0
    outer loop
      vertex 18.4275 -31.1122 0
      vertex 18.8195 -30.8532 1
      vertex 18.8195 -30.8532 0
    endloop
  endfacet
  facet normal -0.271834 0.39298 0
    outer loop
      vertex 18.8195 -30.8532 0
      vertex 18.8195 -30.8532 1
      vertex 19.2125 -30.5813 1
    endloop
  endfacet
  facet normal -0.271834 0.39298 0
    outer loop
      vertex 18.8195 -30.8532 0
      vertex 19.2125 -30.5813 1
      vertex 19.2125 -30.5813 0
    endloop
  endfacet
  facet normal -0.284448 0.393586 0
    outer loop
      vertex 19.2125 -30.5813 0
      vertex 19.2125 -30.5813 1
      vertex 19.6061 -30.2969 1
    endloop
  endfacet
  facet normal -0.284448 0.393586 0
    outer loop
      vertex 19.2125 -30.5813 0
      vertex 19.6061 -30.2969 1
      vertex 19.6061 -30.2969 0
    endloop
  endfacet
  facet normal -0.296878 0.393889 0
    outer loop
      vertex 19.6061 -30.2969 0
      vertex 19.6061 -30.2969 1
      vertex 20 -30 1
    endloop
  endfacet
  facet normal -0.296878 0.393889 0
    outer loop
      vertex 19.6061 -30.2969 0
      vertex 20 -30 1
      vertex 20 -30 0
    endloop
  endfacet
  facet normal -1.5207 0.743401 0
    outer loop
      vertex 20 -30 0
      vertex 20 -30 1
      vertex 20.7434 -28.4793 1
    endloop
  endfacet
  facet normal -1.5207 0.743401 0
    outer loop
      vertex 20 -30 0
      vertex 20.7434 -28.4793 1
      vertex 20.7434 -28.4793 0
    endloop
  endfacet
  facet normal -1.5021 0.730207 0
    outer loop
      vertex 20.7434 -28.4793 0
      vertex 20.7434 -28.4793 1
      vertex 21.4736 -26.9772 1
    endloop
  endfacet
  facet normal -1.5021 0.730207 0
    outer loop
      vertex 20.7434 -28.4793 0
      vertex 21.4736 -26.9772 1
      vertex 21.4736 -26.9772 0
    endloop
  endfacet
  facet normal -1.4835 0.717019 0
    outer loop
      vertex 21.4736 -26.9772 0
      vertex 21.4736 -26.9772 1
      vertex 22.1906 -25.4937 1
    endloop
  endfacet
  facet normal -1.4835 0.717019 0
    outer loop
      vertex 21.4736 -26.9772 0
      vertex 22.1906 -25.4937 1
      vertex 22.1906 -25.4937 0
    endloop
  endfacet
  facet normal -1.4649 0.703837 0
    outer loop
      vertex 22.1906 -25.4937 0
      vertex 22.1906 -25.4937 1
      vertex 22.8945 -24.0288 1
    endloop
  endfacet
  facet normal -1.4649 0.703837 0
    outer loop
      vertex 22.1906 -25.4937 0
      vertex 22.8945 -24.0288 1
      vertex 22.8945 -24.0288 0
    endloop
  endfacet
  facet normal -1.4463 0.690661 0
    outer loop
      vertex 22.8945 -24.0288 0
      vertex 22.8945 -24.0288 1
      vertex 23.5851 -22.5825 1
    endloop
  endfacet
  facet normal -1.4463 0.690661 0
    outer loop
      vertex 22.8945 -24.0288 0
      vertex 23.5851 -22.5825 1
      vertex 23.5851 -22.5825 0
    endloop
  endfacet
  facet normal -1.4277 0.677491 0
    outer loop
      vertex 23.5851 -22.5825 0
      vertex 23.5851 -22.5825 1
      vertex 24.2626 -21.1548 1
    endloop
  endfacet
  facet normal -1.4277 0.677491 0
    outer loop
      vertex 23.5851 -22.5825 0
      vertex 24.2626 -21.1548 1
      vertex 24.2626 -21.1548 0
    endloop
  endfacet
  facet normal -1.4091 0.664327 0
    outer loop
      vertex 24.2626 -21.1548 0
      vertex 24.2626 -21.1548 1
      vertex 24.9269 -19.7457 1
    endloop
  endfacet
  facet normal -1.4091 0.664327 0
    outer loop
      vertex 24.2626 -21.1548 0
      vertex 24.9269 -19.7457 1
      vertex 24.9269 -19.7457 0
    endloop
  endfacet
  facet normal -1.3905 0.651169 0
    outer loop
      vertex 24.9269 -19.7457 0
      vertex 24.9269 -19.7457 1
      vertex 25.5781 -18.3552 1
    endloop
  endfacet
  facet normal -1.3905 0.651169 0
    outer loop
      vertex 24.9269 -19.7457 0
      vertex 25.5781 -18.3552 1
      vertex 25.5781 -18.3552 0
    endloop
  endfacet
  facet normal -1.3719 0.638017 0
    outer loop
      vertex 25.5781 -18.3552 0
      vertex 25.5781 -18.3552 1
      vertex 26.2161 -16.9833 1
    endloop
  endfacet
  facet normal -1.3719 0.638017 0
    outer loop
      vertex 25.5781 -18.3552 0
      vertex 26.2161 -16.9833 1
      vertex 26.2161 -16.9833 0
    endloop
  endfacet
  facet normal -1.3533 0.624871 0
    outer loop
      vertex 26.2161 -16.9833 0
      vertex 26.2161 -16.9833 1
      vertex 26.841 -15.63 1
    endloop
  endfacet
  facet normal -1.3533 0.624871 0
    outer loop
      vertex 26.2161 -16.9833 0
      vertex 26.841 -15.63 1
      vertex 26.841 -15.63 0
    endloop
  endfacet
  facet normal -1.3347 0.611731 0
    outer loop
      vertex 26.841 -15.63 0
      vertex 26.841 -15.63 1
      vertex 27.4527 -14.2953 1
    endloop
  endfacet
  facet normal -1.3347 0.611731 0
    outer loop
      vertex 26.841 -15.63 0
      vertex 27.4527 -14.2953 1
      vertex 27.4527 -14.2953 0
    endloop
  endfacet
  facet normal -1.3161 0.598597 0
    outer loop
      vertex 27.4527 -14.2953 0
      vertex 27.4527 -14.2953 1
      vertex 28.0513 -12.9792 1
    endloop
  endfacet
  facet normal -1.3161 0.598597 0
    outer loop
      vertex 27.4527 -14.2953 0
      vertex 28.0513 -12.9792 1
      vertex 28.0513 -12.9792 0
    endloop
  endfacet
  facet normal -1.2975 0.585469 0
    outer loop
      vertex 28.0513 -12.9792 0
      vertex 28.0513 -12.9792 1
      vertex 28.6368 -11.6817 1
    endloop
  endfacet
  facet normal -1.2975 0.585469 0
    outer loop
      vertex 28.0513 -12.9792 0
      vertex 28.6368 -11.6817 1
      vertex 28.6368 -11.6817 0
    endloop
  endfacet
  facet normal -1.2789 0.572347 0
    outer loop
      vertex 28.6368 -11.6817 0
      vertex 28.6368 -11.6817 1
      vertex 29.2091 -10.4028 1
    endloop
  endfacet
  facet normal -1.2789 0.572347 0
    outer loop
      vertex 28.6368 -11.6817 0
      vertex 29.2091 -10.4028 1
      vertex 29.2091 -10.4028 0
    endloop
  endfacet
  facet normal -1.2603 0.559231 0
    outer loop
      vertex 29.2091 -10.4028 0
      vertex 29.2091 -10.4028 1
      vertex 29.7684 -9.1425 1
    endloop
  endfacet
  facet normal -1.2603 0.559231 0
    outer loop
      vertex 29.2091 -10.4028 0
      vertex 29.7684 -9.1425 1
      vertex 29.7684 -9.1425 0
    endloop
  endfacet
  facet normal -1.2417 0.546121 0
    outer loop
      vertex 29.7684 -9.1425 0
      vertex 29.7684 -9.1425 1
      vertex 30.3145 -7.9008 1
    endloop
  endfacet
  facet normal -1.2417 0.546121 0
    outer loop
      vertex 29.7684 -9.1425 0
      vertex 30.3145 -7.9008 1
      vertex 30.3145 -7.9008 0
    endloop
  endfacet
  facet normal -1.2231 0.533017 0
    outer loop
      vertex 30.3145 -7.9008 0
      vertex 30.3145 -7.9008 1
      vertex 30.8475 -6.6777 1
    endloop
  endfacet
  facet normal -1.2231 0.533017 0
    outer loop
      vertex 30.3145 -7.9008 0
      vertex 30.8475 -6.6777 1
      vertex 30.8475 -6.6777 0
    endloop
  endfacet
  facet normal -1.2045 0.519919 0
    outer loop
      vertex 30.8475 -6.6777 0
      vertex 30.8475 -6.6777 1
      vertex 31.3674 -5.4732 1
    endloop
  endfacet
  facet normal -1.2045 0.519919 0
    outer loop
      vertex 30.8475 -6.6777 0
      vertex 31.3674 -5.4732 1
      vertex 31.3674 -5.4732 0
    endloop
  endfacet
  facet normal -1.1859 0.506827 0
    outer loop
      vertex 31.3674 -5.4732 0
      vertex 31.3674 -5.4732 1
      vertex 31.8743 -4.2873 1
    endloop
  endfacet
  facet normal -1.1859 0.506827 0
    outer loop
      vertex 31.3674 -5.4732 0
      vertex 31.8743 -4.2873 1
      vertex 31.8743 -4.2873 0
    endloop
  endfacet
  facet normal -1.1673 0.493741 0
    outer loop
      vertex 31.8743 -4.2873 0
      vertex 31.8743 -4.2873 1
      vertex 32.368 -3.12 1
    endloop
  endfacet
  facet normal -1.1673 0.493741 0
    outer loop
      vertex 31.8743 -4.2873 0
      vertex 32.368 -3.12 1
      vertex 32.368 -3.12 0
    endloop
  endfacet
  facet normal -1.1487 0.480661 0
    outer loop
      vertex 32.368 -3.12 0
      vertex 32.368 -3.12 1
      vertex 32.8487 -1.9713 1
    endloop
  endfacet
  facet normal -1.1487 0.480661 0
    outer loop
      vertex 32.368 -3.12 0
      vertex 32.8487 -1.9713 1
      vertex 32.8487 -1.9713 0
    endloop
  endfacet
  facet normal -1.1301 0.467587 0
    outer loop
      vertex 32.8487 -1.9713 0
      vertex 32.8487 -1.9713 1
      vertex 33.3162 -0.8412 1
    endloop
  endfacet
  facet normal -1.1301 0.467587 0
    outer loop
      vertex 32.8487 -1.9713 0
      vertex 33.3162 -0.8412 1
      vertex 33.3162 -0.8412 0
    endloop
  endfacet
  facet normal -1.1115 0.454519 0
    outer loop
      vertex 33.3162 -0.8412 0
      vertex 33.3162 -0.8412 1
      vertex 33.7708 0.2703 1
    endloop
  endfacet
  facet normal -1.1115 0.454519 0
    outer loop
      vertex 33.3162 -0.8412 0
      vertex 33.7708 0.2703 1
      vertex 33.7708 0.2703 0
    endloop
  endfacet
  facet normal -1.0929 0.441457 0
    outer loop
      vertex 33.7708 0.2703 0
      vertex 33.7708 0.2703 1
      vertex 34.2122 1.3632 1
    endloop
  endfacet
  facet normal -1.0929 0.441457 0
    outer loop
      vertex 33.7708 0.2703 0
      vertex 34.2122 1.3632 1
      vertex 34.2122 1.3632 0
    endloop
  endfacet
  facet normal -1.0743 0.428401 0
    outer loop
      vertex 34.2122 1.3632 0
      vertex 34.2122 1.3632 1
      vertex 34.6406 2.4375 1
    endloop
  endfacet
  facet normal -1.0743 0.428401 0
    outer loop
      vertex 34.2122 1.3632 0
      vertex 34.6406 2.4375 1
      vertex 34.6406 2.4375 0
    endloop
  endfacet
  facet normal -1.0557 0.415351 0
    outer loop
      vertex 34.6406 2.4375 0
      vertex 34.6406 2.4375 1
      vertex 35.056 3.4932 1
    endloop
  endfacet
  facet normal -1.0557 0.415351 0
    outer loop
      vertex 34.6406 2.4375 0
      vertex 35.056 3.4932 1
      vertex 35.056 3.4932 0
    endloop
  endfacet
  facet normal -1.0371 0.402307 0
    outer loop
      vertex 35.056 3.4932 0
      vertex 35.056 3.4932 1
      vertex 35.4583 4.5303 1
    endloop
  endfacet
  facet normal -1.0371 0.402307 0
    outer loop
      vertex 35.056 3.4932 0
      vertex 35.4583 4.5303 1
      vertex 35.4583 4.5303 0
    endloop
  endfacet
  facet normal -1.0185 0.389269 0
    outer loop
      vertex 35.4583 4.5303 0
      vertex 35.4583 4.5303 1
      vertex 35.8476 5.5488 1
    endloop
  endfacet
  facet normal -1.0185 0.389269 0
    outer loop
      vertex 35.4583 4.5303 0
      vertex 35.8476 5.5488 1
      vertex 35.8476 5.5488 0
    endloop
  endfacet
  facet normal -0.9999 0.376237 0
    outer loop
      vertex 35.8476 5.5488 0
      vertex 35.8476 5.5488 1
      vertex 36.2238 6.5487 1
    endloop
  endfacet
  facet normal -0.9999 0.376237 0
    outer loop
      vertex 35.8476 5.5488 0
      vertex 36.2238 6.5487 1
      vertex 36.2238 6.5487 0
    endloop
  endfacet
  facet normal -0.9813 0.363211 0
    outer loop
      vertex 36.2238 6.5487 0
      vertex 36.2238 6.5487 1
      vertex 36.587 7.53 1
    endloop
  endfacet
  facet normal -0.9813 0.363211 0
    outer loop
      vertex 36.2238 6.5487 0
      vertex 36.587 7.53 1
      vertex 36.587 7.53 0
    endloop
  endfacet
  facet normal -0.9627 0.350191 0
    outer loop
      vertex 36.587 7.53 0
      vertex 36.587 7.53 1
      vertex 36.9372 8.4927 1
    endloop
  endfacet
  facet normal -0.9627 0.350191 0
    outer loop
      vertex 36.587 7.53 0
      vertex 36.9372 8.4927 1
      vertex 36.9372 8.4927 0
    endloop
  endfacet
  facet normal -0.9441 0.337177 0
    outer loop
      vertex 36.9372 8.4927 0
      vertex 36.9372 8.4927 1
      vertex 37.2744 9.4368 1
    endloop
  endfacet
  facet normal -0.9441 0.337177 0
    outer loop
      vertex 36.9372 8.4927 0
      vertex 37.2744 9.4368 1
      vertex 37.2744 9.4368 0
    endloop
  endfacet
  facet normal -0.9255 0.324169 0
    outer loop
      vertex 37.2744 9.4368 0
      vertex 37.2744 9.4368 1
      vertex 37.5985 10.3623 1
    endloop
  endfacet
  facet normal -0.9255 0.324169 0
    outer loop
      vertex 37.2744 9.4368 0
      vertex 37.5985 10.3623 1
      vertex 37.5985 10.3623 0
    endloop
  endfacet
  facet normal -0.9069 0.311167 0
    outer loop
      vertex 37.5985 10.3623 0
      vertex 37.5985 10.3623 1
      vertex 37.9097 11.2692 1
    endloop
  endfacet
  facet normal -0.9069 0.311167 0
    outer loop
      vertex 37.5985 10.3623 0
      vertex 37.9097 11.2692 1
      vertex 37.9097 11.2692 0
    endloop
  endfacet
  facet normal -0.8883 0.298171 0
    outer loop
      vertex 37.9097 11.2692 0
      vertex 37.9097 11.2692 1
      vertex 38.2079 12.1575 1
    endloop
  endfacet
  facet normal -0.8883 0.298171 0
    outer loop
      vertex 37.9097 11.2692 0
      vertex 38.2079 12.1575 1
      vertex 38.2079 12.1575 0
    endloop
  endfacet
  facet normal -0.8697 0.285181 0
    outer loop
      vertex 38.2079 12.1575 0
      vertex 38.2079 12.1575 1
      vertex 38.4931 13.0272 1
    endloop
  endfacet
  facet normal -0.8697 0.285181 0
    outer loop
      vertex 38.2079 12.1575 0
      vertex 38.4931 13.0272 1
      vertex 38.4931 13.0272 0
    endloop
  endfacet
  facet normal -0.8511 0.272197 0
    outer loop
      vertex 38.4931 13.0272 0
      vertex 38.4931 13.0272 1
      vertex 38.7653 13.8783 1
    endloop
  endfacet
  facet normal -0.8511 0.272197 0
    outer loop
      vertex 38.4931 13.0272 0
      vertex 38.7653 13.8783 1
      vertex 38.7653 13.8783 0
    endloop
  endfacet
  facet normal -0.8325 0.259219 0
    outer loop
      vertex 38.7653 13.8783 0
      vertex 38.7653 13.8783 1
      vertex 39.0245 14.7108 1
    endloop
  endfacet
  facet normal -0.8325 0.259219 0
    outer loop
      vertex 38.7653 13.8783 0
      vertex 39.0245 14.7108 1
      vertex 39.0245 14.7108 0
    endloop
  endfacet
  facet normal -0.8139 0.246247 0
    outer loop
      vertex 39.0245 14.7108 0
      vertex 39.0245 14.7108 1
      vertex 39.2707 15.5247 1
    endloop
  endfacet
  facet normal -0.8139 0.246247 0
    outer loop
      vertex 39.0245 14.7108 0
      vertex 39.2707 15.5247 1
      vertex 39.2707 15.5247 0
    endloop
  endfacet
  facet normal -0.7953 0.233281 0
    outer loop
      vertex 39.2707 15.5247 0
      vertex 39.2707 15.5247 1
      vertex 39.504 16.32 1
    endloop
  endfacet
  facet normal -0.7953 0.233281 0
    outer loop
      vertex 39.2707 15.5247 0
      vertex 39.504 16.32 1
      vertex 39.504 16.32 0
    endloop
  endfacet
  facet normal -0.7767 0.220321 0
    outer loop
      vertex 39.504 16.32 0
      vertex 39.504 16.32 1
      vertex 39.7243 17.0967 1
    endloop
  endfacet
  facet normal -0.7767 0.220321 0
    outer loop
      vertex 39.504 16.32 0
      vertex 39.7243 17.0967 1
      vertex 39.7243 17.0967 0
    endloop
  endfacet
  facet normal -0.7581 0.207367 0
    outer loop
      vertex 39.7243 17.0967 0
      vertex 39.7243 17.0967 1
      vertex 39.9317 17.8548 1
    endloop
  endfacet
  facet normal -0.7581 0.207367 0
    outer loop
      vertex 39.7243 17.0967 0
      vertex 39.9317 17.8548 1
      vertex 39.9317 17.8548 0
    endloop
  endfacet
  facet normal -0.7395 0.194419 0
    outer loop
      vertex 39.9317 17.8548 0
      vertex 39.9317 17.8548 1
      vertex 40.1261 18.5943 1
    endloop
  endfacet
  facet normal -0.7395 0.194419 0
    outer loop
      vertex 39.9317 17.8548 0
      vertex 40.1261 18.5943 1
      vertex 40.1261 18.5943 0
    endloop
  endfacet
  facet normal -0.7209 0.181477 0
    outer loop
      vertex 40.1261 18.5943 0
      vertex 40.1261 18.5943 1
      vertex 40.3076 19.3152 1
    endloop
  endfacet
  facet normal -0.7209 0.181477 0
    outer loop
      vertex 40.1261 18.5943 0
      vertex 40.3076 19.3152 1
      vertex 40.3076 19.3152 0
    endloop
  endfacet
  facet normal -0.7023 0.168541 0
    outer loop
      vertex 40.3076 19.3152 0
      vertex 40.3076 19.3152 1
      vertex 40.4761 20.0175 1
    endloop
  endfacet
  facet normal -0.7023 0.168541 0
    outer loop
      vertex 40.3076 19.3152 0
      vertex 40.4761 20.0175 1
      vertex 40.4761 20.0175 0
    endloop
  endfacet
  facet normal -0.6837 0.155611 0
    outer loop
      vertex 40.4761 20.0175 0
      vertex 40.4761 20.0175 1
      vertex 40.6317 20.7012 1
    endloop
  endfacet
  facet normal -0.6837 0.155611 0
    outer loop
      vertex 40.4761 20.0175 0
      vertex 40.6317 20.7012 1
      vertex 40.6317 20.7012 0
    endloop
  endfacet
  facet normal -0.6651 0.142687 0
    outer loop
      vertex 40.6317 20.7012 0
      vertex 40.6317 20.7012 1
      vertex 40.7744 21.3663 1
    endloop
  endfacet
  facet normal -0.6651 0.142687 0
    outer loop
      vertex 40.6317 20.7012 0
      vertex 40.7744 21.3663 1
      vertex 40.7744 21.3663 0
    endloop
  endfacet
  facet normal -0.6465 0.129769 0
    outer loop
      vertex 40.7744 21.3663 0
      vertex 40.7744 21.3663 1
      vertex 40.9042 22.0128 1
    endloop
  endfacet
  facet normal -0.6465 0.129769 0
    outer loop
      vertex 40.7744 21.3663 0
      vertex 40.9042 22.0128 1
      vertex 40.9042 22.0128 0
    endloop
  endfacet
  facet normal -0.6279 0.116857 0
    outer loop
      vertex 40.9042 22.0128 0
      vertex 40.9042 22.0128 1
      vertex 41.021 22.6407 1
    endloop
  endfacet
  facet normal -0.6279 0.116857 0
    outer loop
      vertex 40.9042 22.0128 0
      vertex 41.021 22.6407 1
      vertex 41.021 22.6407 0
    endloop
  endfacet
  facet normal -0.6093 0.103951 0
    outer loop
      vertex 41.021 22.6407 0
      vertex 41.021 22.6407 1
      vertex 41.125 23.25 1
    endloop
  endfacet
  facet normal -0.6093 0.103951 0
    outer loop
      vertex 41.021 22.6407 0
      vertex 41.125 23.25 1
      vertex 41.125 23.25 0
    endloop
  endfacet
  facet normal -0.5907 0.091051 0
    outer loop
      vertex 41.125 23.25 0
      vertex 41.125 23.25 1
      vertex 41.2161 23.8407 1
    endloop
  endfacet
  facet normal -0.5907 0.091051 0
    outer loop
      vertex 41.125 23.25 0
      vertex 41.2161 23.8407 1
      vertex 41.2161 23.8407 0
    endloop
  endfacet
  facet normal -0.5721 0.078157 0
    outer loop
      vertex 41.2161 23.8407 0
      vertex 41.2161 23.8407 1
      vertex 41.2942 24.4128 1
    endloop
  endfacet
  facet normal -0.5721 0.078157 0
    outer loop
      vertex 41.2161 23.8407 0
      vertex 41.2942 24.4128 1
      vertex 41.2942 24.4128 0
    endloop
  endfacet
  facet normal -0.5535 0.065269 0
    outer loop
      vertex 41.2942 24.4128 0
      vertex 41.2942 24.4128 1
      vertex 41.3595 24.9663 1
    endloop
  endfacet
  facet normal -0.5535 0.065269 0
    outer loop
      vertex 41.2942 24.4128 0
      vertex 41.3595 24.9663 1
      vertex 41.3595 24.9663 0
    endloop
  endfacet
  facet normal -0.5349 0.052387 0
    outer loop
      vertex 41.3595 24.9663 0
      vertex 41.3595 24.9663 1
      vertex 41.4119 25.5012 1
    endloop
  endfacet
  facet normal -0.5349 0.052387 0
    outer loop
      vertex 41.3595 24.9663 0
      vertex 41.4119 25.5012 1
      vertex 41.4119 25.5012 0
    endloop
  endfacet
  facet normal -0.5163 0.039511 0
    outer loop
      vertex 41.4119 25.5012 0
      vertex 41.4119 25.5012 1
      vertex 41.4514 26.0175 1
    endloop
  endfacet
  facet normal -0.5163 0.039511 0
    outer loop
      vertex 41.4119 25.5012 0
      vertex 41.4514 26.0175 1
      vertex 41.4514 26.0175 0
    endloop
  endfacet
  facet normal -0.4977 0.026641 0
    outer loop
      vertex 41.4514 26.0175 0
      vertex 41.4514 26.0175 1
      vertex 41.478 26.5152 1
    endloop
  endfacet
  facet normal -0.4977 0.026641 0
    outer loop
      vertex 41.4514 26.0175 0
      vertex 41.478 26.5152 1
      vertex 41.478 26.5152 0
    endloop
  endfacet
  facet normal -0.4791 0.013777 0
    outer loop
      vertex 41.478 26.5152 0
      vertex 41.478 26.5152 1
      vertex 41.4918 26.9943 1
    endloop
  endfacet
  facet normal -0.4791 0.013777 0
    outer loop
      vertex 41.478 26.5152 0
      vertex 41.4918 26.9943 1
      vertex 41.4918 26.9943 0
    endloop
  endfacet
  facet normal -0.4605 0.000919 0
    outer loop
      vertex 41.4918 26.9943 0
      vertex 41.4918 26.9943 1
      vertex 41.4927 27.4548 1
    endloop
  endfacet
  facet normal -0.4605 0.000919 0
    outer loop
      vertex 41.4918 26.9943 0
      vertex 41.4927 27.4548 1
      vertex 41.4927 27.4548 0
    endloop
  endfacet
  facet normal -0.4419 -0.011933 0
    outer loop
      vertex 41.4927 27.4548 0
      vertex 41.4927 27.4548 1
      vertex 41.4808 27.8967 1
    endloop
  endfacet
  facet normal -0.4419 -0.011933 0
    outer loop
      vertex 41.4927 27.4548 0
      vertex 41.4808 27.8967 1
      vertex 41.4808 27.8967 0
    endloop
  endfacet
  facet normal -0.4233 -0.024779 0
    outer loop
      vertex 41.4808 27.8967 0
      vertex 41.4808 27.8967 1
      vertex 41.456 28.32 1
    endloop
  endfacet
  facet normal -0.4233 -0.024779 0
    outer loop
      vertex 41.4808 27.8967 0
      vertex 41.456 28.32 1
      vertex 41.456 28.32 0
    endloop
  endfacet
  facet normal -0.4047 -0.037619 0
    outer loop
      vertex 41.456 28.32 0
      vertex 41.456 28.32 1
      vertex 41.4184 28.7247 1
    endloop
  endfacet
  facet normal -0.4047 -0.037619 0
    outer loop
      vertex 41.456 28.32 0
      vertex 41.4184 28.7247 1
      vertex 41.4184 28.7247 0
    endloop
  endfacet
  facet normal -0.3861 -0.050453 0
    outer loop
      vertex 41.4184 28.7247 0
      vertex 41.4184 28.7247 1
      vertex 41.3679 29.1108 1
    endloop
  endfacet
  facet normal -0.3861 -0.050453 0
    outer loop
      vertex 41.4184 28.7247 0
      vertex 41.3679 29.1108 1
      vertex 41.3679 29.1108 0
    endloop
  endfacet
  facet normal -0.3675 -0.063281 0
    outer loop
      vertex 41.3679 29.1108 0
      vertex 41.3679 29.1108 1
      vertex 41.3046 29.4783 1
    endloop
  endfacet
  facet normal -0.3675 -0.063281 0
    outer loop
      vertex 41.3679 29.1108 0
      vertex 41.3046 29.4783 1
      vertex 41.3046 29.4783 0
    endloop
  endfacet
  facet normal -0.3489 -0.076103 0
    outer loop
      vertex 41.3046 29.4783 0
      vertex 41.3046 29.4783 1
      vertex 41.2285 29.8272 1
    endloop
  endfacet
  facet normal -0.3489 -0.076103 0
    outer loop
      vertex 41.3046 29.4783 0
      vertex 41.2285 29.8272 1
      vertex 41.2285 29.8272 0
    endloop
  endfacet
  facet normal -0.3303 -0.088919 0
    outer loop
      vertex 41.2285 29.8272 0
      vertex 41.2285 29.8272 1
      vertex 41.1396 30.1575 1
    endloop
  endfacet
  facet normal -0.3303 -0.088919 0
    outer loop
      vertex 41.2285 29.8272 0
      vertex 41.1396 30.1575 1
      vertex 41.1396 30.1575 0
    endloop
  endfacet
  facet normal -0.3117 -0.101729 0
    outer loop
      vertex 41.1396 30.1575 0
      vertex 41.1396 30.1575 1
      vertex 41.0379 30.4692 1
    endloop
  endfacet
  facet normal -0.3117 -0.101729 0
    outer loop
      vertex 41.1396 30.1575 0
      vertex 41.0379 30.4692 1
      vertex 41.0379 30.4692 0
    endloop
  endfacet
  facet normal -0.2931 -0.114533 0
    outer loop
      vertex 41.0379 30.4692 0
      vertex 41.0379 30.4692 1
      vertex 40.9234 30.7623 1
    endloop
  endfacet
  facet normal -0.2931 -0.114533 0
    outer loop
      vertex 41.0379 30.4692 0
      vertex 40.9234 30.7623 1
      vertex 40.9234 30.7623 0
    endloop
  endfacet
  facet normal -0.2745 -0.127331 0
    outer loop
      vertex 40.9234 30.7623 0
      vertex 40.9234 30.7623 1
      vertex 40.796 31.0368 1
    endloop
  endfacet
  facet normal -0.2745 -0.127331 0
    outer loop
      vertex 40.9234 30.7623 0
      vertex 40.796 31.0368 1
      vertex 40.796 31.0368 0
    endloop
  endfacet
  facet normal -0.2559 -0.140123 0
    outer loop
      vertex 40.796 31.0368 0
      vertex 40.796 31.0368 1
      vertex 40.6559 31.2927 1
    endloop
  endfacet
  facet normal -0.2559 -0.140123 0
    outer loop
      vertex 40.796 31.0368 0
      vertex 40.6559 31.2927 1
      vertex 40.6559 31.2927 0
    endloop
  endfacet
  facet normal -0.2373 -0.152909 0
    outer loop
      vertex 40.6559 31.2927 0
      vertex 40.6559 31.2927 1
      vertex 40.503 31.53 1
    endloop
  endfacet
  facet normal -0.2373 -0.152909 0
    outer loop
      vertex 40.6559 31.2927 0
      vertex 40.503 31.53 1
      vertex 40.503 31.53 0
    endloop
  endfacet
  facet normal -0.2187 -0.165689 0
    outer loop
      vertex 40.503 31.53 0
      vertex 40.503 31.53 1
      vertex 40.3373 31.7487 1
    endloop
  endfacet
  facet normal -0.2187 -0.165689 0
    outer loop
      vertex 40.503 31.53 0
      vertex 40.3373 31.7487 1
      vertex 40.3373 31.7487 0
    endloop
  endfacet
  facet normal -0.2001 -0.178463 0
    outer loop
      vertex 40.3373 31.7487 0
      vertex 40.3373 31.7487 1
      vertex 40.1588 31.9488 1
    endloop
  endfacet
  facet normal -0.2001 -0.178463 0
    outer loop
      vertex 40.3373 31.7487 0
      vertex 40.1588 31.9488 1
      vertex 40.1588 31.9488 0
    endloop
  endfacet
  facet normal -0.1815 -0.191231 0
    outer loop
      vertex 40.1588 31.9488 0
      vertex 40.1588 31.9488 1
      vertex 39.9676 32.1303 1
    endloop
  endfacet
  facet normal -0.1815 -0.191231 0
    outer loop
      vertex 40.1588 31.9488 0
      vertex 39.9676 32.1303 1
      vertex 39.9676 32.1303 0
    endloop
  endfacet
  facet normal -0.1629 -0.203993 0
    outer loop
      vertex 39.9676 32.1303 0
      vertex 39.9676 32.1303 1
      vertex 39.7636 32.2932 1
    endloop
  endfacet
  facet normal -0.1629 -0.203993 0
    outer loop
      vertex 39.9676 32.1303 0
      vertex 39.7636 32.2932 1
      vertex 39.7636 32.2932 0
    endloop
  endfacet
  facet normal -0.1443 -0.216749 0
    outer loop
      vertex 39.7636 32.2932 0
      vertex 39.7636 32.2932 1
      vertex 39.5469 32.4375 1
    endloop
  endfacet
  facet normal -0.1443 -0.216749 0
    outer loop
      vertex 39.7636 32.2932 0
      vertex 39.5469 32.4375 1
      vertex 39.5469 32.4375 0
    endloop
  endfacet
  facet normal -0.1257 -0.229499 0
    outer loop
      vertex 39.5469 32.4375 0
      vertex 39.5469 32.4375 1
      vertex 39.3174 32.5632 1
    endloop
  endfacet
  facet normal -0.1257 -0.229499 0
    outer loop
      vertex 39.5469 32.4375 0
      vertex 39.3174 32.5632 1
      vertex 39.3174 32.5632 0
    endloop
  endfacet
  facet normal -0.1071 -0.242243 0
    outer loop
      vertex 39.3174 32.5632 0
      vertex 39.3174 32.5632 1
      vertex 39.0751 32.6703 1
    endloop
  endfacet
  facet normal -0.1071 -0.242243 0
    outer loop
      vertex 39.3174 32.5632 0
      vertex 39.0751 32.6703 1
      vertex 39.0751 32.6703 0
    endloop
  endfacet
  facet normal -0.0885 -0.254981 0
    outer loop
      vertex 39.0751 32.6703 0
      vertex 39.0751 32.6703 1
      vertex 38.8202 32.7588 1
    endloop
  endfacet
  facet normal -0.0885 -0.254981 0
    outer loop
      vertex 39.0751 32.6703 0
      vertex 38.8202 32.7588 1
      vertex 38.8202 32.7588 0
    endloop
  endfacet
  facet normal -0.0699 -0.267713 0
    outer loop
      vertex 38.8202 32.7588 0
      vertex 38.8202 32.7588 1
      vertex 38.5524 32.8287 1
    endloop
  endfacet
  facet normal -0.0699 -0.267713 0
    outer loop
      vertex 38.8202 32.7588 0
      vertex 38.5524 32.8287 1
      vertex 38.5524 32.8287 0
    endloop
  endfacet
  facet normal -0.0513 -0.280439 0
    outer loop
      vertex 38.5524 32.8287 0
      vertex 38.5524 32.8287 1
      vertex 38.272 32.88 1
    endloop
  endfacet
  facet normal -0.0513 -0.280439 0
    outer loop
      vertex 38.5524 32.8287 0
      vertex 38.272 32.88 1
      vertex 38.272 32.88 0
    endloop
  endfacet
  facet normal -0.0327 -0.293159 0
    outer loop
      vertex 38.272 32.88 0
      vertex 38.272 32.88 1
      vertex 37.9788 32.9127 1
    endloop
  endfacet
  facet normal -0.0327 -0.293159 0
    outer loop
      vertex 38.272 32.88 0
      vertex 37.9788 32.9127 1
      vertex 37.9788 32.9127 0
    endloop
  endfacet
  facet normal -0.0141 -0.305873 0
    outer loop
      vertex 37.9788 32.9127 0
      vertex 37.9788 32.9127 1
      vertex 37.673 32.9268 1
    endloop
  endfacet
  facet normal -0.0141 -0.305873 0
    outer loop
      vertex 37.9788 32.9127 0
      vertex 37.673 32.9268 1
      vertex 37.673 32.9268 0
    endloop
  endfacet
  facet normal 0.0045 -0.318581 0
    outer loop
      vertex 37.673 32.9268 0
      vertex 37.673 32.9268 1
      vertex 37.3544 32.9223 1
    endloop
  endfacet
  facet normal 0.0045 -0.318581 0
    outer loop
      vertex 37.673 32.9268 0
      vertex 37.3544 32.9223 1
      vertex 37.3544 32.9223 0
    endloop
  endfacet
  facet normal 0.0231 -0.331283 0
    outer loop
      vertex 37.3544 32.9223 0
      vertex 37.3544 32.9223 1
      vertex 37.0231 32.8992 1
    endloop
  endfacet
  facet normal 0.0231 -0.331283 0
    outer loop
      vertex 37.3544 32.9223 0
      vertex 37.0231 32.8992 1
      vertex 37.0231 32.8992 0
    endloop
  endfacet
  facet normal 0.0417 -0.343979 0
    outer loop
      vertex 37.0231 32.8992 0
      vertex 37.0231 32.8992 1
      vertex 36.6791 32.8575 1
    endloop
  endfacet
  facet normal 0.0417 -0.343979 0
    outer loop
      vertex 37.0231 32.8992 0
      vertex 36.6791 32.8575 1
      vertex 36.6791 32.8575 0
    endloop
  endfacet
  facet normal 0.0603 -0.356669 0
    outer loop
      vertex 36.6791 32.8575 0
      vertex 36.6791 32.8575 1
      vertex 36.3225 32.7972 1
    endloop
  endfacet
  facet normal 0.0603 -0.356669 0
    outer loop
      vertex 36.6791 32.8575 0
      vertex 36.3225 32.7972 1
      vertex 36.3225 32.7972 0
    endloop
  endfacet
  facet normal 0.0789 -0.369353 0
    outer loop
      vertex 36.3225 32.7972 0
      vertex 36.3225 32.7972 1
      vertex 35.9531 32.7183 1
    endloop
  endfacet
  facet normal 0.0789 -0.369353 0
    outer loop
      vertex 36.3225 32.7972 0
      vertex 35.9531 32.7183 1
      vertex 35.9531 32.7183 0
    endloop
  endfacet
  facet normal 0.0975 -0.382031 0
    outer loop
      vertex 35.9531 32.7183 0
      vertex 35.9531 32.7183 1
      vertex 35.5711 32.6208 1
    endloop
  endfacet
  facet normal 0.0975 -0.382031 0
    outer loop
      vertex 35.9531 32.7183 0
      vertex 35.5711 32.6208 1
      vertex 35.5711 32.6208 0
    endloop
  endfacet
  facet normal 0.1161 -0.394703 0
    outer loop
      vertex 35.5711 32.6208 0
      vertex 35.5711 32.6208 1
      vertex 35.1764 32.5047 1
    endloop
  endfacet
  facet normal 0.1161 -0.394703 0
    outer loop
      vertex 35.5711 32.6208 0
      vertex 35.1764 32.5047 1
      vertex 35.1764 32.5047 0
    endloop
  endfacet
  facet normal 0.1347 -0.407369 0
    outer loop
      vertex 35.1764 32.5047 0
      vertex 35.1764 32.5047 1
      vertex 34.769 32.37 1
    endloop
  endfacet
  facet normal 0.1347 -0.407369 0
    outer loop
      vertex 35.1764 32.5047 0
      vertex 34.769 32.37 1
      vertex 34.769 32.37 0
    endloop
  endfacet
  facet normal 0.1533 -0.420029 0
    outer loop
      vertex 34.769 32.37 0
      vertex 34.769 32.37 1
      vertex 34.349 32.2167 1
    endloop
  endfacet
  facet normal 0.1533 -0.420029 0
    outer loop
      vertex 34.769 32.37 0
      vertex 34.349 32.2167 1
      vertex 34.349 32.2167 0
    endloop
  endfacet
  facet normal 0.1719 -0.432683 0
    outer loop
      vertex 34.349 32.2167 0
      vertex 34.349 32.2167 1
      vertex 33.9163 32.0448 1
    endloop
  endfacet
  facet normal 0.1719 -0.432683 0
    outer loop
      vertex 34.349 32.2167 0
      vertex 33.9163 32.0448 1
      vertex 33.9163 32.0448 0
    endloop
  endfacet
  facet normal 0.1905 -0.445331 0
    outer loop
      vertex 33.9163 32.0448 0
      vertex 33.9163 32.0448 1
      vertex 33.471 31.8543 1
    endloop
  endfacet
  facet normal 0.1905 -0.445331 0
    outer loop
      vertex 33.9163 32.0448 0
      vertex 33.471 31.8543 1
      vertex 33.471 31.8543 0
    endloop
  endfacet
  facet normal 0.2091 -0.457973 0
    outer loop
      vertex 33.471 31.8543 0
      vertex 33.471 31.8543 1
      vertex 33.013 31.6452 1
    endloop
  endfacet
  facet normal 0.2091 -0.457973 0
    outer loop
      vertex 33.471 31.8543 0
      vertex 33.013 31.6452 1
      vertex 33.013 31.6452 0
    endloop
  endfacet
  facet normal 0.2277 -0.470609 0
    outer loop
      vertex 33.013 31.6452 0
      vertex 33.013 31.6452 1
      vertex 32.5424 31.4175 1
    endloop
  endfacet
  facet normal 0.2277 -0.470609 0
    outer loop
      vertex 33.013 31.6452 0
      vertex 32.5424 31.4175 1
      vertex 32.5424 31.4175 0
    endloop
  endfacet
  facet normal 0.2463 -0.483239 0
    outer loop
      vertex 32.5424 31.4175 0
      vertex 32.5424 31.4175 1
      vertex 32.0591 31.1712 1
    endloop
  endfacet
  facet normal 0.2463 -0.483239 0
    outer loop
      vertex 32.5424 31.4175 0
      vertex 32.0591 31.1712 1
      vertex 32.0591 31.1712 0
    endloop
  endfacet
  facet normal 0.2649 -0.495863 0
    outer loop
      vertex 32.0591 31.1712 0
      vertex 32.0591 31.1712 1
      vertex 31.5633 30.9063 1
    endloop
  endfacet
  facet normal 0.2649 -0.495863 0
    outer loop
      vertex 32.0591 31.1712 0
      vertex 31.5633 30.9063 1
      vertex 31.5633 30.9063 0
    endloop
  endfacet
  facet normal 0.2835 -0.508481 0
    outer loop
      vertex 31.5633 30.9063 0
      vertex 31.5633 30.9063 1
      vertex 31.0548 30.6228 1
    endloop
  endfacet
  facet normal 0.2835 -0.508481 0
    outer loop
      vertex 31.5633 30.9063 0
      vertex 31.0548 30.6228 1
      vertex 31.0548 30.6228 0
    endloop
  endfacet
  facet normal 0.3021 -0.521093 0
    outer loop
      vertex 31.0548 30.6228 0
      vertex 31.0548 30.6228 1
      vertex 30.5337 30.3207 1
    endloop
  endfacet
  facet normal 0.3021 -0.521093 0
    outer loop
      vertex 31.0548 30.6228 0
      vertex 30.5337 30.3207 1
      vertex 30.5337 30.3207 0
    endloop
  endfacet
  facet normal 0.3207 -0.533699 0
    outer loop
      vertex 30.5337 30.3207 0
      vertex 30.5337 30.3207 1
      vertex 30 30 1
    endloop
  endfacet
  facet normal 0.3207 -0.533699 0
    outer loop
      vertex 30.5337 30.3207 0
      vertex 30 30 1
      vertex 30 30 0
    endloop
  endfacet
endsolid fault
solid top
  facet normal 0 100 0
    outer loop
      vertex -50 50 0
      vertex -50 50 1
      vertex 50 50 1
    endloop
  endfacet
  facet normal 0 100 0
    outer loop
      vertex -50 50 0
      vertex 50 50 1
      vertex 50 50 0
    endloop
  endfacet
endsolid top
solid right
  facet normal 100 0 0
    outer loop
      vertex 50 50 0
      vertex 50 50 1
      vertex 50 -50 1
    endloop
  endfacet
  facet normal 100 0 0
    outer loop
      vertex 50 50 0
      vertex 50 -50 1
      vertex 50 -50 0
    endloop
  endfacet
endsolid right
solid bottom
  facet normal 0 -100 0
    outer loop
      vertex 50 -50 0
      vertex 50 -50 1
      vertex -50 -50 1
    endloop
  endfacet
  facet normal 0 -100 0
    outer loop
      vertex 50 -50 0
      vertex -50 -50 1
      vertex -50 -50 0
    endloop
  endfacet
endsolid bottom
solid left
  facet normal -100 0 0
    outer loop
      vertex -50 -50 0
      vertex -50 -50 1
      vertex -50 50 1
    endloop
  endfacet
  facet normal -100 0 0
    outer loop
      vertex -50 -50 0
      vertex -50 50 1
      vertex -50 50 0
    endloop
  endfacet
endsolid left
