solid fault
  facet normal 0.0397259 -0.020268 0
    outer loop
      vertex 8 -8 0
      vertex 8 -8 1
      vertex 7.97973 -8.03973 1
    endloop
  endfacet
  facet normal 0.0397259 -0.020268 0
    outer loop
      vertex 8 -8 0
      vertex 7.97973 -8.03973 1
      vertex 7.97973 -8.03973 0
    endloop
  endfacet
  facet normal 0.0583078 -0.000461713 0
    outer loop
      vertex 7.97973 -8.03973 0
      vertex 7.97973 -8.03973 1
      vertex 7.97927 -8.09803 1
    endloop
  endfacet
  facet normal 0.0583078 -0.000461713 0
    outer loop
      vertex 7.97973 -8.03973 0
      vertex 7.97927 -8.09803 1
      vertex 7.97927 -8.09803 0
    endloop
  endfacet
  facet normal 0.0764939 0.0189488 -0
    outer loop
      vertex 7.97927 -8.09803 0
      vertex 7.97927 -8.09803 1
      vertex 7.99822 -8.17453 1
    endloop
  endfacet
  facet normal 0.0764939 0.0189488 0
    outer loop
      vertex 7.97927 -8.09803 0
      vertex 7.99822 -8.17453 1
      vertex 7.99822 -8.17453 0
    endloop
  endfacet
  facet normal 0.0942843 0.0379636 -0
    outer loop
      vertex 7.99822 -8.17453 0
      vertex 7.99822 -8.17453 1
      vertex 8.03618 -8.26881 1
    endloop
  endfacet
  facet normal 0.0942843 0.0379636 0
    outer loop
      vertex 7.99822 -8.17453 0
      vertex 8.03618 -8.26881 1
      vertex 8.03618 -8.26881 0
    endloop
  endfacet
  facet normal 0.111679 0.0565826 -0
    outer loop
      vertex 8.03618 -8.26881 0
      vertex 8.03618 -8.26881 1
      vertex 8.09277 -8.38049 1
    endloop
  endfacet
  facet normal 0.111679 0.0565826 0
    outer loop
      vertex 8.03618 -8.26881 0
      vertex 8.09277 -8.38049 1
      vertex 8.09277 -8.38049 0
    endloop
  endfacet
  facet normal 0.128678 0.0748058 -0
    outer loop
      vertex 8.09277 -8.38049 0
      vertex 8.09277 -8.38049 1
      vertex 8.16757 -8.50917 1
    endloop
  endfacet
  facet normal 0.128678 0.0748058 0
    outer loop
      vertex 8.09277 -8.38049 0
      vertex 8.16757 -8.50917 1
      vertex 8.16757 -8.50917 0
    endloop
  endfacet
  facet normal 0.145281 0.0926333 -0
    outer loop
      vertex 8.16757 -8.50917 0
      vertex 8.16757 -8.50917 1
      vertex 8.2602 -8.65445 1
    endloop
  endfacet
  facet normal 0.145281 0.0926333 0
    outer loop
      vertex 8.16757 -8.50917 0
      vertex 8.2602 -8.65445 1
      vertex 8.2602 -8.65445 0
    endloop
  endfacet
  facet normal 0.161488 0.110065 -0
    outer loop
      vertex 8.2602 -8.65445 0
      vertex 8.2602 -8.65445 1
      vertex 8.37027 -8.81594 1
    endloop
  endfacet
  facet normal 0.161488 0.110065 0
    outer loop
      vertex 8.2602 -8.65445 0
      vertex 8.37027 -8.81594 1
      vertex 8.37027 -8.81594 0
    endloop
  endfacet
  facet normal 0.1773 0.127101 -0
    outer loop
      vertex 8.37027 -8.81594 0
      vertex 8.37027 -8.81594 1
      vertex 8.49737 -8.99324 1
    endloop
  endfacet
  facet normal 0.1773 0.127101 0
    outer loop
      vertex 8.37027 -8.81594 0
      vertex 8.49737 -8.99324 1
      vertex 8.49737 -8.99324 0
    endloop
  endfacet
  facet normal 0.192716 0.143741 -0
    outer loop
      vertex 8.49737 -8.99324 0
      vertex 8.49737 -8.99324 1
      vertex 8.64111 -9.18595 1
    endloop
  endfacet
  facet normal 0.192716 0.143741 0
    outer loop
      vertex 8.49737 -8.99324 0
      vertex 8.64111 -9.18595 1
      vertex 8.64111 -9.18595 0
    endloop
  endfacet
  facet normal 0.207736 0.159986 -0
    outer loop
      vertex 8.64111 -9.18595 0
      vertex 8.64111 -9.18595 1
      vertex 8.8011 -9.39369 1
    endloop
  endfacet
  facet normal 0.207736 0.159986 0
    outer loop
      vertex 8.64111 -9.18595 0
      vertex 8.8011 -9.39369 1
      vertex 8.8011 -9.39369 0
    endloop
  endfacet
  facet normal 0.22236 0.175834 -0
    outer loop
      vertex 8.8011 -9.39369 0
      vertex 8.8011 -9.39369 1
      vertex 8.97693 -9.61605 1
    endloop
  endfacet
  facet normal 0.22236 0.175834 0
    outer loop
      vertex 8.8011 -9.39369 0
      vertex 8.97693 -9.61605 1
      vertex 8.97693 -9.61605 0
    endloop
  endfacet
  facet normal 0.236589 0.191287 -0
    outer loop
      vertex 8.97693 -9.61605 0
      vertex 8.97693 -9.61605 1
      vertex 9.16822 -9.85264 1
    endloop
  endfacet
  facet normal 0.236589 0.191287 0
    outer loop
      vertex 8.97693 -9.61605 0
      vertex 9.16822 -9.85264 1
      vertex 9.16822 -9.85264 0
    endloop
  endfacet
  facet normal 0.250422 0.206345 -0
    outer loop
      vertex 9.16822 -9.85264 0
      vertex 9.16822 -9.85264 1
      vertex 9.37456 -10.1031 1
    endloop
  endfacet
  facet normal 0.250422 0.206345 0
    outer loop
      vertex 9.16822 -9.85264 0
      vertex 9.37456 -10.1031 1
      vertex 9.37456 -10.1031 0
    endloop
  endfacet
  facet normal 0.263859 0.221006 -0
    outer loop
      vertex 9.37456 -10.1031 0
      vertex 9.37456 -10.1031 1
      vertex 9.59557 -10.3669 1
    endloop
  endfacet
  facet normal 0.263859 0.221006 0
    outer loop
      vertex 9.37456 -10.1031 0
      vertex 9.59557 -10.3669 1
      vertex 9.59557 -10.3669 0
    endloop
  endfacet
  facet normal 0.2769 0.235272 -0
    outer loop
      vertex 9.59557 -10.3669 0
      vertex 9.59557 -10.3669 1
      vertex 9.83084 -10.6438 1
    endloop
  endfacet
  facet normal 0.2769 0.235272 0
    outer loop
      vertex 9.59557 -10.3669 0
      vertex 9.83084 -10.6438 1
      vertex 9.83084 -10.6438 0
    endloop
  endfacet
  facet normal 0.289546 0.249142 -0
    outer loop
      vertex 9.83084 -10.6438 0
      vertex 9.83084 -10.6438 1
      vertex 10.08 -10.9334 1
    endloop
  endfacet
  facet normal 0.289546 0.249142 0
    outer loop
      vertex 9.83084 -10.6438 0
      vertex 10.08 -10.9334 1
      vertex 10.08 -10.9334 0
    endloop
  endfacet
  facet normal 0.301796 0.262616 -0
    outer loop
      vertex 10.08 -10.9334 0
      vertex 10.08 -10.9334 1
      vertex 10.3426 -11.2352 1
    endloop
  endfacet
  facet normal 0.301796 0.262616 0
    outer loop
      vertex 10.08 -10.9334 0
      vertex 10.3426 -11.2352 1
      vertex 10.3426 -11.2352 0
    endloop
  endfacet
  facet normal 0.31365 0.275694 -0
    outer loop
      vertex 10.3426 -11.2352 0
      vertex 10.3426 -11.2352 1
      vertex 10.6183 -11.5488 1
    endloop
  endfacet
  facet normal 0.31365 0.275694 0
    outer loop
      vertex 10.3426 -11.2352 0
      vertex 10.6183 -11.5488 1
      vertex 10.6183 -11.5488 0
    endloop
  endfacet
  facet normal 0.325108 0.288377 -0
    outer loop
      vertex 10.6183 -11.5488 0
      vertex 10.6183 -11.5488 1
      vertex 10.9067 -11.8739 1
    endloop
  endfacet
  facet normal 0.325108 0.288377 0
    outer loop
      vertex 10.6183 -11.5488 0
      vertex 10.9067 -11.8739 1
      vertex 10.9067 -11.8739 0
    endloop
  endfacet
  facet normal 0.336171 0.300664 -0
    outer loop
      vertex 10.9067 -11.8739 0
      vertex 10.9067 -11.8739 1
      vertex 11.2073 -12.2101 1
    endloop
  endfacet
  facet normal 0.336171 0.300664 0
    outer loop
      vertex 10.9067 -11.8739 0
      vertex 11.2073 -12.2101 1
      vertex 11.2073 -12.2101 0
    endloop
  endfacet
  facet normal 0.346837 0.312555 -0
    outer loop
      vertex 11.2073 -12.2101 0
      vertex 11.2073 -12.2101 1
      vertex 11.5199 -12.5569 1
    endloop
  endfacet
  facet normal 0.346837 0.312555 0
    outer loop
      vertex 11.2073 -12.2101 0
      vertex 11.5199 -12.5569 1
      vertex 11.5199 -12.5569 0
    endloop
  endfacet
  facet normal 0.357108 0.324051 -0
    outer loop
      vertex 11.5199 -12.5569 0
      vertex 11.5199 -12.5569 1
      vertex 11.8439 -12.914 1
    endloop
  endfacet
  facet normal 0.357108 0.324051 0
    outer loop
      vertex 11.5199 -12.5569 0
      vertex 11.8439 -12.914 1
      vertex 11.8439 -12.914 0
    endloop
  endfacet
  facet normal 0.366984 0.33515 -0
    outer loop
      vertex 11.8439 -12.914 0
      vertex 11.8439 -12.914 1
      vertex 12.1791 -13.281 1
    endloop
  endfacet
  facet normal 0.366984 0.33515 0
    outer loop
      vertex 11.8439 -12.914 0
      vertex 12.1791 -13.281 1
      vertex 12.1791 -13.281 0
    endloop
  endfacet
  facet normal 0.376463 0.345854 -0
    outer loop
      vertex 12.1791 -13.281 0
      vertex 12.1791 -13.281 1
      vertex 12.5249 -13.6575 1
    endloop
  endfacet
  facet normal 0.376463 0.345854 0
    outer loop
      vertex 12.1791 -13.281 0
      vertex 12.5249 -13.6575 1
      vertex 12.5249 -13.6575 0
    endloop
  endfacet
  facet normal 0.385547 0.356162 -0
    outer loop
      vertex 12.5249 -13.6575 0
      vertex 12.5249 -13.6575 1
      vertex 12.8811 -14.043 1
    endloop
  endfacet
  facet normal 0.385547 0.356162 0
    outer loop
      vertex 12.5249 -13.6575 0
      vertex 12.8811 -14.043 1
      vertex 12.8811 -14.043 0
    endloop
  endfacet
  facet normal 0.394235 0.366075 -0
    outer loop
      vertex 12.8811 -14.043 0
      vertex 12.8811 -14.043 1
      vertex 13.2472 -14.4373 1
    endloop
  endfacet
  facet normal 0.394235 0.366075 0
    outer loop
      vertex 12.8811 -14.043 0
      vertex 13.2472 -14.4373 1
      vertex 13.2472 -14.4373 0
    endloop
  endfacet
  facet normal 0.402527 0.375591 -0
    outer loop
      vertex 13.2472 -14.4373 0
      vertex 13.2472 -14.4373 1
      vertex 13.6228 -14.8398 1
    endloop
  endfacet
  facet normal 0.402527 0.375591 0
    outer loop
      vertex 13.2472 -14.4373 0
      vertex 13.6228 -14.8398 1
      vertex 13.6228 -14.8398 0
    endloop
  endfacet
  facet normal 0.410424 0.384712 -0
    outer loop
      vertex 13.6228 -14.8398 0
      vertex 13.6228 -14.8398 1
      vertex 14.0075 -15.2502 1
    endloop
  endfacet
  facet normal 0.410424 0.384712 0
    outer loop
      vertex 13.6228 -14.8398 0
      vertex 14.0075 -15.2502 1
      vertex 14.0075 -15.2502 0
    endloop
  endfacet
  facet normal 0.417925 0.393437 -0
    outer loop
      vertex 14.0075 -15.2502 0
      vertex 14.0075 -15.2502 1
      vertex 14.4009 -15.6681 1
    endloop
  endfacet
  facet normal 0.417925 0.393437 0
    outer loop
      vertex 14.0075 -15.2502 0
      vertex 14.4009 -15.6681 1
      vertex 14.4009 -15.6681 0
    endloop
  endfacet
  facet normal 0.42503 0.401767 -0
    outer loop
      vertex 14.4009 -15.6681 0
      vertex 14.4009 -15.6681 1
      vertex 14.8027 -16.0932 1
    endloop
  endfacet
  facet normal 0.42503 0.401767 0
    outer loop
      vertex 14.4009 -15.6681 0
      vertex 14.8027 -16.0932 1
      vertex 14.8027 -16.0932 0
    endloop
  endfacet
  facet normal 0.431739 0.409701 -0
    outer loop
      vertex 14.8027 -16.0932 0
      vertex 14.8027 -16.0932 1
      vertex 15.2124 -16.5249 1
    endloop
  endfacet
  facet normal 0.431739 0.409701 0
    outer loop
      vertex 14.8027 -16.0932 0
      vertex 15.2124 -16.5249 1
      vertex 15.2124 -16.5249 0
    endloop
  endfacet
  facet normal 0.438053 0.417238 -0
    outer loop
      vertex 15.2124 -16.5249 0
      vertex 15.2124 -16.5249 1
      vertex 15.6296 -16.963 1
    endloop
  endfacet
  facet normal 0.438053 0.417238 0
    outer loop
      vertex 15.2124 -16.5249 0
      vertex 15.6296 -16.963 1
      vertex 15.6296 -16.963 0
    endloop
  endfacet
  facet normal 0.44397 0.424381 -0
    outer loop
      vertex 15.6296 -16.963 0
      vertex 15.6296 -16.963 1
      vertex 16.054 -17.4069 1
    endloop
  endfacet
  facet normal 0.44397 0.424381 0
    outer loop
      vertex 15.6296 -16.963 0
      vertex 16.054 -17.4069 1
      vertex 16.054 -17.4069 0
    endloop
  endfacet
  facet normal 0.449492 0.431127 -0
    outer loop
      vertex 16.054 -17.4069 0
      vertex 16.054 -17.4069 1
      vertex 16.4851 -17.8564 1
    endloop
  endfacet
  facet normal 0.449492 0.431127 0
    outer loop
      vertex 16.054 -17.4069 0
      vertex 16.4851 -17.8564 1
      vertex 16.4851 -17.8564 0
    endloop
  endfacet
  facet normal 0.454619 0.437478 -0
    outer loop
      vertex 16.4851 -17.8564 0
      vertex 16.4851 -17.8564 1
      vertex 16.9226 -18.311 1
    endloop
  endfacet
  facet normal 0.454619 0.437478 0
    outer loop
      vertex 16.4851 -17.8564 0
      vertex 16.9226 -18.311 1
      vertex 16.9226 -18.311 0
    endloop
  endfacet
  facet normal 0.459349 0.443432 -0
    outer loop
      vertex 16.9226 -18.311 0
      vertex 16.9226 -18.311 1
      vertex 17.366 -18.7704 1
    endloop
  endfacet
  facet normal 0.459349 0.443432 0
    outer loop
      vertex 16.9226 -18.311 0
      vertex 17.366 -18.7704 1
      vertex 17.366 -18.7704 0
    endloop
  endfacet
  facet normal 0.463684 0.448991 -0
    outer loop
      vertex 17.366 -18.7704 0
      vertex 17.366 -18.7704 1
      vertex 17.815 -19.2341 1
    endloop
  endfacet
  facet normal 0.463684 0.448991 0
    outer loop
      vertex 17.366 -18.7704 0
      vertex 17.815 -19.2341 1
      vertex 17.815 -19.2341 0
    endloop
  endfacet
  facet normal 0.467623 0.454155 -0
    outer loop
      vertex 17.815 -19.2341 0
      vertex 17.815 -19.2341 1
      vertex 18.2692 -19.7017 1
    endloop
  endfacet
  facet normal 0.467623 0.454155 0
    outer loop
      vertex 17.815 -19.2341 0
      vertex 18.2692 -19.7017 1
      vertex 18.2692 -19.7017 0
    endloop
  endfacet
  facet normal 0.471166 0.458922 -0
    outer loop
      vertex 18.2692 -19.7017 0
      vertex 18.2692 -19.7017 1
      vertex 18.7281 -20.1729 1
    endloop
  endfacet
  facet normal 0.471166 0.458922 0
    outer loop
      vertex 18.2692 -19.7017 0
      vertex 18.7281 -20.1729 1
      vertex 18.7281 -20.1729 0
    endloop
  endfacet
  facet normal 0.474314 0.463294 -0
    outer loop
      vertex 18.7281 -20.1729 0
      vertex 18.7281 -20.1729 1
      vertex 19.1914 -20.6472 1
    endloop
  endfacet
  facet normal 0.474314 0.463294 0
    outer loop
      vertex 18.7281 -20.1729 0
      vertex 19.1914 -20.6472 1
      vertex 19.1914 -20.6472 0
    endloop
  endfacet
  facet normal 0.477065 0.46727 -0
    outer loop
      vertex 19.1914 -20.6472 0
      vertex 19.1914 -20.6472 1
      vertex 19.6587 -21.1242 1
    endloop
  endfacet
  facet normal 0.477065 0.46727 0
    outer loop
      vertex 19.1914 -20.6472 0
      vertex 19.6587 -21.1242 1
      vertex 19.6587 -21.1242 0
    endloop
  endfacet
  facet normal 0.479421 0.470851 -0
    outer loop
      vertex 19.6587 -21.1242 0
      vertex 19.6587 -21.1242 1
      vertex 20.1295 -21.6037 1
    endloop
  endfacet
  facet normal 0.479421 0.470851 0
    outer loop
      vertex 19.6587 -21.1242 0
      vertex 20.1295 -21.6037 1
      vertex 20.1295 -21.6037 0
    endloop
  endfacet
  facet normal 0.481382 0.474035 -0
    outer loop
      vertex 20.1295 -21.6037 0
      vertex 20.1295 -21.6037 1
      vertex 20.6036 -22.085 1
    endloop
  endfacet
  facet normal 0.481382 0.474035 0
    outer loop
      vertex 20.1295 -21.6037 0
      vertex 20.6036 -22.085 1
      vertex 20.6036 -22.085 0
    endloop
  endfacet
  facet normal 0.482946 0.476824 -0
    outer loop
      vertex 20.6036 -22.085 0
      vertex 20.6036 -22.085 1
      vertex 21.0804 -22.568 1
    endloop
  endfacet
  facet normal 0.482946 0.476824 0
    outer loop
      vertex 20.6036 -22.085 0
      vertex 21.0804 -22.568 1
      vertex 21.0804 -22.568 0
    endloop
  endfacet
  facet normal 0.484115 0.479217 -0
    outer loop
      vertex 21.0804 -22.568 0
      vertex 21.0804 -22.568 1
      vertex 21.5596 -23.0521 1
    endloop
  endfacet
  facet normal 0.484115 0.479217 0
    outer loop
      vertex 21.0804 -22.568 0
      vertex 21.5596 -23.0521 1
      vertex 21.5596 -23.0521 0
    endloop
  endfacet
  facet normal 0.484888 0.481215 -0
    outer loop
      vertex 21.5596 -23.0521 0
      vertex 21.5596 -23.0521 1
      vertex 22.0408 -23.537 1
    endloop
  endfacet
  facet normal 0.484888 0.481215 0
    outer loop
      vertex 21.5596 -23.0521 0
      vertex 22.0408 -23.537 1
      vertex 22.0408 -23.537 0
    endloop
  endfacet
  facet normal 0.485265 0.482816 -0
    outer loop
      vertex 22.0408 -23.537 0
      vertex 22.0408 -23.537 1
      vertex 22.5236 -24.0223 1
    endloop
  endfacet
  facet normal 0.485265 0.482816 0
    outer loop
      vertex 22.0408 -23.537 0
      vertex 22.5236 -24.0223 1
      vertex 22.5236 -24.0223 0
    endloop
  endfacet
  facet normal 0.485246 0.484022 -0
    outer loop
      vertex 22.5236 -24.0223 0
      vertex 22.5236 -24.0223 1
      vertex 23.0077 -24.5075 1
    endloop
  endfacet
  facet normal 0.485246 0.484022 0
    outer loop
      vertex 22.5236 -24.0223 0
      vertex 23.0077 -24.5075 1
      vertex 23.0077 -24.5075 0
    endloop
  endfacet
  facet normal 0.484832 0.484832 -0
    outer loop
      vertex 23.0077 -24.5075 0
      vertex 23.0077 -24.5075 1
      vertex 23.4925 -24.9923 1
    endloop
  endfacet
  facet normal 0.484832 0.484832 0
    outer loop
      vertex 23.0077 -24.5075 0
      vertex 23.4925 -24.9923 1
      vertex 23.4925 -24.9923 0
    endloop
  endfacet
  facet normal 0.484022 0.485246 -0
    outer loop
      vertex 23.4925 -24.9923 0
      vertex 23.4925 -24.9923 1
      vertex 23.9777 -25.4764 1
    endloop
  endfacet
  facet normal 0.484022 0.485246 0
    outer loop
      vertex 23.4925 -24.9923 0
      vertex 23.9777 -25.4764 1
      vertex 23.9777 -25.4764 0
    endloop
  endfacet
  facet normal 0.482816 0.485265 -0
    outer loop
      vertex 23.9777 -25.4764 0
      vertex 23.9777 -25.4764 1
      vertex 24.463 -25.9592 1
    endloop
  endfacet
  facet normal 0.482816 0.485265 0
    outer loop
      vertex 23.9777 -25.4764 0
      vertex 24.463 -25.9592 1
      vertex 24.463 -25.9592 0
    endloop
  endfacet
  facet normal 0.481215 0.484888 -0
    outer loop
      vertex 24.463 -25.9592 0
      vertex 24.463 -25.9592 1
      vertex 24.9479 -26.4404 1
    endloop
  endfacet
  facet normal 0.481215 0.484888 0
    outer loop
      vertex 24.463 -25.9592 0
      vertex 24.9479 -26.4404 1
      vertex 24.9479 -26.4404 0
    endloop
  endfacet
  facet normal 0.479217 0.484115 -0
    outer loop
      vertex 24.9479 -26.4404 0
      vertex 24.9479 -26.4404 1
      vertex 25.432 -26.9196 1
    endloop
  endfacet
  facet normal 0.479217 0.484115 0
    outer loop
      vertex 24.9479 -26.4404 0
      vertex 25.432 -26.9196 1
      vertex 25.432 -26.9196 0
    endloop
  endfacet
  facet normal 0.476824 0.482946 -0
    outer loop
      vertex 25.432 -26.9196 0
      vertex 25.432 -26.9196 1
      vertex 25.915 -27.3964 1
    endloop
  endfacet
  facet normal 0.476824 0.482946 0
    outer loop
      vertex 25.432 -26.9196 0
      vertex 25.915 -27.3964 1
      vertex 25.915 -27.3964 0
    endloop
  endfacet
  facet normal 0.474035 0.481382 -0
    outer loop
      vertex 25.915 -27.3964 0
      vertex 25.915 -27.3964 1
      vertex 26.3963 -27.8705 1
    endloop
  endfacet
  facet normal 0.474035 0.481382 0
    outer loop
      vertex 25.915 -27.3964 0
      vertex 26.3963 -27.8705 1
      vertex 26.3963 -27.8705 0
    endloop
  endfacet
  facet normal 0.470851 0.479421 -0
    outer loop
      vertex 26.3963 -27.8705 0
      vertex 26.3963 -27.8705 1
      vertex 26.8758 -28.3413 1
    endloop
  endfacet
  facet normal 0.470851 0.479421 0
    outer loop
      vertex 26.3963 -27.8705 0
      vertex 26.8758 -28.3413 1
      vertex 26.8758 -28.3413 0
    endloop
  endfacet
  facet normal 0.46727 0.477065 -0
    outer loop
      vertex 26.8758 -28.3413 0
      vertex 26.8758 -28.3413 1
      vertex 27.3528 -28.8086 1
    endloop
  endfacet
  facet normal 0.46727 0.477065 0
    outer loop
      vertex 26.8758 -28.3413 0
      vertex 27.3528 -28.8086 1
      vertex 27.3528 -28.8086 0
    endloop
  endfacet
  facet normal 0.463294 0.474314 -0
    outer loop
      vertex 27.3528 -28.8086 0
      vertex 27.3528 -28.8086 1
      vertex 27.8271 -29.2719 1
    endloop
  endfacet
  facet normal 0.463294 0.474314 0
    outer loop
      vertex 27.3528 -28.8086 0
      vertex 27.8271 -29.2719 1
      vertex 27.8271 -29.2719 0
    endloop
  endfacet
  facet normal 0.458922 0.471166 -0
    outer loop
      vertex 27.8271 -29.2719 0
      vertex 27.8271 -29.2719 1
      vertex 28.2983 -29.7308 1
    endloop
  endfacet
  facet normal 0.458922 0.471166 0
    outer loop
      vertex 27.8271 -29.2719 0
      vertex 28.2983 -29.7308 1
      vertex 28.2983 -29.7308 0
    endloop
  endfacet
  facet normal 0.454155 0.467623 -0
    outer loop
      vertex 28.2983 -29.7308 0
      vertex 28.2983 -29.7308 1
      vertex 28.7659 -30.185 1
    endloop
  endfacet
  facet normal 0.454155 0.467623 0
    outer loop
      vertex 28.2983 -29.7308 0
      vertex 28.7659 -30.185 1
      vertex 28.7659 -30.185 0
    endloop
  endfacet
  facet normal 0.448991 0.463684 -0
    outer loop
      vertex 28.7659 -30.185 0
      vertex 28.7659 -30.185 1
      vertex 29.2296 -30.634 1
    endloop
  endfacet
  facet normal 0.448991 0.463684 0
    outer loop
      vertex 28.7659 -30.185 0
      vertex 29.2296 -30.634 1
      vertex 29.2296 -30.634 0
    endloop
  endfacet
  facet normal 0.443432 0.459349 -0
    outer loop
      vertex 29.2296 -30.634 0
      vertex 29.2296 -30.634 1
      vertex 29.689 -31.0774 1
    endloop
  endfacet
  facet normal 0.443432 0.459349 0
    outer loop
      vertex 29.2296 -30.634 0
      vertex 29.689 -31.0774 1
      vertex 29.689 -31.0774 0
    endloop
  endfacet
  facet normal 0.437478 0.454619 -0
    outer loop
      vertex 29.689 -31.0774 0
      vertex 29.689 -31.0774 1
      vertex 30.1436 -31.5149 1
    endloop
  endfacet
  facet normal 0.437478 0.454619 0
    outer loop
      vertex 29.689 -31.0774 0
      vertex 30.1436 -31.5149 1
      vertex 30.1436 -31.5149 0
    endloop
  endfacet
  facet normal 0.431127 0.449492 -0
    outer loop
      vertex 30.1436 -31.5149 0
      vertex 30.1436 -31.5149 1
      vertex 30.5931 -31.946 1
    endloop
  endfacet
  facet normal 0.431127 0.449492 0
    outer loop
      vertex 30.1436 -31.5149 0
      vertex 30.5931 -31.946 1
      vertex 30.5931 -31.946 0
    endloop
  endfacet
  facet normal 0.424381 0.44397 -0
    outer loop
      vertex 30.5931 -31.946 0
      vertex 30.5931 -31.946 1
      vertex 31.037 -32.3704 1
    endloop
  endfacet
  facet normal 0.424381 0.44397 0
    outer loop
      vertex 30.5931 -31.946 0
      vertex 31.037 -32.3704 1
      vertex 31.037 -32.3704 0
    endloop
  endfacet
  facet normal 0.417238 0.438053 -0
    outer loop
      vertex 31.037 -32.3704 0
      vertex 31.037 -32.3704 1
      vertex 31.4751 -32.7876 1
    endloop
  endfacet
  facet normal 0.417238 0.438053 0
    outer loop
      vertex 31.037 -32.3704 0
      vertex 31.4751 -32.7876 1
      vertex 31.4751 -32.7876 0
    endloop
  endfacet
  facet normal 0.409701 0.431739 -0
    outer loop
      vertex 31.4751 -32.7876 0
      vertex 31.4751 -32.7876 1
      vertex 31.9068 -33.1973 1
    endloop
  endfacet
  facet normal 0.409701 0.431739 0
    outer loop
      vertex 31.4751 -32.7876 0
      vertex 31.9068 -33.1973 1
      vertex 31.9068 -33.1973 0
    endloop
  endfacet
  facet normal 0.401767 0.42503 -0
    outer loop
      vertex 31.9068 -33.1973 0
      vertex 31.9068 -33.1973 1
      vertex 32.3319 -33.5991 1
    endloop
  endfacet
  facet normal 0.401767 0.42503 0
    outer loop
      vertex 31.9068 -33.1973 0
      vertex 32.3319 -33.5991 1
      vertex 32.3319 -33.5991 0
    endloop
  endfacet
  facet normal 0.393437 0.417925 -0
    outer loop
      vertex 32.3319 -33.5991 0
      vertex 32.3319 -33.5991 1
      vertex 32.7498 -33.9925 1
    endloop
  endfacet
  facet normal 0.393437 0.417925 0
    outer loop
      vertex 32.3319 -33.5991 0
      vertex 32.7498 -33.9925 1
      vertex 32.7498 -33.9925 0
    endloop
  endfacet
  facet normal 0.384712 0.410424 -0
    outer loop
      vertex 32.7498 -33.9925 0
      vertex 32.7498 -33.9925 1
      vertex 33.1602 -34.3772 1
    endloop
  endfacet
  facet normal 0.384712 0.410424 0
    outer loop
      vertex 32.7498 -33.9925 0
      vertex 33.1602 -34.3772 1
      vertex 33.1602 -34.3772 0
    endloop
  endfacet
  facet normal 0.375591 0.402527 -0
    outer loop
      vertex 33.1602 -34.3772 0
      vertex 33.1602 -34.3772 1
      vertex 33.5627 -34.7528 1
    endloop
  endfacet
  facet normal 0.375591 0.402527 0
    outer loop
      vertex 33.1602 -34.3772 0
      vertex 33.5627 -34.7528 1
      vertex 33.5627 -34.7528 0
    endloop
  endfacet
  facet normal 0.366075 0.394235 -0
    outer loop
      vertex 33.5627 -34.7528 0
      vertex 33.5627 -34.7528 1
      vertex 33.957 -35.1189 1
    endloop
  endfacet
  facet normal 0.366075 0.394235 0
    outer loop
      vertex 33.5627 -34.7528 0
      vertex 33.957 -35.1189 1
      vertex 33.957 -35.1189 0
    endloop
  endfacet
  facet normal 0.356162 0.385547 -0
    outer loop
      vertex 33.957 -35.1189 0
      vertex 33.957 -35.1189 1
      vertex 34.3425 -35.4751 1
    endloop
  endfacet
  facet normal 0.356162 0.385547 0
    outer loop
      vertex 33.957 -35.1189 0
      vertex 34.3425 -35.4751 1
      vertex 34.3425 -35.4751 0
    endloop
  endfacet
  facet normal 0.345854 0.376463 -0
    outer loop
      vertex 34.3425 -35.4751 0
      vertex 34.3425 -35.4751 1
      vertex 34.719 -35.8209 1
    endloop
  endfacet
  facet normal 0.345854 0.376463 0
    outer loop
      vertex 34.3425 -35.4751 0
      vertex 34.719 -35.8209 1
      vertex 34.719 -35.8209 0
    endloop
  endfacet
  facet normal 0.33515 0.366984 -0
    outer loop
      vertex 34.719 -35.8209 0
      vertex 34.719 -35.8209 1
      vertex 35.086 -36.1561 1
    endloop
  endfacet
  facet normal 0.33515 0.366984 0
    outer loop
      vertex 34.719 -35.8209 0
      vertex 35.086 -36.1561 1
      vertex 35.086 -36.1561 0
    endloop
  endfacet
  facet normal 0.324051 0.357108 -0
    outer loop
      vertex 35.086 -36.1561 0
      vertex 35.086 -36.1561 1
      vertex 35.4431 -36.4801 1
    endloop
  endfacet
  facet normal 0.324051 0.357108 0
    outer loop
      vertex 35.086 -36.1561 0
      vertex 35.4431 -36.4801 1
      vertex 35.4431 -36.4801 0
    endloop
  endfacet
  facet normal 0.312555 0.346837 -0
    outer loop
      vertex 35.4431 -36.4801 0
      vertex 35.4431 -36.4801 1
      vertex 35.7899 -36.7927 1
    endloop
  endfacet
  facet normal 0.312555 0.346837 0
    outer loop
      vertex 35.4431 -36.4801 0
      vertex 35.7899 -36.7927 1
      vertex 35.7899 -36.7927 0
    endloop
  endfacet
  facet normal 0.300664 0.336171 -0
    outer loop
      vertex 35.7899 -36.7927 0
      vertex 35.7899 -36.7927 1
      vertex 36.1261 -37.0933 1
    endloop
  endfacet
  facet normal 0.300664 0.336171 0
    outer loop
      vertex 35.7899 -36.7927 0
      vertex 36.1261 -37.0933 1
      vertex 36.1261 -37.0933 0
    endloop
  endfacet
  facet normal 0.288377 0.325108 -0
    outer loop
      vertex 36.1261 -37.0933 0
      vertex 36.1261 -37.0933 1
      vertex 36.4512 -37.3817 1
    endloop
  endfacet
  facet normal 0.288377 0.325108 0
    outer loop
      vertex 36.1261 -37.0933 0
      vertex 36.4512 -37.3817 1
      vertex 36.4512 -37.3817 0
    endloop
  endfacet
  facet normal 0.275694 0.31365 -0
    outer loop
      vertex 36.4512 -37.3817 0
      vertex 36.4512 -37.3817 1
      vertex 36.7648 -37.6574 1
    endloop
  endfacet
  facet normal 0.275694 0.31365 0
    outer loop
      vertex 36.4512 -37.3817 0
      vertex 36.7648 -37.6574 1
      vertex 36.7648 -37.6574 0
    endloop
  endfacet
  facet normal 0.262616 0.301796 -0
    outer loop
      vertex 36.7648 -37.6574 0
      vertex 36.7648 -37.6574 1
      vertex 37.0666 -37.92 1
    endloop
  endfacet
  facet normal 0.262616 0.301796 0
    outer loop
      vertex 36.7648 -37.6574 0
      vertex 37.0666 -37.92 1
      vertex 37.0666 -37.92 0
    endloop
  endfacet
  facet normal 0.249142 0.289546 -0
    outer loop
      vertex 37.0666 -37.92 0
      vertex 37.0666 -37.92 1
      vertex 37.3562 -38.1692 1
    endloop
  endfacet
  facet normal 0.249142 0.289546 0
    outer loop
      vertex 37.0666 -37.92 0
      vertex 37.3562 -38.1692 1
      vertex 37.3562 -38.1692 0
    endloop
  endfacet
  facet normal 0.235272 0.2769 -0
    outer loop
      vertex 37.3562 -38.1692 0
      vertex 37.3562 -38.1692 1
      vertex 37.6331 -38.4044 1
    endloop
  endfacet
  facet normal 0.235272 0.2769 0
    outer loop
      vertex 37.3562 -38.1692 0
      vertex 37.6331 -38.4044 1
      vertex 37.6331 -38.4044 0
    endloop
  endfacet
  facet normal 0.221006 0.263859 -0
    outer loop
      vertex 37.6331 -38.4044 0
      vertex 37.6331 -38.4044 1
      vertex 37.8969 -38.6254 1
    endloop
  endfacet
  facet normal 0.221006 0.263859 0
    outer loop
      vertex 37.6331 -38.4044 0
      vertex 37.8969 -38.6254 1
      vertex 37.8969 -38.6254 0
    endloop
  endfacet
  facet normal 0.206345 0.250422 -0
    outer loop
      vertex 37.8969 -38.6254 0
      vertex 37.8969 -38.6254 1
      vertex 38.1474 -38.8318 1
    endloop
  endfacet
  facet normal 0.206345 0.250422 0
    outer loop
      vertex 37.8969 -38.6254 0
      vertex 38.1474 -38.8318 1
      vertex 38.1474 -38.8318 0
    endloop
  endfacet
  facet normal 0.191287 0.236589 -0
    outer loop
      vertex 38.1474 -38.8318 0
      vertex 38.1474 -38.8318 1
      vertex 38.3839 -39.0231 1
    endloop
  endfacet
  facet normal 0.191287 0.236589 0
    outer loop
      vertex 38.1474 -38.8318 0
      vertex 38.3839 -39.0231 1
      vertex 38.3839 -39.0231 0
    endloop
  endfacet
  facet normal 0.175834 0.22236 -0
    outer loop
      vertex 38.3839 -39.0231 0
      vertex 38.3839 -39.0231 1
      vertex 38.6063 -39.1989 1
    endloop
  endfacet
  facet normal 0.175834 0.22236 0
    outer loop
      vertex 38.3839 -39.0231 0
      vertex 38.6063 -39.1989 1
      vertex 38.6063 -39.1989 0
    endloop
  endfacet
  facet normal 0.159986 0.207736 -0
    outer loop
      vertex 38.6063 -39.1989 0
      vertex 38.6063 -39.1989 1
      vertex 38.814 -39.3589 1
    endloop
  endfacet
  facet normal 0.159986 0.207736 0
    outer loop
      vertex 38.6063 -39.1989 0
      vertex 38.814 -39.3589 1
      vertex 38.814 -39.3589 0
    endloop
  endfacet
  facet normal 0.143741 0.192716 -0
    outer loop
      vertex 38.814 -39.3589 0
      vertex 38.814 -39.3589 1
      vertex 39.0068 -39.5026 1
    endloop
  endfacet
  facet normal 0.143741 0.192716 0
    outer loop
      vertex 38.814 -39.3589 0
      vertex 39.0068 -39.5026 1
      vertex 39.0068 -39.5026 0
    endloop
  endfacet
  facet normal 0.127101 0.1773 -0
    outer loop
      vertex 39.0068 -39.5026 0
      vertex 39.0068 -39.5026 1
      vertex 39.1841 -39.6297 1
    endloop
  endfacet
  facet normal 0.127101 0.1773 0
    outer loop
      vertex 39.0068 -39.5026 0
      vertex 39.1841 -39.6297 1
      vertex 39.1841 -39.6297 0
    endloop
  endfacet
  facet normal 0.110065 0.161488 -0
    outer loop
      vertex 39.1841 -39.6297 0
      vertex 39.1841 -39.6297 1
      vertex 39.3456 -39.7398 1
    endloop
  endfacet
  facet normal 0.110065 0.161488 0
    outer loop
      vertex 39.1841 -39.6297 0
      vertex 39.3456 -39.7398 1
      vertex 39.3456 -39.7398 0
    endloop
  endfacet
  facet normal 0.0926333 0.145281 -0
    outer loop
      vertex 39.3456 -39.7398 0
      vertex 39.3456 -39.7398 1
      vertex 39.4908 -39.8324 1
    endloop
  endfacet
  facet normal 0.0926333 0.145281 0
    outer loop
      vertex 39.3456 -39.7398 0
      vertex 39.4908 -39.8324 1
      vertex 39.4908 -39.8324 0
    endloop
  endfacet
  facet normal 0.0748058 0.128678 -0
    outer loop
      vertex 39.4908 -39.8324 0
      vertex 39.4908 -39.8324 1
      vertex 39.6195 -39.9072 1
    endloop
  endfacet
  facet normal 0.0748058 0.128678 0
    outer loop
      vertex 39.4908 -39.8324 0
      vertex 39.6195 -39.9072 1
      vertex 39.6195 -39.9072 0
    endloop
  endfacet
  facet normal 0.0565826 0.111679 -0
    outer loop
      vertex 39.6195 -39.9072 0
      vertex 39.6195 -39.9072 1
      vertex 39.7312 -39.9638 1
    endloop
  endfacet
  facet normal 0.0565826 0.111679 0
    outer loop
      vertex 39.6195 -39.9072 0
      vertex 39.7312 -39.9638 1
      vertex 39.7312 -39.9638 0
    endloop
  endfacet
  facet normal 0.0379636 0.0942843 -0
    outer loop
      vertex 39.7312 -39.9638 0
      vertex 39.7312 -39.9638 1
      vertex 39.8255 -40.0018 1
    endloop
  endfacet
  facet normal 0.0379636 0.0942843 0
    outer loop
      vertex 39.7312 -39.9638 0
      vertex 39.8255 -40.0018 1
      vertex 39.8255 -40.0018 0
    endloop
  endfacet
  facet normal 0.0189488 0.0764939 -0
    outer loop
      vertex 39.8255 -40.0018 0
      vertex 39.8255 -40.0018 1
      vertex 39.902 -40.0207 1
    endloop
  endfacet
  facet normal 0.0189488 0.0764939 0
    outer loop
      vertex 39.8255 -40.0018 0
      vertex 39.902 -40.0207 1
      vertex 39.902 -40.0207 0
    endloop
  endfacet
  facet normal -0.000461713 0.0583078 0
    outer loop
      vertex 39.902 -40.0207 0
      vertex 39.902 -40.0207 1
      vertex 39.9603 -40.0203 1
    endloop
  endfacet
  facet normal -0.000461713 0.0583078 0
    outer loop
      vertex 39.902 -40.0207 0
      vertex 39.9603 -40.0203 1
      vertex 39.9603 -40.0203 0
    endloop
  endfacet
  facet normal -0.020268 0.0397259 0
    outer loop
      vertex 39.9603 -40.0203 0
      vertex 39.9603 -40.0203 1
      vertex 40 -40 1
    endloop
  endfacet
  facet normal -0.020268 0.0397259 0
    outer loop
      vertex 39.9603 -40.0203 0
      vertex 40 -40 1
      vertex 40 -40 0
    endloop
  endfacet
  facet normal -0.039236 0.020164 0
    outer loop
      vertex 40 -40 0
      vertex 40 -40 1
      vertex 40.0202 -39.9608 1
    endloop
  endfacet
  facet normal -0.039236 0.020164 0
    outer loop
      vertex 40 -40 0
      vertex 40.0202 -39.9608 1
      vertex 40.0202 -39.9608 0
    endloop
  endfacet
  facet normal -0.057452 0.000748 0
    outer loop
      vertex 40.0202 -39.9608 0
      vertex 40.0202 -39.9608 1
      vertex 40.0209 -39.9033 1
    endloop
  endfacet
  facet normal -0.057452 0.000748 0
    outer loop
      vertex 40.0202 -39.9608 0
      vertex 40.0209 -39.9033 1
      vertex 40.0209 -39.9033 0
    endloop
  endfacet
  facet normal -0.075284 -0.018284 0
    outer loop
      vertex 40.0209 -39.9033 0
      vertex 40.0209 -39.9033 1
      vertex 40.0026 -39.828 1
    endloop
  endfacet
  facet normal -0.075284 -0.018284 0
    outer loop
      vertex 40.0209 -39.9033 0
      vertex 40.0026 -39.828 1
      vertex 40.0026 -39.828 0
    endloop
  endfacet
  facet normal -0.092732 -0.036932 0
    outer loop
      vertex 40.0026 -39.828 0
      vertex 40.0026 -39.828 1
      vertex 39.9657 -39.7353 1
    endloop
  endfacet
  facet normal -0.092732 -0.036932 0
    outer loop
      vertex 40.0026 -39.828 0
      vertex 39.9657 -39.7353 1
      vertex 39.9657 -39.7353 0
    endloop
  endfacet
  facet normal -0.109796 -0.055196 0
    outer loop
      vertex 39.9657 -39.7353 0
      vertex 39.9657 -39.7353 1
      vertex 39.9105 -39.6255 1
    endloop
  endfacet
  facet normal -0.109796 -0.055196 0
    outer loop
      vertex 39.9657 -39.7353 0
      vertex 39.9105 -39.6255 1
      vertex 39.9105 -39.6255 0
    endloop
  endfacet
  facet normal -0.126476 -0.073076 0
    outer loop
      vertex 39.9105 -39.6255 0
      vertex 39.9105 -39.6255 1
      vertex 39.8374 -39.499 1
    endloop
  endfacet
  facet normal -0.126476 -0.073076 0
    outer loop
      vertex 39.9105 -39.6255 0
      vertex 39.8374 -39.499 1
      vertex 39.8374 -39.499 0
    endloop
  endfacet
  facet normal -0.142772 -0.090572 0
    outer loop
      vertex 39.8374 -39.499 0
      vertex 39.8374 -39.499 1
      vertex 39.7469 -39.3563 1
    endloop
  endfacet
  facet normal -0.142772 -0.090572 0
    outer loop
      vertex 39.8374 -39.499 0
      vertex 39.7469 -39.3563 1
      vertex 39.7469 -39.3563 0
    endloop
  endfacet
  facet normal -0.158684 -0.107684 0
    outer loop
      vertex 39.7469 -39.3563 0
      vertex 39.7469 -39.3563 1
      vertex 39.6392 -39.1976 1
    endloop
  endfacet
  facet normal -0.158684 -0.107684 0
    outer loop
      vertex 39.7469 -39.3563 0
      vertex 39.6392 -39.1976 1
      vertex 39.6392 -39.1976 0
    endloop
  endfacet
  facet normal -0.174212 -0.124412 0
    outer loop
      vertex 39.6392 -39.1976 0
      vertex 39.6392 -39.1976 1
      vertex 39.5148 -39.0234 1
    endloop
  endfacet
  facet normal -0.174212 -0.124412 0
    outer loop
      vertex 39.6392 -39.1976 0
      vertex 39.5148 -39.0234 1
      vertex 39.5148 -39.0234 0
    endloop
  endfacet
  facet normal -0.189356 -0.140756 0
    outer loop
      vertex 39.5148 -39.0234 0
      vertex 39.5148 -39.0234 1
      vertex 39.374 -38.834 1
    endloop
  endfacet
  facet normal -0.189356 -0.140756 0
    outer loop
      vertex 39.5148 -39.0234 0
      vertex 39.374 -38.834 1
      vertex 39.374 -38.834 0
    endloop
  endfacet
  facet normal -0.204116 -0.156716 0
    outer loop
      vertex 39.374 -38.834 0
      vertex 39.374 -38.834 1
      vertex 39.2173 -38.6299 1
    endloop
  endfacet
  facet normal -0.204116 -0.156716 0
    outer loop
      vertex 39.374 -38.834 0
      vertex 39.2173 -38.6299 1
      vertex 39.2173 -38.6299 0
    endloop
  endfacet
  facet normal -0.218492 -0.172292 0
    outer loop
      vertex 39.2173 -38.6299 0
      vertex 39.2173 -38.6299 1
      vertex 39.045 -38.4114 1
    endloop
  endfacet
  facet normal -0.218492 -0.172292 0
    outer loop
      vertex 39.2173 -38.6299 0
      vertex 39.045 -38.4114 1
      vertex 39.045 -38.4114 0
    endloop
  endfacet
  facet normal -0.232484 -0.187484 0
    outer loop
      vertex 39.045 -38.4114 0
      vertex 39.045 -38.4114 1
      vertex 38.8575 -38.1789 1
    endloop
  endfacet
  facet normal -0.232484 -0.187484 0
    outer loop
      vertex 39.045 -38.4114 0
      vertex 38.8575 -38.1789 1
      vertex 38.8575 -38.1789 0
    endloop
  endfacet
  facet normal -0.246092 -0.202292 0
    outer loop
      vertex 38.8575 -38.1789 0
      vertex 38.8575 -38.1789 1
      vertex 38.6552 -37.9328 1
    endloop
  endfacet
  facet normal -0.246092 -0.202292 0
    outer loop
      vertex 38.8575 -38.1789 0
      vertex 38.6552 -37.9328 1
      vertex 38.6552 -37.9328 0
    endloop
  endfacet
  facet normal -0.259316 -0.216716 0
    outer loop
      vertex 38.6552 -37.9328 0
      vertex 38.6552 -37.9328 1
      vertex 38.4385 -37.6735 1
    endloop
  endfacet
  facet normal -0.259316 -0.216716 0
    outer loop
      vertex 38.6552 -37.9328 0
      vertex 38.4385 -37.6735 1
      vertex 38.4385 -37.6735 0
    endloop
  endfacet
  facet normal -0.272156 -0.230756 0
    outer loop
      vertex 38.4385 -37.6735 0
      vertex 38.4385 -37.6735 1
      vertex 38.2077 -37.4013 1
    endloop
  endfacet
  facet normal -0.272156 -0.230756 0
    outer loop
      vertex 38.4385 -37.6735 0
      vertex 38.2077 -37.4013 1
      vertex 38.2077 -37.4013 0
    endloop
  endfacet
  facet normal -0.284612 -0.244412 0
    outer loop
      vertex 38.2077 -37.4013 0
      vertex 38.2077 -37.4013 1
      vertex 37.9633 -37.1167 1
    endloop
  endfacet
  facet normal -0.284612 -0.244412 0
    outer loop
      vertex 38.2077 -37.4013 0
      vertex 37.9633 -37.1167 1
      vertex 37.9633 -37.1167 0
    endloop
  endfacet
  facet normal -0.296684 -0.257684 0
    outer loop
      vertex 37.9633 -37.1167 0
      vertex 37.9633 -37.1167 1
      vertex 37.7056 -36.82 1
    endloop
  endfacet
  facet normal -0.296684 -0.257684 0
    outer loop
      vertex 37.9633 -37.1167 0
      vertex 37.7056 -36.82 1
      vertex 37.7056 -36.82 0
    endloop
  endfacet
  facet normal -0.308372 -0.270572 0
    outer loop
      vertex 37.7056 -36.82 0
      vertex 37.7056 -36.82 1
      vertex 37.4351 -36.5117 1
    endloop
  endfacet
  facet normal -0.308372 -0.270572 0
    outer loop
      vertex 37.7056 -36.82 0
      vertex 37.4351 -36.5117 1
      vertex 37.4351 -36.5117 0
    endloop
  endfacet
  facet normal -0.319676 -0.283076 0
    outer loop
      vertex 37.4351 -36.5117 0
      vertex 37.4351 -36.5117 1
      vertex 37.152 -36.192 1
    endloop
  endfacet
  facet normal -0.319676 -0.283076 0
    outer loop
      vertex 37.4351 -36.5117 0
      vertex 37.152 -36.192 1
      vertex 37.152 -36.192 0
    endloop
  endfacet
  facet normal -0.330596 -0.295196 0
    outer loop
      vertex 37.152 -36.192 0
      vertex 37.152 -36.192 1
      vertex 36.8568 -35.8614 1
    endloop
  endfacet
  facet normal -0.330596 -0.295196 0
    outer loop
      vertex 37.152 -36.192 0
      vertex 36.8568 -35.8614 1
      vertex 36.8568 -35.8614 0
    endloop
  endfacet
  facet normal -0.341132 -0.306932 0
    outer loop
      vertex 36.8568 -35.8614 0
      vertex 36.8568 -35.8614 1
      vertex 36.5499 -35.5203 1
    endloop
  endfacet
  facet normal -0.341132 -0.306932 0
    outer loop
      vertex 36.8568 -35.8614 0
      vertex 36.5499 -35.5203 1
      vertex 36.5499 -35.5203 0
    endloop
  endfacet
  facet normal -0.351284 -0.318284 0
    outer loop
      vertex 36.5499 -35.5203 0
      vertex 36.5499 -35.5203 1
      vertex 36.2316 -35.169 1
    endloop
  endfacet
  facet normal -0.351284 -0.318284 0
    outer loop
      vertex 36.5499 -35.5203 0
      vertex 36.2316 -35.169 1
      vertex 36.2316 -35.169 0
    endloop
  endfacet
  facet normal -0.361052 -0.329252 0
    outer loop
      vertex 36.2316 -35.169 0
      vertex 36.2316 -35.169 1
      vertex 35.9023 -34.8079 1
    endloop
  endfacet
  facet normal -0.361052 -0.329252 0
    outer loop
      vertex 36.2316 -35.169 0
      vertex 35.9023 -34.8079 1
      vertex 35.9023 -34.8079 0
    endloop
  endfacet
  facet normal -0.370436 -0.339836 0
    outer loop
      vertex 35.9023 -34.8079 0
      vertex 35.9023 -34.8079 1
      vertex 35.5625 -34.4375 1
    endloop
  endfacet
  facet normal -0.370436 -0.339836 0
    outer loop
      vertex 35.9023 -34.8079 0
      vertex 35.5625 -34.4375 1
      vertex 35.5625 -34.4375 0
    endloop
  endfacet
  facet normal -0.379436 -0.350036 0
    outer loop
      vertex 35.5625 -34.4375 0
      vertex 35.5625 -34.4375 1
      vertex 35.2125 -34.0581 1
    endloop
  endfacet
  facet normal -0.379436 -0.350036 0
    outer loop
      vertex 35.5625 -34.4375 0
      vertex 35.2125 -34.0581 1
      vertex 35.2125 -34.0581 0
    endloop
  endfacet
  facet normal -0.388052 -0.359852 0
    outer loop
      vertex 35.2125 -34.0581 0
      vertex 35.2125 -34.0581 1
      vertex 34.8526 -33.67 1
    endloop
  endfacet
  facet normal -0.388052 -0.359852 0
    outer loop
      vertex 35.2125 -34.0581 0
      vertex 34.8526 -33.67 1
      vertex 34.8526 -33.67 0
    endloop
  endfacet
  facet normal -0.396284 -0.369284 0
    outer loop
      vertex 34.8526 -33.67 0
      vertex 34.8526 -33.67 1
      vertex 34.4833 -33.2737 1
    endloop
  endfacet
  facet normal -0.396284 -0.369284 0
    outer loop
      vertex 34.8526 -33.67 0
      vertex 34.4833 -33.2737 1
      vertex 34.4833 -33.2737 0
    endloop
  endfacet
  facet normal -0.404132 -0.378332 0
    outer loop
      vertex 34.4833 -33.2737 0
      vertex 34.4833 -33.2737 1
      vertex 34.105 -32.8696 1
    endloop
  endfacet
  facet normal -0.404132 -0.378332 0
    outer loop
      vertex 34.4833 -33.2737 0
      vertex 34.105 -32.8696 1
      vertex 34.105 -32.8696 0
    endloop
  endfacet
  facet normal -0.411596 -0.386996 0
    outer loop
      vertex 34.105 -32.8696 0
      vertex 34.105 -32.8696 1
      vertex 33.718 -32.458 1
    endloop
  endfacet
  facet normal -0.411596 -0.386996 0
    outer loop
      vertex 34.105 -32.8696 0
      vertex 33.718 -32.458 1
      vertex 33.718 -32.458 0
    endloop
  endfacet
  facet normal -0.418676 -0.395276 0
    outer loop
      vertex 33.718 -32.458 0
      vertex 33.718 -32.458 1
      vertex 33.3227 -32.0393 1
    endloop
  endfacet
  facet normal -0.418676 -0.395276 0
    outer loop
      vertex 33.718 -32.458 0
      vertex 33.3227 -32.0393 1
      vertex 33.3227 -32.0393 0
    endloop
  endfacet
  facet normal -0.425372 -0.403172 0
    outer loop
      vertex 33.3227 -32.0393 0
      vertex 33.3227 -32.0393 1
      vertex 32.9196 -31.614 1
    endloop
  endfacet
  facet normal -0.425372 -0.403172 0
    outer loop
      vertex 33.3227 -32.0393 0
      vertex 32.9196 -31.614 1
      vertex 32.9196 -31.614 0
    endloop
  endfacet
  facet normal -0.431684 -0.410684 0
    outer loop
      vertex 32.9196 -31.614 0
      vertex 32.9196 -31.614 1
      vertex 32.5089 -31.1823 1
    endloop
  endfacet
  facet normal -0.431684 -0.410684 0
    outer loop
      vertex 32.9196 -31.614 0
      vertex 32.5089 -31.1823 1
      vertex 32.5089 -31.1823 0
    endloop
  endfacet
  facet normal -0.437612 -0.417812 0
    outer loop
      vertex 32.5089 -31.1823 0
      vertex 32.5089 -31.1823 1
      vertex 32.0911 -30.7447 1
    endloop
  endfacet
  facet normal -0.437612 -0.417812 0
    outer loop
      vertex 32.5089 -31.1823 0
      vertex 32.0911 -30.7447 1
      vertex 32.0911 -30.7447 0
    endloop
  endfacet
  facet normal -0.443156 -0.424556 0
    outer loop
      vertex 32.0911 -30.7447 0
      vertex 32.0911 -30.7447 1
      vertex 31.6665 -30.3015 1
    endloop
  endfacet
  facet normal -0.443156 -0.424556 0
    outer loop
      vertex 32.0911 -30.7447 0
      vertex 31.6665 -30.3015 1
      vertex 31.6665 -30.3015 0
    endloop
  endfacet
  facet normal -0.448316 -0.430916 0
    outer loop
      vertex 31.6665 -30.3015 0
      vertex 31.6665 -30.3015 1
      vertex 31.2356 -29.8532 1
    endloop
  endfacet
  facet normal -0.448316 -0.430916 0
    outer loop
      vertex 31.6665 -30.3015 0
      vertex 31.2356 -29.8532 1
      vertex 31.2356 -29.8532 0
    endloop
  endfacet
  facet normal -0.453092 -0.436892 0
    outer loop
      vertex 31.2356 -29.8532 0
      vertex 31.2356 -29.8532 1
      vertex 30.7987 -29.4001 1
    endloop
  endfacet
  facet normal -0.453092 -0.436892 0
    outer loop
      vertex 31.2356 -29.8532 0
      vertex 30.7987 -29.4001 1
      vertex 30.7987 -29.4001 0
    endloop
  endfacet
  facet normal -0.457484 -0.442484 0
    outer loop
      vertex 30.7987 -29.4001 0
      vertex 30.7987 -29.4001 1
      vertex 30.3562 -28.9426 1
    endloop
  endfacet
  facet normal -0.457484 -0.442484 0
    outer loop
      vertex 30.7987 -29.4001 0
      vertex 30.3562 -28.9426 1
      vertex 30.3562 -28.9426 0
    endloop
  endfacet
  facet normal -0.461492 -0.447692 0
    outer loop
      vertex 30.3562 -28.9426 0
      vertex 30.3562 -28.9426 1
      vertex 29.9085 -28.4811 1
    endloop
  endfacet
  facet normal -0.461492 -0.447692 0
    outer loop
      vertex 30.3562 -28.9426 0
      vertex 29.9085 -28.4811 1
      vertex 29.9085 -28.4811 0
    endloop
  endfacet
  facet normal -0.465116 -0.452516 0
    outer loop
      vertex 29.9085 -28.4811 0
      vertex 29.9085 -28.4811 1
      vertex 29.456 -28.016 1
    endloop
  endfacet
  facet normal -0.465116 -0.452516 0
    outer loop
      vertex 29.9085 -28.4811 0
      vertex 29.456 -28.016 1
      vertex 29.456 -28.016 0
    endloop
  endfacet
  facet normal -0.468356 -0.456956 0
    outer loop
      vertex 29.456 -28.016 0
      vertex 29.456 -28.016 1
      vertex 28.999 -27.5476 1
    endloop
  endfacet
  facet normal -0.468356 -0.456956 0
    outer loop
      vertex 29.456 -28.016 0
      vertex 28.999 -27.5476 1
      vertex 28.999 -27.5476 0
    endloop
  endfacet
  facet normal -0.471212 -0.461012 0
    outer loop
      vertex 28.999 -27.5476 0
      vertex 28.999 -27.5476 1
      vertex 28.538 -27.0764 1
    endloop
  endfacet
  facet normal -0.471212 -0.461012 0
    outer loop
      vertex 28.999 -27.5476 0
      vertex 28.538 -27.0764 1
      vertex 28.538 -27.0764 0
    endloop
  endfacet
  facet normal -0.473684 -0.464684 0
    outer loop
      vertex 28.538 -27.0764 0
      vertex 28.538 -27.0764 1
      vertex 28.0733 -26.6027 1
    endloop
  endfacet
  facet normal -0.473684 -0.464684 0
    outer loop
      vertex 28.538 -27.0764 0
      vertex 28.0733 -26.6027 1
      vertex 28.0733 -26.6027 0
    endloop
  endfacet
  facet normal -0.475772 -0.467972 0
    outer loop
      vertex 28.0733 -26.6027 0
      vertex 28.0733 -26.6027 1
      vertex 27.6054 -26.127 1
    endloop
  endfacet
  facet normal -0.475772 -0.467972 0
    outer loop
      vertex 28.0733 -26.6027 0
      vertex 27.6054 -26.127 1
      vertex 27.6054 -26.127 0
    endloop
  endfacet
  facet normal -0.477476 -0.470876 0
    outer loop
      vertex 27.6054 -26.127 0
      vertex 27.6054 -26.127 1
      vertex 27.1345 -25.6495 1
    endloop
  endfacet
  facet normal -0.477476 -0.470876 0
    outer loop
      vertex 27.6054 -26.127 0
      vertex 27.1345 -25.6495 1
      vertex 27.1345 -25.6495 0
    endloop
  endfacet
  facet normal -0.478796 -0.473396 0
    outer loop
      vertex 27.1345 -25.6495 0
      vertex 27.1345 -25.6495 1
      vertex 26.6611 -25.1707 1
    endloop
  endfacet
  facet normal -0.478796 -0.473396 0
    outer loop
      vertex 27.1345 -25.6495 0
      vertex 26.6611 -25.1707 1
      vertex 26.6611 -25.1707 0
    endloop
  endfacet
  facet normal -0.479732 -0.475532 0
    outer loop
      vertex 26.6611 -25.1707 0
      vertex 26.6611 -25.1707 1
      vertex 26.1856 -24.691 1
    endloop
  endfacet
  facet normal -0.479732 -0.475532 0
    outer loop
      vertex 26.6611 -25.1707 0
      vertex 26.1856 -24.691 1
      vertex 26.1856 -24.691 0
    endloop
  endfacet
  facet normal -0.480284 -0.477284 0
    outer loop
      vertex 26.1856 -24.691 0
      vertex 26.1856 -24.691 1
      vertex 25.7083 -24.2107 1
    endloop
  endfacet
  facet normal -0.480284 -0.477284 0
    outer loop
      vertex 26.1856 -24.691 0
      vertex 25.7083 -24.2107 1
      vertex 25.7083 -24.2107 0
    endloop
  endfacet
  facet normal -0.480452 -0.478652 0
    outer loop
      vertex 25.7083 -24.2107 0
      vertex 25.7083 -24.2107 1
      vertex 25.2296 -23.7302 1
    endloop
  endfacet
  facet normal -0.480452 -0.478652 0
    outer loop
      vertex 25.7083 -24.2107 0
      vertex 25.2296 -23.7302 1
      vertex 25.2296 -23.7302 0
    endloop
  endfacet
  facet normal -0.480236 -0.479636 0
    outer loop
      vertex 25.2296 -23.7302 0
      vertex 25.2296 -23.7302 1
      vertex 24.75 -23.25 1
    endloop
  endfacet
  facet normal -0.480236 -0.479636 0
    outer loop
      vertex 25.2296 -23.7302 0
      vertex 24.75 -23.25 1
      vertex 24.75 -23.25 0
    endloop
  endfacet
  facet normal -0.479636 -0.480236 0
    outer loop
      vertex 24.75 -23.25 0
      vertex 24.75 -23.25 1
      vertex 24.2698 -22.7704 1
    endloop
  endfacet
  facet normal -0.479636 -0.480236 0
    outer loop
      vertex 24.75 -23.25 0
      vertex 24.2698 -22.7704 1
      vertex 24.2698 -22.7704 0
    endloop
  endfacet
  facet normal -0.478652 -0.480452 0
    outer loop
      vertex 24.2698 -22.7704 0
      vertex 24.2698 -22.7704 1
      vertex 23.7893 -22.2917 1
    endloop
  endfacet
  facet normal -0.478652 -0.480452 0
    outer loop
      vertex 24.2698 -22.7704 0
      vertex 23.7893 -22.2917 1
      vertex 23.7893 -22.2917 0
    endloop
  endfacet
  facet normal -0.477284 -0.480284 0
    outer loop
      vertex 23.7893 -22.2917 0
      vertex 23.7893 -22.2917 1
      vertex 23.309 -21.8144 1
    endloop
  endfacet
  facet normal -0.477284 -0.480284 0
    outer loop
      vertex 23.7893 -22.2917 0
      vertex 23.309 -21.8144 1
      vertex 23.309 -21.8144 0
    endloop
  endfacet
  facet normal -0.475532 -0.479732 0
    outer loop
      vertex 23.309 -21.8144 0
      vertex 23.309 -21.8144 1
      vertex 22.8293 -21.3389 1
    endloop
  endfacet
  facet normal -0.475532 -0.479732 0
    outer loop
      vertex 23.309 -21.8144 0
      vertex 22.8293 -21.3389 1
      vertex 22.8293 -21.3389 0
    endloop
  endfacet
  facet normal -0.473396 -0.478796 0
    outer loop
      vertex 22.8293 -21.3389 0
      vertex 22.8293 -21.3389 1
      vertex 22.3505 -20.8655 1
    endloop
  endfacet
  facet normal -0.473396 -0.478796 0
    outer loop
      vertex 22.8293 -21.3389 0
      vertex 22.3505 -20.8655 1
      vertex 22.3505 -20.8655 0
    endloop
  endfacet
  facet normal -0.470876 -0.477476 0
    outer loop
      vertex 22.3505 -20.8655 0
      vertex 22.3505 -20.8655 1
      vertex 21.873 -20.3946 1
    endloop
  endfacet
  facet normal -0.470876 -0.477476 0
    outer loop
      vertex 22.3505 -20.8655 0
      vertex 21.873 -20.3946 1
      vertex 21.873 -20.3946 0
    endloop
  endfacet
  facet normal -0.467972 -0.475772 0
    outer loop
      vertex 21.873 -20.3946 0
      vertex 21.873 -20.3946 1
      vertex 21.3973 -19.9267 1
    endloop
  endfacet
  facet normal -0.467972 -0.475772 0
    outer loop
      vertex 21.873 -20.3946 0
      vertex 21.3973 -19.9267 1
      vertex 21.3973 -19.9267 0
    endloop
  endfacet
  facet normal -0.464684 -0.473684 0
    outer loop
      vertex 21.3973 -19.9267 0
      vertex 21.3973 -19.9267 1
      vertex 20.9236 -19.462 1
    endloop
  endfacet
  facet normal -0.464684 -0.473684 0
    outer loop
      vertex 21.3973 -19.9267 0
      vertex 20.9236 -19.462 1
      vertex 20.9236 -19.462 0
    endloop
  endfacet
  facet normal -0.461012 -0.471212 0
    outer loop
      vertex 20.9236 -19.462 0
      vertex 20.9236 -19.462 1
      vertex 20.4524 -19.001 1
    endloop
  endfacet
  facet normal -0.461012 -0.471212 0
    outer loop
      vertex 20.9236 -19.462 0
      vertex 20.4524 -19.001 1
      vertex 20.4524 -19.001 0
    endloop
  endfacet
  facet normal -0.456956 -0.468356 0
    outer loop
      vertex 20.4524 -19.001 0
      vertex 20.4524 -19.001 1
      vertex 19.984 -18.544 1
    endloop
  endfacet
  facet normal -0.456956 -0.468356 0
    outer loop
      vertex 20.4524 -19.001 0
      vertex 19.984 -18.544 1
      vertex 19.984 -18.544 0
    endloop
  endfacet
  facet normal -0.452516 -0.465116 0
    outer loop
      vertex 19.984 -18.544 0
      vertex 19.984 -18.544 1
      vertex 19.5189 -18.0915 1
    endloop
  endfacet
  facet normal -0.452516 -0.465116 0
    outer loop
      vertex 19.984 -18.544 0
      vertex 19.5189 -18.0915 1
      vertex 19.5189 -18.0915 0
    endloop
  endfacet
  facet normal -0.447692 -0.461492 0
    outer loop
      vertex 19.5189 -18.0915 0
      vertex 19.5189 -18.0915 1
      vertex 19.0574 -17.6438 1
    endloop
  endfacet
  facet normal -0.447692 -0.461492 0
    outer loop
      vertex 19.5189 -18.0915 0
      vertex 19.0574 -17.6438 1
      vertex 19.0574 -17.6438 0
    endloop
  endfacet
  facet normal -0.442484 -0.457484 0
    outer loop
      vertex 19.0574 -17.6438 0
      vertex 19.0574 -17.6438 1
      vertex 18.5999 -17.2013 1
    endloop
  endfacet
  facet normal -0.442484 -0.457484 0
    outer loop
      vertex 19.0574 -17.6438 0
      vertex 18.5999 -17.2013 1
      vertex 18.5999 -17.2013 0
    endloop
  endfacet
  facet normal -0.436892 -0.453092 0
    outer loop
      vertex 18.5999 -17.2013 0
      vertex 18.5999 -17.2013 1
      vertex 18.1468 -16.7644 1
    endloop
  endfacet
  facet normal -0.436892 -0.453092 0
    outer loop
      vertex 18.5999 -17.2013 0
      vertex 18.1468 -16.7644 1
      vertex 18.1468 -16.7644 0
    endloop
  endfacet
  facet normal -0.430916 -0.448316 0
    outer loop
      vertex 18.1468 -16.7644 0
      vertex 18.1468 -16.7644 1
      vertex 17.6985 -16.3335 1
    endloop
  endfacet
  facet normal -0.430916 -0.448316 0
    outer loop
      vertex 18.1468 -16.7644 0
      vertex 17.6985 -16.3335 1
      vertex 17.6985 -16.3335 0
    endloop
  endfacet
  facet normal -0.424556 -0.443156 0
    outer loop
      vertex 17.6985 -16.3335 0
      vertex 17.6985 -16.3335 1
      vertex 17.2553 -15.9089 1
    endloop
  endfacet
  facet normal -0.424556 -0.443156 0
    outer loop
      vertex 17.6985 -16.3335 0
      vertex 17.2553 -15.9089 1
      vertex 17.2553 -15.9089 0
    endloop
  endfacet
  facet normal -0.417812 -0.437612 0
    outer loop
      vertex 17.2553 -15.9089 0
      vertex 17.2553 -15.9089 1
      vertex 16.8177 -15.4911 1
    endloop
  endfacet
  facet normal -0.417812 -0.437612 0
    outer loop
      vertex 17.2553 -15.9089 0
      vertex 16.8177 -15.4911 1
      vertex 16.8177 -15.4911 0
    endloop
  endfacet
  facet normal -0.410684 -0.431684 0
    outer loop
      vertex 16.8177 -15.4911 0
      vertex 16.8177 -15.4911 1
      vertex 16.386 -15.0804 1
    endloop
  endfacet
  facet normal -0.410684 -0.431684 0
    outer loop
      vertex 16.8177 -15.4911 0
      vertex 16.386 -15.0804 1
      vertex 16.386 -15.0804 0
    endloop
  endfacet
  facet normal -0.403172 -0.425372 0
    outer loop
      vertex 16.386 -15.0804 0
      vertex 16.386 -15.0804 1
      vertex 15.9607 -14.6773 1
    endloop
  endfacet
  facet normal -0.403172 -0.425372 0
    outer loop
      vertex 16.386 -15.0804 0
      vertex 15.9607 -14.6773 1
      vertex 15.9607 -14.6773 0
    endloop
  endfacet
  facet normal -0.395276 -0.418676 0
    outer loop
      vertex 15.9607 -14.6773 0
      vertex 15.9607 -14.6773 1
      vertex 15.542 -14.282 1
    endloop
  endfacet
  facet normal -0.395276 -0.418676 0
    outer loop
      vertex 15.9607 -14.6773 0
      vertex 15.542 -14.282 1
      vertex 15.542 -14.282 0
    endloop
  endfacet
  facet normal -0.386996 -0.411596 0
    outer loop
      vertex 15.542 -14.282 0
      vertex 15.542 -14.282 1
      vertex 15.1304 -13.895 1
    endloop
  endfacet
  facet normal -0.386996 -0.411596 0
    outer loop
      vertex 15.542 -14.282 0
      vertex 15.1304 -13.895 1
      vertex 15.1304 -13.895 0
    endloop
  endfacet
  facet normal -0.378332 -0.404132 0
    outer loop
      vertex 15.1304 -13.895 0
      vertex 15.1304 -13.895 1
      vertex 14.7263 -13.5167 1
    endloop
  endfacet
  facet normal -0.378332 -0.404132 0
    outer loop
      vertex 15.1304 -13.895 0
      vertex 14.7263 -13.5167 1
      vertex 14.7263 -13.5167 0
    endloop
  endfacet
  facet normal -0.369284 -0.396284 0
    outer loop
      vertex 14.7263 -13.5167 0
      vertex 14.7263 -13.5167 1
      vertex 14.33 -13.1474 1
    endloop
  endfacet
  facet normal -0.369284 -0.396284 0
    outer loop
      vertex 14.7263 -13.5167 0
      vertex 14.33 -13.1474 1
      vertex 14.33 -13.1474 0
    endloop
  endfacet
  facet normal -0.359852 -0.388052 0
    outer loop
      vertex 14.33 -13.1474 0
      vertex 14.33 -13.1474 1
      vertex 13.9419 -12.7875 1
    endloop
  endfacet
  facet normal -0.359852 -0.388052 0
    outer loop
      vertex 14.33 -13.1474 0
      vertex 13.9419 -12.7875 1
      vertex 13.9419 -12.7875 0
    endloop
  endfacet
  facet normal -0.350036 -0.379436 0
    outer loop
      vertex 13.9419 -12.7875 0
      vertex 13.9419 -12.7875 1
      vertex 13.5625 -12.4375 1
    endloop
  endfacet
  facet normal -0.350036 -0.379436 0
    outer loop
      vertex 13.9419 -12.7875 0
      vertex 13.5625 -12.4375 1
      vertex 13.5625 -12.4375 0
    endloop
  endfacet
  facet normal -0.339836 -0.370436 0
    outer loop
      vertex 13.5625 -12.4375 0
      vertex 13.5625 -12.4375 1
      vertex 13.1921 -12.0977 1
    endloop
  endfacet
  facet normal -0.339836 -0.370436 0
    outer loop
      vertex 13.5625 -12.4375 0
      vertex 13.1921 -12.0977 1
      vertex 13.1921 -12.0977 0
    endloop
  endfacet
  facet normal -0.329252 -0.361052 0
    outer loop
      vertex 13.1921 -12.0977 0
      vertex 13.1921 -12.0977 1
      vertex 12.831 -11.7684 1
    endloop
  endfacet
  facet normal -0.329252 -0.361052 0
    outer loop
      vertex 13.1921 -12.0977 0
      vertex 12.831 -11.7684 1
      vertex 12.831 -11.7684 0
    endloop
  endfacet
  facet normal -0.318284 -0.351284 0
    outer loop
      vertex 12.831 -11.7684 0
      vertex 12.831 -11.7684 1
      vertex 12.4797 -11.4501 1
    endloop
  endfacet
  facet normal -0.318284 -0.351284 0
    outer loop
      vertex 12.831 -11.7684 0
      vertex 12.4797 -11.4501 1
      vertex 12.4797 -11.4501 0
    endloop
  endfacet
  facet normal -0.306932 -0.341132 0
    outer loop
      vertex 12.4797 -11.4501 0
      vertex 12.4797 -11.4501 1
      vertex 12.1386 -11.1432 1
    endloop
  endfacet
  facet normal -0.306932 -0.341132 0
    outer loop
      vertex 12.4797 -11.4501 0
      vertex 12.1386 -11.1432 1
      vertex 12.1386 -11.1432 0
    endloop
  endfacet
  facet normal -0.295196 -0.330596 0
    outer loop
      vertex 12.1386 -11.1432 0
      vertex 12.1386 -11.1432 1
      vertex 11.808 -10.848 1
    endloop
  endfacet
  facet normal -0.295196 -0.330596 0
    outer loop
      vertex 12.1386 -11.1432 0
      vertex 11.808 -10.848 1
      vertex 11.808 -10.848 0
    endloop
  endfacet
  facet normal -0.283076 -0.319676 0
    outer loop
      vertex 11.808 -10.848 0
      vertex 11.808 -10.848 1
      vertex 11.4883 -10.5649 1
    endloop
  endfacet
  facet normal -0.283076 -0.319676 0
    outer loop
      vertex 11.808 -10.848 0
      vertex 11.4883 -10.5649 1
      vertex 11.4883 -10.5649 0
    endloop
  endfacet
  facet normal -0.270572 -0.308372 0
    outer loop
      vertex 11.4883 -10.5649 0
      vertex 11.4883 -10.5649 1
      vertex 11.18 -10.2944 1
    endloop
  endfacet
  facet normal -0.270572 -0.308372 0
    outer loop
      vertex 11.4883 -10.5649 0
      vertex 11.18 -10.2944 1
      vertex 11.18 -10.2944 0
    endloop
  endfacet
  facet normal -0.257684 -0.296684 0
    outer loop
      vertex 11.18 -10.2944 0
      vertex 11.18 -10.2944 1
      vertex 10.8833 -10.0367 1
    endloop
  endfacet
  facet normal -0.257684 -0.296684 0
    outer loop
      vertex 11.18 -10.2944 0
      vertex 10.8833 -10.0367 1
      vertex 10.8833 -10.0367 0
    endloop
  endfacet
  facet normal -0.244412 -0.284612 0
    outer loop
      vertex 10.8833 -10.0367 0
      vertex 10.8833 -10.0367 1
      vertex 10.5987 -9.79226 1
    endloop
  endfacet
  facet normal -0.244412 -0.284612 0
    outer loop
      vertex 10.8833 -10.0367 0
      vertex 10.5987 -9.79226 1
      vertex 10.5987 -9.79226 0
    endloop
  endfacet
  facet normal -0.230756 -0.272156 0
    outer loop
      vertex 10.5987 -9.79226 0
      vertex 10.5987 -9.79226 1
      vertex 10.3265 -9.5615 1
    endloop
  endfacet
  facet normal -0.230756 -0.272156 0
    outer loop
      vertex 10.5987 -9.79226 0
      vertex 10.3265 -9.5615 1
      vertex 10.3265 -9.5615 0
    endloop
  endfacet
  facet normal -0.216716 -0.259316 0
    outer loop
      vertex 10.3265 -9.5615 0
      vertex 10.3265 -9.5615 1
      vertex 10.0672 -9.34478 1
    endloop
  endfacet
  facet normal -0.216716 -0.259316 0
    outer loop
      vertex 10.3265 -9.5615 0
      vertex 10.0672 -9.34478 1
      vertex 10.0672 -9.34478 0
    endloop
  endfacet
  facet normal -0.202292 -0.246092 0
    outer loop
      vertex 10.0672 -9.34478 0
      vertex 10.0672 -9.34478 1
      vertex 9.82109 -9.14249 1
    endloop
  endfacet
  facet normal -0.202292 -0.246092 0
    outer loop
      vertex 10.0672 -9.34478 0
      vertex 9.82109 -9.14249 1
      vertex 9.82109 -9.14249 0
    endloop
  endfacet
  facet normal -0.187484 -0.232484 0
    outer loop
      vertex 9.82109 -9.14249 0
      vertex 9.82109 -9.14249 1
      vertex 9.58861 -8.95501 1
    endloop
  endfacet
  facet normal -0.187484 -0.232484 0
    outer loop
      vertex 9.82109 -9.14249 0
      vertex 9.58861 -8.95501 1
      vertex 9.58861 -8.95501 0
    endloop
  endfacet
  facet normal -0.172292 -0.218492 0
    outer loop
      vertex 9.58861 -8.95501 0
      vertex 9.58861 -8.95501 1
      vertex 9.37012 -8.78272 1
    endloop
  endfacet
  facet normal -0.172292 -0.218492 0
    outer loop
      vertex 9.58861 -8.95501 0
      vertex 9.37012 -8.78272 1
      vertex 9.37012 -8.78272 0
    endloop
  endfacet
  facet normal -0.156716 -0.204116 0
    outer loop
      vertex 9.37012 -8.78272 0
      vertex 9.37012 -8.78272 1
      vertex 9.166 -8.626 1
    endloop
  endfacet
  facet normal -0.156716 -0.204116 0
    outer loop
      vertex 9.37012 -8.78272 0
      vertex 9.166 -8.626 1
      vertex 9.166 -8.626 0
    endloop
  endfacet
  facet normal -0.140756 -0.189356 0
    outer loop
      vertex 9.166 -8.626 0
      vertex 9.166 -8.626 1
      vertex 8.97664 -8.48524 1
    endloop
  endfacet
  facet normal -0.140756 -0.189356 0
    outer loop
      vertex 9.166 -8.626 0
      vertex 8.97664 -8.48524 1
      vertex 8.97664 -8.48524 0
    endloop
  endfacet
  facet normal -0.124412 -0.174212 0
    outer loop
      vertex 8.97664 -8.48524 0
      vertex 8.97664 -8.48524 1
      vertex 8.80243 -8.36083 1
    endloop
  endfacet
  facet normal -0.124412 -0.174212 0
    outer loop
      vertex 8.97664 -8.48524 0
      vertex 8.80243 -8.36083 1
      vertex 8.80243 -8.36083 0
    endloop
  endfacet
  facet normal -0.107684 -0.158684 0
    outer loop
      vertex 8.80243 -8.36083 0
      vertex 8.80243 -8.36083 1
      vertex 8.64375 -8.25315 1
    endloop
  endfacet
  facet normal -0.107684 -0.158684 0
    outer loop
      vertex 8.80243 -8.36083 0
      vertex 8.64375 -8.25315 1
      vertex 8.64375 -8.25315 0
    endloop
  endfacet
  facet normal -0.090572 -0.142772 0
    outer loop
      vertex 8.64375 -8.25315 0
      vertex 8.64375 -8.25315 1
      vertex 8.50098 -8.16258 1
    endloop
  endfacet
  facet normal -0.090572 -0.142772 0
    outer loop
      vertex 8.64375 -8.25315 0
      vertex 8.50098 -8.16258 1
      vertex 8.50098 -8.16258 0
    endloop
  endfacet
  facet normal -0.073076 -0.126476 0
    outer loop
      vertex 8.50098 -8.16258 0
      vertex 8.50098 -8.16258 1
      vertex 8.3745 -8.0895 1
    endloop
  endfacet
  facet normal -0.073076 -0.126476 0
    outer loop
      vertex 8.50098 -8.16258 0
      vertex 8.3745 -8.0895 1
      vertex 8.3745 -8.0895 0
    endloop
  endfacet
  facet normal -0.055196 -0.109796 0
    outer loop
      vertex 8.3745 -8.0895 0
      vertex 8.3745 -8.0895 1
      vertex 8.2647 -8.0343 1
    endloop
  endfacet
  facet normal -0.055196 -0.109796 0
    outer loop
      vertex 8.3745 -8.0895 0
      vertex 8.2647 -8.0343 1
      vertex 8.2647 -8.0343 0
    endloop
  endfacet
  facet normal -0.036932 -0.092732 0
    outer loop
      vertex 8.2647 -8.0343 0
      vertex 8.2647 -8.0343 1
      vertex 8.17197 -7.99737 1
    endloop
  endfacet
  facet normal -0.036932 -0.092732 0
    outer loop
      vertex 8.2647 -8.0343 0
      vertex 8.17197 -7.99737 1
      vertex 8.17197 -7.99737 0
    endloop
  endfacet
  facet normal -0.018284 -0.075284 0
    outer loop
      vertex 8.17197 -7.99737 0
      vertex 8.17197 -7.99737 1
      vertex 8.09669 -7.97909 1
    endloop
  endfacet
  facet normal -0.018284 -0.075284 0
    outer loop
      vertex 8.17197 -7.99737 0
      vertex 8.09669 -7.97909 1
      vertex 8.09669 -7.97909 0
    endloop
  endfacet
  facet normal 0.000748 -0.057452 0
    outer loop
      vertex 8.09669 -7.97909 0
      vertex 8.09669 -7.97909 1
      vertex 8.03924 -7.97984 1
    endloop
  endfacet
  facet normal 0.000748 -0.057452 0
    outer loop
      vertex 8.09669 -7.97909 0
      vertex 8.03924 -7.97984 1
      vertex 8.03924 -7.97984 0
    endloop
  endfacet
  facet normal 0.020164 -0.039236 0
    outer loop
      vertex 8.03924 -7.97984 0
      vertex 8.03924 -7.97984 1
      vertex 8 -8 1
    endloop
  endfacet
  facet normal 0.020164 -0.039236 0
    outer loop
      vertex 8.03924 -7.97984 0
      vertex 8 -8 1
      vertex 8 -8 0
    endloop
  endfacet
endsolid fault
