solid fault1
  facet normal 0 20 0
    outer loop
      vertex -20 20 0
      vertex -20 20 1
      vertex 0 20 1
    endloop
  endfacet
  facet normal 0 20 0
    outer loop
      vertex -20 20 0
      vertex 0 20 1
      vertex 0 20 0
    endloop
  endfacet
endsolid fault1
solid fault3
  facet normal 40 0 0
    outer loop
      vertex 0 20 0
      vertex 0 20 1
      vertex 0 -20 1
    endloop
  endfacet
  facet normal 40 0 0
    outer loop
      vertex 0 20 0
      vertex 0 -20 1
      vertex 0 -20 0
    endloop
  endfacet
endsolid fault3
solid fault2
  facet normal 0 -20 0
    outer loop
      vertex 0 -20 0
      vertex 0 -20 1
      vertex -20 -20 1
    endloop
  endfacet
  facet normal 0 -20 0
    outer loop
      vertex 0 -20 0
      vertex -20 -20 1
      vertex -20 -20 0
    endloop
  endfacet
endsolid fault2
solid fault4
  facet normal -40 0 0
    outer loop
      vertex -20 -20 0
      vertex -20 -20 1
      vertex -20 20 1
    endloop
  endfacet
  facet normal -40 0 0
    outer loop
      vertex -20 -20 0
      vertex -20 20 1
      vertex -20 20 0
    endloop
  endfacet
endsolid fault4
solid top
  facet normal 0 100 0
    outer loop
      vertex -50 50 0
      vertex -50 50 1
      vertex 50 50 1
    endloop
  endfacet
  facet normal 0 100 0
    outer loop
      vertex -50 50 0
      vertex 50 50 1
      vertex 50 50 0
    endloop
  endfacet
endsolid top
solid right
  facet normal 100 0 0
    outer loop
      vertex 50 50 0
      vertex 50 50 1
      vertex 50 -50 1
    endloop
  endfacet
  facet normal 100 0 0
    outer loop
      vertex 50 50 0
      vertex 50 -50 1
      vertex 50 -50 0
    endloop
  endfacet
endsolid right
solid bottom
  facet normal 0 -100 0
    outer loop
      vertex 50 -50 0
      vertex 50 -50 1
      vertex -50 -50 1
    endloop
  endfacet
  facet normal 0 -100 0
    outer loop
      vertex 50 -50 0
      vertex -50 -50 1
      vertex -50 -50 0
    endloop
  endfacet
endsolid bottom
solid left
  facet normal -100 0 0
    outer loop
      vertex -50 -50 0
      vertex -50 -50 1
      vertex -50 50 1
    endloop
  endfacet
  facet normal -100 0 0
    outer loop
      vertex -50 -50 0
      vertex -50 50 1
      vertex -50 50 0
    endloop
  endfacet
endsolid left
