solid fault
  facet normal 0.356935 -0.329957 0
    outer loop
      vertex 1 2 3
      vertex 1 2 4
      vertex 0.670043 1.64306 3.91001
    endloop
  endfacet
  facet normal 0.356935 -0.329957 0
    outer loop
      vertex 1 2 3
      vertex 0.670043 1.64306 3.91001
      vertex 0.670043 1.64306 2.91001
    endloop
  endfacet
  facet normal 0.343665 -0.323167 0
    outer loop
      vertex 0.670043 1.64306 2.91001
      vertex 0.670043 1.64306 3.91001
      vertex 0.346876 1.2994 3.82183
    endloop
  endfacet
  facet normal 0.343665 -0.323167 0
    outer loop
      vertex 0.670043 1.64306 2.91001
      vertex 0.346876 1.2994 3.82183
      vertex 0.346876 1.2994 2.82183
    endloop
  endfacet
  facet normal 0.330593 -0.316322 0
    outer loop
      vertex 0.346876 1.2994 2.82183
      vertex 0.346876 1.2994 3.82183
      vertex 0.0305535 0.968807 3.73545
    endloop
  endfacet
  facet normal 0.330593 -0.316322 0
    outer loop
      vertex 0.346876 1.2994 2.82183
      vertex 0.0305535 0.968807 3.73545
      vertex 0.0305535 0.968807 2.73545
    endloop
  endfacet
  facet normal 0.317719 -0.309421 0
    outer loop
      vertex 0.0305535 0.968807 2.73545
      vertex 0.0305535 0.968807 3.73545
      vertex -0.278868 0.651088 3.65086
    endloop
  endfacet
  facet normal 0.317719 -0.309421 0
    outer loop
      vertex 0.0305535 0.968807 2.73545
      vertex -0.278868 0.651088 3.65086
      vertex -0.278868 0.651088 2.65086
    endloop
  endfacet
  facet normal 0.305042 -0.302464 0
    outer loop
      vertex -0.278868 0.651088 2.65086
      vertex -0.278868 0.651088 3.65086
      vertex -0.581332 0.346046 3.56802
    endloop
  endfacet
  facet normal 0.305042 -0.302464 0
    outer loop
      vertex -0.278868 0.651088 2.65086
      vertex -0.581332 0.346046 3.56802
      vertex -0.581332 0.346046 2.56802
    endloop
  endfacet
  facet normal 0.292563 -0.295452 0
    outer loop
      vertex -0.581332 0.346046 2.56802
      vertex -0.581332 0.346046 3.56802
      vertex -0.876784 0.0534825 3.48694
    endloop
  endfacet
  facet normal 0.292563 -0.295452 0
    outer loop
      vertex -0.581332 0.346046 2.56802
      vertex -0.876784 0.0534825 3.48694
      vertex -0.876784 0.0534825 2.48694
    endloop
  endfacet
  facet normal 0.280283 -0.288384 0
    outer loop
      vertex -0.876784 0.0534825 2.48694
      vertex -0.876784 0.0534825 3.48694
      vertex -1.16517 -0.2268 3.40757
    endloop
  endfacet
  facet normal 0.280283 -0.288384 0
    outer loop
      vertex -0.876784 0.0534825 2.48694
      vertex -1.16517 -0.2268 3.40757
      vertex -1.16517 -0.2268 2.40757
    endloop
  endfacet
  facet normal 0.2682 -0.281261 0
    outer loop
      vertex -1.16517 -0.2268 2.40757
      vertex -1.16517 -0.2268 3.40757
      vertex -1.44643 -0.495 3.32991
    endloop
  endfacet
  facet normal 0.2682 -0.281261 0
    outer loop
      vertex -1.16517 -0.2268 2.40757
      vertex -1.44643 -0.495 3.32991
      vertex -1.44643 -0.495 2.32991
    endloop
  endfacet
  facet normal 0.256315 -0.274081 0
    outer loop
      vertex -1.44643 -0.495 2.32991
      vertex -1.44643 -0.495 3.32991
      vertex -1.72051 -0.751315 3.25394
    endloop
  endfacet
  facet normal 0.256315 -0.274081 0
    outer loop
      vertex -1.44643 -0.495 2.32991
      vertex -1.72051 -0.751315 3.25394
      vertex -1.72051 -0.751315 2.25394
    endloop
  endfacet
  facet normal 0.244628 -0.266847 0
    outer loop
      vertex -1.72051 -0.751315 2.25394
      vertex -1.72051 -0.751315 3.25394
      vertex -1.98736 -0.995942 3.17964
    endloop
  endfacet
  facet normal 0.244628 -0.266847 0
    outer loop
      vertex -1.72051 -0.751315 2.25394
      vertex -1.98736 -0.995942 3.17964
      vertex -1.98736 -0.995942 2.17964
    endloop
  endfacet
  facet normal 0.233138 -0.259556 0
    outer loop
      vertex -1.98736 -0.995942 2.17964
      vertex -1.98736 -0.995942 3.17964
      vertex -2.24691 -1.22908 3.107
    endloop
  endfacet
  facet normal 0.233138 -0.259556 0
    outer loop
      vertex -1.98736 -0.995942 2.17964
      vertex -2.24691 -1.22908 3.107
      vertex -2.24691 -1.22908 2.107
    endloop
  endfacet
  facet normal 0.221847 -0.25221 0
    outer loop
      vertex -2.24691 -1.22908 2.107
      vertex -2.24691 -1.22908 3.107
      vertex -2.49912 -1.45093 3.03598
    endloop
  endfacet
  facet normal 0.221847 -0.25221 0
    outer loop
      vertex -2.24691 -1.22908 2.107
      vertex -2.49912 -1.45093 3.03598
      vertex -2.49912 -1.45093 2.03598
    endloop
  endfacet
  facet normal 0.210754 -0.244808 0
    outer loop
      vertex -2.49912 -1.45093 2.03598
      vertex -2.49912 -1.45093 3.03598
      vertex -2.74393 -1.66168 2.96658
    endloop
  endfacet
  facet normal 0.210754 -0.244808 0
    outer loop
      vertex -2.49912 -1.45093 2.03598
      vertex -2.74393 -1.66168 2.96658
      vertex -2.74393 -1.66168 1.96658
    endloop
  endfacet
  facet normal 0.199858 -0.237351 0
    outer loop
      vertex -2.74393 -1.66168 1.96658
      vertex -2.74393 -1.66168 2.96658
      vertex -2.98128 -1.86154 2.89877
    endloop
  endfacet
  facet normal 0.199858 -0.237351 0
    outer loop
      vertex -2.74393 -1.66168 1.96658
      vertex -2.98128 -1.86154 2.89877
      vertex -2.98128 -1.86154 1.89877
    endloop
  endfacet
  facet normal 0.18916 -0.229837 0
    outer loop
      vertex -2.98128 -1.86154 1.89877
      vertex -2.98128 -1.86154 2.89877
      vertex -3.21112 -2.0507 2.83254
    endloop
  endfacet
  facet normal 0.18916 -0.229837 0
    outer loop
      vertex -2.98128 -1.86154 1.89877
      vertex -3.21112 -2.0507 2.83254
      vertex -3.21112 -2.0507 1.83254
    endloop
  endfacet
  facet normal 0.17866 -0.222269 0
    outer loop
      vertex -3.21112 -2.0507 1.83254
      vertex -3.21112 -2.0507 2.83254
      vertex -3.43339 -2.22936 2.76787
    endloop
  endfacet
  facet normal 0.17866 -0.222269 0
    outer loop
      vertex -3.21112 -2.0507 1.83254
      vertex -3.43339 -2.22936 2.76787
      vertex -3.43339 -2.22936 1.76787
    endloop
  endfacet
  facet normal 0.168358 -0.214644 0
    outer loop
      vertex -3.43339 -2.22936 1.76787
      vertex -3.43339 -2.22936 2.76787
      vertex -3.64803 -2.39772 2.70474
    endloop
  endfacet
  facet normal 0.168358 -0.214644 0
    outer loop
      vertex -3.43339 -2.22936 1.76787
      vertex -3.64803 -2.39772 2.70474
      vertex -3.64803 -2.39772 1.70474
    endloop
  endfacet
  facet normal 0.158254 -0.206964 0
    outer loop
      vertex -3.64803 -2.39772 1.70474
      vertex -3.64803 -2.39772 2.70474
      vertex -3.855 -2.55597 2.64313
    endloop
  endfacet
  facet normal 0.158254 -0.206964 0
    outer loop
      vertex -3.64803 -2.39772 1.70474
      vertex -3.855 -2.55597 2.64313
      vertex -3.855 -2.55597 1.64313
    endloop
  endfacet
  facet normal 0.148348 -0.199228 0
    outer loop
      vertex -3.855 -2.55597 1.64313
      vertex -3.855 -2.55597 2.64313
      vertex -4.05422 -2.70432 2.58302
    endloop
  endfacet
  facet normal 0.148348 -0.199228 0
    outer loop
      vertex -3.855 -2.55597 1.64313
      vertex -4.05422 -2.70432 2.58302
      vertex -4.05422 -2.70432 1.58302
    endloop
  endfacet
  facet normal 0.13864 -0.191437 0
    outer loop
      vertex -4.05422 -2.70432 1.58302
      vertex -4.05422 -2.70432 2.58302
      vertex -4.24566 -2.84296 2.52439
    endloop
  endfacet
  facet normal 0.13864 -0.191437 0
    outer loop
      vertex -4.05422 -2.70432 1.58302
      vertex -4.24566 -2.84296 2.52439
      vertex -4.24566 -2.84296 1.52439
    endloop
  endfacet
  facet normal 0.129129 -0.18359 0
    outer loop
      vertex -4.24566 -2.84296 1.52439
      vertex -4.24566 -2.84296 2.52439
      vertex -4.42925 -2.97209 2.46723
    endloop
  endfacet
  facet normal 0.129129 -0.18359 0
    outer loop
      vertex -4.24566 -2.84296 1.52439
      vertex -4.42925 -2.97209 2.46723
      vertex -4.42925 -2.97209 1.46723
    endloop
  endfacet
  facet normal 0.119817 -0.175687 0
    outer loop
      vertex -4.42925 -2.97209 1.46723
      vertex -4.42925 -2.97209 2.46723
      vertex -4.60494 -3.09191 2.41152
    endloop
  endfacet
  facet normal 0.119817 -0.175687 0
    outer loop
      vertex -4.42925 -2.97209 1.46723
      vertex -4.60494 -3.09191 2.41152
      vertex -4.60494 -3.09191 1.41152
    endloop
  endfacet
  facet normal 0.110702 -0.167729 0
    outer loop
      vertex -4.60494 -3.09191 1.41152
      vertex -4.60494 -3.09191 2.41152
      vertex -4.77267 -3.20261 2.35724
    endloop
  endfacet
  facet normal 0.110702 -0.167729 0
    outer loop
      vertex -4.60494 -3.09191 1.41152
      vertex -4.77267 -3.20261 2.35724
      vertex -4.77267 -3.20261 1.35724
    endloop
  endfacet
  facet normal 0.101785 -0.159715 0
    outer loop
      vertex -4.77267 -3.20261 1.35724
      vertex -4.77267 -3.20261 2.35724
      vertex -4.93238 -3.30439 2.30437
    endloop
  endfacet
  facet normal 0.101785 -0.159715 0
    outer loop
      vertex -4.77267 -3.20261 1.35724
      vertex -4.93238 -3.30439 2.30437
      vertex -4.93238 -3.30439 1.30437
    endloop
  endfacet
  facet normal 0.0930662 -0.151645 0
    outer loop
      vertex -4.93238 -3.30439 1.30437
      vertex -4.93238 -3.30439 2.30437
      vertex -5.08403 -3.39746 2.25288
    endloop
  endfacet
  facet normal 0.0930662 -0.151645 0
    outer loop
      vertex -4.93238 -3.30439 1.30437
      vertex -5.08403 -3.39746 2.25288
      vertex -5.08403 -3.39746 1.25288
    endloop
  endfacet
  facet normal 0.0845451 -0.14352 0
    outer loop
      vertex -5.08403 -3.39746 1.25288
      vertex -5.08403 -3.39746 2.25288
      vertex -5.22755 -3.48201 2.20277
    endloop
  endfacet
  facet normal 0.0845451 -0.14352 0
    outer loop
      vertex -5.08403 -3.39746 1.25288
      vertex -5.22755 -3.48201 2.20277
      vertex -5.22755 -3.48201 1.20277
    endloop
  endfacet
  facet normal 0.0762219 -0.135339 0
    outer loop
      vertex -5.22755 -3.48201 1.20277
      vertex -5.22755 -3.48201 2.20277
      vertex -5.36289 -3.55823 2.15402
    endloop
  endfacet
  facet normal 0.0762219 -0.135339 0
    outer loop
      vertex -5.22755 -3.48201 1.20277
      vertex -5.36289 -3.55823 2.15402
      vertex -5.36289 -3.55823 1.15402
    endloop
  endfacet
  facet normal 0.0680965 -0.127102 0
    outer loop
      vertex -5.36289 -3.55823 1.15402
      vertex -5.36289 -3.55823 2.15402
      vertex -5.48999 -3.62632 2.1066
    endloop
  endfacet
  facet normal 0.0680965 -0.127102 0
    outer loop
      vertex -5.36289 -3.55823 1.15402
      vertex -5.48999 -3.62632 2.1066
      vertex -5.48999 -3.62632 1.1066
    endloop
  endfacet
  facet normal 0.0601691 -0.11881 0
    outer loop
      vertex -5.48999 -3.62632 1.1066
      vertex -5.48999 -3.62632 2.1066
      vertex -5.6088 -3.68649 2.0605
    endloop
  endfacet
  facet normal 0.0601691 -0.11881 0
    outer loop
      vertex -5.48999 -3.62632 1.1066
      vertex -5.6088 -3.68649 2.0605
      vertex -5.6088 -3.68649 1.0605
    endloop
  endfacet
  facet normal 0.0524395 -0.110462 0
    outer loop
      vertex -5.6088 -3.68649 1.0605
      vertex -5.6088 -3.68649 2.0605
      vertex -5.71926 -3.73893 2.01569
    endloop
  endfacet
  facet normal 0.0524395 -0.110462 0
    outer loop
      vertex -5.6088 -3.68649 1.0605
      vertex -5.71926 -3.73893 2.01569
      vertex -5.71926 -3.73893 1.01569
    endloop
  endfacet
  facet normal 0.0449078 -0.102058 0
    outer loop
      vertex -5.71926 -3.73893 1.01569
      vertex -5.71926 -3.73893 2.01569
      vertex -5.82132 -3.78384 1.97217
    endloop
  endfacet
  facet normal 0.0449078 -0.102058 0
    outer loop
      vertex -5.71926 -3.73893 1.01569
      vertex -5.82132 -3.78384 1.97217
      vertex -5.82132 -3.78384 0.97217
    endloop
  endfacet
  facet normal 0.037574 -0.093599 0
    outer loop
      vertex -5.82132 -3.78384 0.97217
      vertex -5.82132 -3.78384 1.97217
      vertex -5.91492 -3.82141 1.92991
    endloop
  endfacet
  facet normal 0.037574 -0.093599 0
    outer loop
      vertex -5.82132 -3.78384 0.97217
      vertex -5.91492 -3.82141 1.92991
      vertex -5.91492 -3.82141 0.929908
    endloop
  endfacet
  facet normal 0.030438 -0.0850841 0
    outer loop
      vertex -5.91492 -3.82141 0.929908
      vertex -5.91492 -3.82141 1.92991
      vertex -6 -3.85185 1.88889
    endloop
  endfacet
  facet normal 0.030438 -0.0850841 0
    outer loop
      vertex -5.91492 -3.82141 0.929908
      vertex -6 -3.85185 1.88889
      vertex -6 -3.85185 0.888889
    endloop
  endfacet
  facet normal 0.0235 -0.0765135 0
    outer loop
      vertex -6 -3.85185 0.888889
      vertex -6 -3.85185 1.88889
      vertex -6.07651 -3.87535 1.84909
    endloop
  endfacet
  facet normal 0.0235 -0.0765135 0
    outer loop
      vertex -6 -3.85185 0.888889
      vertex -6.07651 -3.87535 1.84909
      vertex -6.07651 -3.87535 0.849094
    endloop
  endfacet
  facet normal 0.0167598 -0.0678873 0
    outer loop
      vertex -6.07651 -3.87535 0.849094
      vertex -6.07651 -3.87535 1.84909
      vertex -6.1444 -3.89211 1.8105
    endloop
  endfacet
  facet normal 0.0167598 -0.0678873 0
    outer loop
      vertex -6.07651 -3.87535 0.849094
      vertex -6.1444 -3.89211 1.8105
      vertex -6.1444 -3.89211 0.810505
    endloop
  endfacet
  facet normal 0.0102175 -0.0592055 0
    outer loop
      vertex -6.1444 -3.89211 0.810505
      vertex -6.1444 -3.89211 1.8105
      vertex -6.20361 -3.90233 1.7731
    endloop
  endfacet
  facet normal 0.0102175 -0.0592055 0
    outer loop
      vertex -6.1444 -3.89211 0.810505
      vertex -6.20361 -3.90233 1.7731
      vertex -6.20361 -3.90233 0.773103
    endloop
  endfacet
  facet normal 0.00387303 -0.0504679 0
    outer loop
      vertex -6.20361 -3.90233 0.773103
      vertex -6.20361 -3.90233 1.7731
      vertex -6.25407 -3.9062 1.73687
    endloop
  endfacet
  facet normal 0.00387303 -0.0504679 0
    outer loop
      vertex -6.20361 -3.90233 0.773103
      vertex -6.25407 -3.9062 1.73687
      vertex -6.25407 -3.9062 0.73687
    endloop
  endfacet
  facet normal -0.00227353 -0.0416748 0
    outer loop
      vertex -6.25407 -3.9062 0.73687
      vertex -6.25407 -3.9062 1.73687
      vertex -6.29575 -3.90393 1.70179
    endloop
  endfacet
  facet normal -0.00227353 -0.0416748 0
    outer loop
      vertex -6.25407 -3.9062 0.73687
      vertex -6.29575 -3.90393 1.70179
      vertex -6.29575 -3.90393 0.701787
    endloop
  endfacet
  facet normal -0.00822221 -0.032826 0
    outer loop
      vertex -6.29575 -3.90393 0.701787
      vertex -6.29575 -3.90393 1.70179
      vertex -6.32858 -3.89571 1.66784
    endloop
  endfacet
  facet normal -0.00822221 -0.032826 0
    outer loop
      vertex -6.29575 -3.90393 0.701787
      vertex -6.32858 -3.89571 1.66784
      vertex -6.32858 -3.89571 0.667835
    endloop
  endfacet
  facet normal -0.013973 -0.0239215 0
    outer loop
      vertex -6.32858 -3.89571 0.667835
      vertex -6.32858 -3.89571 1.66784
      vertex -6.3525 -3.88173 1.635
    endloop
  endfacet
  facet normal -0.013973 -0.0239215 0
    outer loop
      vertex -6.32858 -3.89571 0.667835
      vertex -6.3525 -3.88173 1.635
      vertex -6.3525 -3.88173 0.634997
    endloop
  endfacet
  facet normal -0.0195259 -0.0149614 0
    outer loop
      vertex -6.3525 -3.88173 0.634997
      vertex -6.3525 -3.88173 1.635
      vertex -6.36746 -3.86221 1.60325
    endloop
  endfacet
  facet normal -0.0195259 -0.0149614 0
    outer loop
      vertex -6.3525 -3.88173 0.634997
      vertex -6.36746 -3.86221 1.60325
      vertex -6.36746 -3.86221 0.603253
    endloop
  endfacet
  facet normal -0.024881 -0.00594559 0
    outer loop
      vertex -6.36746 -3.86221 0.603253
      vertex -6.36746 -3.86221 1.60325
      vertex -6.3734 -3.83733 1.57259
    endloop
  endfacet
  facet normal -0.024881 -0.00594559 0
    outer loop
      vertex -6.36746 -3.86221 0.603253
      vertex -6.3734 -3.83733 1.57259
      vertex -6.3734 -3.83733 0.572585
    endloop
  endfacet
  facet normal -0.0300382 0.00312584 0
    outer loop
      vertex -6.3734 -3.83733 0.572585
      vertex -6.3734 -3.83733 1.57259
      vertex -6.37028 -3.80729 1.54297
    endloop
  endfacet
  facet normal -0.0300382 0.00312584 0
    outer loop
      vertex -6.3734 -3.83733 0.572585
      vertex -6.37028 -3.80729 1.54297
      vertex -6.37028 -3.80729 0.542975
    endloop
  endfacet
  facet normal -0.0349975 0.0122529 0
    outer loop
      vertex -6.37028 -3.80729 0.542975
      vertex -6.37028 -3.80729 1.54297
      vertex -6.35802 -3.77229 1.5144
    endloop
  endfacet
  facet normal -0.0349975 0.0122529 0
    outer loop
      vertex -6.37028 -3.80729 0.542975
      vertex -6.35802 -3.77229 1.5144
      vertex -6.35802 -3.77229 0.514403
    endloop
  endfacet
  facet normal -0.0397589 0.0214357 0
    outer loop
      vertex -6.35802 -3.77229 0.514403
      vertex -6.35802 -3.77229 1.5144
      vertex -6.33659 -3.73253 1.48685
    endloop
  endfacet
  facet normal -0.0397589 0.0214357 0
    outer loop
      vertex -6.35802 -3.77229 0.514403
      vertex -6.33659 -3.73253 1.48685
      vertex -6.33659 -3.73253 0.486852
    endloop
  endfacet
  facet normal -0.0443224 0.030674 0
    outer loop
      vertex -6.33659 -3.73253 0.486852
      vertex -6.33659 -3.73253 1.48685
      vertex -6.30591 -3.68821 1.4603
    endloop
  endfacet
  facet normal -0.0443224 0.030674 0
    outer loop
      vertex -6.33659 -3.73253 0.486852
      vertex -6.30591 -3.68821 1.4603
      vertex -6.30591 -3.68821 0.460302
    endloop
  endfacet
  facet normal -0.0486881 0.0399681 0
    outer loop
      vertex -6.30591 -3.68821 0.460302
      vertex -6.30591 -3.68821 1.4603
      vertex -6.26595 -3.63952 1.43474
    endloop
  endfacet
  facet normal -0.0486881 0.0399681 0
    outer loop
      vertex -6.30591 -3.68821 0.460302
      vertex -6.26595 -3.63952 1.43474
      vertex -6.26595 -3.63952 0.434736
    endloop
  endfacet
  facet normal -0.0528559 0.0493178 0
    outer loop
      vertex -6.26595 -3.63952 0.434736
      vertex -6.26595 -3.63952 1.43474
      vertex -6.21663 -3.58667 1.41013
    endloop
  endfacet
  facet normal -0.0528559 0.0493178 0
    outer loop
      vertex -6.26595 -3.63952 0.434736
      vertex -6.21663 -3.58667 1.41013
      vertex -6.21663 -3.58667 0.410134
    endloop
  endfacet
  facet normal -0.0568258 0.0587231 0
    outer loop
      vertex -6.21663 -3.58667 0.410134
      vertex -6.21663 -3.58667 1.41013
      vertex -6.15791 -3.52984 1.38648
    endloop
  endfacet
  facet normal -0.0568258 0.0587231 0
    outer loop
      vertex -6.21663 -3.58667 0.410134
      vertex -6.15791 -3.52984 1.38648
      vertex -6.15791 -3.52984 0.386479
    endloop
  endfacet
  facet normal -0.0605978 0.0681841 0
    outer loop
      vertex -6.15791 -3.52984 0.386479
      vertex -6.15791 -3.52984 1.38648
      vertex -6.08972 -3.46924 1.36375
    endloop
  endfacet
  facet normal -0.0605978 0.0681841 0
    outer loop
      vertex -6.15791 -3.52984 0.386479
      vertex -6.08972 -3.46924 1.36375
      vertex -6.08972 -3.46924 0.363751
    endloop
  endfacet
  facet normal -0.064172 0.0777008 0
    outer loop
      vertex -6.08972 -3.46924 0.363751
      vertex -6.08972 -3.46924 1.36375
      vertex -6.01202 -3.40507 1.34193
    endloop
  endfacet
  facet normal -0.064172 0.0777008 0
    outer loop
      vertex -6.08972 -3.46924 0.363751
      vertex -6.01202 -3.40507 1.34193
      vertex -6.01202 -3.40507 0.341932
    endloop
  endfacet
  facet normal -0.0675483 0.0872731 0
    outer loop
      vertex -6.01202 -3.40507 0.341932
      vertex -6.01202 -3.40507 1.34193
      vertex -5.92475 -3.33752 1.321
    endloop
  endfacet
  facet normal -0.0675483 0.0872731 0
    outer loop
      vertex -6.01202 -3.40507 0.341932
      vertex -5.92475 -3.33752 1.321
      vertex -5.92475 -3.33752 0.321003
    endloop
  endfacet
  facet normal -0.0707267 0.0969011 0
    outer loop
      vertex -5.92475 -3.33752 0.321003
      vertex -5.92475 -3.33752 1.321
      vertex -5.82785 -3.2668 1.30095
    endloop
  endfacet
  facet normal -0.0707267 0.0969011 0
    outer loop
      vertex -5.92475 -3.33752 0.321003
      vertex -5.82785 -3.2668 1.30095
      vertex -5.82785 -3.2668 0.300946
    endloop
  endfacet
  facet normal -0.0737072 0.106585 0
    outer loop
      vertex -5.82785 -3.2668 0.300946
      vertex -5.82785 -3.2668 1.30095
      vertex -5.72126 -3.19309 1.28174
    endloop
  endfacet
  facet normal -0.0737072 0.106585 0
    outer loop
      vertex -5.82785 -3.2668 0.300946
      vertex -5.72126 -3.19309 1.28174
      vertex -5.72126 -3.19309 0.281743
    endloop
  endfacet
  facet normal -0.0764898 0.116324 0
    outer loop
      vertex -5.72126 -3.19309 0.281743
      vertex -5.72126 -3.19309 1.28174
      vertex -5.60494 -3.1166 1.26337
    endloop
  endfacet
  facet normal -0.0764898 0.116324 0
    outer loop
      vertex -5.72126 -3.19309 0.281743
      vertex -5.60494 -3.1166 1.26337
      vertex -5.60494 -3.1166 0.263374
    endloop
  endfacet
  facet normal -0.0790746 0.126119 0
    outer loop
      vertex -5.60494 -3.1166 0.263374
      vertex -5.60494 -3.1166 1.26337
      vertex -5.47882 -3.03752 1.24582
    endloop
  endfacet
  facet normal -0.0790746 0.126119 0
    outer loop
      vertex -5.60494 -3.1166 0.263374
      vertex -5.47882 -3.03752 1.24582
      vertex -5.47882 -3.03752 0.245822
    endloop
  endfacet
  facet normal -0.0814615 0.135969 0
    outer loop
      vertex -5.47882 -3.03752 0.245822
      vertex -5.47882 -3.03752 1.24582
      vertex -5.34285 -2.95606 1.22907
    endloop
  endfacet
  facet normal -0.0814615 0.135969 0
    outer loop
      vertex -5.47882 -3.03752 0.245822
      vertex -5.34285 -2.95606 1.22907
      vertex -5.34285 -2.95606 0.229068
    endloop
  endfacet
  facet normal -0.0836505 0.145876 0
    outer loop
      vertex -5.34285 -2.95606 0.229068
      vertex -5.34285 -2.95606 1.22907
      vertex -5.19697 -2.87241 1.21309
    endloop
  endfacet
  facet normal -0.0836505 0.145876 0
    outer loop
      vertex -5.34285 -2.95606 0.229068
      vertex -5.19697 -2.87241 1.21309
      vertex -5.19697 -2.87241 0.213092
    endloop
  endfacet
  facet normal -0.0856416 0.155838 0
    outer loop
      vertex -5.19697 -2.87241 0.213092
      vertex -5.19697 -2.87241 1.21309
      vertex -5.04114 -2.78677 1.19788
    endloop
  endfacet
  facet normal -0.0856416 0.155838 0
    outer loop
      vertex -5.19697 -2.87241 0.213092
      vertex -5.04114 -2.78677 1.19788
      vertex -5.04114 -2.78677 0.197877
    endloop
  endfacet
  facet normal -0.0874349 0.165855 0
    outer loop
      vertex -5.04114 -2.78677 0.197877
      vertex -5.04114 -2.78677 1.19788
      vertex -4.87528 -2.69933 1.1834
    endloop
  endfacet
  facet normal -0.0874349 0.165855 0
    outer loop
      vertex -5.04114 -2.78677 0.197877
      vertex -4.87528 -2.69933 1.1834
      vertex -4.87528 -2.69933 0.183404
    endloop
  endfacet
  facet normal -0.0890303 0.175928 0
    outer loop
      vertex -4.87528 -2.69933 0.183404
      vertex -4.87528 -2.69933 1.1834
      vertex -4.69935 -2.6103 1.16965
    endloop
  endfacet
  facet normal -0.0890303 0.175928 0
    outer loop
      vertex -4.87528 -2.69933 0.183404
      vertex -4.69935 -2.6103 1.16965
      vertex -4.69935 -2.6103 0.169655
    endloop
  endfacet
  facet normal -0.0904278 0.186057 0
    outer loop
      vertex -4.69935 -2.6103 0.169655
      vertex -4.69935 -2.6103 1.16965
      vertex -4.5133 -2.51988 1.15661
    endloop
  endfacet
  facet normal -0.0904278 0.186057 0
    outer loop
      vertex -4.69935 -2.6103 0.169655
      vertex -4.5133 -2.51988 1.15661
      vertex -4.5133 -2.51988 0.15661
    endloop
  endfacet
  facet normal -0.0916274 0.196242 0
    outer loop
      vertex -4.5133 -2.51988 0.15661
      vertex -4.5133 -2.51988 1.15661
      vertex -4.31705 -2.42825 1.14425
    endloop
  endfacet
  facet normal -0.0916274 0.196242 0
    outer loop
      vertex -4.5133 -2.51988 0.15661
      vertex -4.31705 -2.42825 1.14425
      vertex -4.31705 -2.42825 0.144252
    endloop
  endfacet
  facet normal -0.0926292 0.206482 0
    outer loop
      vertex -4.31705 -2.42825 0.144252
      vertex -4.31705 -2.42825 1.14425
      vertex -4.11057 -2.33562 1.13256
    endloop
  endfacet
  facet normal -0.0926292 0.206482 0
    outer loop
      vertex -4.31705 -2.42825 0.144252
      vertex -4.11057 -2.33562 1.13256
      vertex -4.11057 -2.33562 0.132562
    endloop
  endfacet
  facet normal -0.0934331 0.216778 0
    outer loop
      vertex -4.11057 -2.33562 0.132562
      vertex -4.11057 -2.33562 1.13256
      vertex -3.8938 -2.24219 1.12152
    endloop
  endfacet
  facet normal -0.0934331 0.216778 0
    outer loop
      vertex -4.11057 -2.33562 0.132562
      vertex -3.8938 -2.24219 1.12152
      vertex -3.8938 -2.24219 0.121521
    endloop
  endfacet
  facet normal -0.0940391 0.227129 0
    outer loop
      vertex -3.8938 -2.24219 0.121521
      vertex -3.8938 -2.24219 1.12152
      vertex -3.66667 -2.14815 1.11111
    endloop
  endfacet
  facet normal -0.0940391 0.227129 0
    outer loop
      vertex -3.8938 -2.24219 0.121521
      vertex -3.66667 -2.14815 1.11111
      vertex -3.66667 -2.14815 0.111111
    endloop
  endfacet
  facet normal -0.0944472 0.237536 0
    outer loop
      vertex -3.66667 -2.14815 0.111111
      vertex -3.66667 -2.14815 1.11111
      vertex -3.42913 -2.0537 1.10131
    endloop
  endfacet
  facet normal -0.0944472 0.237536 0
    outer loop
      vertex -3.66667 -2.14815 0.111111
      vertex -3.42913 -2.0537 1.10131
      vertex -3.42913 -2.0537 0.101313
    endloop
  endfacet
  facet normal -0.0946574 0.247999 0
    outer loop
      vertex -3.42913 -2.0537 0.101313
      vertex -3.42913 -2.0537 1.10131
      vertex -3.18113 -1.95904 1.09211
    endloop
  endfacet
  facet normal -0.0946574 0.247999 0
    outer loop
      vertex -3.42913 -2.0537 0.101313
      vertex -3.18113 -1.95904 1.09211
      vertex -3.18113 -1.95904 0.0921087
    endloop
  endfacet
  facet normal -0.0946698 0.258517 0
    outer loop
      vertex -3.18113 -1.95904 0.0921087
      vertex -3.18113 -1.95904 1.09211
      vertex -2.92261 -1.86437 1.08348
    endloop
  endfacet
  facet normal -0.0946698 0.258517 0
    outer loop
      vertex -3.18113 -1.95904 0.0921087
      vertex -2.92261 -1.86437 1.08348
      vertex -2.92261 -1.86437 0.0834794
    endloop
  endfacet
  facet normal -0.0944843 0.269091 0
    outer loop
      vertex -2.92261 -1.86437 0.0834794
      vertex -2.92261 -1.86437 1.08348
      vertex -2.65352 -1.76989 1.07541
    endloop
  endfacet
  facet normal -0.0944843 0.269091 0
    outer loop
      vertex -2.92261 -1.86437 0.0834794
      vertex -2.65352 -1.76989 1.07541
      vertex -2.65352 -1.76989 0.0754067
    endloop
  endfacet
  facet normal -0.0941009 0.279721 0
    outer loop
      vertex -2.65352 -1.76989 0.0754067
      vertex -2.65352 -1.76989 1.07541
      vertex -2.3738 -1.67579 1.06787
    endloop
  endfacet
  facet normal -0.0941009 0.279721 0
    outer loop
      vertex -2.65352 -1.76989 0.0754067
      vertex -2.3738 -1.67579 1.06787
      vertex -2.3738 -1.67579 0.0678719
    endloop
  endfacet
  facet normal -0.0935196 0.290406 0
    outer loop
      vertex -2.3738 -1.67579 0.0678719
      vertex -2.3738 -1.67579 1.06787
      vertex -2.0834 -1.58227 1.06086
    endloop
  endfacet
  facet normal -0.0935196 0.290406 0
    outer loop
      vertex -2.3738 -1.67579 0.0678719
      vertex -2.0834 -1.58227 1.06086
      vertex -2.0834 -1.58227 0.0608565
    endloop
  endfacet
  facet normal -0.0927405 0.301147 0
    outer loop
      vertex -2.0834 -1.58227 0.0608565
      vertex -2.0834 -1.58227 1.06086
      vertex -1.78225 -1.48953 1.05434
    endloop
  endfacet
  facet normal -0.0927405 0.301147 0
    outer loop
      vertex -2.0834 -1.58227 0.0608565
      vertex -1.78225 -1.48953 1.05434
      vertex -1.78225 -1.48953 0.054342
    endloop
  endfacet
  facet normal -0.0917635 0.311944 0
    outer loop
      vertex -1.78225 -1.48953 0.054342
      vertex -1.78225 -1.48953 1.05434
      vertex -1.4703 -1.39777 1.04831
    endloop
  endfacet
  facet normal -0.0917635 0.311944 0
    outer loop
      vertex -1.78225 -1.48953 0.054342
      vertex -1.4703 -1.39777 1.04831
      vertex -1.4703 -1.39777 0.0483099
    endloop
  endfacet
  facet normal -0.0905886 0.322796 0
    outer loop
      vertex -1.4703 -1.39777 0.0483099
      vertex -1.4703 -1.39777 1.04831
      vertex -1.14751 -1.30718 1.04274
    endloop
  endfacet
  facet normal -0.0905886 0.322796 0
    outer loop
      vertex -1.4703 -1.39777 0.0483099
      vertex -1.14751 -1.30718 1.04274
      vertex -1.14751 -1.30718 0.0427415
    endloop
  endfacet
  facet normal -0.0892158 0.333704 0
    outer loop
      vertex -1.14751 -1.30718 0.0427415
      vertex -1.14751 -1.30718 1.04274
      vertex -0.813804 -1.21796 1.03762
    endloop
  endfacet
  facet normal -0.0892158 0.333704 0
    outer loop
      vertex -1.14751 -1.30718 0.0427415
      vertex -0.813804 -1.21796 1.03762
      vertex -0.813804 -1.21796 0.0376183
    endloop
  endfacet
  facet normal -0.0876451 0.344668 0
    outer loop
      vertex -0.813804 -1.21796 0.0376183
      vertex -0.813804 -1.21796 1.03762
      vertex -0.469136 -1.13032 1.03292
    endloop
  endfacet
  facet normal -0.0876451 0.344668 0
    outer loop
      vertex -0.813804 -1.21796 0.0376183
      vertex -0.469136 -1.13032 1.03292
      vertex -0.469136 -1.13032 0.0329218
    endloop
  endfacet
  facet normal -0.0858766 0.355687 0
    outer loop
      vertex -0.469136 -1.13032 0.0329218
      vertex -0.469136 -1.13032 1.03292
      vertex -0.113449 -1.04444 1.02863
    endloop
  endfacet
  facet normal -0.0858766 0.355687 0
    outer loop
      vertex -0.469136 -1.13032 0.0329218
      vertex -0.113449 -1.04444 1.02863
      vertex -0.113449 -1.04444 0.0286334
    endloop
  endfacet
  facet normal -0.0839102 0.366762 0
    outer loop
      vertex -0.113449 -1.04444 0.0286334
      vertex -0.113449 -1.04444 1.02863
      vertex 0.253314 -0.960529 1.02473
    endloop
  endfacet
  facet normal -0.0839102 0.366762 0
    outer loop
      vertex -0.113449 -1.04444 0.0286334
      vertex 0.253314 -0.960529 1.02473
      vertex 0.253314 -0.960529 0.0247346
    endloop
  endfacet
  facet normal -0.0817459 0.377893 0
    outer loop
      vertex 0.253314 -0.960529 0.0247346
      vertex 0.253314 -0.960529 1.02473
      vertex 0.631206 -0.878783 1.02121
    endloop
  endfacet
  facet normal -0.0817459 0.377893 0
    outer loop
      vertex 0.253314 -0.960529 0.0247346
      vertex 0.631206 -0.878783 1.02121
      vertex 0.631206 -0.878783 0.0212069
    endloop
  endfacet
  facet normal -0.0793838 0.389079 0
    outer loop
      vertex 0.631206 -0.878783 0.0212069
      vertex 0.631206 -0.878783 1.02121
      vertex 1.02029 -0.799399 1.01803
    endloop
  endfacet
  facet normal -0.0793838 0.389079 0
    outer loop
      vertex 0.631206 -0.878783 0.0212069
      vertex 1.02029 -0.799399 1.01803
      vertex 1.02029 -0.799399 0.0180316
    endloop
  endfacet
  facet normal -0.0768237 0.400321 0
    outer loop
      vertex 1.02029 -0.799399 0.0180316
      vertex 1.02029 -0.799399 1.01803
      vertex 1.42061 -0.722575 1.01519
    endloop
  endfacet
  facet normal -0.0768237 0.400321 0
    outer loop
      vertex 1.02029 -0.799399 0.0180316
      vertex 1.42061 -0.722575 1.01519
      vertex 1.42061 -0.722575 0.0151902
    endloop
  endfacet
  facet normal -0.0740658 0.411618 0
    outer loop
      vertex 1.42061 -0.722575 0.0151902
      vertex 1.42061 -0.722575 1.01519
      vertex 1.83222 -0.648509 1.01266
    endloop
  endfacet
  facet normal -0.0740658 0.411618 0
    outer loop
      vertex 1.42061 -0.722575 0.0151902
      vertex 1.83222 -0.648509 1.01266
      vertex 1.83222 -0.648509 0.0126641
    endloop
  endfacet
  facet normal -0.07111 0.422972 0
    outer loop
      vertex 1.83222 -0.648509 0.0126641
      vertex 1.83222 -0.648509 1.01266
      vertex 2.2552 -0.577399 1.01043
    endloop
  endfacet
  facet normal -0.07111 0.422972 0
    outer loop
      vertex 1.83222 -0.648509 0.0126641
      vertex 2.2552 -0.577399 1.01043
      vertex 2.2552 -0.577399 0.0104349
    endloop
  endfacet
  facet normal -0.0679564 0.434381 0
    outer loop
      vertex 2.2552 -0.577399 0.0104349
      vertex 2.2552 -0.577399 1.01043
      vertex 2.68958 -0.509443 1.00848
    endloop
  endfacet
  facet normal -0.0679564 0.434381 0
    outer loop
      vertex 2.2552 -0.577399 0.0104349
      vertex 2.68958 -0.509443 1.00848
      vertex 2.68958 -0.509443 0.00848398
    endloop
  endfacet
  facet normal -0.0646048 0.445845 0
    outer loop
      vertex 2.68958 -0.509443 0.00848398
      vertex 2.68958 -0.509443 1.00848
      vertex 3.13542 -0.444838 1.00679
    endloop
  endfacet
  facet normal -0.0646048 0.445845 0
    outer loop
      vertex 2.68958 -0.509443 0.00848398
      vertex 3.13542 -0.444838 1.00679
      vertex 3.13542 -0.444838 0.00679275
    endloop
  endfacet
  facet normal -0.0610554 0.457365 0
    outer loop
      vertex 3.13542 -0.444838 0.00679275
      vertex 3.13542 -0.444838 1.00679
      vertex 3.59279 -0.383783 1.00534
    endloop
  endfacet
  facet normal -0.0610554 0.457365 0
    outer loop
      vertex 3.13542 -0.444838 0.00679275
      vertex 3.59279 -0.383783 1.00534
      vertex 3.59279 -0.383783 0.00534268
    endloop
  endfacet
  facet normal -0.0573081 0.468941 0
    outer loop
      vertex 3.59279 -0.383783 0.00534268
      vertex 3.59279 -0.383783 1.00534
      vertex 4.06173 -0.326475 1.00412
    endloop
  endfacet
  facet normal -0.0573081 0.468941 0
    outer loop
      vertex 3.59279 -0.383783 0.00534268
      vertex 4.06173 -0.326475 1.00412
      vertex 4.06173 -0.326475 0.00411523
    endloop
  endfacet
  facet normal -0.0533629 0.480572 0
    outer loop
      vertex 4.06173 -0.326475 0.00411523
      vertex 4.06173 -0.326475 1.00412
      vertex 4.5423 -0.273112 1.00309
    endloop
  endfacet
  facet normal -0.0533629 0.480572 0
    outer loop
      vertex 4.06173 -0.326475 0.00411523
      vertex 4.5423 -0.273112 1.00309
      vertex 4.5423 -0.273112 0.00309183
    endloop
  endfacet
  facet normal -0.0492199 0.49226 0
    outer loop
      vertex 4.5423 -0.273112 0.00309183
      vertex 4.5423 -0.273112 1.00309
      vertex 5.03456 -0.223892 1.00225
    endloop
  endfacet
  facet normal -0.0492199 0.49226 0
    outer loop
      vertex 4.5423 -0.273112 0.00309183
      vertex 5.03456 -0.223892 1.00225
      vertex 5.03456 -0.223892 0.00225394
    endloop
  endfacet
  facet normal -0.0448789 0.504002 0
    outer loop
      vertex 5.03456 -0.223892 0.00225394
      vertex 5.03456 -0.223892 1.00225
      vertex 5.53856 -0.179013 1.00158
    endloop
  endfacet
  facet normal -0.0448789 0.504002 0
    outer loop
      vertex 5.03456 -0.223892 0.00225394
      vertex 5.53856 -0.179013 1.00158
      vertex 5.53856 -0.179013 0.00158302
    endloop
  endfacet
  facet normal -0.0403401 0.515801 0
    outer loop
      vertex 5.53856 -0.179013 0.00158302
      vertex 5.53856 -0.179013 1.00158
      vertex 6.05436 -0.138673 1.00106
    endloop
  endfacet
  facet normal -0.0403401 0.515801 0
    outer loop
      vertex 5.53856 -0.179013 0.00158302
      vertex 6.05436 -0.138673 1.00106
      vertex 6.05436 -0.138673 0.0010605
    endloop
  endfacet
  facet normal -0.0356035 0.527655 0
    outer loop
      vertex 6.05436 -0.138673 0.0010605
      vertex 6.05436 -0.138673 1.00106
      vertex 6.58202 -0.103069 1.00067
    endloop
  endfacet
  facet normal -0.0356035 0.527655 0
    outer loop
      vertex 6.05436 -0.138673 0.0010605
      vertex 6.58202 -0.103069 1.00067
      vertex 6.58202 -0.103069 0.000667835
    endloop
  endfacet
  facet normal -0.0306689 0.539565 0
    outer loop
      vertex 6.58202 -0.103069 0.000667835
      vertex 6.58202 -0.103069 1.00067
      vertex 7.12158 -0.0724004 1.00039
    endloop
  endfacet
  facet normal -0.0306689 0.539565 0
    outer loop
      vertex 6.58202 -0.103069 0.000667835
      vertex 7.12158 -0.0724004 1.00039
      vertex 7.12158 -0.0724004 0.000386479
    endloop
  endfacet
  facet normal -0.0255365 0.55153 0
    outer loop
      vertex 7.12158 -0.0724004 0.000386479
      vertex 7.12158 -0.0724004 1.00039
      vertex 7.67311 -0.0468639 1.0002
    endloop
  endfacet
  facet normal -0.0255365 0.55153 0
    outer loop
      vertex 7.12158 -0.0724004 0.000386479
      vertex 7.67311 -0.0468639 1.0002
      vertex 7.67311 -0.0468639 0.000197877
    endloop
  endfacet
  facet normal -0.0202061 0.563551 0
    outer loop
      vertex 7.67311 -0.0468639 0.000197877
      vertex 7.67311 -0.0468639 1.0002
      vertex 8.23666 -0.0266578 1.00008
    endloop
  endfacet
  facet normal -0.0202061 0.563551 0
    outer loop
      vertex 7.67311 -0.0468639 0.000197877
      vertex 8.23666 -0.0266578 1.00008
      vertex 8.23666 -0.0266578 8.34794e-05
    endloop
  endfacet
  facet normal -0.0146779 0.575628 0
    outer loop
      vertex 8.23666 -0.0266578 8.34794e-05
      vertex 8.23666 -0.0266578 1.00008
      vertex 8.81229 -0.0119798 1.00002
    endloop
  endfacet
  facet normal -0.0146779 0.575628 0
    outer loop
      vertex 8.23666 -0.0266578 8.34794e-05
      vertex 8.81229 -0.0119798 1.00002
      vertex 8.81229 -0.0119798 2.47346e-05
    endloop
  endfacet
  facet normal -0.00895188 0.58776 0
    outer loop
      vertex 8.81229 -0.0119798 2.47346e-05
      vertex 8.81229 -0.0119798 1.00002
      vertex 9.40005 -0.00302793 1
    endloop
  endfacet
  facet normal -0.00895188 0.58776 0
    outer loop
      vertex 8.81229 -0.0119798 2.47346e-05
      vertex 9.40005 -0.00302793 1
      vertex 9.40005 -0.00302793 3.09183e-06
    endloop
  endfacet
  facet normal -0.00302793 0.599948 0
    outer loop
      vertex 9.40005 -0.00302793 3.09183e-06
      vertex 9.40005 -0.00302793 1
      vertex 10 0 1
    endloop
  endfacet
  facet normal -0.00302793 0.599948 0
    outer loop
      vertex 9.40005 -0.00302793 3.09183e-06
      vertex 10 0 1
      vertex 10 0 0
    endloop
  endfacet
  facet normal -0.297002 -0.002979 0
    outer loop
      vertex 10 0 0
      vertex 10 0 1
      vertex 9.99702 0.297002 1
    endloop
  endfacet
  facet normal -0.297002 -0.002979 0
    outer loop
      vertex 10 0 0
      vertex 9.99702 0.297002 1
      vertex 9.99702 0.297002 3e-06
    endloop
  endfacet
  facet normal -0.291014 -0.008853 0
    outer loop
      vertex 9.99702 0.297002 3e-06
      vertex 9.99702 0.297002 1
      vertex 9.98817 0.588016 1.00002
    endloop
  endfacet
  facet normal -0.291014 -0.008853 0
    outer loop
      vertex 9.99702 0.297002 3e-06
      vertex 9.98817 0.588016 1.00002
      vertex 9.98817 0.588016 2.4e-05
    endloop
  endfacet
  facet normal -0.285038 -0.014601 0
    outer loop
      vertex 9.98817 0.588016 2.4e-05
      vertex 9.98817 0.588016 1.00002
      vertex 9.97357 0.873054 1.00008
    endloop
  endfacet
  facet normal -0.285038 -0.014601 0
    outer loop
      vertex 9.98817 0.588016 2.4e-05
      vertex 9.97357 0.873054 1.00008
      vertex 9.97357 0.873054 8.1e-05
    endloop
  endfacet
  facet normal -0.279074 -0.020223 0
    outer loop
      vertex 9.97357 0.873054 8.1e-05
      vertex 9.97357 0.873054 1.00008
      vertex 9.95334 1.15213 1.00019
    endloop
  endfacet
  facet normal -0.279074 -0.020223 0
    outer loop
      vertex 9.97357 0.873054 8.1e-05
      vertex 9.95334 1.15213 1.00019
      vertex 9.95334 1.15213 0.000192
    endloop
  endfacet
  facet normal -0.273122 -0.025719 0
    outer loop
      vertex 9.95334 1.15213 0.000192
      vertex 9.95334 1.15213 1.00019
      vertex 9.92763 1.42525 1.00038
    endloop
  endfacet
  facet normal -0.273122 -0.025719 0
    outer loop
      vertex 9.95334 1.15213 0.000192
      vertex 9.92763 1.42525 1.00038
      vertex 9.92763 1.42525 0.000375
    endloop
  endfacet
  facet normal -0.267182 -0.031089 0
    outer loop
      vertex 9.92763 1.42525 0.000375
      vertex 9.92763 1.42525 1.00038
      vertex 9.89654 1.69243 1.00065
    endloop
  endfacet
  facet normal -0.267182 -0.031089 0
    outer loop
      vertex 9.92763 1.42525 0.000375
      vertex 9.89654 1.69243 1.00065
      vertex 9.89654 1.69243 0.000648
    endloop
  endfacet
  facet normal -0.261254 -0.036333 0
    outer loop
      vertex 9.89654 1.69243 0.000648
      vertex 9.89654 1.69243 1.00065
      vertex 9.8602 1.95369 1.00103
    endloop
  endfacet
  facet normal -0.261254 -0.036333 0
    outer loop
      vertex 9.89654 1.69243 0.000648
      vertex 9.8602 1.95369 1.00103
      vertex 9.8602 1.95369 0.001029
    endloop
  endfacet
  facet normal -0.255338 -0.041451 0
    outer loop
      vertex 9.8602 1.95369 0.001029
      vertex 9.8602 1.95369 1.00103
      vertex 9.81875 2.20902 1.00154
    endloop
  endfacet
  facet normal -0.255338 -0.041451 0
    outer loop
      vertex 9.8602 1.95369 0.001029
      vertex 9.81875 2.20902 1.00154
      vertex 9.81875 2.20902 0.001536
    endloop
  endfacet
  facet normal -0.249434 -0.046443 0
    outer loop
      vertex 9.81875 2.20902 0.001536
      vertex 9.81875 2.20902 1.00154
      vertex 9.77231 2.45846 1.00219
    endloop
  endfacet
  facet normal -0.249434 -0.046443 0
    outer loop
      vertex 9.81875 2.20902 0.001536
      vertex 9.77231 2.45846 1.00219
      vertex 9.77231 2.45846 0.002187
    endloop
  endfacet
  facet normal -0.243542 -0.051309 0
    outer loop
      vertex 9.77231 2.45846 0.002187
      vertex 9.77231 2.45846 1.00219
      vertex 9.721 2.702 1.003
    endloop
  endfacet
  facet normal -0.243542 -0.051309 0
    outer loop
      vertex 9.77231 2.45846 0.002187
      vertex 9.721 2.702 1.003
      vertex 9.721 2.702 0.003
    endloop
  endfacet
  facet normal -0.237662 -0.056049 0
    outer loop
      vertex 9.721 2.702 0.003
      vertex 9.721 2.702 1.003
      vertex 9.66495 2.93966 1.00399
    endloop
  endfacet
  facet normal -0.237662 -0.056049 0
    outer loop
      vertex 9.721 2.702 0.003
      vertex 9.66495 2.93966 1.00399
      vertex 9.66495 2.93966 0.003993
    endloop
  endfacet
  facet normal -0.231794 -0.060663 0
    outer loop
      vertex 9.66495 2.93966 0.003993
      vertex 9.66495 2.93966 1.00399
      vertex 9.60429 3.17146 1.00518
    endloop
  endfacet
  facet normal -0.231794 -0.060663 0
    outer loop
      vertex 9.66495 2.93966 0.003993
      vertex 9.60429 3.17146 1.00518
      vertex 9.60429 3.17146 0.005184
    endloop
  endfacet
  facet normal -0.225938 -0.065151 0
    outer loop
      vertex 9.60429 3.17146 0.005184
      vertex 9.60429 3.17146 1.00518
      vertex 9.53914 3.39739 1.00659
    endloop
  endfacet
  facet normal -0.225938 -0.065151 0
    outer loop
      vertex 9.60429 3.17146 0.005184
      vertex 9.53914 3.39739 1.00659
      vertex 9.53914 3.39739 0.006591
    endloop
  endfacet
  facet normal -0.220094 -0.069513 0
    outer loop
      vertex 9.53914 3.39739 0.006591
      vertex 9.53914 3.39739 1.00659
      vertex 9.46962 3.61749 1.00823
    endloop
  endfacet
  facet normal -0.220094 -0.069513 0
    outer loop
      vertex 9.53914 3.39739 0.006591
      vertex 9.46962 3.61749 1.00823
      vertex 9.46962 3.61749 0.008232
    endloop
  endfacet
  facet normal -0.214262 -0.073749 0
    outer loop
      vertex 9.46962 3.61749 0.008232
      vertex 9.46962 3.61749 1.00823
      vertex 9.39588 3.83175 1.01012
    endloop
  endfacet
  facet normal -0.214262 -0.073749 0
    outer loop
      vertex 9.46962 3.61749 0.008232
      vertex 9.39588 3.83175 1.01012
      vertex 9.39588 3.83175 0.010125
    endloop
  endfacet
  facet normal -0.208442 -0.077859 0
    outer loop
      vertex 9.39588 3.83175 0.010125
      vertex 9.39588 3.83175 1.01012
      vertex 9.31802 4.04019 1.01229
    endloop
  endfacet
  facet normal -0.208442 -0.077859 0
    outer loop
      vertex 9.39588 3.83175 0.010125
      vertex 9.31802 4.04019 1.01229
      vertex 9.31802 4.04019 0.012288
    endloop
  endfacet
  facet normal -0.202634 -0.081843 0
    outer loop
      vertex 9.31802 4.04019 0.012288
      vertex 9.31802 4.04019 1.01229
      vertex 9.23617 4.24283 1.01474
    endloop
  endfacet
  facet normal -0.202634 -0.081843 0
    outer loop
      vertex 9.31802 4.04019 0.012288
      vertex 9.23617 4.24283 1.01474
      vertex 9.23617 4.24283 0.014739
    endloop
  endfacet
  facet normal -0.196838 -0.085701 0
    outer loop
      vertex 9.23617 4.24283 0.014739
      vertex 9.23617 4.24283 1.01474
      vertex 9.15047 4.43966 1.0175
    endloop
  endfacet
  facet normal -0.196838 -0.085701 0
    outer loop
      vertex 9.23617 4.24283 0.014739
      vertex 9.15047 4.43966 1.0175
      vertex 9.15047 4.43966 0.017496
    endloop
  endfacet
  facet normal -0.191054 -0.089433 0
    outer loop
      vertex 9.15047 4.43966 0.017496
      vertex 9.15047 4.43966 1.0175
      vertex 9.06104 4.63072 1.02058
    endloop
  endfacet
  facet normal -0.191054 -0.089433 0
    outer loop
      vertex 9.15047 4.43966 0.017496
      vertex 9.06104 4.63072 1.02058
      vertex 9.06104 4.63072 0.020577
    endloop
  endfacet
  facet normal -0.185282 -0.093039 0
    outer loop
      vertex 9.06104 4.63072 0.020577
      vertex 9.06104 4.63072 1.02058
      vertex 8.968 4.816 1.024
    endloop
  endfacet
  facet normal -0.185282 -0.093039 0
    outer loop
      vertex 9.06104 4.63072 0.020577
      vertex 8.968 4.816 1.024
      vertex 8.968 4.816 0.024
    endloop
  endfacet
  facet normal -0.179522 -0.096519 0
    outer loop
      vertex 8.968 4.816 0.024
      vertex 8.968 4.816 1.024
      vertex 8.87148 4.99552 1.02778
    endloop
  endfacet
  facet normal -0.179522 -0.096519 0
    outer loop
      vertex 8.968 4.816 0.024
      vertex 8.87148 4.99552 1.02778
      vertex 8.87148 4.99552 0.027783
    endloop
  endfacet
  facet normal -0.173774 -0.099873 0
    outer loop
      vertex 8.87148 4.99552 0.027783
      vertex 8.87148 4.99552 1.02778
      vertex 8.77161 5.1693 1.03194
    endloop
  endfacet
  facet normal -0.173774 -0.099873 0
    outer loop
      vertex 8.87148 4.99552 0.027783
      vertex 8.77161 5.1693 1.03194
      vertex 8.77161 5.1693 0.031944
    endloop
  endfacet
  facet normal -0.168038 -0.103101 0
    outer loop
      vertex 8.77161 5.1693 0.031944
      vertex 8.77161 5.1693 1.03194
      vertex 8.66851 5.33733 1.0365
    endloop
  endfacet
  facet normal -0.168038 -0.103101 0
    outer loop
      vertex 8.77161 5.1693 0.031944
      vertex 8.66851 5.33733 1.0365
      vertex 8.66851 5.33733 0.036501
    endloop
  endfacet
  facet normal -0.162314 -0.106203 0
    outer loop
      vertex 8.66851 5.33733 0.036501
      vertex 8.66851 5.33733 1.0365
      vertex 8.5623 5.49965 1.04147
    endloop
  endfacet
  facet normal -0.162314 -0.106203 0
    outer loop
      vertex 8.66851 5.33733 0.036501
      vertex 8.5623 5.49965 1.04147
      vertex 8.5623 5.49965 0.041472
    endloop
  endfacet
  facet normal -0.156602 -0.109179 0
    outer loop
      vertex 8.5623 5.49965 0.041472
      vertex 8.5623 5.49965 1.04147
      vertex 8.45312 5.65625 1.04688
    endloop
  endfacet
  facet normal -0.156602 -0.109179 0
    outer loop
      vertex 8.5623 5.49965 0.041472
      vertex 8.45312 5.65625 1.04688
      vertex 8.45312 5.65625 0.046875
    endloop
  endfacet
  facet normal -0.150902 -0.112029 0
    outer loop
      vertex 8.45312 5.65625 0.046875
      vertex 8.45312 5.65625 1.04688
      vertex 8.3411 5.80715 1.05273
    endloop
  endfacet
  facet normal -0.150902 -0.112029 0
    outer loop
      vertex 8.45312 5.65625 0.046875
      vertex 8.3411 5.80715 1.05273
      vertex 8.3411 5.80715 0.052728
    endloop
  endfacet
  facet normal -0.145214 -0.114753 0
    outer loop
      vertex 8.3411 5.80715 0.052728
      vertex 8.3411 5.80715 1.05273
      vertex 8.22634 5.95237 1.05905
    endloop
  endfacet
  facet normal -0.145214 -0.114753 0
    outer loop
      vertex 8.3411 5.80715 0.052728
      vertex 8.22634 5.95237 1.05905
      vertex 8.22634 5.95237 0.059049
    endloop
  endfacet
  facet normal -0.139538 -0.117351 0
    outer loop
      vertex 8.22634 5.95237 0.059049
      vertex 8.22634 5.95237 1.05905
      vertex 8.10899 6.0919 1.06586
    endloop
  endfacet
  facet normal -0.139538 -0.117351 0
    outer loop
      vertex 8.22634 5.95237 0.059049
      vertex 8.10899 6.0919 1.06586
      vertex 8.10899 6.0919 0.065856
    endloop
  endfacet
  facet normal -0.133874 -0.119823 0
    outer loop
      vertex 8.10899 6.0919 0.065856
      vertex 8.10899 6.0919 1.06586
      vertex 7.98917 6.22578 1.07317
    endloop
  endfacet
  facet normal -0.133874 -0.119823 0
    outer loop
      vertex 8.10899 6.0919 0.065856
      vertex 7.98917 6.22578 1.07317
      vertex 7.98917 6.22578 0.073167
    endloop
  endfacet
  facet normal -0.128222 -0.122169 0
    outer loop
      vertex 7.98917 6.22578 0.073167
      vertex 7.98917 6.22578 1.07317
      vertex 7.867 6.354 1.081
    endloop
  endfacet
  facet normal -0.128222 -0.122169 0
    outer loop
      vertex 7.98917 6.22578 0.073167
      vertex 7.867 6.354 1.081
      vertex 7.867 6.354 0.081
    endloop
  endfacet
  facet normal -0.122582 -0.124389 0
    outer loop
      vertex 7.867 6.354 0.081
      vertex 7.867 6.354 1.081
      vertex 7.74261 6.47658 1.08937
    endloop
  endfacet
  facet normal -0.122582 -0.124389 0
    outer loop
      vertex 7.867 6.354 0.081
      vertex 7.74261 6.47658 1.08937
      vertex 7.74261 6.47658 0.089373
    endloop
  endfacet
  facet normal -0.116954 -0.126483 0
    outer loop
      vertex 7.74261 6.47658 0.089373
      vertex 7.74261 6.47658 1.08937
      vertex 7.61613 6.59354 1.0983
    endloop
  endfacet
  facet normal -0.116954 -0.126483 0
    outer loop
      vertex 7.74261 6.47658 0.089373
      vertex 7.61613 6.59354 1.0983
      vertex 7.61613 6.59354 0.098304
    endloop
  endfacet
  facet normal -0.111338 -0.128451 0
    outer loop
      vertex 7.61613 6.59354 0.098304
      vertex 7.61613 6.59354 1.0983
      vertex 7.48768 6.70487 1.10781
    endloop
  endfacet
  facet normal -0.111338 -0.128451 0
    outer loop
      vertex 7.61613 6.59354 0.098304
      vertex 7.48768 6.70487 1.10781
      vertex 7.48768 6.70487 0.107811
    endloop
  endfacet
  facet normal -0.105734 -0.130293 0
    outer loop
      vertex 7.48768 6.70487 0.107811
      vertex 7.48768 6.70487 1.10781
      vertex 7.35738 6.81061 1.11791
    endloop
  endfacet
  facet normal -0.105734 -0.130293 0
    outer loop
      vertex 7.48768 6.70487 0.107811
      vertex 7.35738 6.81061 1.11791
      vertex 7.35738 6.81061 0.117912
    endloop
  endfacet
  facet normal -0.100142 -0.132009 0
    outer loop
      vertex 7.35738 6.81061 0.117912
      vertex 7.35738 6.81061 1.11791
      vertex 7.22537 6.91075 1.12862
    endloop
  endfacet
  facet normal -0.100142 -0.132009 0
    outer loop
      vertex 7.35738 6.81061 0.117912
      vertex 7.22537 6.91075 1.12862
      vertex 7.22537 6.91075 0.128625
    endloop
  endfacet
  facet normal -0.094562 -0.133599 0
    outer loop
      vertex 7.22537 6.91075 0.128625
      vertex 7.22537 6.91075 1.12862
      vertex 7.09178 7.00531 1.13997
    endloop
  endfacet
  facet normal -0.094562 -0.133599 0
    outer loop
      vertex 7.22537 6.91075 0.128625
      vertex 7.09178 7.00531 1.13997
      vertex 7.09178 7.00531 0.139968
    endloop
  endfacet
  facet normal -0.088994 -0.135063 0
    outer loop
      vertex 7.09178 7.00531 0.139968
      vertex 7.09178 7.00531 1.13997
      vertex 6.95671 7.09431 1.15196
    endloop
  endfacet
  facet normal -0.088994 -0.135063 0
    outer loop
      vertex 7.09178 7.00531 0.139968
      vertex 6.95671 7.09431 1.15196
      vertex 6.95671 7.09431 0.151959
    endloop
  endfacet
  facet normal -0.083438 -0.136401 0
    outer loop
      vertex 6.95671 7.09431 0.151959
      vertex 6.95671 7.09431 1.15196
      vertex 6.82031 7.17774 1.16462
    endloop
  endfacet
  facet normal -0.083438 -0.136401 0
    outer loop
      vertex 6.95671 7.09431 0.151959
      vertex 6.82031 7.17774 1.16462
      vertex 6.82031 7.17774 0.164616
    endloop
  endfacet
  facet normal -0.077894 -0.137613 0
    outer loop
      vertex 6.82031 7.17774 0.164616
      vertex 6.82031 7.17774 1.16462
      vertex 6.6827 7.25564 1.17796
    endloop
  endfacet
  facet normal -0.077894 -0.137613 0
    outer loop
      vertex 6.82031 7.17774 0.164616
      vertex 6.6827 7.25564 1.17796
      vertex 6.6827 7.25564 0.177957
    endloop
  endfacet
  facet normal -0.072362 -0.138699 0
    outer loop
      vertex 6.6827 7.25564 0.177957
      vertex 6.6827 7.25564 1.17796
      vertex 6.544 7.328 1.192
    endloop
  endfacet
  facet normal -0.072362 -0.138699 0
    outer loop
      vertex 6.6827 7.25564 0.177957
      vertex 6.544 7.328 1.192
      vertex 6.544 7.328 0.192
    endloop
  endfacet
  facet normal -0.066842 -0.139659 0
    outer loop
      vertex 6.544 7.328 0.192
      vertex 6.544 7.328 1.192
      vertex 6.40434 7.39484 1.20676
    endloop
  endfacet
  facet normal -0.066842 -0.139659 0
    outer loop
      vertex 6.544 7.328 0.192
      vertex 6.40434 7.39484 1.20676
      vertex 6.40434 7.39484 0.206763
    endloop
  endfacet
  facet normal -0.061334 -0.140493 0
    outer loop
      vertex 6.40434 7.39484 0.206763
      vertex 6.40434 7.39484 1.20676
      vertex 6.26385 7.45618 1.22226
    endloop
  endfacet
  facet normal -0.061334 -0.140493 0
    outer loop
      vertex 6.40434 7.39484 0.206763
      vertex 6.26385 7.45618 1.22226
      vertex 6.26385 7.45618 0.222264
    endloop
  endfacet
  facet normal -0.055838 -0.141201 0
    outer loop
      vertex 6.26385 7.45618 0.222264
      vertex 6.26385 7.45618 1.22226
      vertex 6.12265 7.51201 1.23852
    endloop
  endfacet
  facet normal -0.055838 -0.141201 0
    outer loop
      vertex 6.26385 7.45618 0.222264
      vertex 6.12265 7.51201 1.23852
      vertex 6.12265 7.51201 0.238521
    endloop
  endfacet
  facet normal -0.050354 -0.141783 0
    outer loop
      vertex 6.12265 7.51201 0.238521
      vertex 6.12265 7.51201 1.23852
      vertex 5.98086 7.56237 1.25555
    endloop
  endfacet
  facet normal -0.050354 -0.141783 0
    outer loop
      vertex 6.12265 7.51201 0.238521
      vertex 5.98086 7.56237 1.25555
      vertex 5.98086 7.56237 0.255552
    endloop
  endfacet
  facet normal -0.044882 -0.142239 0
    outer loop
      vertex 5.98086 7.56237 0.255552
      vertex 5.98086 7.56237 1.25555
      vertex 5.83863 7.60725 1.27337
    endloop
  endfacet
  facet normal -0.044882 -0.142239 0
    outer loop
      vertex 5.98086 7.56237 0.255552
      vertex 5.83863 7.60725 1.27337
      vertex 5.83863 7.60725 0.273375
    endloop
  endfacet
  facet normal -0.039422 -0.142569 0
    outer loop
      vertex 5.83863 7.60725 0.273375
      vertex 5.83863 7.60725 1.27337
      vertex 5.69606 7.64667 1.29201
    endloop
  endfacet
  facet normal -0.039422 -0.142569 0
    outer loop
      vertex 5.83863 7.60725 0.273375
      vertex 5.69606 7.64667 1.29201
      vertex 5.69606 7.64667 0.292008
    endloop
  endfacet
  facet normal -0.033974 -0.142773 0
    outer loop
      vertex 5.69606 7.64667 0.292008
      vertex 5.69606 7.64667 1.29201
      vertex 5.55328 7.68065 1.31147
    endloop
  endfacet
  facet normal -0.033974 -0.142773 0
    outer loop
      vertex 5.69606 7.64667 0.292008
      vertex 5.55328 7.68065 1.31147
      vertex 5.55328 7.68065 0.311469
    endloop
  endfacet
  facet normal -0.028538 -0.142851 0
    outer loop
      vertex 5.55328 7.68065 0.311469
      vertex 5.55328 7.68065 1.31147
      vertex 5.41043 7.70918 1.33178
    endloop
  endfacet
  facet normal -0.028538 -0.142851 0
    outer loop
      vertex 5.55328 7.68065 0.311469
      vertex 5.41043 7.70918 1.33178
      vertex 5.41043 7.70918 0.331776
    endloop
  endfacet
  facet normal -0.023114 -0.142803 0
    outer loop
      vertex 5.41043 7.70918 0.331776
      vertex 5.41043 7.70918 1.33178
      vertex 5.26763 7.7323 1.35295
    endloop
  endfacet
  facet normal -0.023114 -0.142803 0
    outer loop
      vertex 5.41043 7.70918 0.331776
      vertex 5.26763 7.7323 1.35295
      vertex 5.26763 7.7323 0.352947
    endloop
  endfacet
  facet normal -0.017702 -0.142629 0
    outer loop
      vertex 5.26763 7.7323 0.352947
      vertex 5.26763 7.7323 1.35295
      vertex 5.125 7.75 1.375
    endloop
  endfacet
  facet normal -0.017702 -0.142629 0
    outer loop
      vertex 5.26763 7.7323 0.352947
      vertex 5.125 7.75 1.375
      vertex 5.125 7.75 0.375
    endloop
  endfacet
  facet normal -0.012302 -0.142329 0
    outer loop
      vertex 5.125 7.75 0.375
      vertex 5.125 7.75 1.375
      vertex 4.98267 7.7623 1.39795
    endloop
  endfacet
  facet normal -0.012302 -0.142329 0
    outer loop
      vertex 5.125 7.75 0.375
      vertex 4.98267 7.7623 1.39795
      vertex 4.98267 7.7623 0.397953
    endloop
  endfacet
  facet normal -0.006914 -0.141903 0
    outer loop
      vertex 4.98267 7.7623 0.397953
      vertex 4.98267 7.7623 1.39795
      vertex 4.84077 7.76922 1.42182
    endloop
  endfacet
  facet normal -0.006914 -0.141903 0
    outer loop
      vertex 4.98267 7.7623 0.397953
      vertex 4.84077 7.76922 1.42182
      vertex 4.84077 7.76922 0.421824
    endloop
  endfacet
  facet normal -0.001538 -0.141351 0
    outer loop
      vertex 4.84077 7.76922 0.421824
      vertex 4.84077 7.76922 1.42182
      vertex 4.69942 7.77075 1.44663
    endloop
  endfacet
  facet normal -0.001538 -0.141351 0
    outer loop
      vertex 4.84077 7.76922 0.421824
      vertex 4.69942 7.77075 1.44663
      vertex 4.69942 7.77075 0.446631
    endloop
  endfacet
  facet normal 0.003826 -0.140673 0
    outer loop
      vertex 4.69942 7.77075 0.446631
      vertex 4.69942 7.77075 1.44663
      vertex 4.55874 7.76693 1.47239
    endloop
  endfacet
  facet normal 0.003826 -0.140673 0
    outer loop
      vertex 4.69942 7.77075 0.446631
      vertex 4.55874 7.76693 1.47239
      vertex 4.55874 7.76693 0.472392
    endloop
  endfacet
  facet normal 0.009178 -0.139869 0
    outer loop
      vertex 4.55874 7.76693 0.472392
      vertex 4.55874 7.76693 1.47239
      vertex 4.41888 7.75775 1.49913
    endloop
  endfacet
  facet normal 0.009178 -0.139869 0
    outer loop
      vertex 4.55874 7.76693 0.472392
      vertex 4.41888 7.75775 1.49913
      vertex 4.41888 7.75775 0.499125
    endloop
  endfacet
  facet normal 0.014518 -0.138939 0
    outer loop
      vertex 4.41888 7.75775 0.499125
      vertex 4.41888 7.75775 1.49913
      vertex 4.27994 7.74323 1.52685
    endloop
  endfacet
  facet normal 0.014518 -0.138939 0
    outer loop
      vertex 4.41888 7.75775 0.499125
      vertex 4.27994 7.74323 1.52685
      vertex 4.27994 7.74323 0.526848
    endloop
  endfacet
  facet normal 0.019846 -0.137883 0
    outer loop
      vertex 4.27994 7.74323 0.526848
      vertex 4.27994 7.74323 1.52685
      vertex 4.14205 7.72339 1.55558
    endloop
  endfacet
  facet normal 0.019846 -0.137883 0
    outer loop
      vertex 4.27994 7.74323 0.526848
      vertex 4.14205 7.72339 1.55558
      vertex 4.14205 7.72339 0.555579
    endloop
  endfacet
  facet normal 0.025162 -0.136701 0
    outer loop
      vertex 4.14205 7.72339 0.555579
      vertex 4.14205 7.72339 1.55558
      vertex 4.00535 7.69822 1.58534
    endloop
  endfacet
  facet normal 0.025162 -0.136701 0
    outer loop
      vertex 4.14205 7.72339 0.555579
      vertex 4.00535 7.69822 1.58534
      vertex 4.00535 7.69822 0.585336
    endloop
  endfacet
  facet normal 0.030466 -0.135393 0
    outer loop
      vertex 4.00535 7.69822 0.585336
      vertex 4.00535 7.69822 1.58534
      vertex 3.86996 7.66776 1.61614
    endloop
  endfacet
  facet normal 0.030466 -0.135393 0
    outer loop
      vertex 4.00535 7.69822 0.585336
      vertex 3.86996 7.66776 1.61614
      vertex 3.86996 7.66776 0.616137
    endloop
  endfacet
  facet normal 0.035758 -0.133959 0
    outer loop
      vertex 3.86996 7.66776 0.616137
      vertex 3.86996 7.66776 1.61614
      vertex 3.736 7.632 1.648
    endloop
  endfacet
  facet normal 0.035758 -0.133959 0
    outer loop
      vertex 3.86996 7.66776 0.616137
      vertex 3.736 7.632 1.648
      vertex 3.736 7.632 0.648
    endloop
  endfacet
  facet normal 0.041038 -0.132399 0
    outer loop
      vertex 3.736 7.632 0.648
      vertex 3.736 7.632 1.648
      vertex 3.6036 7.59096 1.68094
    endloop
  endfacet
  facet normal 0.041038 -0.132399 0
    outer loop
      vertex 3.736 7.632 0.648
      vertex 3.6036 7.59096 1.68094
      vertex 3.6036 7.59096 0.680943
    endloop
  endfacet
  facet normal 0.046306 -0.130713 0
    outer loop
      vertex 3.6036 7.59096 0.680943
      vertex 3.6036 7.59096 1.68094
      vertex 3.47289 7.54466 1.71498
    endloop
  endfacet
  facet normal 0.046306 -0.130713 0
    outer loop
      vertex 3.6036 7.59096 0.680943
      vertex 3.47289 7.54466 1.71498
      vertex 3.47289 7.54466 0.714984
    endloop
  endfacet
  facet normal 0.051562 -0.128901 0
    outer loop
      vertex 3.47289 7.54466 0.714984
      vertex 3.47289 7.54466 1.71498
      vertex 3.34399 7.49309 1.75014
    endloop
  endfacet
  facet normal 0.051562 -0.128901 0
    outer loop
      vertex 3.47289 7.54466 0.714984
      vertex 3.34399 7.49309 1.75014
      vertex 3.34399 7.49309 0.750141
    endloop
  endfacet
  facet normal 0.056806 -0.126963 0
    outer loop
      vertex 3.34399 7.49309 0.750141
      vertex 3.34399 7.49309 1.75014
      vertex 3.21702 7.43629 1.78643
    endloop
  endfacet
  facet normal 0.056806 -0.126963 0
    outer loop
      vertex 3.34399 7.49309 0.750141
      vertex 3.21702 7.43629 1.78643
      vertex 3.21702 7.43629 0.786432
    endloop
  endfacet
  facet normal 0.062038 -0.124899 0
    outer loop
      vertex 3.21702 7.43629 0.786432
      vertex 3.21702 7.43629 1.78643
      vertex 3.09212 7.37425 1.82387
    endloop
  endfacet
  facet normal 0.062038 -0.124899 0
    outer loop
      vertex 3.21702 7.43629 0.786432
      vertex 3.09212 7.37425 1.82387
      vertex 3.09212 7.37425 0.823875
    endloop
  endfacet
  facet normal 0.067258 -0.122709 0
    outer loop
      vertex 3.09212 7.37425 0.823875
      vertex 3.09212 7.37425 1.82387
      vertex 2.96942 7.30699 1.86249
    endloop
  endfacet
  facet normal 0.067258 -0.122709 0
    outer loop
      vertex 3.09212 7.37425 0.823875
      vertex 2.96942 7.30699 1.86249
      vertex 2.96942 7.30699 0.862488
    endloop
  endfacet
  facet normal 0.072466 -0.120393 0
    outer loop
      vertex 2.96942 7.30699 0.862488
      vertex 2.96942 7.30699 1.86249
      vertex 2.84902 7.23453 1.90229
    endloop
  endfacet
  facet normal 0.072466 -0.120393 0
    outer loop
      vertex 2.96942 7.30699 0.862488
      vertex 2.84902 7.23453 1.90229
      vertex 2.84902 7.23453 0.902289
    endloop
  endfacet
  facet normal 0.077662 -0.117951 0
    outer loop
      vertex 2.84902 7.23453 0.902289
      vertex 2.84902 7.23453 1.90229
      vertex 2.73107 7.15686 1.9433
    endloop
  endfacet
  facet normal 0.077662 -0.117951 0
    outer loop
      vertex 2.84902 7.23453 0.902289
      vertex 2.73107 7.15686 1.9433
      vertex 2.73107 7.15686 0.943296
    endloop
  endfacet
  facet normal 0.082846 -0.115383 0
    outer loop
      vertex 2.73107 7.15686 0.943296
      vertex 2.73107 7.15686 1.9433
      vertex 2.61569 7.07402 1.98553
    endloop
  endfacet
  facet normal 0.082846 -0.115383 0
    outer loop
      vertex 2.73107 7.15686 0.943296
      vertex 2.61569 7.07402 1.98553
      vertex 2.61569 7.07402 0.985527
    endloop
  endfacet
  facet normal 0.088018 -0.112689 0
    outer loop
      vertex 2.61569 7.07402 0.985527
      vertex 2.61569 7.07402 1.98553
      vertex 2.503 6.986 2.029
    endloop
  endfacet
  facet normal 0.088018 -0.112689 0
    outer loop
      vertex 2.61569 7.07402 0.985527
      vertex 2.503 6.986 2.029
      vertex 2.503 6.986 1.029
    endloop
  endfacet
  facet normal 0.093178 -0.109869 0
    outer loop
      vertex 2.503 6.986 1.029
      vertex 2.503 6.986 2.029
      vertex 2.39313 6.89282 2.07373
    endloop
  endfacet
  facet normal 0.093178 -0.109869 0
    outer loop
      vertex 2.503 6.986 1.029
      vertex 2.39313 6.89282 2.07373
      vertex 2.39313 6.89282 1.07373
    endloop
  endfacet
  facet normal 0.098326 -0.106923 0
    outer loop
      vertex 2.39313 6.89282 1.07373
      vertex 2.39313 6.89282 2.07373
      vertex 2.28621 6.7945 2.11974
    endloop
  endfacet
  facet normal 0.098326 -0.106923 0
    outer loop
      vertex 2.39313 6.89282 1.07373
      vertex 2.28621 6.7945 2.11974
      vertex 2.28621 6.7945 1.11974
    endloop
  endfacet
  facet normal 0.103462 -0.103851 0
    outer loop
      vertex 2.28621 6.7945 1.11974
      vertex 2.28621 6.7945 2.11974
      vertex 2.18236 6.69103 2.16705
    endloop
  endfacet
  facet normal 0.103462 -0.103851 0
    outer loop
      vertex 2.28621 6.7945 1.11974
      vertex 2.18236 6.69103 2.16705
      vertex 2.18236 6.69103 1.16705
    endloop
  endfacet
  facet normal 0.108586 -0.100653 0
    outer loop
      vertex 2.18236 6.69103 1.16705
      vertex 2.18236 6.69103 2.16705
      vertex 2.0817 6.58245 2.21567
    endloop
  endfacet
  facet normal 0.108586 -0.100653 0
    outer loop
      vertex 2.18236 6.69103 1.16705
      vertex 2.0817 6.58245 2.21567
      vertex 2.0817 6.58245 1.21567
    endloop
  endfacet
  facet normal 0.113698 -0.097329 0
    outer loop
      vertex 2.0817 6.58245 1.21567
      vertex 2.0817 6.58245 2.21567
      vertex 1.98438 6.46875 2.26562
    endloop
  endfacet
  facet normal 0.113698 -0.097329 0
    outer loop
      vertex 2.0817 6.58245 1.21567
      vertex 1.98438 6.46875 2.26562
      vertex 1.98438 6.46875 1.26562
    endloop
  endfacet
  facet normal 0.118798 -0.093879 0
    outer loop
      vertex 1.98438 6.46875 1.26562
      vertex 1.98438 6.46875 2.26562
      vertex 1.8905 6.34995 2.31693
    endloop
  endfacet
  facet normal 0.118798 -0.093879 0
    outer loop
      vertex 1.98438 6.46875 1.26562
      vertex 1.8905 6.34995 2.31693
      vertex 1.8905 6.34995 1.31693
    endloop
  endfacet
  facet normal 0.123886 -0.090303 0
    outer loop
      vertex 1.8905 6.34995 1.31693
      vertex 1.8905 6.34995 2.31693
      vertex 1.80019 6.22607 2.3696
    endloop
  endfacet
  facet normal 0.123886 -0.090303 0
    outer loop
      vertex 1.8905 6.34995 1.31693
      vertex 1.80019 6.22607 2.3696
      vertex 1.80019 6.22607 1.3696
    endloop
  endfacet
  facet normal 0.128962 -0.086601 0
    outer loop
      vertex 1.80019 6.22607 1.3696
      vertex 1.80019 6.22607 2.3696
      vertex 1.71359 6.0971 2.42366
    endloop
  endfacet
  facet normal 0.128962 -0.086601 0
    outer loop
      vertex 1.80019 6.22607 1.3696
      vertex 1.71359 6.0971 2.42366
      vertex 1.71359 6.0971 1.42366
    endloop
  endfacet
  facet normal 0.134026 -0.082773 0
    outer loop
      vertex 1.71359 6.0971 1.42366
      vertex 1.71359 6.0971 2.42366
      vertex 1.63082 5.96308 2.47912
    endloop
  endfacet
  facet normal 0.134026 -0.082773 0
    outer loop
      vertex 1.71359 6.0971 1.42366
      vertex 1.63082 5.96308 2.47912
      vertex 1.63082 5.96308 1.47912
    endloop
  endfacet
  facet normal 0.139078 -0.078819 0
    outer loop
      vertex 1.63082 5.96308 1.47912
      vertex 1.63082 5.96308 2.47912
      vertex 1.552 5.824 2.536
    endloop
  endfacet
  facet normal 0.139078 -0.078819 0
    outer loop
      vertex 1.63082 5.96308 1.47912
      vertex 1.552 5.824 2.536
      vertex 1.552 5.824 1.536
    endloop
  endfacet
  facet normal 0.144118 -0.074739 0
    outer loop
      vertex 1.552 5.824 1.536
      vertex 1.552 5.824 2.536
      vertex 1.47726 5.67988 2.59432
    endloop
  endfacet
  facet normal 0.144118 -0.074739 0
    outer loop
      vertex 1.552 5.824 1.536
      vertex 1.47726 5.67988 2.59432
      vertex 1.47726 5.67988 1.59432
    endloop
  endfacet
  facet normal 0.149146 -0.070533 0
    outer loop
      vertex 1.47726 5.67988 1.59432
      vertex 1.47726 5.67988 2.59432
      vertex 1.40673 5.53074 2.6541
    endloop
  endfacet
  facet normal 0.149146 -0.070533 0
    outer loop
      vertex 1.47726 5.67988 1.59432
      vertex 1.40673 5.53074 2.6541
      vertex 1.40673 5.53074 1.6541
    endloop
  endfacet
  facet normal 0.154162 -0.066201 0
    outer loop
      vertex 1.40673 5.53074 1.6541
      vertex 1.40673 5.53074 2.6541
      vertex 1.34053 5.37657 2.71536
    endloop
  endfacet
  facet normal 0.154162 -0.066201 0
    outer loop
      vertex 1.40673 5.53074 1.6541
      vertex 1.34053 5.37657 2.71536
      vertex 1.34053 5.37657 1.71536
    endloop
  endfacet
  facet normal 0.159166 -0.061743 0
    outer loop
      vertex 1.34053 5.37657 1.71536
      vertex 1.34053 5.37657 2.71536
      vertex 1.27878 5.21741 2.77811
    endloop
  endfacet
  facet normal 0.159166 -0.061743 0
    outer loop
      vertex 1.34053 5.37657 1.71536
      vertex 1.27878 5.21741 2.77811
      vertex 1.27878 5.21741 1.77811
    endloop
  endfacet
  facet normal 0.164158 -0.057159 0
    outer loop
      vertex 1.27878 5.21741 1.77811
      vertex 1.27878 5.21741 2.77811
      vertex 1.22162 5.05325 2.84237
    endloop
  endfacet
  facet normal 0.164158 -0.057159 0
    outer loop
      vertex 1.27878 5.21741 1.77811
      vertex 1.22162 5.05325 2.84237
      vertex 1.22162 5.05325 1.84237
    endloop
  endfacet
  facet normal 0.169138 -0.052449 0
    outer loop
      vertex 1.22162 5.05325 1.84237
      vertex 1.22162 5.05325 2.84237
      vertex 1.16918 4.88411 2.90817
    endloop
  endfacet
  facet normal 0.169138 -0.052449 0
    outer loop
      vertex 1.22162 5.05325 1.84237
      vertex 1.16918 4.88411 2.90817
      vertex 1.16918 4.88411 1.90817
    endloop
  endfacet
  facet normal 0.174106 -0.047613 0
    outer loop
      vertex 1.16918 4.88411 1.90817
      vertex 1.16918 4.88411 2.90817
      vertex 1.12156 4.71001 2.97551
    endloop
  endfacet
  facet normal 0.174106 -0.047613 0
    outer loop
      vertex 1.16918 4.88411 1.90817
      vertex 1.12156 4.71001 2.97551
      vertex 1.12156 4.71001 1.97551
    endloop
  endfacet
  facet normal 0.179062 -0.042651 0
    outer loop
      vertex 1.12156 4.71001 1.97551
      vertex 1.12156 4.71001 2.97551
      vertex 1.07891 4.53094 3.04442
    endloop
  endfacet
  facet normal 0.179062 -0.042651 0
    outer loop
      vertex 1.12156 4.71001 1.97551
      vertex 1.07891 4.53094 3.04442
      vertex 1.07891 4.53094 2.04442
    endloop
  endfacet
  facet normal 0.184006 -0.037563 0
    outer loop
      vertex 1.07891 4.53094 2.04442
      vertex 1.07891 4.53094 3.04442
      vertex 1.04135 4.34694 3.11491
    endloop
  endfacet
  facet normal 0.184006 -0.037563 0
    outer loop
      vertex 1.07891 4.53094 2.04442
      vertex 1.04135 4.34694 3.11491
      vertex 1.04135 4.34694 2.11491
    endloop
  endfacet
  facet normal 0.188938 -0.032349 0
    outer loop
      vertex 1.04135 4.34694 2.11491
      vertex 1.04135 4.34694 3.11491
      vertex 1.009 4.158 3.187
    endloop
  endfacet
  facet normal 0.188938 -0.032349 0
    outer loop
      vertex 1.04135 4.34694 2.11491
      vertex 1.009 4.158 3.187
      vertex 1.009 4.158 2.187
    endloop
  endfacet
  facet normal 0.193858 -0.027009 0
    outer loop
      vertex 1.009 4.158 2.187
      vertex 1.009 4.158 3.187
      vertex 0.981991 3.96414 3.26071
    endloop
  endfacet
  facet normal 0.193858 -0.027009 0
    outer loop
      vertex 1.009 4.158 2.187
      vertex 0.981991 3.96414 3.26071
      vertex 0.981991 3.96414 2.26071
    endloop
  endfacet
  facet normal 0.198766 -0.021543 0
    outer loop
      vertex 0.981991 3.96414 2.26071
      vertex 0.981991 3.96414 3.26071
      vertex 0.960448 3.76538 3.33606
    endloop
  endfacet
  facet normal 0.198766 -0.021543 0
    outer loop
      vertex 0.981991 3.96414 2.26071
      vertex 0.960448 3.76538 3.33606
      vertex 0.960448 3.76538 2.33606
    endloop
  endfacet
  facet normal 0.203662 -0.015951 0
    outer loop
      vertex 0.960448 3.76538 2.33606
      vertex 0.960448 3.76538 3.33606
      vertex 0.944497 3.56171 3.41307
    endloop
  endfacet
  facet normal 0.203662 -0.015951 0
    outer loop
      vertex 0.960448 3.76538 2.33606
      vertex 0.944497 3.56171 3.41307
      vertex 0.944497 3.56171 2.41307
    endloop
  endfacet
  facet normal 0.208546 -0.010233 0
    outer loop
      vertex 0.944497 3.56171 2.41307
      vertex 0.944497 3.56171 3.41307
      vertex 0.934264 3.35317 3.49175
    endloop
  endfacet
  facet normal 0.208546 -0.010233 0
    outer loop
      vertex 0.944497 3.56171 2.41307
      vertex 0.934264 3.35317 3.49175
      vertex 0.934264 3.35317 2.49175
    endloop
  endfacet
  facet normal 0.213418 -0.004389 0
    outer loop
      vertex 0.934264 3.35317 2.49175
      vertex 0.934264 3.35317 3.49175
      vertex 0.929875 3.13975 3.57212
    endloop
  endfacet
  facet normal 0.213418 -0.004389 0
    outer loop
      vertex 0.934264 3.35317 2.49175
      vertex 0.929875 3.13975 3.57212
      vertex 0.929875 3.13975 2.57212
    endloop
  endfacet
  facet normal 0.218278 0.001581 -0
    outer loop
      vertex 0.929875 3.13975 2.57212
      vertex 0.929875 3.13975 3.57212
      vertex 0.931456 2.92147 3.65421
    endloop
  endfacet
  facet normal 0.218278 0.001581 0
    outer loop
      vertex 0.929875 3.13975 2.57212
      vertex 0.931456 2.92147 3.65421
      vertex 0.931456 2.92147 2.65421
    endloop
  endfacet
  facet normal 0.223126 0.007677 -0
    outer loop
      vertex 0.931456 2.92147 2.65421
      vertex 0.931456 2.92147 3.65421
      vertex 0.939133 2.69835 3.73802
    endloop
  endfacet
  facet normal 0.223126 0.007677 0
    outer loop
      vertex 0.931456 2.92147 2.65421
      vertex 0.939133 2.69835 3.73802
      vertex 0.939133 2.69835 2.73802
    endloop
  endfacet
  facet normal 0.227962 0.013899 -0
    outer loop
      vertex 0.939133 2.69835 2.73802
      vertex 0.939133 2.69835 3.73802
      vertex 0.953032 2.47038 3.82358
    endloop
  endfacet
  facet normal 0.227962 0.013899 0
    outer loop
      vertex 0.939133 2.69835 2.73802
      vertex 0.953032 2.47038 3.82358
      vertex 0.953032 2.47038 2.82358
    endloop
  endfacet
  facet normal 0.232786 0.020247 -0
    outer loop
      vertex 0.953032 2.47038 2.82358
      vertex 0.953032 2.47038 3.82358
      vertex 0.973279 2.2376 3.9109
    endloop
  endfacet
  facet normal 0.232786 0.020247 0
    outer loop
      vertex 0.953032 2.47038 2.82358
      vertex 0.973279 2.2376 3.9109
      vertex 0.973279 2.2376 2.9109
    endloop
  endfacet
  facet normal 0.237598 0.026721 -0
    outer loop
      vertex 0.973279 2.2376 2.9109
      vertex 0.973279 2.2376 3.9109
      vertex 1 2 4
    endloop
  endfacet
  facet normal 0.237598 0.026721 0
    outer loop
      vertex 0.973279 2.2376 2.9109
      vertex 1 2 4
      vertex 1 2 3
    endloop
  endfacet
endsolid fault
solid top
  facet normal 0 60 0
    outer loop
      vertex -30 30 0
      vertex -30 30 1
      vertex 30 30 1
    endloop
  endfacet
  facet normal 0 60 0
    outer loop
      vertex -30 30 0
      vertex 30 30 1
      vertex 30 30 0
    endloop
  endfacet
endsolid top
solid right
  facet normal 60 0 0
    outer loop
      vertex 30 30 0
      vertex 30 30 1
      vertex 30 -30 1
    endloop
  endfacet
  facet normal 60 0 0
    outer loop
      vertex 30 30 0
      vertex 30 -30 1
      vertex 30 -30 0
    endloop
  endfacet
endsolid right
solid bottom
  facet normal 0 -60 0
    outer loop
      vertex 30 -30 0
      vertex 30 -30 1
      vertex -30 -30 1
    endloop
  endfacet
  facet normal 0 -60 0
    outer loop
      vertex 30 -30 0
      vertex -30 -30 1
      vertex -30 -30 0
    endloop
  endfacet
endsolid bottom
solid left
  facet normal -60 0 0
    outer loop
      vertex -30 -30 0
      vertex -30 -30 1
      vertex -30 30 1
    endloop
  endfacet
  facet normal -60 0 0
    outer loop
      vertex -30 -30 0
      vertex -30 30 1
      vertex -30 30 0
    endloop
  endfacet
endsolid left
