solid fault
  facet normal -0.000745131 0.43421 0
    outer loop
      vertex -12 6 0
      vertex -12 6 1
      vertex -11.5658 6.00075 1
    endloop
  endfacet
  facet normal -0.000745131 0.43421 0
    outer loop
      vertex -12 6 0
      vertex -11.5658 6.00075 1
      vertex -11.5658 6.00075 0
    endloop
  endfacet
  facet normal -0.00215501 0.423924 0
    outer loop
      vertex -11.5658 6.00075 0
      vertex -11.5658 6.00075 1
      vertex -11.1419 6.0029 1
    endloop
  endfacet
  facet normal -0.00215501 0.423924 0
    outer loop
      vertex -11.5658 6.00075 0
      vertex -11.1419 6.0029 1
      vertex -11.1419 6.0029 0
    endloop
  endfacet
  facet normal -0.0034443 0.413758 0
    outer loop
      vertex -11.1419 6.0029 0
      vertex -11.1419 6.0029 1
      vertex -10.7281 6.00634 1
    endloop
  endfacet
  facet normal -0.0034443 0.413758 0
    outer loop
      vertex -11.1419 6.0029 0
      vertex -10.7281 6.00634 1
      vertex -10.7281 6.00634 0
    endloop
  endfacet
  facet normal -0.00461301 0.403713 0
    outer loop
      vertex -10.7281 6.00634 0
      vertex -10.7281 6.00634 1
      vertex -10.3244 6.01096 1
    endloop
  endfacet
  facet normal -0.00461301 0.403713 0
    outer loop
      vertex -10.7281 6.00634 0
      vertex -10.3244 6.01096 1
      vertex -10.3244 6.01096 0
    endloop
  endfacet
  facet normal -0.00566114 0.393788 0
    outer loop
      vertex -10.3244 6.01096 0
      vertex -10.3244 6.01096 1
      vertex -9.93061 6.01662 1
    endloop
  endfacet
  facet normal -0.00566114 0.393788 0
    outer loop
      vertex -10.3244 6.01096 0
      vertex -9.93061 6.01662 1
      vertex -9.93061 6.01662 0
    endloop
  endfacet
  facet normal -0.00658869 0.383984 0
    outer loop
      vertex -9.93061 6.01662 0
      vertex -9.93061 6.01662 1
      vertex -9.54662 6.02321 1
    endloop
  endfacet
  facet normal -0.00658869 0.383984 0
    outer loop
      vertex -9.93061 6.01662 0
      vertex -9.54662 6.02321 1
      vertex -9.54662 6.02321 0
    endloop
  endfacet
  facet normal -0.00739566 0.3743 0
    outer loop
      vertex -9.54662 6.02321 0
      vertex -9.54662 6.02321 1
      vertex -9.17232 6.0306 1
    endloop
  endfacet
  facet normal -0.00739566 0.3743 0
    outer loop
      vertex -9.54662 6.02321 0
      vertex -9.17232 6.0306 1
      vertex -9.17232 6.0306 0
    endloop
  endfacet
  facet normal -0.00808204 0.364737 0
    outer loop
      vertex -9.17232 6.0306 0
      vertex -9.17232 6.0306 1
      vertex -8.80759 6.03868 1
    endloop
  endfacet
  facet normal -0.00808204 0.364737 0
    outer loop
      vertex -9.17232 6.0306 0
      vertex -8.80759 6.03868 1
      vertex -8.80759 6.03868 0
    endloop
  endfacet
  facet normal -0.00864785 0.355295 0
    outer loop
      vertex -8.80759 6.03868 0
      vertex -8.80759 6.03868 1
      vertex -8.45229 6.04733 1
    endloop
  endfacet
  facet normal -0.00864785 0.355295 0
    outer loop
      vertex -8.80759 6.03868 0
      vertex -8.45229 6.04733 1
      vertex -8.45229 6.04733 0
    endloop
  endfacet
  facet normal -0.00909307 0.345973 0
    outer loop
      vertex -8.45229 6.04733 0
      vertex -8.45229 6.04733 1
      vertex -8.10632 6.05643 1
    endloop
  endfacet
  facet normal -0.00909307 0.345973 0
    outer loop
      vertex -8.45229 6.04733 0
      vertex -8.10632 6.05643 1
      vertex -8.10632 6.05643 0
    endloop
  endfacet
  facet normal -0.00941772 0.336771 0
    outer loop
      vertex -8.10632 6.05643 0
      vertex -8.10632 6.05643 1
      vertex -7.76955 6.06584 1
    endloop
  endfacet
  facet normal -0.00941772 0.336771 0
    outer loop
      vertex -8.10632 6.05643 0
      vertex -7.76955 6.06584 1
      vertex -7.76955 6.06584 0
    endloop
  endfacet
  facet normal -0.00962178 0.327691 0
    outer loop
      vertex -7.76955 6.06584 0
      vertex -7.76955 6.06584 1
      vertex -7.44186 6.07547 1
    endloop
  endfacet
  facet normal -0.00962178 0.327691 0
    outer loop
      vertex -7.76955 6.06584 0
      vertex -7.44186 6.07547 1
      vertex -7.44186 6.07547 0
    endloop
  endfacet
  facet normal -0.00970526 0.318731 0
    outer loop
      vertex -7.44186 6.07547 0
      vertex -7.44186 6.07547 1
      vertex -7.12313 6.08517 1
    endloop
  endfacet
  facet normal -0.00970526 0.318731 0
    outer loop
      vertex -7.44186 6.07547 0
      vertex -7.12313 6.08517 1
      vertex -7.12313 6.08517 0
    endloop
  endfacet
  facet normal -0.00966815 0.309891 0
    outer loop
      vertex -7.12313 6.08517 0
      vertex -7.12313 6.08517 1
      vertex -6.81323 6.09484 1
    endloop
  endfacet
  facet normal -0.00966815 0.309891 0
    outer loop
      vertex -7.12313 6.08517 0
      vertex -6.81323 6.09484 1
      vertex -6.81323 6.09484 0
    endloop
  endfacet
  facet normal -0.00951047 0.301172 0
    outer loop
      vertex -6.81323 6.09484 0
      vertex -6.81323 6.09484 1
      vertex -6.51206 6.10435 1
    endloop
  endfacet
  facet normal -0.00951047 0.301172 0
    outer loop
      vertex -6.81323 6.09484 0
      vertex -6.51206 6.10435 1
      vertex -6.51206 6.10435 0
    endloop
  endfacet
  facet normal -0.00923221 0.292574 0
    outer loop
      vertex -6.51206 6.10435 0
      vertex -6.51206 6.10435 1
      vertex -6.21949 6.11358 1
    endloop
  endfacet
  facet normal -0.00923221 0.292574 0
    outer loop
      vertex -6.51206 6.10435 0
      vertex -6.21949 6.11358 1
      vertex -6.21949 6.11358 0
    endloop
  endfacet
  facet normal -0.00883336 0.284096 0
    outer loop
      vertex -6.21949 6.11358 0
      vertex -6.21949 6.11358 1
      vertex -5.93539 6.12241 1
    endloop
  endfacet
  facet normal -0.00883336 0.284096 0
    outer loop
      vertex -6.21949 6.11358 0
      vertex -5.93539 6.12241 1
      vertex -5.93539 6.12241 0
    endloop
  endfacet
  facet normal -0.00831393 0.275739 0
    outer loop
      vertex -5.93539 6.12241 0
      vertex -5.93539 6.12241 1
      vertex -5.65965 6.13073 1
    endloop
  endfacet
  facet normal -0.00831393 0.275739 0
    outer loop
      vertex -5.93539 6.12241 0
      vertex -5.65965 6.13073 1
      vertex -5.65965 6.13073 0
    endloop
  endfacet
  facet normal -0.00767392 0.267502 0
    outer loop
      vertex -5.65965 6.13073 0
      vertex -5.65965 6.13073 1
      vertex -5.39215 6.1384 1
    endloop
  endfacet
  facet normal -0.00767392 0.267502 0
    outer loop
      vertex -5.65965 6.13073 0
      vertex -5.39215 6.1384 1
      vertex -5.39215 6.1384 0
    endloop
  endfacet
  facet normal -0.00691333 0.259386 0
    outer loop
      vertex -5.39215 6.1384 0
      vertex -5.39215 6.1384 1
      vertex -5.13277 6.14532 1
    endloop
  endfacet
  facet normal -0.00691333 0.259386 0
    outer loop
      vertex -5.39215 6.1384 0
      vertex -5.13277 6.14532 1
      vertex -5.13277 6.14532 0
    endloop
  endfacet
  facet normal -0.00603216 0.251391 0
    outer loop
      vertex -5.13277 6.14532 0
      vertex -5.13277 6.14532 1
      vertex -4.88138 6.15135 1
    endloop
  endfacet
  facet normal -0.00603216 0.251391 0
    outer loop
      vertex -5.13277 6.14532 0
      vertex -4.88138 6.15135 1
      vertex -4.88138 6.15135 0
    endloop
  endfacet
  facet normal -0.00503041 0.243516 0
    outer loop
      vertex -4.88138 6.15135 0
      vertex -4.88138 6.15135 1
      vertex -4.63786 6.15638 1
    endloop
  endfacet
  facet normal -0.00503041 0.243516 0
    outer loop
      vertex -4.88138 6.15135 0
      vertex -4.63786 6.15638 1
      vertex -4.63786 6.15638 0
    endloop
  endfacet
  facet normal -0.00390807 0.235761 0
    outer loop
      vertex -4.63786 6.15638 0
      vertex -4.63786 6.15638 1
      vertex -4.4021 6.16029 1
    endloop
  endfacet
  facet normal -0.00390807 0.235761 0
    outer loop
      vertex -4.63786 6.15638 0
      vertex -4.4021 6.16029 1
      vertex -4.4021 6.16029 0
    endloop
  endfacet
  facet normal -0.00266516 0.228128 0
    outer loop
      vertex -4.4021 6.16029 0
      vertex -4.4021 6.16029 1
      vertex -4.17397 6.16295 1
    endloop
  endfacet
  facet normal -0.00266516 0.228128 0
    outer loop
      vertex -4.4021 6.16029 0
      vertex -4.17397 6.16295 1
      vertex -4.17397 6.16295 0
    endloop
  endfacet
  facet normal -0.00130166 0.220614 0
    outer loop
      vertex -4.17397 6.16295 0
      vertex -4.17397 6.16295 1
      vertex -3.95336 6.16425 1
    endloop
  endfacet
  facet normal -0.00130166 0.220614 0
    outer loop
      vertex -4.17397 6.16295 0
      vertex -3.95336 6.16425 1
      vertex -3.95336 6.16425 0
    endloop
  endfacet
  facet normal 0.000182418 0.213222 -0
    outer loop
      vertex -3.95336 6.16425 0
      vertex -3.95336 6.16425 1
      vertex -3.74013 6.16407 1
    endloop
  endfacet
  facet normal 0.000182418 0.213222 0
    outer loop
      vertex -3.95336 6.16425 0
      vertex -3.74013 6.16407 1
      vertex -3.74013 6.16407 0
    endloop
  endfacet
  facet normal 0.00178708 0.20595 -0
    outer loop
      vertex -3.74013 6.16407 0
      vertex -3.74013 6.16407 1
      vertex -3.53418 6.16228 1
    endloop
  endfacet
  facet normal 0.00178708 0.20595 0
    outer loop
      vertex -3.74013 6.16407 0
      vertex -3.53418 6.16228 1
      vertex -3.53418 6.16228 0
    endloop
  endfacet
  facet normal 0.00351232 0.198799 -0
    outer loop
      vertex -3.53418 6.16228 0
      vertex -3.53418 6.16228 1
      vertex -3.33539 6.15877 1
    endloop
  endfacet
  facet normal 0.00351232 0.198799 0
    outer loop
      vertex -3.53418 6.16228 0
      vertex -3.33539 6.15877 1
      vertex -3.33539 6.15877 0
    endloop
  endfacet
  facet normal 0.00535814 0.191768 -0
    outer loop
      vertex -3.33539 6.15877 0
      vertex -3.33539 6.15877 1
      vertex -3.14362 6.15341 1
    endloop
  endfacet
  facet normal 0.00535814 0.191768 0
    outer loop
      vertex -3.33539 6.15877 0
      vertex -3.14362 6.15341 1
      vertex -3.14362 6.15341 0
    endloop
  endfacet
  facet normal 0.00732455 0.184857 -0
    outer loop
      vertex -3.14362 6.15341 0
      vertex -3.14362 6.15341 1
      vertex -2.95876 6.14609 1
    endloop
  endfacet
  facet normal 0.00732455 0.184857 0
    outer loop
      vertex -3.14362 6.15341 0
      vertex -2.95876 6.14609 1
      vertex -2.95876 6.14609 0
    endloop
  endfacet
  facet normal 0.00941153 0.178068 -0
    outer loop
      vertex -2.95876 6.14609 0
      vertex -2.95876 6.14609 1
      vertex -2.78069 6.13668 1
    endloop
  endfacet
  facet normal 0.00941153 0.178068 0
    outer loop
      vertex -2.95876 6.14609 0
      vertex -2.78069 6.13668 1
      vertex -2.78069 6.13668 0
    endloop
  endfacet
  facet normal 0.0116191 0.171399 -0
    outer loop
      vertex -2.78069 6.13668 0
      vertex -2.78069 6.13668 1
      vertex -2.60929 6.12506 1
    endloop
  endfacet
  facet normal 0.0116191 0.171399 0
    outer loop
      vertex -2.78069 6.13668 0
      vertex -2.60929 6.12506 1
      vertex -2.60929 6.12506 0
    endloop
  endfacet
  facet normal 0.0139472 0.16485 -0
    outer loop
      vertex -2.60929 6.12506 0
      vertex -2.60929 6.12506 1
      vertex -2.44444 6.11111 1
    endloop
  endfacet
  facet normal 0.0139472 0.16485 0
    outer loop
      vertex -2.60929 6.12506 0
      vertex -2.44444 6.11111 1
      vertex -2.44444 6.11111 0
    endloop
  endfacet
  facet normal 0.016396 0.158422 -0
    outer loop
      vertex -2.44444 6.11111 0
      vertex -2.44444 6.11111 1
      vertex -2.28602 6.09472 1
    endloop
  endfacet
  facet normal 0.016396 0.158422 0
    outer loop
      vertex -2.44444 6.11111 0
      vertex -2.28602 6.09472 1
      vertex -2.28602 6.09472 0
    endloop
  endfacet
  facet normal 0.0189653 0.152115 -0
    outer loop
      vertex -2.28602 6.09472 0
      vertex -2.28602 6.09472 1
      vertex -2.13391 6.07575 1
    endloop
  endfacet
  facet normal 0.0189653 0.152115 0
    outer loop
      vertex -2.28602 6.09472 0
      vertex -2.13391 6.07575 1
      vertex -2.13391 6.07575 0
    endloop
  endfacet
  facet normal 0.0216552 0.145928 -0
    outer loop
      vertex -2.13391 6.07575 0
      vertex -2.13391 6.07575 1
      vertex -1.98798 6.05409 1
    endloop
  endfacet
  facet normal 0.0216552 0.145928 0
    outer loop
      vertex -2.13391 6.07575 0
      vertex -1.98798 6.05409 1
      vertex -1.98798 6.05409 0
    endloop
  endfacet
  facet normal 0.0244657 0.139862 -0
    outer loop
      vertex -1.98798 6.05409 0
      vertex -1.98798 6.05409 1
      vertex -1.84812 6.02963 1
    endloop
  endfacet
  facet normal 0.0244657 0.139862 0
    outer loop
      vertex -1.98798 6.05409 0
      vertex -1.84812 6.02963 1
      vertex -1.84812 6.02963 0
    endloop
  endfacet
  facet normal 0.0273967 0.133916 -0
    outer loop
      vertex -1.84812 6.02963 0
      vertex -1.84812 6.02963 1
      vertex -1.7142 6.00223 1
    endloop
  endfacet
  facet normal 0.0273967 0.133916 0
    outer loop
      vertex -1.84812 6.02963 0
      vertex -1.7142 6.00223 1
      vertex -1.7142 6.00223 0
    endloop
  endfacet
  facet normal 0.0304483 0.128091 -0
    outer loop
      vertex -1.7142 6.00223 0
      vertex -1.7142 6.00223 1
      vertex -1.58611 5.97178 1
    endloop
  endfacet
  facet normal 0.0304483 0.128091 0
    outer loop
      vertex -1.7142 6.00223 0
      vertex -1.58611 5.97178 1
      vertex -1.58611 5.97178 0
    endloop
  endfacet
  facet normal 0.0336206 0.122387 -0
    outer loop
      vertex -1.58611 5.97178 0
      vertex -1.58611 5.97178 1
      vertex -1.46372 5.93816 1
    endloop
  endfacet
  facet normal 0.0336206 0.122387 0
    outer loop
      vertex -1.58611 5.97178 0
      vertex -1.46372 5.93816 1
      vertex -1.46372 5.93816 0
    endloop
  endfacet
  facet normal 0.0369134 0.116803 -0
    outer loop
      vertex -1.46372 5.93816 0
      vertex -1.46372 5.93816 1
      vertex -1.34692 5.90125 1
    endloop
  endfacet
  facet normal 0.0369134 0.116803 0
    outer loop
      vertex -1.46372 5.93816 0
      vertex -1.34692 5.90125 1
      vertex -1.34692 5.90125 0
    endloop
  endfacet
  facet normal 0.0403267 0.11134 -0
    outer loop
      vertex -1.34692 5.90125 0
      vertex -1.34692 5.90125 1
      vertex -1.23558 5.86092 1
    endloop
  endfacet
  facet normal 0.0403267 0.11134 0
    outer loop
      vertex -1.34692 5.90125 0
      vertex -1.23558 5.86092 1
      vertex -1.23558 5.86092 0
    endloop
  endfacet
  facet normal 0.0438607 0.105997 -0
    outer loop
      vertex -1.23558 5.86092 0
      vertex -1.23558 5.86092 1
      vertex -1.12958 5.81706 1
    endloop
  endfacet
  facet normal 0.0438607 0.105997 0
    outer loop
      vertex -1.23558 5.86092 0
      vertex -1.12958 5.81706 1
      vertex -1.12958 5.81706 0
    endloop
  endfacet
  facet normal 0.0475153 0.100775 -0
    outer loop
      vertex -1.12958 5.81706 0
      vertex -1.12958 5.81706 1
      vertex -1.02881 5.76955 1
    endloop
  endfacet
  facet normal 0.0475153 0.100775 0
    outer loop
      vertex -1.12958 5.81706 0
      vertex -1.02881 5.76955 1
      vertex -1.02881 5.76955 0
    endloop
  endfacet
  facet normal 0.0512904 0.0956736 -0
    outer loop
      vertex -1.02881 5.76955 0
      vertex -1.02881 5.76955 1
      vertex -0.933133 5.71826 1
    endloop
  endfacet
  facet normal 0.0512904 0.0956736 0
    outer loop
      vertex -1.02881 5.76955 0
      vertex -0.933133 5.71826 1
      vertex -0.933133 5.71826 0
    endloop
  endfacet
  facet normal 0.0551861 0.0906927 -0
    outer loop
      vertex -0.933133 5.71826 0
      vertex -0.933133 5.71826 1
      vertex -0.84244 5.66307 1
    endloop
  endfacet
  facet normal 0.0551861 0.0906927 0
    outer loop
      vertex -0.933133 5.71826 0
      vertex -0.84244 5.66307 1
      vertex -0.84244 5.66307 0
    endloop
  endfacet
  facet normal 0.0592024 0.0858323 -0
    outer loop
      vertex -0.84244 5.66307 0
      vertex -0.84244 5.66307 1
      vertex -0.756608 5.60387 1
    endloop
  endfacet
  facet normal 0.0592024 0.0858323 0
    outer loop
      vertex -0.84244 5.66307 0
      vertex -0.756608 5.60387 1
      vertex -0.756608 5.60387 0
    endloop
  endfacet
  facet normal 0.0633392 0.0810925 -0
    outer loop
      vertex -0.756608 5.60387 0
      vertex -0.756608 5.60387 1
      vertex -0.675515 5.54053 1
    endloop
  endfacet
  facet normal 0.0633392 0.0810925 0
    outer loop
      vertex -0.756608 5.60387 0
      vertex -0.675515 5.54053 1
      vertex -0.675515 5.54053 0
    endloop
  endfacet
  facet normal 0.0675967 0.0764733 -0
    outer loop
      vertex -0.675515 5.54053 0
      vertex -0.675515 5.54053 1
      vertex -0.599042 5.47293 1
    endloop
  endfacet
  facet normal 0.0675967 0.0764733 0
    outer loop
      vertex -0.675515 5.54053 0
      vertex -0.599042 5.47293 1
      vertex -0.599042 5.47293 0
    endloop
  endfacet
  facet normal 0.0719747 0.0719747 -0
    outer loop
      vertex -0.599042 5.47293 0
      vertex -0.599042 5.47293 1
      vertex -0.527067 5.40096 1
    endloop
  endfacet
  facet normal 0.0719747 0.0719747 0
    outer loop
      vertex -0.599042 5.47293 0
      vertex -0.527067 5.40096 1
      vertex -0.527067 5.40096 0
    endloop
  endfacet
  facet normal 0.0764733 0.0675967 -0
    outer loop
      vertex -0.527067 5.40096 0
      vertex -0.527067 5.40096 1
      vertex -0.459471 5.32448 1
    endloop
  endfacet
  facet normal 0.0764733 0.0675967 0
    outer loop
      vertex -0.527067 5.40096 0
      vertex -0.459471 5.32448 1
      vertex -0.459471 5.32448 0
    endloop
  endfacet
  facet normal 0.0810925 0.0633392 -0
    outer loop
      vertex -0.459471 5.32448 0
      vertex -0.459471 5.32448 1
      vertex -0.396132 5.24339 1
    endloop
  endfacet
  facet normal 0.0810925 0.0633392 0
    outer loop
      vertex -0.459471 5.32448 0
      vertex -0.396132 5.24339 1
      vertex -0.396132 5.24339 0
    endloop
  endfacet
  facet normal 0.0858323 0.0592024 -0
    outer loop
      vertex -0.396132 5.24339 0
      vertex -0.396132 5.24339 1
      vertex -0.336929 5.15756 1
    endloop
  endfacet
  facet normal 0.0858323 0.0592024 0
    outer loop
      vertex -0.396132 5.24339 0
      vertex -0.336929 5.15756 1
      vertex -0.336929 5.15756 0
    endloop
  endfacet
  facet normal 0.0906927 0.0551861 -0
    outer loop
      vertex -0.336929 5.15756 0
      vertex -0.336929 5.15756 1
      vertex -0.281743 5.06687 1
    endloop
  endfacet
  facet normal 0.0906927 0.0551861 0
    outer loop
      vertex -0.336929 5.15756 0
      vertex -0.281743 5.06687 1
      vertex -0.281743 5.06687 0
    endloop
  endfacet
  facet normal 0.0956736 0.0512904 -0
    outer loop
      vertex -0.281743 5.06687 0
      vertex -0.281743 5.06687 1
      vertex -0.230453 4.97119 1
    endloop
  endfacet
  facet normal 0.0956736 0.0512904 0
    outer loop
      vertex -0.281743 5.06687 0
      vertex -0.230453 4.97119 1
      vertex -0.230453 4.97119 0
    endloop
  endfacet
  facet normal 0.100775 0.0475153 -0
    outer loop
      vertex -0.230453 4.97119 0
      vertex -0.230453 4.97119 1
      vertex -0.182937 4.87042 1
    endloop
  endfacet
  facet normal 0.100775 0.0475153 0
    outer loop
      vertex -0.230453 4.97119 0
      vertex -0.182937 4.87042 1
      vertex -0.182937 4.87042 0
    endloop
  endfacet
  facet normal 0.105997 0.0438607 -0
    outer loop
      vertex -0.182937 4.87042 0
      vertex -0.182937 4.87042 1
      vertex -0.139077 4.76442 1
    endloop
  endfacet
  facet normal 0.105997 0.0438607 0
    outer loop
      vertex -0.182937 4.87042 0
      vertex -0.139077 4.76442 1
      vertex -0.139077 4.76442 0
    endloop
  endfacet
  facet normal 0.11134 0.0403267 -0
    outer loop
      vertex -0.139077 4.76442 0
      vertex -0.139077 4.76442 1
      vertex -0.09875 4.65308 1
    endloop
  endfacet
  facet normal 0.11134 0.0403267 0
    outer loop
      vertex -0.139077 4.76442 0
      vertex -0.09875 4.65308 1
      vertex -0.09875 4.65308 0
    endloop
  endfacet
  facet normal 0.116803 0.0369134 -0
    outer loop
      vertex -0.09875 4.65308 0
      vertex -0.09875 4.65308 1
      vertex -0.0618366 4.53628 1
    endloop
  endfacet
  facet normal 0.116803 0.0369134 0
    outer loop
      vertex -0.09875 4.65308 0
      vertex -0.0618366 4.53628 1
      vertex -0.0618366 4.53628 0
    endloop
  endfacet
  facet normal 0.122387 0.0336206 -0
    outer loop
      vertex -0.0618366 4.53628 0
      vertex -0.0618366 4.53628 1
      vertex -0.028216 4.41389 1
    endloop
  endfacet
  facet normal 0.122387 0.0336206 0
    outer loop
      vertex -0.0618366 4.53628 0
      vertex -0.028216 4.41389 1
      vertex -0.028216 4.41389 0
    endloop
  endfacet
  facet normal 0.128091 0.0304483 -0
    outer loop
      vertex -0.028216 4.41389 0
      vertex -0.028216 4.41389 1
      vertex 0.0022323 4.2858 1
    endloop
  endfacet
  facet normal 0.128091 0.0304483 0
    outer loop
      vertex -0.028216 4.41389 0
      vertex 0.0022323 4.2858 1
      vertex 0.0022323 4.2858 0
    endloop
  endfacet
  facet normal 0.133916 0.0273967 -0
    outer loop
      vertex 0.0022323 4.2858 0
      vertex 0.0022323 4.2858 1
      vertex 0.029629 4.15188 1
    endloop
  endfacet
  facet normal 0.133916 0.0273967 0
    outer loop
      vertex 0.0022323 4.2858 0
      vertex 0.029629 4.15188 1
      vertex 0.029629 4.15188 0
    endloop
  endfacet
  facet normal 0.139862 0.0244657 -0
    outer loop
      vertex 0.029629 4.15188 0
      vertex 0.029629 4.15188 1
      vertex 0.0540947 4.01202 1
    endloop
  endfacet
  facet normal 0.139862 0.0244657 0
    outer loop
      vertex 0.029629 4.15188 0
      vertex 0.0540947 4.01202 1
      vertex 0.0540947 4.01202 0
    endloop
  endfacet
  facet normal 0.145928 0.0216552 -0
    outer loop
      vertex 0.0540947 4.01202 0
      vertex 0.0540947 4.01202 1
      vertex 0.0757498 3.86609 1
    endloop
  endfacet
  facet normal 0.145928 0.0216552 0
    outer loop
      vertex 0.0540947 4.01202 0
      vertex 0.0757498 3.86609 1
      vertex 0.0757498 3.86609 0
    endloop
  endfacet
  facet normal 0.152115 0.0189653 -0
    outer loop
      vertex 0.0757498 3.86609 0
      vertex 0.0757498 3.86609 1
      vertex 0.0947151 3.71398 1
    endloop
  endfacet
  facet normal 0.152115 0.0189653 0
    outer loop
      vertex 0.0757498 3.86609 0
      vertex 0.0947151 3.71398 1
      vertex 0.0947151 3.71398 0
    endloop
  endfacet
  facet normal 0.158422 0.016396 -0
    outer loop
      vertex 0.0947151 3.71398 0
      vertex 0.0947151 3.71398 1
      vertex 0.111111 3.55556 1
    endloop
  endfacet
  facet normal 0.158422 0.016396 0
    outer loop
      vertex 0.0947151 3.71398 0
      vertex 0.111111 3.55556 1
      vertex 0.111111 3.55556 0
    endloop
  endfacet
  facet normal 0.16485 0.0139472 -0
    outer loop
      vertex 0.111111 3.55556 0
      vertex 0.111111 3.55556 1
      vertex 0.125058 3.39071 1
    endloop
  endfacet
  facet normal 0.16485 0.0139472 0
    outer loop
      vertex 0.111111 3.55556 0
      vertex 0.125058 3.39071 1
      vertex 0.125058 3.39071 0
    endloop
  endfacet
  facet normal 0.171399 0.0116191 -0
    outer loop
      vertex 0.125058 3.39071 0
      vertex 0.125058 3.39071 1
      vertex 0.136677 3.21931 1
    endloop
  endfacet
  facet normal 0.171399 0.0116191 0
    outer loop
      vertex 0.125058 3.39071 0
      vertex 0.136677 3.21931 1
      vertex 0.136677 3.21931 0
    endloop
  endfacet
  facet normal 0.178068 0.00941153 -0
    outer loop
      vertex 0.136677 3.21931 0
      vertex 0.136677 3.21931 1
      vertex 0.146089 3.04124 1
    endloop
  endfacet
  facet normal 0.178068 0.00941153 0
    outer loop
      vertex 0.136677 3.21931 0
      vertex 0.146089 3.04124 1
      vertex 0.146089 3.04124 0
    endloop
  endfacet
  facet normal 0.184857 0.00732455 -0
    outer loop
      vertex 0.146089 3.04124 0
      vertex 0.146089 3.04124 1
      vertex 0.153414 2.85638 1
    endloop
  endfacet
  facet normal 0.184857 0.00732455 0
    outer loop
      vertex 0.146089 3.04124 0
      vertex 0.153414 2.85638 1
      vertex 0.153414 2.85638 0
    endloop
  endfacet
  facet normal 0.191768 0.00535814 -0
    outer loop
      vertex 0.153414 2.85638 0
      vertex 0.153414 2.85638 1
      vertex 0.158772 2.66461 1
    endloop
  endfacet
  facet normal 0.191768 0.00535814 0
    outer loop
      vertex 0.153414 2.85638 0
      vertex 0.158772 2.66461 1
      vertex 0.158772 2.66461 0
    endloop
  endfacet
  facet normal 0.198799 0.00351232 -0
    outer loop
      vertex 0.158772 2.66461 0
      vertex 0.158772 2.66461 1
      vertex 0.162284 2.46582 1
    endloop
  endfacet
  facet normal 0.198799 0.00351232 0
    outer loop
      vertex 0.158772 2.66461 0
      vertex 0.162284 2.46582 1
      vertex 0.162284 2.46582 0
    endloop
  endfacet
  facet normal 0.20595 0.00178708 -0
    outer loop
      vertex 0.162284 2.46582 0
      vertex 0.162284 2.46582 1
      vertex 0.164071 2.25987 1
    endloop
  endfacet
  facet normal 0.20595 0.00178708 0
    outer loop
      vertex 0.162284 2.46582 0
      vertex 0.164071 2.25987 1
      vertex 0.164071 2.25987 0
    endloop
  endfacet
  facet normal 0.213222 0.000182418 -0
    outer loop
      vertex 0.164071 2.25987 0
      vertex 0.164071 2.25987 1
      vertex 0.164253 2.04664 1
    endloop
  endfacet
  facet normal 0.213222 0.000182418 0
    outer loop
      vertex 0.164071 2.25987 0
      vertex 0.164253 2.04664 1
      vertex 0.164253 2.04664 0
    endloop
  endfacet
  facet normal 0.220614 -0.00130166 0
    outer loop
      vertex 0.164253 2.04664 0
      vertex 0.164253 2.04664 1
      vertex 0.162952 1.82603 1
    endloop
  endfacet
  facet normal 0.220614 -0.00130166 0
    outer loop
      vertex 0.164253 2.04664 0
      vertex 0.162952 1.82603 1
      vertex 0.162952 1.82603 0
    endloop
  endfacet
  facet normal 0.228128 -0.00266516 0
    outer loop
      vertex 0.162952 1.82603 0
      vertex 0.162952 1.82603 1
      vertex 0.160287 1.5979 1
    endloop
  endfacet
  facet normal 0.228128 -0.00266516 0
    outer loop
      vertex 0.162952 1.82603 0
      vertex 0.160287 1.5979 1
      vertex 0.160287 1.5979 0
    endloop
  endfacet
  facet normal 0.235761 -0.00390807 0
    outer loop
      vertex 0.160287 1.5979 0
      vertex 0.160287 1.5979 1
      vertex 0.156379 1.36214 1
    endloop
  endfacet
  facet normal 0.235761 -0.00390807 0
    outer loop
      vertex 0.160287 1.5979 0
      vertex 0.156379 1.36214 1
      vertex 0.156379 1.36214 0
    endloop
  endfacet
  facet normal 0.243516 -0.00503041 0
    outer loop
      vertex 0.156379 1.36214 0
      vertex 0.156379 1.36214 1
      vertex 0.151348 1.11862 1
    endloop
  endfacet
  facet normal 0.243516 -0.00503041 0
    outer loop
      vertex 0.156379 1.36214 0
      vertex 0.151348 1.11862 1
      vertex 0.151348 1.11862 0
    endloop
  endfacet
  facet normal 0.251391 -0.00603216 0
    outer loop
      vertex 0.151348 1.11862 0
      vertex 0.151348 1.11862 1
      vertex 0.145316 0.867234 1
    endloop
  endfacet
  facet normal 0.251391 -0.00603216 0
    outer loop
      vertex 0.151348 1.11862 0
      vertex 0.145316 0.867234 1
      vertex 0.145316 0.867234 0
    endloop
  endfacet
  facet normal 0.259386 -0.00691333 0
    outer loop
      vertex 0.145316 0.867234 0
      vertex 0.145316 0.867234 1
      vertex 0.138403 0.607848 1
    endloop
  endfacet
  facet normal 0.259386 -0.00691333 0
    outer loop
      vertex 0.145316 0.867234 0
      vertex 0.138403 0.607848 1
      vertex 0.138403 0.607848 0
    endloop
  endfacet
  facet normal 0.267502 -0.00767392 0
    outer loop
      vertex 0.138403 0.607848 0
      vertex 0.138403 0.607848 1
      vertex 0.130729 0.340346 1
    endloop
  endfacet
  facet normal 0.267502 -0.00767392 0
    outer loop
      vertex 0.138403 0.607848 0
      vertex 0.130729 0.340346 1
      vertex 0.130729 0.340346 0
    endloop
  endfacet
  facet normal 0.275739 -0.00831393 0
    outer loop
      vertex 0.130729 0.340346 0
      vertex 0.130729 0.340346 1
      vertex 0.122415 0.0646069 1
    endloop
  endfacet
  facet normal 0.275739 -0.00831393 0
    outer loop
      vertex 0.130729 0.340346 0
      vertex 0.122415 0.0646069 1
      vertex 0.122415 0.0646069 0
    endloop
  endfacet
  facet normal 0.284096 -0.00883336 0
    outer loop
      vertex 0.122415 0.0646069 0
      vertex 0.122415 0.0646069 1
      vertex 0.113581 -0.219489 1
    endloop
  endfacet
  facet normal 0.284096 -0.00883336 0
    outer loop
      vertex 0.122415 0.0646069 0
      vertex 0.113581 -0.219489 1
      vertex 0.113581 -0.219489 0
    endloop
  endfacet
  facet normal 0.292574 -0.00923221 0
    outer loop
      vertex 0.113581 -0.219489 0
      vertex 0.113581 -0.219489 1
      vertex 0.104349 -0.512063 1
    endloop
  endfacet
  facet normal 0.292574 -0.00923221 0
    outer loop
      vertex 0.113581 -0.219489 0
      vertex 0.104349 -0.512063 1
      vertex 0.104349 -0.512063 0
    endloop
  endfacet
  facet normal 0.301172 -0.00951047 0
    outer loop
      vertex 0.104349 -0.512063 0
      vertex 0.104349 -0.512063 1
      vertex 0.0948388 -0.813235 1
    endloop
  endfacet
  facet normal 0.301172 -0.00951047 0
    outer loop
      vertex 0.104349 -0.512063 0
      vertex 0.0948388 -0.813235 1
      vertex 0.0948388 -0.813235 0
    endloop
  endfacet
  facet normal 0.309891 -0.00966815 0
    outer loop
      vertex 0.0948388 -0.813235 0
      vertex 0.0948388 -0.813235 1
      vertex 0.0851707 -1.12313 1
    endloop
  endfacet
  facet normal 0.309891 -0.00966815 0
    outer loop
      vertex 0.0948388 -0.813235 0
      vertex 0.0851707 -1.12313 1
      vertex 0.0851707 -1.12313 0
    endloop
  endfacet
  facet normal 0.318731 -0.00970526 0
    outer loop
      vertex 0.0851707 -1.12313 0
      vertex 0.0851707 -1.12313 1
      vertex 0.0754654 -1.44186 1
    endloop
  endfacet
  facet normal 0.318731 -0.00970526 0
    outer loop
      vertex 0.0851707 -1.12313 0
      vertex 0.0754654 -1.44186 1
      vertex 0.0754654 -1.44186 0
    endloop
  endfacet
  facet normal 0.327691 -0.00962178 0
    outer loop
      vertex 0.0754654 -1.44186 0
      vertex 0.0754654 -1.44186 1
      vertex 0.0658436 -1.76955 1
    endloop
  endfacet
  facet normal 0.327691 -0.00962178 0
    outer loop
      vertex 0.0754654 -1.44186 0
      vertex 0.0658436 -1.76955 1
      vertex 0.0658436 -1.76955 0
    endloop
  endfacet
  facet normal 0.336771 -0.00941772 0
    outer loop
      vertex 0.0658436 -1.76955 0
      vertex 0.0658436 -1.76955 1
      vertex 0.0564259 -2.10632 1
    endloop
  endfacet
  facet normal 0.336771 -0.00941772 0
    outer loop
      vertex 0.0658436 -1.76955 0
      vertex 0.0564259 -2.10632 1
      vertex 0.0564259 -2.10632 0
    endloop
  endfacet
  facet normal 0.345973 -0.00909307 0
    outer loop
      vertex 0.0564259 -2.10632 0
      vertex 0.0564259 -2.10632 1
      vertex 0.0473328 -2.45229 1
    endloop
  endfacet
  facet normal 0.345973 -0.00909307 0
    outer loop
      vertex 0.0564259 -2.10632 0
      vertex 0.0473328 -2.45229 1
      vertex 0.0473328 -2.45229 0
    endloop
  endfacet
  facet normal 0.355295 -0.00864785 0
    outer loop
      vertex 0.0473328 -2.45229 0
      vertex 0.0473328 -2.45229 1
      vertex 0.038685 -2.80759 1
    endloop
  endfacet
  facet normal 0.355295 -0.00864785 0
    outer loop
      vertex 0.0473328 -2.45229 0
      vertex 0.038685 -2.80759 1
      vertex 0.038685 -2.80759 0
    endloop
  endfacet
  facet normal 0.364737 -0.00808204 0
    outer loop
      vertex 0.038685 -2.80759 0
      vertex 0.038685 -2.80759 1
      vertex 0.0306029 -3.17232 1
    endloop
  endfacet
  facet normal 0.364737 -0.00808204 0
    outer loop
      vertex 0.038685 -2.80759 0
      vertex 0.0306029 -3.17232 1
      vertex 0.0306029 -3.17232 0
    endloop
  endfacet
  facet normal 0.3743 -0.00739566 0
    outer loop
      vertex 0.0306029 -3.17232 0
      vertex 0.0306029 -3.17232 1
      vertex 0.0232073 -3.54662 1
    endloop
  endfacet
  facet normal 0.3743 -0.00739566 0
    outer loop
      vertex 0.0306029 -3.17232 0
      vertex 0.0232073 -3.54662 1
      vertex 0.0232073 -3.54662 0
    endloop
  endfacet
  facet normal 0.383984 -0.00658869 0
    outer loop
      vertex 0.0232073 -3.54662 0
      vertex 0.0232073 -3.54662 1
      vertex 0.0166186 -3.93061 1
    endloop
  endfacet
  facet normal 0.383984 -0.00658869 0
    outer loop
      vertex 0.0232073 -3.54662 0
      vertex 0.0166186 -3.93061 1
      vertex 0.0166186 -3.93061 0
    endloop
  endfacet
  facet normal 0.393788 -0.00566114 0
    outer loop
      vertex 0.0166186 -3.93061 0
      vertex 0.0166186 -3.93061 1
      vertex 0.0109574 -4.32439 1
    endloop
  endfacet
  facet normal 0.393788 -0.00566114 0
    outer loop
      vertex 0.0166186 -3.93061 0
      vertex 0.0109574 -4.32439 1
      vertex 0.0109574 -4.32439 0
    endloop
  endfacet
  facet normal 0.403713 -0.00461301 0
    outer loop
      vertex 0.0109574 -4.32439 0
      vertex 0.0109574 -4.32439 1
      vertex 0.00634444 -4.72811 1
    endloop
  endfacet
  facet normal 0.403713 -0.00461301 0
    outer loop
      vertex 0.0109574 -4.32439 0
      vertex 0.00634444 -4.72811 1
      vertex 0.00634444 -4.72811 0
    endloop
  endfacet
  facet normal 0.413758 -0.0034443 0
    outer loop
      vertex 0.00634444 -4.72811 0
      vertex 0.00634444 -4.72811 1
      vertex 0.00290014 -5.14187 1
    endloop
  endfacet
  facet normal 0.413758 -0.0034443 0
    outer loop
      vertex 0.00634444 -4.72811 0
      vertex 0.00290014 -5.14187 1
      vertex 0.00290014 -5.14187 0
    endloop
  endfacet
  facet normal 0.423924 -0.00215501 0
    outer loop
      vertex 0.00290014 -5.14187 0
      vertex 0.00290014 -5.14187 1
      vertex 0.000745131 -5.56579 1
    endloop
  endfacet
  facet normal 0.423924 -0.00215501 0
    outer loop
      vertex 0.00290014 -5.14187 0
      vertex 0.000745131 -5.56579 1
      vertex 0.000745131 -5.56579 0
    endloop
  endfacet
  facet normal 0.43421 -0.000745131 0
    outer loop
      vertex 0.000745131 -5.56579 0
      vertex 0.000745131 -5.56579 1
      vertex 0 -6 1
    endloop
  endfacet
  facet normal 0.43421 -0.000745131 0
    outer loop
      vertex 0.000745131 -5.56579 0
      vertex 0 -6 1
      vertex 0 -6 0
    endloop
  endfacet
  facet normal 0.0007305 -0.42992 0
    outer loop
      vertex 0 -6 0
      vertex 0 -6 1
      vertex -0.42992 -6.00073 1
    endloop
  endfacet
  facet normal 0.0007305 -0.42992 0
    outer loop
      vertex 0 -6 0
      vertex -0.42992 -6.00073 1
      vertex -0.42992 -6.00073 0
    endloop
  endfacet
  facet normal 0.0021135 -0.419837 0
    outer loop
      vertex -0.42992 -6.00073 0
      vertex -0.42992 -6.00073 1
      vertex -0.849756 -6.00284 1
    endloop
  endfacet
  facet normal 0.0021135 -0.419837 0
    outer loop
      vertex -0.42992 -6.00073 0
      vertex -0.849756 -6.00284 1
      vertex -0.849756 -6.00284 0
    endloop
  endfacet
  facet normal 0.0033795 -0.409871 0
    outer loop
      vertex -0.849756 -6.00284 0
      vertex -0.849756 -6.00284 1
      vertex -1.25963 -6.00622 1
    endloop
  endfacet
  facet normal 0.0033795 -0.409871 0
    outer loop
      vertex -0.849756 -6.00284 0
      vertex -1.25963 -6.00622 1
      vertex -1.25963 -6.00622 0
    endloop
  endfacet
  facet normal 0.0045285 -0.400022 0
    outer loop
      vertex -1.25963 -6.00622 0
      vertex -1.25963 -6.00622 1
      vertex -1.65965 -6.01075 1
    endloop
  endfacet
  facet normal 0.0045285 -0.400022 0
    outer loop
      vertex -1.25963 -6.00622 0
      vertex -1.65965 -6.01075 1
      vertex -1.65965 -6.01075 0
    endloop
  endfacet
  facet normal 0.0055605 -0.390289 0
    outer loop
      vertex -1.65965 -6.01075 0
      vertex -1.65965 -6.01075 1
      vertex -2.04994 -6.01631 1
    endloop
  endfacet
  facet normal 0.0055605 -0.390289 0
    outer loop
      vertex -1.65965 -6.01075 0
      vertex -2.04994 -6.01631 1
      vertex -2.04994 -6.01631 0
    endloop
  endfacet
  facet normal 0.0064755 -0.380675 0
    outer loop
      vertex -2.04994 -6.01631 0
      vertex -2.04994 -6.01631 1
      vertex -2.43061 -6.02279 1
    endloop
  endfacet
  facet normal 0.0064755 -0.380675 0
    outer loop
      vertex -2.04994 -6.01631 0
      vertex -2.43061 -6.02279 1
      vertex -2.43061 -6.02279 0
    endloop
  endfacet
  facet normal 0.0072735 -0.371177 0
    outer loop
      vertex -2.43061 -6.02279 0
      vertex -2.43061 -6.02279 1
      vertex -2.80179 -6.03006 1
    endloop
  endfacet
  facet normal 0.0072735 -0.371177 0
    outer loop
      vertex -2.43061 -6.02279 0
      vertex -2.80179 -6.03006 1
      vertex -2.80179 -6.03006 0
    endloop
  endfacet
  facet normal 0.0079545 -0.361796 0
    outer loop
      vertex -2.80179 -6.03006 0
      vertex -2.80179 -6.03006 1
      vertex -3.16358 -6.03802 1
    endloop
  endfacet
  facet normal 0.0079545 -0.361796 0
    outer loop
      vertex -2.80179 -6.03006 0
      vertex -3.16358 -6.03802 1
      vertex -3.16358 -6.03802 0
    endloop
  endfacet
  facet normal 0.0085185 -0.352532 0
    outer loop
      vertex -3.16358 -6.03802 0
      vertex -3.16358 -6.03802 1
      vertex -3.51612 -6.04653 1
    endloop
  endfacet
  facet normal 0.0085185 -0.352532 0
    outer loop
      vertex -3.16358 -6.03802 0
      vertex -3.51612 -6.04653 1
      vertex -3.51612 -6.04653 0
    endloop
  endfacet
  facet normal 0.0089655 -0.343385 0
    outer loop
      vertex -3.51612 -6.04653 0
      vertex -3.51612 -6.04653 1
      vertex -3.8595 -6.0555 1
    endloop
  endfacet
  facet normal 0.0089655 -0.343385 0
    outer loop
      vertex -3.51612 -6.04653 0
      vertex -3.8595 -6.0555 1
      vertex -3.8595 -6.0555 0
    endloop
  endfacet
  facet normal 0.0092955 -0.334355 0
    outer loop
      vertex -3.8595 -6.0555 0
      vertex -3.8595 -6.0555 1
      vertex -4.19385 -6.0648 1
    endloop
  endfacet
  facet normal 0.0092955 -0.334355 0
    outer loop
      vertex -3.8595 -6.0555 0
      vertex -4.19385 -6.0648 1
      vertex -4.19385 -6.0648 0
    endloop
  endfacet
  facet normal 0.0095085 -0.325442 0
    outer loop
      vertex -4.19385 -6.0648 0
      vertex -4.19385 -6.0648 1
      vertex -4.5193 -6.0743 1
    endloop
  endfacet
  facet normal 0.0095085 -0.325442 0
    outer loop
      vertex -4.19385 -6.0648 0
      vertex -4.5193 -6.0743 1
      vertex -4.5193 -6.0743 0
    endloop
  endfacet
  facet normal 0.0096045 -0.316646 0
    outer loop
      vertex -4.5193 -6.0743 0
      vertex -4.5193 -6.0743 1
      vertex -4.83594 -6.08391 1
    endloop
  endfacet
  facet normal 0.0096045 -0.316646 0
    outer loop
      vertex -4.5193 -6.0743 0
      vertex -4.83594 -6.08391 1
      vertex -4.83594 -6.08391 0
    endloop
  endfacet
  facet normal 0.0095835 -0.307967 0
    outer loop
      vertex -4.83594 -6.08391 0
      vertex -4.83594 -6.08391 1
      vertex -5.14391 -6.09349 1
    endloop
  endfacet
  facet normal 0.0095835 -0.307967 0
    outer loop
      vertex -4.83594 -6.08391 0
      vertex -5.14391 -6.09349 1
      vertex -5.14391 -6.09349 0
    endloop
  endfacet
  facet normal 0.0094455 -0.299404 0
    outer loop
      vertex -5.14391 -6.09349 0
      vertex -5.14391 -6.09349 1
      vertex -5.44331 -6.10294 1
    endloop
  endfacet
  facet normal 0.0094455 -0.299404 0
    outer loop
      vertex -5.14391 -6.09349 0
      vertex -5.44331 -6.10294 1
      vertex -5.44331 -6.10294 0
    endloop
  endfacet
  facet normal 0.0091905 -0.29096 0
    outer loop
      vertex -5.44331 -6.10294 0
      vertex -5.44331 -6.10294 1
      vertex -5.73427 -6.11213 1
    endloop
  endfacet
  facet normal 0.0091905 -0.29096 0
    outer loop
      vertex -5.44331 -6.10294 0
      vertex -5.73427 -6.11213 1
      vertex -5.73427 -6.11213 0
    endloop
  endfacet
  facet normal 0.0088185 -0.282631 0
    outer loop
      vertex -5.73427 -6.11213 0
      vertex -5.73427 -6.11213 1
      vertex -6.0169 -6.12095 1
    endloop
  endfacet
  facet normal 0.0088185 -0.282631 0
    outer loop
      vertex -5.73427 -6.11213 0
      vertex -6.0169 -6.12095 1
      vertex -6.0169 -6.12095 0
    endloop
  endfacet
  facet normal 0.0083295 -0.27442 0
    outer loop
      vertex -6.0169 -6.12095 0
      vertex -6.0169 -6.12095 1
      vertex -6.29132 -6.12928 1
    endloop
  endfacet
  facet normal 0.0083295 -0.27442 0
    outer loop
      vertex -6.0169 -6.12095 0
      vertex -6.29132 -6.12928 1
      vertex -6.29132 -6.12928 0
    endloop
  endfacet
  facet normal 0.0077235 -0.266327 0
    outer loop
      vertex -6.29132 -6.12928 0
      vertex -6.29132 -6.12928 1
      vertex -6.55765 -6.137 1
    endloop
  endfacet
  facet normal 0.0077235 -0.266327 0
    outer loop
      vertex -6.29132 -6.12928 0
      vertex -6.55765 -6.137 1
      vertex -6.55765 -6.137 0
    endloop
  endfacet
  facet normal 0.0070005 -0.25835 0
    outer loop
      vertex -6.55765 -6.137 0
      vertex -6.55765 -6.137 1
      vertex -6.816 -6.144 1
    endloop
  endfacet
  facet normal 0.0070005 -0.25835 0
    outer loop
      vertex -6.55765 -6.137 0
      vertex -6.816 -6.144 1
      vertex -6.816 -6.144 0
    endloop
  endfacet
  facet normal 0.0061605 -0.250489 0
    outer loop
      vertex -6.816 -6.144 0
      vertex -6.816 -6.144 1
      vertex -7.06649 -6.15016 1
    endloop
  endfacet
  facet normal 0.0061605 -0.250489 0
    outer loop
      vertex -6.816 -6.144 0
      vertex -7.06649 -6.15016 1
      vertex -7.06649 -6.15016 0
    endloop
  endfacet
  facet normal 0.0052035 -0.242746 0
    outer loop
      vertex -7.06649 -6.15016 0
      vertex -7.06649 -6.15016 1
      vertex -7.30924 -6.15536 1
    endloop
  endfacet
  facet normal 0.0052035 -0.242746 0
    outer loop
      vertex -7.06649 -6.15016 0
      vertex -7.30924 -6.15536 1
      vertex -7.30924 -6.15536 0
    endloop
  endfacet
  facet normal 0.0041295 -0.23512 0
    outer loop
      vertex -7.30924 -6.15536 0
      vertex -7.30924 -6.15536 1
      vertex -7.54436 -6.15949 1
    endloop
  endfacet
  facet normal 0.0041295 -0.23512 0
    outer loop
      vertex -7.30924 -6.15536 0
      vertex -7.54436 -6.15949 1
      vertex -7.54436 -6.15949 0
    endloop
  endfacet
  facet normal 0.0029385 -0.227612 0
    outer loop
      vertex -7.54436 -6.15949 0
      vertex -7.54436 -6.15949 1
      vertex -7.77197 -6.16243 1
    endloop
  endfacet
  facet normal 0.0029385 -0.227612 0
    outer loop
      vertex -7.54436 -6.15949 0
      vertex -7.77197 -6.16243 1
      vertex -7.77197 -6.16243 0
    endloop
  endfacet
  facet normal 0.0016305 -0.22022 0
    outer loop
      vertex -7.77197 -6.16243 0
      vertex -7.77197 -6.16243 1
      vertex -7.99219 -6.16406 1
    endloop
  endfacet
  facet normal 0.0016305 -0.22022 0
    outer loop
      vertex -7.77197 -6.16243 0
      vertex -7.99219 -6.16406 1
      vertex -7.99219 -6.16406 0
    endloop
  endfacet
  facet normal 0.0002055 -0.212945 0
    outer loop
      vertex -7.99219 -6.16406 0
      vertex -7.99219 -6.16406 1
      vertex -8.20513 -6.16427 1
    endloop
  endfacet
  facet normal 0.0002055 -0.212945 0
    outer loop
      vertex -7.99219 -6.16406 0
      vertex -8.20513 -6.16427 1
      vertex -8.20513 -6.16427 0
    endloop
  endfacet
  facet normal -0.0013365 -0.205786 0
    outer loop
      vertex -8.20513 -6.16427 0
      vertex -8.20513 -6.16427 1
      vertex -8.41092 -6.16293 1
    endloop
  endfacet
  facet normal -0.0013365 -0.205786 0
    outer loop
      vertex -8.20513 -6.16427 0
      vertex -8.41092 -6.16293 1
      vertex -8.41092 -6.16293 0
    endloop
  endfacet
  facet normal -0.0029955 -0.198746 0
    outer loop
      vertex -8.41092 -6.16293 0
      vertex -8.41092 -6.16293 1
      vertex -8.60966 -6.15994 1
    endloop
  endfacet
  facet normal -0.0029955 -0.198746 0
    outer loop
      vertex -8.41092 -6.16293 0
      vertex -8.60966 -6.15994 1
      vertex -8.60966 -6.15994 0
    endloop
  endfacet
  facet normal -0.0047715 -0.191822 0
    outer loop
      vertex -8.60966 -6.15994 0
      vertex -8.60966 -6.15994 1
      vertex -8.80149 -6.15516 1
    endloop
  endfacet
  facet normal -0.0047715 -0.191822 0
    outer loop
      vertex -8.60966 -6.15994 0
      vertex -8.80149 -6.15516 1
      vertex -8.80149 -6.15516 0
    endloop
  endfacet
  facet normal -0.0066645 -0.185014 0
    outer loop
      vertex -8.80149 -6.15516 0
      vertex -8.80149 -6.15516 1
      vertex -8.9865 -6.1485 1
    endloop
  endfacet
  facet normal -0.0066645 -0.185014 0
    outer loop
      vertex -8.80149 -6.15516 0
      vertex -8.9865 -6.1485 1
      vertex -8.9865 -6.1485 0
    endloop
  endfacet
  facet normal -0.0086745 -0.178324 0
    outer loop
      vertex -8.9865 -6.1485 0
      vertex -8.9865 -6.1485 1
      vertex -9.16482 -6.13983 1
    endloop
  endfacet
  facet normal -0.0086745 -0.178324 0
    outer loop
      vertex -8.9865 -6.1485 0
      vertex -9.16482 -6.13983 1
      vertex -9.16482 -6.13983 0
    endloop
  endfacet
  facet normal -0.0108015 -0.171752 0
    outer loop
      vertex -9.16482 -6.13983 0
      vertex -9.16482 -6.13983 1
      vertex -9.33658 -6.12902 1
    endloop
  endfacet
  facet normal -0.0108015 -0.171752 0
    outer loop
      vertex -9.16482 -6.13983 0
      vertex -9.33658 -6.12902 1
      vertex -9.33658 -6.12902 0
    endloop
  endfacet
  facet normal -0.0130455 -0.165296 0
    outer loop
      vertex -9.33658 -6.12902 0
      vertex -9.33658 -6.12902 1
      vertex -9.50187 -6.11598 1
    endloop
  endfacet
  facet normal -0.0130455 -0.165296 0
    outer loop
      vertex -9.33658 -6.12902 0
      vertex -9.50187 -6.11598 1
      vertex -9.50187 -6.11598 0
    endloop
  endfacet
  facet normal -0.0154065 -0.158957 0
    outer loop
      vertex -9.50187 -6.11598 0
      vertex -9.50187 -6.11598 1
      vertex -9.66083 -6.10057 1
    endloop
  endfacet
  facet normal -0.0154065 -0.158957 0
    outer loop
      vertex -9.50187 -6.11598 0
      vertex -9.66083 -6.10057 1
      vertex -9.66083 -6.10057 0
    endloop
  endfacet
  facet normal -0.0178845 -0.152734 0
    outer loop
      vertex -9.66083 -6.10057 0
      vertex -9.66083 -6.10057 1
      vertex -9.81356 -6.08269 1
    endloop
  endfacet
  facet normal -0.0178845 -0.152734 0
    outer loop
      vertex -9.66083 -6.10057 0
      vertex -9.81356 -6.08269 1
      vertex -9.81356 -6.08269 0
    endloop
  endfacet
  facet normal -0.0204795 -0.146629 0
    outer loop
      vertex -9.81356 -6.08269 0
      vertex -9.81356 -6.08269 1
      vertex -9.96019 -6.06221 1
    endloop
  endfacet
  facet normal -0.0204795 -0.146629 0
    outer loop
      vertex -9.81356 -6.08269 0
      vertex -9.96019 -6.06221 1
      vertex -9.96019 -6.06221 0
    endloop
  endfacet
  facet normal -0.0231915 -0.140642 0
    outer loop
      vertex -9.96019 -6.06221 0
      vertex -9.96019 -6.06221 1
      vertex -10.1008 -6.03902 1
    endloop
  endfacet
  facet normal -0.0231915 -0.140642 0
    outer loop
      vertex -9.96019 -6.06221 0
      vertex -10.1008 -6.03902 1
      vertex -10.1008 -6.03902 0
    endloop
  endfacet
  facet normal -0.0260205 -0.134771 0
    outer loop
      vertex -10.1008 -6.03902 0
      vertex -10.1008 -6.03902 1
      vertex -10.2356 -6.013 1
    endloop
  endfacet
  facet normal -0.0260205 -0.134771 0
    outer loop
      vertex -10.1008 -6.03902 0
      vertex -10.2356 -6.013 1
      vertex -10.2356 -6.013 0
    endloop
  endfacet
  facet normal -0.0289665 -0.129016 0
    outer loop
      vertex -10.2356 -6.013 0
      vertex -10.2356 -6.013 1
      vertex -10.3646 -5.98403 1
    endloop
  endfacet
  facet normal -0.0289665 -0.129016 0
    outer loop
      vertex -10.2356 -6.013 0
      vertex -10.3646 -5.98403 1
      vertex -10.3646 -5.98403 0
    endloop
  endfacet
  facet normal -0.0320295 -0.12338 0
    outer loop
      vertex -10.3646 -5.98403 0
      vertex -10.3646 -5.98403 1
      vertex -10.488 -5.952 1
    endloop
  endfacet
  facet normal -0.0320295 -0.12338 0
    outer loop
      vertex -10.3646 -5.98403 0
      vertex -10.488 -5.952 1
      vertex -10.488 -5.952 0
    endloop
  endfacet
  facet normal -0.0352095 -0.117859 0
    outer loop
      vertex -10.488 -5.952 0
      vertex -10.488 -5.952 1
      vertex -10.6059 -5.91679 1
    endloop
  endfacet
  facet normal -0.0352095 -0.117859 0
    outer loop
      vertex -10.488 -5.952 0
      vertex -10.6059 -5.91679 1
      vertex -10.6059 -5.91679 0
    endloop
  endfacet
  facet normal -0.0385065 -0.112457 0
    outer loop
      vertex -10.6059 -5.91679 0
      vertex -10.6059 -5.91679 1
      vertex -10.7183 -5.87828 1
    endloop
  endfacet
  facet normal -0.0385065 -0.112457 0
    outer loop
      vertex -10.6059 -5.91679 0
      vertex -10.7183 -5.87828 1
      vertex -10.7183 -5.87828 0
    endloop
  endfacet
  facet normal -0.0419205 -0.10717 0
    outer loop
      vertex -10.7183 -5.87828 0
      vertex -10.7183 -5.87828 1
      vertex -10.8255 -5.83636 1
    endloop
  endfacet
  facet normal -0.0419205 -0.10717 0
    outer loop
      vertex -10.7183 -5.87828 0
      vertex -10.8255 -5.83636 1
      vertex -10.8255 -5.83636 0
    endloop
  endfacet
  facet normal -0.0454515 -0.102002 0
    outer loop
      vertex -10.8255 -5.83636 0
      vertex -10.8255 -5.83636 1
      vertex -10.9275 -5.79091 1
    endloop
  endfacet
  facet normal -0.0454515 -0.102002 0
    outer loop
      vertex -10.8255 -5.83636 0
      vertex -10.9275 -5.79091 1
      vertex -10.9275 -5.79091 0
    endloop
  endfacet
  facet normal -0.0490995 -0.0969495 0
    outer loop
      vertex -10.9275 -5.79091 0
      vertex -10.9275 -5.79091 1
      vertex -11.0244 -5.74181 1
    endloop
  endfacet
  facet normal -0.0490995 -0.0969495 0
    outer loop
      vertex -10.9275 -5.79091 0
      vertex -11.0244 -5.74181 1
      vertex -11.0244 -5.74181 0
    endloop
  endfacet
  facet normal -0.0528645 -0.0920145 0
    outer loop
      vertex -11.0244 -5.74181 0
      vertex -11.0244 -5.74181 1
      vertex -11.1165 -5.68895 1
    endloop
  endfacet
  facet normal -0.0528645 -0.0920145 0
    outer loop
      vertex -11.0244 -5.74181 0
      vertex -11.1165 -5.68895 1
      vertex -11.1165 -5.68895 0
    endloop
  endfacet
  facet normal -0.0567465 -0.0871965 0
    outer loop
      vertex -11.1165 -5.68895 0
      vertex -11.1165 -5.68895 1
      vertex -11.2036 -5.6322 1
    endloop
  endfacet
  facet normal -0.0567465 -0.0871965 0
    outer loop
      vertex -11.1165 -5.68895 0
      vertex -11.2036 -5.6322 1
      vertex -11.2036 -5.6322 0
    endloop
  endfacet
  facet normal -0.0607455 -0.0824955 0
    outer loop
      vertex -11.2036 -5.6322 0
      vertex -11.2036 -5.6322 1
      vertex -11.2861 -5.57146 1
    endloop
  endfacet
  facet normal -0.0607455 -0.0824955 0
    outer loop
      vertex -11.2036 -5.6322 0
      vertex -11.2861 -5.57146 1
      vertex -11.2861 -5.57146 0
    endloop
  endfacet
  facet normal -0.0648615 -0.0779115 0
    outer loop
      vertex -11.2861 -5.57146 0
      vertex -11.2861 -5.57146 1
      vertex -11.3641 -5.50659 1
    endloop
  endfacet
  facet normal -0.0648615 -0.0779115 0
    outer loop
      vertex -11.2861 -5.57146 0
      vertex -11.3641 -5.50659 1
      vertex -11.3641 -5.50659 0
    endloop
  endfacet
  facet normal -0.0690945 -0.0734445 0
    outer loop
      vertex -11.3641 -5.50659 0
      vertex -11.3641 -5.50659 1
      vertex -11.4375 -5.4375 1
    endloop
  endfacet
  facet normal -0.0690945 -0.0734445 0
    outer loop
      vertex -11.3641 -5.50659 0
      vertex -11.4375 -5.4375 1
      vertex -11.4375 -5.4375 0
    endloop
  endfacet
  facet normal -0.0734445 -0.0690945 0
    outer loop
      vertex -11.4375 -5.4375 0
      vertex -11.4375 -5.4375 1
      vertex -11.5066 -5.36406 1
    endloop
  endfacet
  facet normal -0.0734445 -0.0690945 0
    outer loop
      vertex -11.4375 -5.4375 0
      vertex -11.5066 -5.36406 1
      vertex -11.5066 -5.36406 0
    endloop
  endfacet
  facet normal -0.0779115 -0.0648615 0
    outer loop
      vertex -11.5066 -5.36406 0
      vertex -11.5066 -5.36406 1
      vertex -11.5715 -5.28614 1
    endloop
  endfacet
  facet normal -0.0779115 -0.0648615 0
    outer loop
      vertex -11.5066 -5.36406 0
      vertex -11.5715 -5.28614 1
      vertex -11.5715 -5.28614 0
    endloop
  endfacet
  facet normal -0.0824955 -0.0607455 0
    outer loop
      vertex -11.5715 -5.28614 0
      vertex -11.5715 -5.28614 1
      vertex -11.6322 -5.20365 1
    endloop
  endfacet
  facet normal -0.0824955 -0.0607455 0
    outer loop
      vertex -11.5715 -5.28614 0
      vertex -11.6322 -5.20365 1
      vertex -11.6322 -5.20365 0
    endloop
  endfacet
  facet normal -0.0871965 -0.0567465 0
    outer loop
      vertex -11.6322 -5.20365 0
      vertex -11.6322 -5.20365 1
      vertex -11.6889 -5.11645 1
    endloop
  endfacet
  facet normal -0.0871965 -0.0567465 0
    outer loop
      vertex -11.6322 -5.20365 0
      vertex -11.6889 -5.11645 1
      vertex -11.6889 -5.11645 0
    endloop
  endfacet
  facet normal -0.0920145 -0.0528645 0
    outer loop
      vertex -11.6889 -5.11645 0
      vertex -11.6889 -5.11645 1
      vertex -11.7418 -5.02444 1
    endloop
  endfacet
  facet normal -0.0920145 -0.0528645 0
    outer loop
      vertex -11.6889 -5.11645 0
      vertex -11.7418 -5.02444 1
      vertex -11.7418 -5.02444 0
    endloop
  endfacet
  facet normal -0.0969495 -0.0490995 0
    outer loop
      vertex -11.7418 -5.02444 0
      vertex -11.7418 -5.02444 1
      vertex -11.7909 -4.92749 1
    endloop
  endfacet
  facet normal -0.0969495 -0.0490995 0
    outer loop
      vertex -11.7418 -5.02444 0
      vertex -11.7909 -4.92749 1
      vertex -11.7909 -4.92749 0
    endloop
  endfacet
  facet normal -0.102001 -0.0454515 0
    outer loop
      vertex -11.7909 -4.92749 0
      vertex -11.7909 -4.92749 1
      vertex -11.8364 -4.82549 1
    endloop
  endfacet
  facet normal -0.102001 -0.0454515 0
    outer loop
      vertex -11.7909 -4.92749 0
      vertex -11.8364 -4.82549 1
      vertex -11.8364 -4.82549 0
    endloop
  endfacet
  facet normal -0.107171 -0.0419205 0
    outer loop
      vertex -11.8364 -4.82549 0
      vertex -11.8364 -4.82549 1
      vertex -11.8783 -4.71832 1
    endloop
  endfacet
  facet normal -0.107171 -0.0419205 0
    outer loop
      vertex -11.8364 -4.82549 0
      vertex -11.8783 -4.71832 1
      vertex -11.8783 -4.71832 0
    endloop
  endfacet
  facet normal -0.112457 -0.0385065 0
    outer loop
      vertex -11.8783 -4.71832 0
      vertex -11.8783 -4.71832 1
      vertex -11.9168 -4.60586 1
    endloop
  endfacet
  facet normal -0.112457 -0.0385065 0
    outer loop
      vertex -11.8783 -4.71832 0
      vertex -11.9168 -4.60586 1
      vertex -11.9168 -4.60586 0
    endloop
  endfacet
  facet normal -0.117859 -0.0352095 0
    outer loop
      vertex -11.9168 -4.60586 0
      vertex -11.9168 -4.60586 1
      vertex -11.952 -4.488 1
    endloop
  endfacet
  facet normal -0.117859 -0.0352095 0
    outer loop
      vertex -11.9168 -4.60586 0
      vertex -11.952 -4.488 1
      vertex -11.952 -4.488 0
    endloop
  endfacet
  facet normal -0.12338 -0.0320295 0
    outer loop
      vertex -11.952 -4.488 0
      vertex -11.952 -4.488 1
      vertex -11.984 -4.36462 1
    endloop
  endfacet
  facet normal -0.12338 -0.0320295 0
    outer loop
      vertex -11.952 -4.488 0
      vertex -11.984 -4.36462 1
      vertex -11.984 -4.36462 0
    endloop
  endfacet
  facet normal -0.129016 -0.0289665 0
    outer loop
      vertex -11.984 -4.36462 0
      vertex -11.984 -4.36462 1
      vertex -12.013 -4.2356 1
    endloop
  endfacet
  facet normal -0.129016 -0.0289665 0
    outer loop
      vertex -11.984 -4.36462 0
      vertex -12.013 -4.2356 1
      vertex -12.013 -4.2356 0
    endloop
  endfacet
  facet normal -0.134771 -0.0260205 0
    outer loop
      vertex -12.013 -4.2356 0
      vertex -12.013 -4.2356 1
      vertex -12.039 -4.10083 1
    endloop
  endfacet
  facet normal -0.134771 -0.0260205 0
    outer loop
      vertex -12.013 -4.2356 0
      vertex -12.039 -4.10083 1
      vertex -12.039 -4.10083 0
    endloop
  endfacet
  facet normal -0.140642 -0.0231915 0
    outer loop
      vertex -12.039 -4.10083 0
      vertex -12.039 -4.10083 1
      vertex -12.0622 -3.96019 1
    endloop
  endfacet
  facet normal -0.140642 -0.0231915 0
    outer loop
      vertex -12.039 -4.10083 0
      vertex -12.0622 -3.96019 1
      vertex -12.0622 -3.96019 0
    endloop
  endfacet
  facet normal -0.14663 -0.0204795 0
    outer loop
      vertex -12.0622 -3.96019 0
      vertex -12.0622 -3.96019 1
      vertex -12.0827 -3.81356 1
    endloop
  endfacet
  facet normal -0.14663 -0.0204795 0
    outer loop
      vertex -12.0622 -3.96019 0
      vertex -12.0827 -3.81356 1
      vertex -12.0827 -3.81356 0
    endloop
  endfacet
  facet normal -0.152735 -0.0178845 0
    outer loop
      vertex -12.0827 -3.81356 0
      vertex -12.0827 -3.81356 1
      vertex -12.1006 -3.66083 1
    endloop
  endfacet
  facet normal -0.152735 -0.0178845 0
    outer loop
      vertex -12.0827 -3.81356 0
      vertex -12.1006 -3.66083 1
      vertex -12.1006 -3.66083 0
    endloop
  endfacet
  facet normal -0.158956 -0.0154065 0
    outer loop
      vertex -12.1006 -3.66083 0
      vertex -12.1006 -3.66083 1
      vertex -12.116 -3.50187 1
    endloop
  endfacet
  facet normal -0.158956 -0.0154065 0
    outer loop
      vertex -12.1006 -3.66083 0
      vertex -12.116 -3.50187 1
      vertex -12.116 -3.50187 0
    endloop
  endfacet
  facet normal -0.165296 -0.0130455 0
    outer loop
      vertex -12.116 -3.50187 0
      vertex -12.116 -3.50187 1
      vertex -12.129 -3.33658 1
    endloop
  endfacet
  facet normal -0.165296 -0.0130455 0
    outer loop
      vertex -12.116 -3.50187 0
      vertex -12.129 -3.33658 1
      vertex -12.129 -3.33658 0
    endloop
  endfacet
  facet normal -0.171752 -0.0108015 0
    outer loop
      vertex -12.129 -3.33658 0
      vertex -12.129 -3.33658 1
      vertex -12.1398 -3.16482 1
    endloop
  endfacet
  facet normal -0.171752 -0.0108015 0
    outer loop
      vertex -12.129 -3.33658 0
      vertex -12.1398 -3.16482 1
      vertex -12.1398 -3.16482 0
    endloop
  endfacet
  facet normal -0.178324 -0.0086745 0
    outer loop
      vertex -12.1398 -3.16482 0
      vertex -12.1398 -3.16482 1
      vertex -12.1485 -2.9865 1
    endloop
  endfacet
  facet normal -0.178324 -0.0086745 0
    outer loop
      vertex -12.1398 -3.16482 0
      vertex -12.1485 -2.9865 1
      vertex -12.1485 -2.9865 0
    endloop
  endfacet
  facet normal -0.185014 -0.0066645 0
    outer loop
      vertex -12.1485 -2.9865 0
      vertex -12.1485 -2.9865 1
      vertex -12.1552 -2.80149 1
    endloop
  endfacet
  facet normal -0.185014 -0.0066645 0
    outer loop
      vertex -12.1485 -2.9865 0
      vertex -12.1552 -2.80149 1
      vertex -12.1552 -2.80149 0
    endloop
  endfacet
  facet normal -0.191821 -0.0047715 0
    outer loop
      vertex -12.1552 -2.80149 0
      vertex -12.1552 -2.80149 1
      vertex -12.1599 -2.60966 1
    endloop
  endfacet
  facet normal -0.191821 -0.0047715 0
    outer loop
      vertex -12.1552 -2.80149 0
      vertex -12.1599 -2.60966 1
      vertex -12.1599 -2.60966 0
    endloop
  endfacet
  facet normal -0.198746 -0.0029955 0
    outer loop
      vertex -12.1599 -2.60966 0
      vertex -12.1599 -2.60966 1
      vertex -12.1629 -2.41092 1
    endloop
  endfacet
  facet normal -0.198746 -0.0029955 0
    outer loop
      vertex -12.1599 -2.60966 0
      vertex -12.1629 -2.41092 1
      vertex -12.1629 -2.41092 0
    endloop
  endfacet
  facet normal -0.205786 -0.0013365 0
    outer loop
      vertex -12.1629 -2.41092 0
      vertex -12.1629 -2.41092 1
      vertex -12.1643 -2.20513 1
    endloop
  endfacet
  facet normal -0.205786 -0.0013365 0
    outer loop
      vertex -12.1629 -2.41092 0
      vertex -12.1643 -2.20513 1
      vertex -12.1643 -2.20513 0
    endloop
  endfacet
  facet normal -0.212945 0.0002055 0
    outer loop
      vertex -12.1643 -2.20513 0
      vertex -12.1643 -2.20513 1
      vertex -12.1641 -1.99219 1
    endloop
  endfacet
  facet normal -0.212945 0.0002055 0
    outer loop
      vertex -12.1643 -2.20513 0
      vertex -12.1641 -1.99219 1
      vertex -12.1641 -1.99219 0
    endloop
  endfacet
  facet normal -0.22022 0.0016305 0
    outer loop
      vertex -12.1641 -1.99219 0
      vertex -12.1641 -1.99219 1
      vertex -12.1624 -1.77197 1
    endloop
  endfacet
  facet normal -0.22022 0.0016305 0
    outer loop
      vertex -12.1641 -1.99219 0
      vertex -12.1624 -1.77197 1
      vertex -12.1624 -1.77197 0
    endloop
  endfacet
  facet normal -0.227611 0.0029385 0
    outer loop
      vertex -12.1624 -1.77197 0
      vertex -12.1624 -1.77197 1
      vertex -12.1595 -1.54436 1
    endloop
  endfacet
  facet normal -0.227611 0.0029385 0
    outer loop
      vertex -12.1624 -1.77197 0
      vertex -12.1595 -1.54436 1
      vertex -12.1595 -1.54436 0
    endloop
  endfacet
  facet normal -0.23512 0.0041295 0
    outer loop
      vertex -12.1595 -1.54436 0
      vertex -12.1595 -1.54436 1
      vertex -12.1554 -1.30924 1
    endloop
  endfacet
  facet normal -0.23512 0.0041295 0
    outer loop
      vertex -12.1595 -1.54436 0
      vertex -12.1554 -1.30924 1
      vertex -12.1554 -1.30924 0
    endloop
  endfacet
  facet normal -0.242747 0.0052035 0
    outer loop
      vertex -12.1554 -1.30924 0
      vertex -12.1554 -1.30924 1
      vertex -12.1502 -1.06649 1
    endloop
  endfacet
  facet normal -0.242747 0.0052035 0
    outer loop
      vertex -12.1554 -1.30924 0
      vertex -12.1502 -1.06649 1
      vertex -12.1502 -1.06649 0
    endloop
  endfacet
  facet normal -0.250489 0.0061605 0
    outer loop
      vertex -12.1502 -1.06649 0
      vertex -12.1502 -1.06649 1
      vertex -12.144 -0.816 1
    endloop
  endfacet
  facet normal -0.250489 0.0061605 0
    outer loop
      vertex -12.1502 -1.06649 0
      vertex -12.144 -0.816 1
      vertex -12.144 -0.816 0
    endloop
  endfacet
  facet normal -0.258349 0.0070005 0
    outer loop
      vertex -12.144 -0.816 0
      vertex -12.144 -0.816 1
      vertex -12.137 -0.557651 1
    endloop
  endfacet
  facet normal -0.258349 0.0070005 0
    outer loop
      vertex -12.144 -0.816 0
      vertex -12.137 -0.557651 1
      vertex -12.137 -0.557651 0
    endloop
  endfacet
  facet normal -0.266327 0.0077235 0
    outer loop
      vertex -12.137 -0.557651 0
      vertex -12.137 -0.557651 1
      vertex -12.1293 -0.291324 1
    endloop
  endfacet
  facet normal -0.266327 0.0077235 0
    outer loop
      vertex -12.137 -0.557651 0
      vertex -12.1293 -0.291324 1
      vertex -12.1293 -0.291324 0
    endloop
  endfacet
  facet normal -0.27442 0.0083295 0
    outer loop
      vertex -12.1293 -0.291324 0
      vertex -12.1293 -0.291324 1
      vertex -12.1209 -0.0169035 1
    endloop
  endfacet
  facet normal -0.27442 0.0083295 0
    outer loop
      vertex -12.1293 -0.291324 0
      vertex -12.1209 -0.0169035 1
      vertex -12.1209 -0.0169035 0
    endloop
  endfacet
  facet normal -0.282632 0.0088185 0
    outer loop
      vertex -12.1209 -0.0169035 0
      vertex -12.1209 -0.0169035 1
      vertex -12.1121 0.265728 1
    endloop
  endfacet
  facet normal -0.282632 0.0088185 0
    outer loop
      vertex -12.1209 -0.0169035 0
      vertex -12.1121 0.265728 1
      vertex -12.1121 0.265728 0
    endloop
  endfacet
  facet normal -0.29096 0.0091905 0
    outer loop
      vertex -12.1121 0.265728 0
      vertex -12.1121 0.265728 1
      vertex -12.1029 0.556687 1
    endloop
  endfacet
  facet normal -0.29096 0.0091905 0
    outer loop
      vertex -12.1121 0.265728 0
      vertex -12.1029 0.556687 1
      vertex -12.1029 0.556687 0
    endloop
  endfacet
  facet normal -0.299404 0.0094455 0
    outer loop
      vertex -12.1029 0.556687 0
      vertex -12.1029 0.556687 1
      vertex -12.0935 0.856092 1
    endloop
  endfacet
  facet normal -0.299404 0.0094455 0
    outer loop
      vertex -12.1029 0.556687 0
      vertex -12.0935 0.856092 1
      vertex -12.0935 0.856092 0
    endloop
  endfacet
  facet normal -0.307966 0.0095835 0
    outer loop
      vertex -12.0935 0.856092 0
      vertex -12.0935 0.856092 1
      vertex -12.0839 1.16406 1
    endloop
  endfacet
  facet normal -0.307966 0.0095835 0
    outer loop
      vertex -12.0935 0.856092 0
      vertex -12.0839 1.16406 1
      vertex -12.0839 1.16406 0
    endloop
  endfacet
  facet normal -0.316646 0.0096045 0
    outer loop
      vertex -12.0839 1.16406 0
      vertex -12.0839 1.16406 1
      vertex -12.0743 1.4807 1
    endloop
  endfacet
  facet normal -0.316646 0.0096045 0
    outer loop
      vertex -12.0839 1.16406 0
      vertex -12.0743 1.4807 1
      vertex -12.0743 1.4807 0
    endloop
  endfacet
  facet normal -0.325441 0.0095085 0
    outer loop
      vertex -12.0743 1.4807 0
      vertex -12.0743 1.4807 1
      vertex -12.0648 1.80615 1
    endloop
  endfacet
  facet normal -0.325441 0.0095085 0
    outer loop
      vertex -12.0743 1.4807 0
      vertex -12.0648 1.80615 1
      vertex -12.0648 1.80615 0
    endloop
  endfacet
  facet normal -0.334355 0.0092955 0
    outer loop
      vertex -12.0648 1.80615 0
      vertex -12.0648 1.80615 1
      vertex -12.0555 2.1405 1
    endloop
  endfacet
  facet normal -0.334355 0.0092955 0
    outer loop
      vertex -12.0648 1.80615 0
      vertex -12.0555 2.1405 1
      vertex -12.0555 2.1405 0
    endloop
  endfacet
  facet normal -0.343385 0.0089655 0
    outer loop
      vertex -12.0555 2.1405 0
      vertex -12.0555 2.1405 1
      vertex -12.0465 2.48388 1
    endloop
  endfacet
  facet normal -0.343385 0.0089655 0
    outer loop
      vertex -12.0555 2.1405 0
      vertex -12.0465 2.48388 1
      vertex -12.0465 2.48388 0
    endloop
  endfacet
  facet normal -0.352531 0.0085185 0
    outer loop
      vertex -12.0465 2.48388 0
      vertex -12.0465 2.48388 1
      vertex -12.038 2.83642 1
    endloop
  endfacet
  facet normal -0.352531 0.0085185 0
    outer loop
      vertex -12.0465 2.48388 0
      vertex -12.038 2.83642 1
      vertex -12.038 2.83642 0
    endloop
  endfacet
  facet normal -0.361795 0.0079545 0
    outer loop
      vertex -12.038 2.83642 0
      vertex -12.038 2.83642 1
      vertex -12.0301 3.19821 1
    endloop
  endfacet
  facet normal -0.361795 0.0079545 0
    outer loop
      vertex -12.038 2.83642 0
      vertex -12.0301 3.19821 1
      vertex -12.0301 3.19821 0
    endloop
  endfacet
  facet normal -0.371176 0.0072735 0
    outer loop
      vertex -12.0301 3.19821 0
      vertex -12.0301 3.19821 1
      vertex -12.0228 3.56939 1
    endloop
  endfacet
  facet normal -0.371176 0.0072735 0
    outer loop
      vertex -12.0301 3.19821 0
      vertex -12.0228 3.56939 1
      vertex -12.0228 3.56939 0
    endloop
  endfacet
  facet normal -0.380675 0.0064755 0
    outer loop
      vertex -12.0228 3.56939 0
      vertex -12.0228 3.56939 1
      vertex -12.0163 3.95006 1
    endloop
  endfacet
  facet normal -0.380675 0.0064755 0
    outer loop
      vertex -12.0228 3.56939 0
      vertex -12.0163 3.95006 1
      vertex -12.0163 3.95006 0
    endloop
  endfacet
  facet normal -0.390289 0.0055605 0
    outer loop
      vertex -12.0163 3.95006 0
      vertex -12.0163 3.95006 1
      vertex -12.0108 4.34035 1
    endloop
  endfacet
  facet normal -0.390289 0.0055605 0
    outer loop
      vertex -12.0163 3.95006 0
      vertex -12.0108 4.34035 1
      vertex -12.0108 4.34035 0
    endloop
  endfacet
  facet normal -0.400022 0.0045285 0
    outer loop
      vertex -12.0108 4.34035 0
      vertex -12.0108 4.34035 1
      vertex -12.0062 4.74037 1
    endloop
  endfacet
  facet normal -0.400022 0.0045285 0
    outer loop
      vertex -12.0108 4.34035 0
      vertex -12.0062 4.74037 1
      vertex -12.0062 4.74037 0
    endloop
  endfacet
  facet normal -0.40987 0.0033795 0
    outer loop
      vertex -12.0062 4.74037 0
      vertex -12.0062 4.74037 1
      vertex -12.0028 5.15024 1
    endloop
  endfacet
  facet normal -0.40987 0.0033795 0
    outer loop
      vertex -12.0062 4.74037 0
      vertex -12.0028 5.15024 1
      vertex -12.0028 5.15024 0
    endloop
  endfacet
  facet normal -0.419837 0.0021135 0
    outer loop
      vertex -12.0028 5.15024 0
      vertex -12.0028 5.15024 1
      vertex -12.0007 5.57008 1
    endloop
  endfacet
  facet normal -0.419837 0.0021135 0
    outer loop
      vertex -12.0028 5.15024 0
      vertex -12.0007 5.57008 1
      vertex -12.0007 5.57008 0
    endloop
  endfacet
  facet normal -0.429919 0.0007305 0
    outer loop
      vertex -12.0007 5.57008 0
      vertex -12.0007 5.57008 1
      vertex -12 6 1
    endloop
  endfacet
  facet normal -0.429919 0.0007305 0
    outer loop
      vertex -12.0007 5.57008 0
      vertex -12 6 1
      vertex -12 6 0
    endloop
  endfacet
endsolid fault
solid top
  facet normal 0 100 0
    outer loop
      vertex -50 50 0
      vertex -50 50 1
      vertex 50 50 1
    endloop
  endfacet
  facet normal 0 100 0
    outer loop
      vertex -50 50 0
      vertex 50 50 1
      vertex 50 50 0
    endloop
  endfacet
endsolid top
solid right
  facet normal 100 0 0
    outer loop
      vertex 50 50 0
      vertex 50 50 1
      vertex 50 -50 1
    endloop
  endfacet
  facet normal 100 0 0
    outer loop
      vertex 50 50 0
      vertex 50 -50 1
      vertex 50 -50 0
    endloop
  endfacet
endsolid right
solid bottom
  facet normal 0 -100 0
    outer loop
      vertex 50 -50 0
      vertex 50 -50 1
      vertex -50 -50 1
    endloop
  endfacet
  facet normal 0 -100 0
    outer loop
      vertex 50 -50 0
      vertex -50 -50 1
      vertex -50 -50 0
    endloop
  endfacet
endsolid bottom
solid left
  facet normal -100 0 0
    outer loop
      vertex -50 -50 0
      vertex -50 -50 1
      vertex -50 50 1
    endloop
  endfacet
  facet normal -100 0 0
    outer loop
      vertex -50 -50 0
      vertex -50 50 1
      vertex -50 50 0
    endloop
  endfacet
endsolid left
