solid fault
  facet normal 0.0397259 -0.020268 0
    outer loop
      vertex -16 16 0
      vertex -16 16 1
      vertex -16.0203 15.9603 1
    endloop
  endfacet
  facet normal 0.0397259 -0.020268 0
    outer loop
      vertex -16 16 0
      vertex -16.0203 15.9603 1
      vertex -16.0203 15.9603 0
    endloop
  endfacet
  facet normal 0.0583078 -0.000461713 0
    outer loop
      vertex -16.0203 15.9603 0
      vertex -16.0203 15.9603 1
      vertex -16.0207 15.902 1
    endloop
  endfacet
  facet normal 0.0583078 -0.000461713 0
    outer loop
      vertex -16.0203 15.9603 0
      vertex -16.0207 15.902 1
      vertex -16.0207 15.902 0
    endloop
  endfacet
  facet normal 0.0764939 0.0189488 -0
    outer loop
      vertex -16.0207 15.902 0
      vertex -16.0207 15.902 1
      vertex -16.0018 15.8255 1
    endloop
  endfacet
  facet normal 0.0764939 0.0189488 0
    outer loop
      vertex -16.0207 15.902 0
      vertex -16.0018 15.8255 1
      vertex -16.0018 15.8255 0
    endloop
  endfacet
  facet normal 0.0942843 0.0379636 -0
    outer loop
      vertex -16.0018 15.8255 0
      vertex -16.0018 15.8255 1
      vertex -15.9638 15.7312 1
    endloop
  endfacet
  facet normal 0.0942843 0.0379636 0
    outer loop
      vertex -16.0018 15.8255 0
      vertex -15.9638 15.7312 1
      vertex -15.9638 15.7312 0
    endloop
  endfacet
  facet normal 0.111679 0.0565826 -0
    outer loop
      vertex -15.9638 15.7312 0
      vertex -15.9638 15.7312 1
      vertex -15.9072 15.6195 1
    endloop
  endfacet
  facet normal 0.111679 0.0565826 0
    outer loop
      vertex -15.9638 15.7312 0
      vertex -15.9072 15.6195 1
      vertex -15.9072 15.6195 0
    endloop
  endfacet
  facet normal 0.128678 0.0748058 -0
    outer loop
      vertex -15.9072 15.6195 0
      vertex -15.9072 15.6195 1
      vertex -15.8324 15.4908 1
    endloop
  endfacet
  facet normal 0.128678 0.0748058 0
    outer loop
      vertex -15.9072 15.6195 0
      vertex -15.8324 15.4908 1
      vertex -15.8324 15.4908 0
    endloop
  endfacet
  facet normal 0.145281 0.0926333 -0
    outer loop
      vertex -15.8324 15.4908 0
      vertex -15.8324 15.4908 1
      vertex -15.7398 15.3456 1
    endloop
  endfacet
  facet normal 0.145281 0.0926333 0
    outer loop
      vertex -15.8324 15.4908 0
      vertex -15.7398 15.3456 1
      vertex -15.7398 15.3456 0
    endloop
  endfacet
  facet normal 0.161488 0.110065 -0
    outer loop
      vertex -15.7398 15.3456 0
      vertex -15.7398 15.3456 1
      vertex -15.6297 15.1841 1
    endloop
  endfacet
  facet normal 0.161488 0.110065 0
    outer loop
      vertex -15.7398 15.3456 0
      vertex -15.6297 15.1841 1
      vertex -15.6297 15.1841 0
    endloop
  endfacet
  facet normal 0.1773 0.127101 -0
    outer loop
      vertex -15.6297 15.1841 0
      vertex -15.6297 15.1841 1
      vertex -15.5026 15.0068 1
    endloop
  endfacet
  facet normal 0.1773 0.127101 0
    outer loop
      vertex -15.6297 15.1841 0
      vertex -15.5026 15.0068 1
      vertex -15.5026 15.0068 0
    endloop
  endfacet
  facet normal 0.192716 0.143741 -0
    outer loop
      vertex -15.5026 15.0068 0
      vertex -15.5026 15.0068 1
      vertex -15.3589 14.814 1
    endloop
  endfacet
  facet normal 0.192716 0.143741 0
    outer loop
      vertex -15.5026 15.0068 0
      vertex -15.3589 14.814 1
      vertex -15.3589 14.814 0
    endloop
  endfacet
  facet normal 0.207736 0.159986 -0
    outer loop
      vertex -15.3589 14.814 0
      vertex -15.3589 14.814 1
      vertex -15.1989 14.6063 1
    endloop
  endfacet
  facet normal 0.207736 0.159986 0
    outer loop
      vertex -15.3589 14.814 0
      vertex -15.1989 14.6063 1
      vertex -15.1989 14.6063 0
    endloop
  endfacet
  facet normal 0.22236 0.175834 -0
    outer loop
      vertex -15.1989 14.6063 0
      vertex -15.1989 14.6063 1
      vertex -15.0231 14.3839 1
    endloop
  endfacet
  facet normal 0.22236 0.175834 0
    outer loop
      vertex -15.1989 14.6063 0
      vertex -15.0231 14.3839 1
      vertex -15.0231 14.3839 0
    endloop
  endfacet
  facet normal 0.236589 0.191287 -0
    outer loop
      vertex -15.0231 14.3839 0
      vertex -15.0231 14.3839 1
      vertex -14.8318 14.1474 1
    endloop
  endfacet
  facet normal 0.236589 0.191287 0
    outer loop
      vertex -15.0231 14.3839 0
      vertex -14.8318 14.1474 1
      vertex -14.8318 14.1474 0
    endloop
  endfacet
  facet normal 0.250422 0.206345 -0
    outer loop
      vertex -14.8318 14.1474 0
      vertex -14.8318 14.1474 1
      vertex -14.6254 13.8969 1
    endloop
  endfacet
  facet normal 0.250422 0.206345 0
    outer loop
      vertex -14.8318 14.1474 0
      vertex -14.6254 13.8969 1
      vertex -14.6254 13.8969 0
    endloop
  endfacet
  facet normal 0.263859 0.221006 -0
    outer loop
      vertex -14.6254 13.8969 0
      vertex -14.6254 13.8969 1
      vertex -14.4044 13.6331 1
    endloop
  endfacet
  facet normal 0.263859 0.221006 0
    outer loop
      vertex -14.6254 13.8969 0
      vertex -14.4044 13.6331 1
      vertex -14.4044 13.6331 0
    endloop
  endfacet
  facet normal 0.2769 0.235272 -0
    outer loop
      vertex -14.4044 13.6331 0
      vertex -14.4044 13.6331 1
      vertex -14.1692 13.3562 1
    endloop
  endfacet
  facet normal 0.2769 0.235272 0
    outer loop
      vertex -14.4044 13.6331 0
      vertex -14.1692 13.3562 1
      vertex -14.1692 13.3562 0
    endloop
  endfacet
  facet normal 0.289546 0.249142 -0
    outer loop
      vertex -14.1692 13.3562 0
      vertex -14.1692 13.3562 1
      vertex -13.92 13.0666 1
    endloop
  endfacet
  facet normal 0.289546 0.249142 0
    outer loop
      vertex -14.1692 13.3562 0
      vertex -13.92 13.0666 1
      vertex -13.92 13.0666 0
    endloop
  endfacet
  facet normal 0.301796 0.262616 -0
    outer loop
      vertex -13.92 13.0666 0
      vertex -13.92 13.0666 1
      vertex -13.6574 12.7648 1
    endloop
  endfacet
  facet normal 0.301796 0.262616 0
    outer loop
      vertex -13.92 13.0666 0
      vertex -13.6574 12.7648 1
      vertex -13.6574 12.7648 0
    endloop
  endfacet
  facet normal 0.31365 0.275694 -0
    outer loop
      vertex -13.6574 12.7648 0
      vertex -13.6574 12.7648 1
      vertex -13.3817 12.4512 1
    endloop
  endfacet
  facet normal 0.31365 0.275694 0
    outer loop
      vertex -13.6574 12.7648 0
      vertex -13.3817 12.4512 1
      vertex -13.3817 12.4512 0
    endloop
  endfacet
  facet normal 0.325108 0.288377 -0
    outer loop
      vertex -13.3817 12.4512 0
      vertex -13.3817 12.4512 1
      vertex -13.0933 12.1261 1
    endloop
  endfacet
  facet normal 0.325108 0.288377 0
    outer loop
      vertex -13.3817 12.4512 0
      vertex -13.0933 12.1261 1
      vertex -13.0933 12.1261 0
    endloop
  endfacet
  facet normal 0.336171 0.300664 -0
    outer loop
      vertex -13.0933 12.1261 0
      vertex -13.0933 12.1261 1
      vertex -12.7927 11.7899 1
    endloop
  endfacet
  facet normal 0.336171 0.300664 0
    outer loop
      vertex -13.0933 12.1261 0
      vertex -12.7927 11.7899 1
      vertex -12.7927 11.7899 0
    endloop
  endfacet
  facet normal 0.346837 0.312555 -0
    outer loop
      vertex -12.7927 11.7899 0
      vertex -12.7927 11.7899 1
      vertex -12.4801 11.4431 1
    endloop
  endfacet
  facet normal 0.346837 0.312555 0
    outer loop
      vertex -12.7927 11.7899 0
      vertex -12.4801 11.4431 1
      vertex -12.4801 11.4431 0
    endloop
  endfacet
  facet normal 0.357108 0.324051 -0
    outer loop
      vertex -12.4801 11.4431 0
      vertex -12.4801 11.4431 1
      vertex -12.1561 11.086 1
    endloop
  endfacet
  facet normal 0.357108 0.324051 0
    outer loop
      vertex -12.4801 11.4431 0
      vertex -12.1561 11.086 1
      vertex -12.1561 11.086 0
    endloop
  endfacet
  facet normal 0.366984 0.33515 -0
    outer loop
      vertex -12.1561 11.086 0
      vertex -12.1561 11.086 1
      vertex -11.8209 10.719 1
    endloop
  endfacet
  facet normal 0.366984 0.33515 0
    outer loop
      vertex -12.1561 11.086 0
      vertex -11.8209 10.719 1
      vertex -11.8209 10.719 0
    endloop
  endfacet
  facet normal 0.376463 0.345854 -0
    outer loop
      vertex -11.8209 10.719 0
      vertex -11.8209 10.719 1
      vertex -11.4751 10.3425 1
    endloop
  endfacet
  facet normal 0.376463 0.345854 0
    outer loop
      vertex -11.8209 10.719 0
      vertex -11.4751 10.3425 1
      vertex -11.4751 10.3425 0
    endloop
  endfacet
  facet normal 0.385547 0.356162 -0
    outer loop
      vertex -11.4751 10.3425 0
      vertex -11.4751 10.3425 1
      vertex -11.1189 9.95697 1
    endloop
  endfacet
  facet normal 0.385547 0.356162 0
    outer loop
      vertex -11.4751 10.3425 0
      vertex -11.1189 9.95697 1
      vertex -11.1189 9.95697 0
    endloop
  endfacet
  facet normal 0.394235 0.366075 -0
    outer loop
      vertex -11.1189 9.95697 0
      vertex -11.1189 9.95697 1
      vertex -10.7528 9.56273 1
    endloop
  endfacet
  facet normal 0.394235 0.366075 0
    outer loop
      vertex -11.1189 9.95697 0
      vertex -10.7528 9.56273 1
      vertex -10.7528 9.56273 0
    endloop
  endfacet
  facet normal 0.402527 0.375591 -0
    outer loop
      vertex -10.7528 9.56273 0
      vertex -10.7528 9.56273 1
      vertex -10.3772 9.16021 1
    endloop
  endfacet
  facet normal 0.402527 0.375591 0
    outer loop
      vertex -10.7528 9.56273 0
      vertex -10.3772 9.16021 1
      vertex -10.3772 9.16021 0
    endloop
  endfacet
  facet normal 0.410424 0.384712 -0
    outer loop
      vertex -10.3772 9.16021 0
      vertex -10.3772 9.16021 1
      vertex -9.99251 8.74978 1
    endloop
  endfacet
  facet normal 0.410424 0.384712 0
    outer loop
      vertex -10.3772 9.16021 0
      vertex -9.99251 8.74978 1
      vertex -9.99251 8.74978 0
    endloop
  endfacet
  facet normal 0.417925 0.393437 -0
    outer loop
      vertex -9.99251 8.74978 0
      vertex -9.99251 8.74978 1
      vertex -9.59908 8.33186 1
    endloop
  endfacet
  facet normal 0.417925 0.393437 0
    outer loop
      vertex -9.99251 8.74978 0
      vertex -9.59908 8.33186 1
      vertex -9.59908 8.33186 0
    endloop
  endfacet
  facet normal 0.42503 0.401767 -0
    outer loop
      vertex -9.59908 8.33186 0
      vertex -9.59908 8.33186 1
      vertex -9.19731 7.90683 1
    endloop
  endfacet
  facet normal 0.42503 0.401767 0
    outer loop
      vertex -9.59908 8.33186 0
      vertex -9.19731 7.90683 1
      vertex -9.19731 7.90683 0
    endloop
  endfacet
  facet normal 0.431739 0.409701 -0
    outer loop
      vertex -9.19731 7.90683 0
      vertex -9.19731 7.90683 1
      vertex -8.78761 7.47509 1
    endloop
  endfacet
  facet normal 0.431739 0.409701 0
    outer loop
      vertex -9.19731 7.90683 0
      vertex -8.78761 7.47509 1
      vertex -8.78761 7.47509 0
    endloop
  endfacet
  facet normal 0.438053 0.417238 -0
    outer loop
      vertex -8.78761 7.47509 0
      vertex -8.78761 7.47509 1
      vertex -8.37037 7.03704 1
    endloop
  endfacet
  facet normal 0.438053 0.417238 0
    outer loop
      vertex -8.78761 7.47509 0
      vertex -8.37037 7.03704 1
      vertex -8.37037 7.03704 0
    endloop
  endfacet
  facet normal 0.44397 0.424381 -0
    outer loop
      vertex -8.37037 7.03704 0
      vertex -8.37037 7.03704 1
      vertex -7.94599 6.59307 1
    endloop
  endfacet
  facet normal 0.44397 0.424381 0
    outer loop
      vertex -8.37037 7.03704 0
      vertex -7.94599 6.59307 1
      vertex -7.94599 6.59307 0
    endloop
  endfacet
  facet normal 0.449492 0.431127 -0
    outer loop
      vertex -7.94599 6.59307 0
      vertex -7.94599 6.59307 1
      vertex -7.51486 6.14357 1
    endloop
  endfacet
  facet normal 0.449492 0.431127 0
    outer loop
      vertex -7.94599 6.59307 0
      vertex -7.51486 6.14357 1
      vertex -7.51486 6.14357 0
    endloop
  endfacet
  facet normal 0.454619 0.437478 -0
    outer loop
      vertex -7.51486 6.14357 0
      vertex -7.51486 6.14357 1
      vertex -7.07739 5.68896 1
    endloop
  endfacet
  facet normal 0.454619 0.437478 0
    outer loop
      vertex -7.51486 6.14357 0
      vertex -7.07739 5.68896 1
      vertex -7.07739 5.68896 0
    endloop
  endfacet
  facet normal 0.459349 0.443432 -0
    outer loop
      vertex -7.07739 5.68896 0
      vertex -7.07739 5.68896 1
      vertex -6.63395 5.22961 1
    endloop
  endfacet
  facet normal 0.459349 0.443432 0
    outer loop
      vertex -7.07739 5.68896 0
      vertex -6.63395 5.22961 1
      vertex -6.63395 5.22961 0
    endloop
  endfacet
  facet normal 0.463684 0.448991 -0
    outer loop
      vertex -6.63395 5.22961 0
      vertex -6.63395 5.22961 1
      vertex -6.18496 4.76592 1
    endloop
  endfacet
  facet normal 0.463684 0.448991 0
    outer loop
      vertex -6.63395 5.22961 0
      vertex -6.18496 4.76592 1
      vertex -6.18496 4.76592 0
    endloop
  endfacet
  facet normal 0.467623 0.454155 -0
    outer loop
      vertex -6.18496 4.76592 0
      vertex -6.18496 4.76592 1
      vertex -5.73081 4.2983 1
    endloop
  endfacet
  facet normal 0.467623 0.454155 0
    outer loop
      vertex -6.18496 4.76592 0
      vertex -5.73081 4.2983 1
      vertex -5.73081 4.2983 0
    endloop
  endfacet
  facet normal 0.471166 0.458922 -0
    outer loop
      vertex -5.73081 4.2983 0
      vertex -5.73081 4.2983 1
      vertex -5.27188 3.82713 1
    endloop
  endfacet
  facet normal 0.471166 0.458922 0
    outer loop
      vertex -5.73081 4.2983 0
      vertex -5.27188 3.82713 1
      vertex -5.27188 3.82713 0
    endloop
  endfacet
  facet normal 0.474314 0.463294 -0
    outer loop
      vertex -5.27188 3.82713 0
      vertex -5.27188 3.82713 1
      vertex -4.80859 3.35282 1
    endloop
  endfacet
  facet normal 0.474314 0.463294 0
    outer loop
      vertex -5.27188 3.82713 0
      vertex -4.80859 3.35282 1
      vertex -4.80859 3.35282 0
    endloop
  endfacet
  facet normal 0.477065 0.46727 -0
    outer loop
      vertex -4.80859 3.35282 0
      vertex -4.80859 3.35282 1
      vertex -4.34132 2.87575 1
    endloop
  endfacet
  facet normal 0.477065 0.46727 0
    outer loop
      vertex -4.80859 3.35282 0
      vertex -4.34132 2.87575 1
      vertex -4.34132 2.87575 0
    endloop
  endfacet
  facet normal 0.479421 0.470851 -0
    outer loop
      vertex -4.34132 2.87575 0
      vertex -4.34132 2.87575 1
      vertex -3.87047 2.39633 1
    endloop
  endfacet
  facet normal 0.479421 0.470851 0
    outer loop
      vertex -4.34132 2.87575 0
      vertex -3.87047 2.39633 1
      vertex -3.87047 2.39633 0
    endloop
  endfacet
  facet normal 0.481382 0.474035 -0
    outer loop
      vertex -3.87047 2.39633 0
      vertex -3.87047 2.39633 1
      vertex -3.39643 1.91495 1
    endloop
  endfacet
  facet normal 0.481382 0.474035 0
    outer loop
      vertex -3.87047 2.39633 0
      vertex -3.39643 1.91495 1
      vertex -3.39643 1.91495 0
    endloop
  endfacet
  facet normal 0.482946 0.476824 -0
    outer loop
      vertex -3.39643 1.91495 0
      vertex -3.39643 1.91495 1
      vertex -2.91961 1.43201 1
    endloop
  endfacet
  facet normal 0.482946 0.476824 0
    outer loop
      vertex -3.39643 1.91495 0
      vertex -2.91961 1.43201 1
      vertex -2.91961 1.43201 0
    endloop
  endfacet
  facet normal 0.484115 0.479217 -0
    outer loop
      vertex -2.91961 1.43201 0
      vertex -2.91961 1.43201 1
      vertex -2.44039 0.947891 1
    endloop
  endfacet
  facet normal 0.484115 0.479217 0
    outer loop
      vertex -2.91961 1.43201 0
      vertex -2.44039 0.947891 1
      vertex -2.44039 0.947891 0
    endloop
  endfacet
  facet normal 0.484888 0.481215 -0
    outer loop
      vertex -2.44039 0.947891 0
      vertex -2.44039 0.947891 1
      vertex -1.95918 0.463004 1
    endloop
  endfacet
  facet normal 0.484888 0.481215 0
    outer loop
      vertex -2.44039 0.947891 0
      vertex -1.95918 0.463004 1
      vertex -1.95918 0.463004 0
    endloop
  endfacet
  facet normal 0.485265 0.482816 -0
    outer loop
      vertex -1.95918 0.463004 0
      vertex -1.95918 0.463004 1
      vertex -1.47636 -0.0222612 1
    endloop
  endfacet
  facet normal 0.485265 0.482816 0
    outer loop
      vertex -1.95918 0.463004 0
      vertex -1.47636 -0.0222612 1
      vertex -1.47636 -0.0222612 0
    endloop
  endfacet
  facet normal 0.485246 0.484022 -0
    outer loop
      vertex -1.47636 -0.0222612 0
      vertex -1.47636 -0.0222612 1
      vertex -0.992339 -0.507507 1
    endloop
  endfacet
  facet normal 0.485246 0.484022 0
    outer loop
      vertex -1.47636 -0.0222612 0
      vertex -0.992339 -0.507507 1
      vertex -0.992339 -0.507507 0
    endloop
  endfacet
  facet normal 0.484832 0.484832 -0
    outer loop
      vertex -0.992339 -0.507507 0
      vertex -0.992339 -0.507507 1
      vertex -0.507507 -0.992339 1
    endloop
  endfacet
  facet normal 0.484832 0.484832 0
    outer loop
      vertex -0.992339 -0.507507 0
      vertex -0.507507 -0.992339 1
      vertex -0.507507 -0.992339 0
    endloop
  endfacet
  facet normal 0.484022 0.485246 -0
    outer loop
      vertex -0.507507 -0.992339 0
      vertex -0.507507 -0.992339 1
      vertex -0.0222612 -1.47636 1
    endloop
  endfacet
  facet normal 0.484022 0.485246 0
    outer loop
      vertex -0.507507 -0.992339 0
      vertex -0.0222612 -1.47636 1
      vertex -0.0222612 -1.47636 0
    endloop
  endfacet
  facet normal 0.482816 0.485265 -0
    outer loop
      vertex -0.0222612 -1.47636 0
      vertex -0.0222612 -1.47636 1
      vertex 0.463004 -1.95918 1
    endloop
  endfacet
  facet normal 0.482816 0.485265 0
    outer loop
      vertex -0.0222612 -1.47636 0
      vertex 0.463004 -1.95918 1
      vertex 0.463004 -1.95918 0
    endloop
  endfacet
  facet normal 0.481215 0.484888 -0
    outer loop
      vertex 0.463004 -1.95918 0
      vertex 0.463004 -1.95918 1
      vertex 0.947891 -2.44039 1
    endloop
  endfacet
  facet normal 0.481215 0.484888 0
    outer loop
      vertex 0.463004 -1.95918 0
      vertex 0.947891 -2.44039 1
      vertex 0.947891 -2.44039 0
    endloop
  endfacet
  facet normal 0.479217 0.484115 -0
    outer loop
      vertex 0.947891 -2.44039 0
      vertex 0.947891 -2.44039 1
      vertex 1.43201 -2.91961 1
    endloop
  endfacet
  facet normal 0.479217 0.484115 0
    outer loop
      vertex 0.947891 -2.44039 0
      vertex 1.43201 -2.91961 1
      vertex 1.43201 -2.91961 0
    endloop
  endfacet
  facet normal 0.476824 0.482946 -0
    outer loop
      vertex 1.43201 -2.91961 0
      vertex 1.43201 -2.91961 1
      vertex 1.91495 -3.39643 1
    endloop
  endfacet
  facet normal 0.476824 0.482946 0
    outer loop
      vertex 1.43201 -2.91961 0
      vertex 1.91495 -3.39643 1
      vertex 1.91495 -3.39643 0
    endloop
  endfacet
  facet normal 0.474035 0.481382 -0
    outer loop
      vertex 1.91495 -3.39643 0
      vertex 1.91495 -3.39643 1
      vertex 2.39633 -3.87047 1
    endloop
  endfacet
  facet normal 0.474035 0.481382 0
    outer loop
      vertex 1.91495 -3.39643 0
      vertex 2.39633 -3.87047 1
      vertex 2.39633 -3.87047 0
    endloop
  endfacet
  facet normal 0.470851 0.479421 -0
    outer loop
      vertex 2.39633 -3.87047 0
      vertex 2.39633 -3.87047 1
      vertex 2.87575 -4.34132 1
    endloop
  endfacet
  facet normal 0.470851 0.479421 0
    outer loop
      vertex 2.39633 -3.87047 0
      vertex 2.87575 -4.34132 1
      vertex 2.87575 -4.34132 0
    endloop
  endfacet
  facet normal 0.46727 0.477065 -0
    outer loop
      vertex 2.87575 -4.34132 0
      vertex 2.87575 -4.34132 1
      vertex 3.35282 -4.80859 1
    endloop
  endfacet
  facet normal 0.46727 0.477065 0
    outer loop
      vertex 2.87575 -4.34132 0
      vertex 3.35282 -4.80859 1
      vertex 3.35282 -4.80859 0
    endloop
  endfacet
  facet normal 0.463294 0.474314 -0
    outer loop
      vertex 3.35282 -4.80859 0
      vertex 3.35282 -4.80859 1
      vertex 3.82713 -5.27188 1
    endloop
  endfacet
  facet normal 0.463294 0.474314 0
    outer loop
      vertex 3.35282 -4.80859 0
      vertex 3.82713 -5.27188 1
      vertex 3.82713 -5.27188 0
    endloop
  endfacet
  facet normal 0.458922 0.471166 -0
    outer loop
      vertex 3.82713 -5.27188 0
      vertex 3.82713 -5.27188 1
      vertex 4.2983 -5.73081 1
    endloop
  endfacet
  facet normal 0.458922 0.471166 0
    outer loop
      vertex 3.82713 -5.27188 0
      vertex 4.2983 -5.73081 1
      vertex 4.2983 -5.73081 0
    endloop
  endfacet
  facet normal 0.454155 0.467623 -0
    outer loop
      vertex 4.2983 -5.73081 0
      vertex 4.2983 -5.73081 1
      vertex 4.76592 -6.18496 1
    endloop
  endfacet
  facet normal 0.454155 0.467623 0
    outer loop
      vertex 4.2983 -5.73081 0
      vertex 4.76592 -6.18496 1
      vertex 4.76592 -6.18496 0
    endloop
  endfacet
  facet normal 0.448991 0.463684 -0
    outer loop
      vertex 4.76592 -6.18496 0
      vertex 4.76592 -6.18496 1
      vertex 5.22961 -6.63395 1
    endloop
  endfacet
  facet normal 0.448991 0.463684 0
    outer loop
      vertex 4.76592 -6.18496 0
      vertex 5.22961 -6.63395 1
      vertex 5.22961 -6.63395 0
    endloop
  endfacet
  facet normal 0.443432 0.459349 -0
    outer loop
      vertex 5.22961 -6.63395 0
      vertex 5.22961 -6.63395 1
      vertex 5.68896 -7.07739 1
    endloop
  endfacet
  facet normal 0.443432 0.459349 0
    outer loop
      vertex 5.22961 -6.63395 0
      vertex 5.68896 -7.07739 1
      vertex 5.68896 -7.07739 0
    endloop
  endfacet
  facet normal 0.437478 0.454619 -0
    outer loop
      vertex 5.68896 -7.07739 0
      vertex 5.68896 -7.07739 1
      vertex 6.14357 -7.51486 1
    endloop
  endfacet
  facet normal 0.437478 0.454619 0
    outer loop
      vertex 5.68896 -7.07739 0
      vertex 6.14357 -7.51486 1
      vertex 6.14357 -7.51486 0
    endloop
  endfacet
  facet normal 0.431127 0.449492 -0
    outer loop
      vertex 6.14357 -7.51486 0
      vertex 6.14357 -7.51486 1
      vertex 6.59307 -7.94599 1
    endloop
  endfacet
  facet normal 0.431127 0.449492 0
    outer loop
      vertex 6.14357 -7.51486 0
      vertex 6.59307 -7.94599 1
      vertex 6.59307 -7.94599 0
    endloop
  endfacet
  facet normal 0.424381 0.44397 -0
    outer loop
      vertex 6.59307 -7.94599 0
      vertex 6.59307 -7.94599 1
      vertex 7.03704 -8.37037 1
    endloop
  endfacet
  facet normal 0.424381 0.44397 0
    outer loop
      vertex 6.59307 -7.94599 0
      vertex 7.03704 -8.37037 1
      vertex 7.03704 -8.37037 0
    endloop
  endfacet
  facet normal 0.417238 0.438053 -0
    outer loop
      vertex 7.03704 -8.37037 0
      vertex 7.03704 -8.37037 1
      vertex 7.47509 -8.78761 1
    endloop
  endfacet
  facet normal 0.417238 0.438053 0
    outer loop
      vertex 7.03704 -8.37037 0
      vertex 7.47509 -8.78761 1
      vertex 7.47509 -8.78761 0
    endloop
  endfacet
  facet normal 0.409701 0.431739 -0
    outer loop
      vertex 7.47509 -8.78761 0
      vertex 7.47509 -8.78761 1
      vertex 7.90683 -9.19731 1
    endloop
  endfacet
  facet normal 0.409701 0.431739 0
    outer loop
      vertex 7.47509 -8.78761 0
      vertex 7.90683 -9.19731 1
      vertex 7.90683 -9.19731 0
    endloop
  endfacet
  facet normal 0.401767 0.42503 -0
    outer loop
      vertex 7.90683 -9.19731 0
      vertex 7.90683 -9.19731 1
      vertex 8.33186 -9.59908 1
    endloop
  endfacet
  facet normal 0.401767 0.42503 0
    outer loop
      vertex 7.90683 -9.19731 0
      vertex 8.33186 -9.59908 1
      vertex 8.33186 -9.59908 0
    endloop
  endfacet
  facet normal 0.393437 0.417925 -0
    outer loop
      vertex 8.33186 -9.59908 0
      vertex 8.33186 -9.59908 1
      vertex 8.74978 -9.99251 1
    endloop
  endfacet
  facet normal 0.393437 0.417925 0
    outer loop
      vertex 8.33186 -9.59908 0
      vertex 8.74978 -9.99251 1
      vertex 8.74978 -9.99251 0
    endloop
  endfacet
  facet normal 0.384712 0.410424 -0
    outer loop
      vertex 8.74978 -9.99251 0
      vertex 8.74978 -9.99251 1
      vertex 9.16021 -10.3772 1
    endloop
  endfacet
  facet normal 0.384712 0.410424 0
    outer loop
      vertex 8.74978 -9.99251 0
      vertex 9.16021 -10.3772 1
      vertex 9.16021 -10.3772 0
    endloop
  endfacet
  facet normal 0.375591 0.402527 -0
    outer loop
      vertex 9.16021 -10.3772 0
      vertex 9.16021 -10.3772 1
      vertex 9.56273 -10.7528 1
    endloop
  endfacet
  facet normal 0.375591 0.402527 0
    outer loop
      vertex 9.16021 -10.3772 0
      vertex 9.56273 -10.7528 1
      vertex 9.56273 -10.7528 0
    endloop
  endfacet
  facet normal 0.366075 0.394235 -0
    outer loop
      vertex 9.56273 -10.7528 0
      vertex 9.56273 -10.7528 1
      vertex 9.95697 -11.1189 1
    endloop
  endfacet
  facet normal 0.366075 0.394235 0
    outer loop
      vertex 9.56273 -10.7528 0
      vertex 9.95697 -11.1189 1
      vertex 9.95697 -11.1189 0
    endloop
  endfacet
  facet normal 0.356162 0.385547 -0
    outer loop
      vertex 9.95697 -11.1189 0
      vertex 9.95697 -11.1189 1
      vertex 10.3425 -11.4751 1
    endloop
  endfacet
  facet normal 0.356162 0.385547 0
    outer loop
      vertex 9.95697 -11.1189 0
      vertex 10.3425 -11.4751 1
      vertex 10.3425 -11.4751 0
    endloop
  endfacet
  facet normal 0.345854 0.376463 -0
    outer loop
      vertex 10.3425 -11.4751 0
      vertex 10.3425 -11.4751 1
      vertex 10.719 -11.8209 1
    endloop
  endfacet
  facet normal 0.345854 0.376463 0
    outer loop
      vertex 10.3425 -11.4751 0
      vertex 10.719 -11.8209 1
      vertex 10.719 -11.8209 0
    endloop
  endfacet
  facet normal 0.33515 0.366984 -0
    outer loop
      vertex 10.719 -11.8209 0
      vertex 10.719 -11.8209 1
      vertex 11.086 -12.1561 1
    endloop
  endfacet
  facet normal 0.33515 0.366984 0
    outer loop
      vertex 10.719 -11.8209 0
      vertex 11.086 -12.1561 1
      vertex 11.086 -12.1561 0
    endloop
  endfacet
  facet normal 0.324051 0.357108 -0
    outer loop
      vertex 11.086 -12.1561 0
      vertex 11.086 -12.1561 1
      vertex 11.4431 -12.4801 1
    endloop
  endfacet
  facet normal 0.324051 0.357108 0
    outer loop
      vertex 11.086 -12.1561 0
      vertex 11.4431 -12.4801 1
      vertex 11.4431 -12.4801 0
    endloop
  endfacet
  facet normal 0.312555 0.346837 -0
    outer loop
      vertex 11.4431 -12.4801 0
      vertex 11.4431 -12.4801 1
      vertex 11.7899 -12.7927 1
    endloop
  endfacet
  facet normal 0.312555 0.346837 0
    outer loop
      vertex 11.4431 -12.4801 0
      vertex 11.7899 -12.7927 1
      vertex 11.7899 -12.7927 0
    endloop
  endfacet
  facet normal 0.300664 0.336171 -0
    outer loop
      vertex 11.7899 -12.7927 0
      vertex 11.7899 -12.7927 1
      vertex 12.1261 -13.0933 1
    endloop
  endfacet
  facet normal 0.300664 0.336171 0
    outer loop
      vertex 11.7899 -12.7927 0
      vertex 12.1261 -13.0933 1
      vertex 12.1261 -13.0933 0
    endloop
  endfacet
  facet normal 0.288377 0.325108 -0
    outer loop
      vertex 12.1261 -13.0933 0
      vertex 12.1261 -13.0933 1
      vertex 12.4512 -13.3817 1
    endloop
  endfacet
  facet normal 0.288377 0.325108 0
    outer loop
      vertex 12.1261 -13.0933 0
      vertex 12.4512 -13.3817 1
      vertex 12.4512 -13.3817 0
    endloop
  endfacet
  facet normal 0.275694 0.31365 -0
    outer loop
      vertex 12.4512 -13.3817 0
      vertex 12.4512 -13.3817 1
      vertex 12.7648 -13.6574 1
    endloop
  endfacet
  facet normal 0.275694 0.31365 0
    outer loop
      vertex 12.4512 -13.3817 0
      vertex 12.7648 -13.6574 1
      vertex 12.7648 -13.6574 0
    endloop
  endfacet
  facet normal 0.262616 0.301796 -0
    outer loop
      vertex 12.7648 -13.6574 0
      vertex 12.7648 -13.6574 1
      vertex 13.0666 -13.92 1
    endloop
  endfacet
  facet normal 0.262616 0.301796 0
    outer loop
      vertex 12.7648 -13.6574 0
      vertex 13.0666 -13.92 1
      vertex 13.0666 -13.92 0
    endloop
  endfacet
  facet normal 0.249142 0.289546 -0
    outer loop
      vertex 13.0666 -13.92 0
      vertex 13.0666 -13.92 1
      vertex 13.3562 -14.1692 1
    endloop
  endfacet
  facet normal 0.249142 0.289546 0
    outer loop
      vertex 13.0666 -13.92 0
      vertex 13.3562 -14.1692 1
      vertex 13.3562 -14.1692 0
    endloop
  endfacet
  facet normal 0.235272 0.2769 -0
    outer loop
      vertex 13.3562 -14.1692 0
      vertex 13.3562 -14.1692 1
      vertex 13.6331 -14.4044 1
    endloop
  endfacet
  facet normal 0.235272 0.2769 0
    outer loop
      vertex 13.3562 -14.1692 0
      vertex 13.6331 -14.4044 1
      vertex 13.6331 -14.4044 0
    endloop
  endfacet
  facet normal 0.221006 0.263859 -0
    outer loop
      vertex 13.6331 -14.4044 0
      vertex 13.6331 -14.4044 1
      vertex 13.8969 -14.6254 1
    endloop
  endfacet
  facet normal 0.221006 0.263859 0
    outer loop
      vertex 13.6331 -14.4044 0
      vertex 13.8969 -14.6254 1
      vertex 13.8969 -14.6254 0
    endloop
  endfacet
  facet normal 0.206345 0.250422 -0
    outer loop
      vertex 13.8969 -14.6254 0
      vertex 13.8969 -14.6254 1
      vertex 14.1474 -14.8318 1
    endloop
  endfacet
  facet normal 0.206345 0.250422 0
    outer loop
      vertex 13.8969 -14.6254 0
      vertex 14.1474 -14.8318 1
      vertex 14.1474 -14.8318 0
    endloop
  endfacet
  facet normal 0.191287 0.236589 -0
    outer loop
      vertex 14.1474 -14.8318 0
      vertex 14.1474 -14.8318 1
      vertex 14.3839 -15.0231 1
    endloop
  endfacet
  facet normal 0.191287 0.236589 0
    outer loop
      vertex 14.1474 -14.8318 0
      vertex 14.3839 -15.0231 1
      vertex 14.3839 -15.0231 0
    endloop
  endfacet
  facet normal 0.175834 0.22236 -0
    outer loop
      vertex 14.3839 -15.0231 0
      vertex 14.3839 -15.0231 1
      vertex 14.6063 -15.1989 1
    endloop
  endfacet
  facet normal 0.175834 0.22236 0
    outer loop
      vertex 14.3839 -15.0231 0
      vertex 14.6063 -15.1989 1
      vertex 14.6063 -15.1989 0
    endloop
  endfacet
  facet normal 0.159986 0.207736 -0
    outer loop
      vertex 14.6063 -15.1989 0
      vertex 14.6063 -15.1989 1
      vertex 14.814 -15.3589 1
    endloop
  endfacet
  facet normal 0.159986 0.207736 0
    outer loop
      vertex 14.6063 -15.1989 0
      vertex 14.814 -15.3589 1
      vertex 14.814 -15.3589 0
    endloop
  endfacet
  facet normal 0.143741 0.192716 -0
    outer loop
      vertex 14.814 -15.3589 0
      vertex 14.814 -15.3589 1
      vertex 15.0068 -15.5026 1
    endloop
  endfacet
  facet normal 0.143741 0.192716 0
    outer loop
      vertex 14.814 -15.3589 0
      vertex 15.0068 -15.5026 1
      vertex 15.0068 -15.5026 0
    endloop
  endfacet
  facet normal 0.127101 0.1773 -0
    outer loop
      vertex 15.0068 -15.5026 0
      vertex 15.0068 -15.5026 1
      vertex 15.1841 -15.6297 1
    endloop
  endfacet
  facet normal 0.127101 0.1773 0
    outer loop
      vertex 15.0068 -15.5026 0
      vertex 15.1841 -15.6297 1
      vertex 15.1841 -15.6297 0
    endloop
  endfacet
  facet normal 0.110065 0.161488 -0
    outer loop
      vertex 15.1841 -15.6297 0
      vertex 15.1841 -15.6297 1
      vertex 15.3456 -15.7398 1
    endloop
  endfacet
  facet normal 0.110065 0.161488 0
    outer loop
      vertex 15.1841 -15.6297 0
      vertex 15.3456 -15.7398 1
      vertex 15.3456 -15.7398 0
    endloop
  endfacet
  facet normal 0.0926333 0.145281 -0
    outer loop
      vertex 15.3456 -15.7398 0
      vertex 15.3456 -15.7398 1
      vertex 15.4908 -15.8324 1
    endloop
  endfacet
  facet normal 0.0926333 0.145281 0
    outer loop
      vertex 15.3456 -15.7398 0
      vertex 15.4908 -15.8324 1
      vertex 15.4908 -15.8324 0
    endloop
  endfacet
  facet normal 0.0748058 0.128678 -0
    outer loop
      vertex 15.4908 -15.8324 0
      vertex 15.4908 -15.8324 1
      vertex 15.6195 -15.9072 1
    endloop
  endfacet
  facet normal 0.0748058 0.128678 0
    outer loop
      vertex 15.4908 -15.8324 0
      vertex 15.6195 -15.9072 1
      vertex 15.6195 -15.9072 0
    endloop
  endfacet
  facet normal 0.0565826 0.111679 -0
    outer loop
      vertex 15.6195 -15.9072 0
      vertex 15.6195 -15.9072 1
      vertex 15.7312 -15.9638 1
    endloop
  endfacet
  facet normal 0.0565826 0.111679 0
    outer loop
      vertex 15.6195 -15.9072 0
      vertex 15.7312 -15.9638 1
      vertex 15.7312 -15.9638 0
    endloop
  endfacet
  facet normal 0.0379636 0.0942843 -0
    outer loop
      vertex 15.7312 -15.9638 0
      vertex 15.7312 -15.9638 1
      vertex 15.8255 -16.0018 1
    endloop
  endfacet
  facet normal 0.0379636 0.0942843 0
    outer loop
      vertex 15.7312 -15.9638 0
      vertex 15.8255 -16.0018 1
      vertex 15.8255 -16.0018 0
    endloop
  endfacet
  facet normal 0.0189488 0.0764939 -0
    outer loop
      vertex 15.8255 -16.0018 0
      vertex 15.8255 -16.0018 1
      vertex 15.902 -16.0207 1
    endloop
  endfacet
  facet normal 0.0189488 0.0764939 0
    outer loop
      vertex 15.8255 -16.0018 0
      vertex 15.902 -16.0207 1
      vertex 15.902 -16.0207 0
    endloop
  endfacet
  facet normal -0.000461713 0.0583078 0
    outer loop
      vertex 15.902 -16.0207 0
      vertex 15.902 -16.0207 1
      vertex 15.9603 -16.0203 1
    endloop
  endfacet
  facet normal -0.000461713 0.0583078 0
    outer loop
      vertex 15.902 -16.0207 0
      vertex 15.9603 -16.0203 1
      vertex 15.9603 -16.0203 0
    endloop
  endfacet
  facet normal -0.020268 0.0397259 0
    outer loop
      vertex 15.9603 -16.0203 0
      vertex 15.9603 -16.0203 1
      vertex 16 -16 1
    endloop
  endfacet
  facet normal -0.020268 0.0397259 0
    outer loop
      vertex 15.9603 -16.0203 0
      vertex 16 -16 1
      vertex 16 -16 0
    endloop
  endfacet
  facet normal -0.039236 0.020164 0
    outer loop
      vertex 16 -16 0
      vertex 16 -16 1
      vertex 16.0202 -15.9608 1
    endloop
  endfacet
  facet normal -0.039236 0.020164 0
    outer loop
      vertex 16 -16 0
      vertex 16.0202 -15.9608 1
      vertex 16.0202 -15.9608 0
    endloop
  endfacet
  facet normal -0.057452 0.000748 0
    outer loop
      vertex 16.0202 -15.9608 0
      vertex 16.0202 -15.9608 1
      vertex 16.0209 -15.9033 1
    endloop
  endfacet
  facet normal -0.057452 0.000748 0
    outer loop
      vertex 16.0202 -15.9608 0
      vertex 16.0209 -15.9033 1
      vertex 16.0209 -15.9033 0
    endloop
  endfacet
  facet normal -0.075284 -0.018284 0
    outer loop
      vertex 16.0209 -15.9033 0
      vertex 16.0209 -15.9033 1
      vertex 16.0026 -15.828 1
    endloop
  endfacet
  facet normal -0.075284 -0.018284 0
    outer loop
      vertex 16.0209 -15.9033 0
      vertex 16.0026 -15.828 1
      vertex 16.0026 -15.828 0
    endloop
  endfacet
  facet normal -0.092732 -0.036932 0
    outer loop
      vertex 16.0026 -15.828 0
      vertex 16.0026 -15.828 1
      vertex 15.9657 -15.7353 1
    endloop
  endfacet
  facet normal -0.092732 -0.036932 0
    outer loop
      vertex 16.0026 -15.828 0
      vertex 15.9657 -15.7353 1
      vertex 15.9657 -15.7353 0
    endloop
  endfacet
  facet normal -0.109796 -0.055196 0
    outer loop
      vertex 15.9657 -15.7353 0
      vertex 15.9657 -15.7353 1
      vertex 15.9105 -15.6255 1
    endloop
  endfacet
  facet normal -0.109796 -0.055196 0
    outer loop
      vertex 15.9657 -15.7353 0
      vertex 15.9105 -15.6255 1
      vertex 15.9105 -15.6255 0
    endloop
  endfacet
  facet normal -0.126476 -0.073076 0
    outer loop
      vertex 15.9105 -15.6255 0
      vertex 15.9105 -15.6255 1
      vertex 15.8374 -15.499 1
    endloop
  endfacet
  facet normal -0.126476 -0.073076 0
    outer loop
      vertex 15.9105 -15.6255 0
      vertex 15.8374 -15.499 1
      vertex 15.8374 -15.499 0
    endloop
  endfacet
  facet normal -0.142772 -0.090572 0
    outer loop
      vertex 15.8374 -15.499 0
      vertex 15.8374 -15.499 1
      vertex 15.7469 -15.3563 1
    endloop
  endfacet
  facet normal -0.142772 -0.090572 0
    outer loop
      vertex 15.8374 -15.499 0
      vertex 15.7469 -15.3563 1
      vertex 15.7469 -15.3563 0
    endloop
  endfacet
  facet normal -0.158684 -0.107684 0
    outer loop
      vertex 15.7469 -15.3563 0
      vertex 15.7469 -15.3563 1
      vertex 15.6392 -15.1976 1
    endloop
  endfacet
  facet normal -0.158684 -0.107684 0
    outer loop
      vertex 15.7469 -15.3563 0
      vertex 15.6392 -15.1976 1
      vertex 15.6392 -15.1976 0
    endloop
  endfacet
  facet normal -0.174212 -0.124412 0
    outer loop
      vertex 15.6392 -15.1976 0
      vertex 15.6392 -15.1976 1
      vertex 15.5148 -15.0234 1
    endloop
  endfacet
  facet normal -0.174212 -0.124412 0
    outer loop
      vertex 15.6392 -15.1976 0
      vertex 15.5148 -15.0234 1
      vertex 15.5148 -15.0234 0
    endloop
  endfacet
  facet normal -0.189356 -0.140756 0
    outer loop
      vertex 15.5148 -15.0234 0
      vertex 15.5148 -15.0234 1
      vertex 15.374 -14.834 1
    endloop
  endfacet
  facet normal -0.189356 -0.140756 0
    outer loop
      vertex 15.5148 -15.0234 0
      vertex 15.374 -14.834 1
      vertex 15.374 -14.834 0
    endloop
  endfacet
  facet normal -0.204116 -0.156716 0
    outer loop
      vertex 15.374 -14.834 0
      vertex 15.374 -14.834 1
      vertex 15.2173 -14.6299 1
    endloop
  endfacet
  facet normal -0.204116 -0.156716 0
    outer loop
      vertex 15.374 -14.834 0
      vertex 15.2173 -14.6299 1
      vertex 15.2173 -14.6299 0
    endloop
  endfacet
  facet normal -0.218492 -0.172292 0
    outer loop
      vertex 15.2173 -14.6299 0
      vertex 15.2173 -14.6299 1
      vertex 15.045 -14.4114 1
    endloop
  endfacet
  facet normal -0.218492 -0.172292 0
    outer loop
      vertex 15.2173 -14.6299 0
      vertex 15.045 -14.4114 1
      vertex 15.045 -14.4114 0
    endloop
  endfacet
  facet normal -0.232484 -0.187484 0
    outer loop
      vertex 15.045 -14.4114 0
      vertex 15.045 -14.4114 1
      vertex 14.8575 -14.1789 1
    endloop
  endfacet
  facet normal -0.232484 -0.187484 0
    outer loop
      vertex 15.045 -14.4114 0
      vertex 14.8575 -14.1789 1
      vertex 14.8575 -14.1789 0
    endloop
  endfacet
  facet normal -0.246092 -0.202292 0
    outer loop
      vertex 14.8575 -14.1789 0
      vertex 14.8575 -14.1789 1
      vertex 14.6552 -13.9328 1
    endloop
  endfacet
  facet normal -0.246092 -0.202292 0
    outer loop
      vertex 14.8575 -14.1789 0
      vertex 14.6552 -13.9328 1
      vertex 14.6552 -13.9328 0
    endloop
  endfacet
  facet normal -0.259316 -0.216716 0
    outer loop
      vertex 14.6552 -13.9328 0
      vertex 14.6552 -13.9328 1
      vertex 14.4385 -13.6735 1
    endloop
  endfacet
  facet normal -0.259316 -0.216716 0
    outer loop
      vertex 14.6552 -13.9328 0
      vertex 14.4385 -13.6735 1
      vertex 14.4385 -13.6735 0
    endloop
  endfacet
  facet normal -0.272156 -0.230756 0
    outer loop
      vertex 14.4385 -13.6735 0
      vertex 14.4385 -13.6735 1
      vertex 14.2077 -13.4013 1
    endloop
  endfacet
  facet normal -0.272156 -0.230756 0
    outer loop
      vertex 14.4385 -13.6735 0
      vertex 14.2077 -13.4013 1
      vertex 14.2077 -13.4013 0
    endloop
  endfacet
  facet normal -0.284612 -0.244412 0
    outer loop
      vertex 14.2077 -13.4013 0
      vertex 14.2077 -13.4013 1
      vertex 13.9633 -13.1167 1
    endloop
  endfacet
  facet normal -0.284612 -0.244412 0
    outer loop
      vertex 14.2077 -13.4013 0
      vertex 13.9633 -13.1167 1
      vertex 13.9633 -13.1167 0
    endloop
  endfacet
  facet normal -0.296684 -0.257684 0
    outer loop
      vertex 13.9633 -13.1167 0
      vertex 13.9633 -13.1167 1
      vertex 13.7056 -12.82 1
    endloop
  endfacet
  facet normal -0.296684 -0.257684 0
    outer loop
      vertex 13.9633 -13.1167 0
      vertex 13.7056 -12.82 1
      vertex 13.7056 -12.82 0
    endloop
  endfacet
  facet normal -0.308372 -0.270572 0
    outer loop
      vertex 13.7056 -12.82 0
      vertex 13.7056 -12.82 1
      vertex 13.4351 -12.5117 1
    endloop
  endfacet
  facet normal -0.308372 -0.270572 0
    outer loop
      vertex 13.7056 -12.82 0
      vertex 13.4351 -12.5117 1
      vertex 13.4351 -12.5117 0
    endloop
  endfacet
  facet normal -0.319676 -0.283076 0
    outer loop
      vertex 13.4351 -12.5117 0
      vertex 13.4351 -12.5117 1
      vertex 13.152 -12.192 1
    endloop
  endfacet
  facet normal -0.319676 -0.283076 0
    outer loop
      vertex 13.4351 -12.5117 0
      vertex 13.152 -12.192 1
      vertex 13.152 -12.192 0
    endloop
  endfacet
  facet normal -0.330596 -0.295196 0
    outer loop
      vertex 13.152 -12.192 0
      vertex 13.152 -12.192 1
      vertex 12.8568 -11.8614 1
    endloop
  endfacet
  facet normal -0.330596 -0.295196 0
    outer loop
      vertex 13.152 -12.192 0
      vertex 12.8568 -11.8614 1
      vertex 12.8568 -11.8614 0
    endloop
  endfacet
  facet normal -0.341132 -0.306932 0
    outer loop
      vertex 12.8568 -11.8614 0
      vertex 12.8568 -11.8614 1
      vertex 12.5499 -11.5203 1
    endloop
  endfacet
  facet normal -0.341132 -0.306932 0
    outer loop
      vertex 12.8568 -11.8614 0
      vertex 12.5499 -11.5203 1
      vertex 12.5499 -11.5203 0
    endloop
  endfacet
  facet normal -0.351284 -0.318284 0
    outer loop
      vertex 12.5499 -11.5203 0
      vertex 12.5499 -11.5203 1
      vertex 12.2316 -11.169 1
    endloop
  endfacet
  facet normal -0.351284 -0.318284 0
    outer loop
      vertex 12.5499 -11.5203 0
      vertex 12.2316 -11.169 1
      vertex 12.2316 -11.169 0
    endloop
  endfacet
  facet normal -0.361052 -0.329252 0
    outer loop
      vertex 12.2316 -11.169 0
      vertex 12.2316 -11.169 1
      vertex 11.9023 -10.8079 1
    endloop
  endfacet
  facet normal -0.361052 -0.329252 0
    outer loop
      vertex 12.2316 -11.169 0
      vertex 11.9023 -10.8079 1
      vertex 11.9023 -10.8079 0
    endloop
  endfacet
  facet normal -0.370436 -0.339836 0
    outer loop
      vertex 11.9023 -10.8079 0
      vertex 11.9023 -10.8079 1
      vertex 11.5625 -10.4375 1
    endloop
  endfacet
  facet normal -0.370436 -0.339836 0
    outer loop
      vertex 11.9023 -10.8079 0
      vertex 11.5625 -10.4375 1
      vertex 11.5625 -10.4375 0
    endloop
  endfacet
  facet normal -0.379436 -0.350036 0
    outer loop
      vertex 11.5625 -10.4375 0
      vertex 11.5625 -10.4375 1
      vertex 11.2125 -10.0581 1
    endloop
  endfacet
  facet normal -0.379436 -0.350036 0
    outer loop
      vertex 11.5625 -10.4375 0
      vertex 11.2125 -10.0581 1
      vertex 11.2125 -10.0581 0
    endloop
  endfacet
  facet normal -0.388052 -0.359852 0
    outer loop
      vertex 11.2125 -10.0581 0
      vertex 11.2125 -10.0581 1
      vertex 10.8526 -9.67001 1
    endloop
  endfacet
  facet normal -0.388052 -0.359852 0
    outer loop
      vertex 11.2125 -10.0581 0
      vertex 10.8526 -9.67001 1
      vertex 10.8526 -9.67001 0
    endloop
  endfacet
  facet normal -0.396284 -0.369284 0
    outer loop
      vertex 10.8526 -9.67001 0
      vertex 10.8526 -9.67001 1
      vertex 10.4833 -9.27373 1
    endloop
  endfacet
  facet normal -0.396284 -0.369284 0
    outer loop
      vertex 10.8526 -9.67001 0
      vertex 10.4833 -9.27373 1
      vertex 10.4833 -9.27373 0
    endloop
  endfacet
  facet normal -0.404132 -0.378332 0
    outer loop
      vertex 10.4833 -9.27373 0
      vertex 10.4833 -9.27373 1
      vertex 10.105 -8.8696 1
    endloop
  endfacet
  facet normal -0.404132 -0.378332 0
    outer loop
      vertex 10.4833 -9.27373 0
      vertex 10.105 -8.8696 1
      vertex 10.105 -8.8696 0
    endloop
  endfacet
  facet normal -0.411596 -0.386996 0
    outer loop
      vertex 10.105 -8.8696 0
      vertex 10.105 -8.8696 1
      vertex 9.718 -8.458 1
    endloop
  endfacet
  facet normal -0.411596 -0.386996 0
    outer loop
      vertex 10.105 -8.8696 0
      vertex 9.718 -8.458 1
      vertex 9.718 -8.458 0
    endloop
  endfacet
  facet normal -0.418676 -0.395276 0
    outer loop
      vertex 9.718 -8.458 0
      vertex 9.718 -8.458 1
      vertex 9.32272 -8.03932 1
    endloop
  endfacet
  facet normal -0.418676 -0.395276 0
    outer loop
      vertex 9.718 -8.458 0
      vertex 9.32272 -8.03932 1
      vertex 9.32272 -8.03932 0
    endloop
  endfacet
  facet normal -0.425372 -0.403172 0
    outer loop
      vertex 9.32272 -8.03932 0
      vertex 9.32272 -8.03932 1
      vertex 8.91955 -7.61395 1
    endloop
  endfacet
  facet normal -0.425372 -0.403172 0
    outer loop
      vertex 9.32272 -8.03932 0
      vertex 8.91955 -7.61395 1
      vertex 8.91955 -7.61395 0
    endloop
  endfacet
  facet normal -0.431684 -0.410684 0
    outer loop
      vertex 8.91955 -7.61395 0
      vertex 8.91955 -7.61395 1
      vertex 8.50887 -7.18227 1
    endloop
  endfacet
  facet normal -0.431684 -0.410684 0
    outer loop
      vertex 8.91955 -7.61395 0
      vertex 8.50887 -7.18227 1
      vertex 8.50887 -7.18227 0
    endloop
  endfacet
  facet normal -0.437612 -0.417812 0
    outer loop
      vertex 8.50887 -7.18227 0
      vertex 8.50887 -7.18227 1
      vertex 8.09106 -6.74466 1
    endloop
  endfacet
  facet normal -0.437612 -0.417812 0
    outer loop
      vertex 8.50887 -7.18227 0
      vertex 8.09106 -6.74466 1
      vertex 8.09106 -6.74466 0
    endloop
  endfacet
  facet normal -0.443156 -0.424556 0
    outer loop
      vertex 8.09106 -6.74466 0
      vertex 8.09106 -6.74466 1
      vertex 7.6665 -6.3015 1
    endloop
  endfacet
  facet normal -0.443156 -0.424556 0
    outer loop
      vertex 8.09106 -6.74466 0
      vertex 7.6665 -6.3015 1
      vertex 7.6665 -6.3015 0
    endloop
  endfacet
  facet normal -0.448316 -0.430916 0
    outer loop
      vertex 7.6665 -6.3015 0
      vertex 7.6665 -6.3015 1
      vertex 7.23558 -5.85318 1
    endloop
  endfacet
  facet normal -0.448316 -0.430916 0
    outer loop
      vertex 7.6665 -6.3015 0
      vertex 7.23558 -5.85318 1
      vertex 7.23558 -5.85318 0
    endloop
  endfacet
  facet normal -0.453092 -0.436892 0
    outer loop
      vertex 7.23558 -5.85318 0
      vertex 7.23558 -5.85318 1
      vertex 6.79869 -5.40009 1
    endloop
  endfacet
  facet normal -0.453092 -0.436892 0
    outer loop
      vertex 7.23558 -5.85318 0
      vertex 6.79869 -5.40009 1
      vertex 6.79869 -5.40009 0
    endloop
  endfacet
  facet normal -0.457484 -0.442484 0
    outer loop
      vertex 6.79869 -5.40009 0
      vertex 6.79869 -5.40009 1
      vertex 6.35621 -4.94261 1
    endloop
  endfacet
  facet normal -0.457484 -0.442484 0
    outer loop
      vertex 6.79869 -5.40009 0
      vertex 6.35621 -4.94261 1
      vertex 6.35621 -4.94261 0
    endloop
  endfacet
  facet normal -0.461492 -0.447692 0
    outer loop
      vertex 6.35621 -4.94261 0
      vertex 6.35621 -4.94261 1
      vertex 5.90852 -4.48112 1
    endloop
  endfacet
  facet normal -0.461492 -0.447692 0
    outer loop
      vertex 6.35621 -4.94261 0
      vertex 5.90852 -4.48112 1
      vertex 5.90852 -4.48112 0
    endloop
  endfacet
  facet normal -0.465116 -0.452516 0
    outer loop
      vertex 5.90852 -4.48112 0
      vertex 5.90852 -4.48112 1
      vertex 5.456 -4.016 1
    endloop
  endfacet
  facet normal -0.465116 -0.452516 0
    outer loop
      vertex 5.90852 -4.48112 0
      vertex 5.456 -4.016 1
      vertex 5.456 -4.016 0
    endloop
  endfacet
  facet normal -0.468356 -0.456956 0
    outer loop
      vertex 5.456 -4.016 0
      vertex 5.456 -4.016 1
      vertex 4.99904 -3.54764 1
    endloop
  endfacet
  facet normal -0.468356 -0.456956 0
    outer loop
      vertex 5.456 -4.016 0
      vertex 4.99904 -3.54764 1
      vertex 4.99904 -3.54764 0
    endloop
  endfacet
  facet normal -0.471212 -0.461012 0
    outer loop
      vertex 4.99904 -3.54764 0
      vertex 4.99904 -3.54764 1
      vertex 4.53803 -3.07643 1
    endloop
  endfacet
  facet normal -0.471212 -0.461012 0
    outer loop
      vertex 4.99904 -3.54764 0
      vertex 4.53803 -3.07643 1
      vertex 4.53803 -3.07643 0
    endloop
  endfacet
  facet normal -0.473684 -0.464684 0
    outer loop
      vertex 4.53803 -3.07643 0
      vertex 4.53803 -3.07643 1
      vertex 4.07335 -2.60275 1
    endloop
  endfacet
  facet normal -0.473684 -0.464684 0
    outer loop
      vertex 4.53803 -3.07643 0
      vertex 4.07335 -2.60275 1
      vertex 4.07335 -2.60275 0
    endloop
  endfacet
  facet normal -0.475772 -0.467972 0
    outer loop
      vertex 4.07335 -2.60275 0
      vertex 4.07335 -2.60275 1
      vertex 3.60538 -2.12698 1
    endloop
  endfacet
  facet normal -0.475772 -0.467972 0
    outer loop
      vertex 4.07335 -2.60275 0
      vertex 3.60538 -2.12698 1
      vertex 3.60538 -2.12698 0
    endloop
  endfacet
  facet normal -0.477476 -0.470876 0
    outer loop
      vertex 3.60538 -2.12698 0
      vertex 3.60538 -2.12698 1
      vertex 3.1345 -1.6495 1
    endloop
  endfacet
  facet normal -0.477476 -0.470876 0
    outer loop
      vertex 3.60538 -2.12698 0
      vertex 3.1345 -1.6495 1
      vertex 3.1345 -1.6495 0
    endloop
  endfacet
  facet normal -0.478796 -0.473396 0
    outer loop
      vertex 3.1345 -1.6495 0
      vertex 3.1345 -1.6495 1
      vertex 2.6611 -1.1707 1
    endloop
  endfacet
  facet normal -0.478796 -0.473396 0
    outer loop
      vertex 3.1345 -1.6495 0
      vertex 2.6611 -1.1707 1
      vertex 2.6611 -1.1707 0
    endloop
  endfacet
  facet normal -0.479732 -0.475532 0
    outer loop
      vertex 2.6611 -1.1707 0
      vertex 2.6611 -1.1707 1
      vertex 2.18557 -0.690972 1
    endloop
  endfacet
  facet normal -0.479732 -0.475532 0
    outer loop
      vertex 2.6611 -1.1707 0
      vertex 2.18557 -0.690972 1
      vertex 2.18557 -0.690972 0
    endloop
  endfacet
  facet normal -0.480284 -0.477284 0
    outer loop
      vertex 2.18557 -0.690972 0
      vertex 2.18557 -0.690972 1
      vertex 1.70829 -0.210688 1
    endloop
  endfacet
  facet normal -0.480284 -0.477284 0
    outer loop
      vertex 2.18557 -0.690972 0
      vertex 1.70829 -0.210688 1
      vertex 1.70829 -0.210688 0
    endloop
  endfacet
  facet normal -0.480452 -0.478652 0
    outer loop
      vertex 1.70829 -0.210688 0
      vertex 1.70829 -0.210688 1
      vertex 1.22964 0.269764 1
    endloop
  endfacet
  facet normal -0.480452 -0.478652 0
    outer loop
      vertex 1.70829 -0.210688 0
      vertex 1.22964 0.269764 1
      vertex 1.22964 0.269764 0
    endloop
  endfacet
  facet normal -0.480236 -0.479636 0
    outer loop
      vertex 1.22964 0.269764 0
      vertex 1.22964 0.269764 1
      vertex 0.75 0.75 1
    endloop
  endfacet
  facet normal -0.480236 -0.479636 0
    outer loop
      vertex 1.22964 0.269764 0
      vertex 0.75 0.75 1
      vertex 0.75 0.75 0
    endloop
  endfacet
  facet normal -0.479636 -0.480236 0
    outer loop
      vertex 0.75 0.75 0
      vertex 0.75 0.75 1
      vertex 0.269764 1.22964 1
    endloop
  endfacet
  facet normal -0.479636 -0.480236 0
    outer loop
      vertex 0.75 0.75 0
      vertex 0.269764 1.22964 1
      vertex 0.269764 1.22964 0
    endloop
  endfacet
  facet normal -0.478652 -0.480452 0
    outer loop
      vertex 0.269764 1.22964 0
      vertex 0.269764 1.22964 1
      vertex -0.210688 1.70829 1
    endloop
  endfacet
  facet normal -0.478652 -0.480452 0
    outer loop
      vertex 0.269764 1.22964 0
      vertex -0.210688 1.70829 1
      vertex -0.210688 1.70829 0
    endloop
  endfacet
  facet normal -0.477284 -0.480284 0
    outer loop
      vertex -0.210688 1.70829 0
      vertex -0.210688 1.70829 1
      vertex -0.690972 2.18557 1
    endloop
  endfacet
  facet normal -0.477284 -0.480284 0
    outer loop
      vertex -0.210688 1.70829 0
      vertex -0.690972 2.18557 1
      vertex -0.690972 2.18557 0
    endloop
  endfacet
  facet normal -0.475532 -0.479732 0
    outer loop
      vertex -0.690972 2.18557 0
      vertex -0.690972 2.18557 1
      vertex -1.1707 2.6611 1
    endloop
  endfacet
  facet normal -0.475532 -0.479732 0
    outer loop
      vertex -0.690972 2.18557 0
      vertex -1.1707 2.6611 1
      vertex -1.1707 2.6611 0
    endloop
  endfacet
  facet normal -0.473396 -0.478796 0
    outer loop
      vertex -1.1707 2.6611 0
      vertex -1.1707 2.6611 1
      vertex -1.6495 3.1345 1
    endloop
  endfacet
  facet normal -0.473396 -0.478796 0
    outer loop
      vertex -1.1707 2.6611 0
      vertex -1.6495 3.1345 1
      vertex -1.6495 3.1345 0
    endloop
  endfacet
  facet normal -0.470876 -0.477476 0
    outer loop
      vertex -1.6495 3.1345 0
      vertex -1.6495 3.1345 1
      vertex -2.12698 3.60538 1
    endloop
  endfacet
  facet normal -0.470876 -0.477476 0
    outer loop
      vertex -1.6495 3.1345 0
      vertex -2.12698 3.60538 1
      vertex -2.12698 3.60538 0
    endloop
  endfacet
  facet normal -0.467972 -0.475772 0
    outer loop
      vertex -2.12698 3.60538 0
      vertex -2.12698 3.60538 1
      vertex -2.60275 4.07335 1
    endloop
  endfacet
  facet normal -0.467972 -0.475772 0
    outer loop
      vertex -2.12698 3.60538 0
      vertex -2.60275 4.07335 1
      vertex -2.60275 4.07335 0
    endloop
  endfacet
  facet normal -0.464684 -0.473684 0
    outer loop
      vertex -2.60275 4.07335 0
      vertex -2.60275 4.07335 1
      vertex -3.07643 4.53803 1
    endloop
  endfacet
  facet normal -0.464684 -0.473684 0
    outer loop
      vertex -2.60275 4.07335 0
      vertex -3.07643 4.53803 1
      vertex -3.07643 4.53803 0
    endloop
  endfacet
  facet normal -0.461012 -0.471212 0
    outer loop
      vertex -3.07643 4.53803 0
      vertex -3.07643 4.53803 1
      vertex -3.54764 4.99904 1
    endloop
  endfacet
  facet normal -0.461012 -0.471212 0
    outer loop
      vertex -3.07643 4.53803 0
      vertex -3.54764 4.99904 1
      vertex -3.54764 4.99904 0
    endloop
  endfacet
  facet normal -0.456956 -0.468356 0
    outer loop
      vertex -3.54764 4.99904 0
      vertex -3.54764 4.99904 1
      vertex -4.016 5.456 1
    endloop
  endfacet
  facet normal -0.456956 -0.468356 0
    outer loop
      vertex -3.54764 4.99904 0
      vertex -4.016 5.456 1
      vertex -4.016 5.456 0
    endloop
  endfacet
  facet normal -0.452516 -0.465116 0
    outer loop
      vertex -4.016 5.456 0
      vertex -4.016 5.456 1
      vertex -4.48112 5.90852 1
    endloop
  endfacet
  facet normal -0.452516 -0.465116 0
    outer loop
      vertex -4.016 5.456 0
      vertex -4.48112 5.90852 1
      vertex -4.48112 5.90852 0
    endloop
  endfacet
  facet normal -0.447692 -0.461492 0
    outer loop
      vertex -4.48112 5.90852 0
      vertex -4.48112 5.90852 1
      vertex -4.94261 6.35621 1
    endloop
  endfacet
  facet normal -0.447692 -0.461492 0
    outer loop
      vertex -4.48112 5.90852 0
      vertex -4.94261 6.35621 1
      vertex -4.94261 6.35621 0
    endloop
  endfacet
  facet normal -0.442484 -0.457484 0
    outer loop
      vertex -4.94261 6.35621 0
      vertex -4.94261 6.35621 1
      vertex -5.40009 6.79869 1
    endloop
  endfacet
  facet normal -0.442484 -0.457484 0
    outer loop
      vertex -4.94261 6.35621 0
      vertex -5.40009 6.79869 1
      vertex -5.40009 6.79869 0
    endloop
  endfacet
  facet normal -0.436892 -0.453092 0
    outer loop
      vertex -5.40009 6.79869 0
      vertex -5.40009 6.79869 1
      vertex -5.85318 7.23558 1
    endloop
  endfacet
  facet normal -0.436892 -0.453092 0
    outer loop
      vertex -5.40009 6.79869 0
      vertex -5.85318 7.23558 1
      vertex -5.85318 7.23558 0
    endloop
  endfacet
  facet normal -0.430916 -0.448316 0
    outer loop
      vertex -5.85318 7.23558 0
      vertex -5.85318 7.23558 1
      vertex -6.3015 7.6665 1
    endloop
  endfacet
  facet normal -0.430916 -0.448316 0
    outer loop
      vertex -5.85318 7.23558 0
      vertex -6.3015 7.6665 1
      vertex -6.3015 7.6665 0
    endloop
  endfacet
  facet normal -0.424556 -0.443156 0
    outer loop
      vertex -6.3015 7.6665 0
      vertex -6.3015 7.6665 1
      vertex -6.74466 8.09106 1
    endloop
  endfacet
  facet normal -0.424556 -0.443156 0
    outer loop
      vertex -6.3015 7.6665 0
      vertex -6.74466 8.09106 1
      vertex -6.74466 8.09106 0
    endloop
  endfacet
  facet normal -0.417812 -0.437612 0
    outer loop
      vertex -6.74466 8.09106 0
      vertex -6.74466 8.09106 1
      vertex -7.18227 8.50887 1
    endloop
  endfacet
  facet normal -0.417812 -0.437612 0
    outer loop
      vertex -6.74466 8.09106 0
      vertex -7.18227 8.50887 1
      vertex -7.18227 8.50887 0
    endloop
  endfacet
  facet normal -0.410684 -0.431684 0
    outer loop
      vertex -7.18227 8.50887 0
      vertex -7.18227 8.50887 1
      vertex -7.61395 8.91955 1
    endloop
  endfacet
  facet normal -0.410684 -0.431684 0
    outer loop
      vertex -7.18227 8.50887 0
      vertex -7.61395 8.91955 1
      vertex -7.61395 8.91955 0
    endloop
  endfacet
  facet normal -0.403172 -0.425372 0
    outer loop
      vertex -7.61395 8.91955 0
      vertex -7.61395 8.91955 1
      vertex -8.03932 9.32272 1
    endloop
  endfacet
  facet normal -0.403172 -0.425372 0
    outer loop
      vertex -7.61395 8.91955 0
      vertex -8.03932 9.32272 1
      vertex -8.03932 9.32272 0
    endloop
  endfacet
  facet normal -0.395276 -0.418676 0
    outer loop
      vertex -8.03932 9.32272 0
      vertex -8.03932 9.32272 1
      vertex -8.458 9.718 1
    endloop
  endfacet
  facet normal -0.395276 -0.418676 0
    outer loop
      vertex -8.03932 9.32272 0
      vertex -8.458 9.718 1
      vertex -8.458 9.718 0
    endloop
  endfacet
  facet normal -0.386996 -0.411596 0
    outer loop
      vertex -8.458 9.718 0
      vertex -8.458 9.718 1
      vertex -8.8696 10.105 1
    endloop
  endfacet
  facet normal -0.386996 -0.411596 0
    outer loop
      vertex -8.458 9.718 0
      vertex -8.8696 10.105 1
      vertex -8.8696 10.105 0
    endloop
  endfacet
  facet normal -0.378332 -0.404132 0
    outer loop
      vertex -8.8696 10.105 0
      vertex -8.8696 10.105 1
      vertex -9.27373 10.4833 1
    endloop
  endfacet
  facet normal -0.378332 -0.404132 0
    outer loop
      vertex -8.8696 10.105 0
      vertex -9.27373 10.4833 1
      vertex -9.27373 10.4833 0
    endloop
  endfacet
  facet normal -0.369284 -0.396284 0
    outer loop
      vertex -9.27373 10.4833 0
      vertex -9.27373 10.4833 1
      vertex -9.67001 10.8526 1
    endloop
  endfacet
  facet normal -0.369284 -0.396284 0
    outer loop
      vertex -9.27373 10.4833 0
      vertex -9.67001 10.8526 1
      vertex -9.67001 10.8526 0
    endloop
  endfacet
  facet normal -0.359852 -0.388052 0
    outer loop
      vertex -9.67001 10.8526 0
      vertex -9.67001 10.8526 1
      vertex -10.0581 11.2125 1
    endloop
  endfacet
  facet normal -0.359852 -0.388052 0
    outer loop
      vertex -9.67001 10.8526 0
      vertex -10.0581 11.2125 1
      vertex -10.0581 11.2125 0
    endloop
  endfacet
  facet normal -0.350036 -0.379436 0
    outer loop
      vertex -10.0581 11.2125 0
      vertex -10.0581 11.2125 1
      vertex -10.4375 11.5625 1
    endloop
  endfacet
  facet normal -0.350036 -0.379436 0
    outer loop
      vertex -10.0581 11.2125 0
      vertex -10.4375 11.5625 1
      vertex -10.4375 11.5625 0
    endloop
  endfacet
  facet normal -0.339836 -0.370436 0
    outer loop
      vertex -10.4375 11.5625 0
      vertex -10.4375 11.5625 1
      vertex -10.8079 11.9023 1
    endloop
  endfacet
  facet normal -0.339836 -0.370436 0
    outer loop
      vertex -10.4375 11.5625 0
      vertex -10.8079 11.9023 1
      vertex -10.8079 11.9023 0
    endloop
  endfacet
  facet normal -0.329252 -0.361052 0
    outer loop
      vertex -10.8079 11.9023 0
      vertex -10.8079 11.9023 1
      vertex -11.169 12.2316 1
    endloop
  endfacet
  facet normal -0.329252 -0.361052 0
    outer loop
      vertex -10.8079 11.9023 0
      vertex -11.169 12.2316 1
      vertex -11.169 12.2316 0
    endloop
  endfacet
  facet normal -0.318284 -0.351284 0
    outer loop
      vertex -11.169 12.2316 0
      vertex -11.169 12.2316 1
      vertex -11.5203 12.5499 1
    endloop
  endfacet
  facet normal -0.318284 -0.351284 0
    outer loop
      vertex -11.169 12.2316 0
      vertex -11.5203 12.5499 1
      vertex -11.5203 12.5499 0
    endloop
  endfacet
  facet normal -0.306932 -0.341132 0
    outer loop
      vertex -11.5203 12.5499 0
      vertex -11.5203 12.5499 1
      vertex -11.8614 12.8568 1
    endloop
  endfacet
  facet normal -0.306932 -0.341132 0
    outer loop
      vertex -11.5203 12.5499 0
      vertex -11.8614 12.8568 1
      vertex -11.8614 12.8568 0
    endloop
  endfacet
  facet normal -0.295196 -0.330596 0
    outer loop
      vertex -11.8614 12.8568 0
      vertex -11.8614 12.8568 1
      vertex -12.192 13.152 1
    endloop
  endfacet
  facet normal -0.295196 -0.330596 0
    outer loop
      vertex -11.8614 12.8568 0
      vertex -12.192 13.152 1
      vertex -12.192 13.152 0
    endloop
  endfacet
  facet normal -0.283076 -0.319676 0
    outer loop
      vertex -12.192 13.152 0
      vertex -12.192 13.152 1
      vertex -12.5117 13.4351 1
    endloop
  endfacet
  facet normal -0.283076 -0.319676 0
    outer loop
      vertex -12.192 13.152 0
      vertex -12.5117 13.4351 1
      vertex -12.5117 13.4351 0
    endloop
  endfacet
  facet normal -0.270572 -0.308372 0
    outer loop
      vertex -12.5117 13.4351 0
      vertex -12.5117 13.4351 1
      vertex -12.82 13.7056 1
    endloop
  endfacet
  facet normal -0.270572 -0.308372 0
    outer loop
      vertex -12.5117 13.4351 0
      vertex -12.82 13.7056 1
      vertex -12.82 13.7056 0
    endloop
  endfacet
  facet normal -0.257684 -0.296684 0
    outer loop
      vertex -12.82 13.7056 0
      vertex -12.82 13.7056 1
      vertex -13.1167 13.9633 1
    endloop
  endfacet
  facet normal -0.257684 -0.296684 0
    outer loop
      vertex -12.82 13.7056 0
      vertex -13.1167 13.9633 1
      vertex -13.1167 13.9633 0
    endloop
  endfacet
  facet normal -0.244412 -0.284612 0
    outer loop
      vertex -13.1167 13.9633 0
      vertex -13.1167 13.9633 1
      vertex -13.4013 14.2077 1
    endloop
  endfacet
  facet normal -0.244412 -0.284612 0
    outer loop
      vertex -13.1167 13.9633 0
      vertex -13.4013 14.2077 1
      vertex -13.4013 14.2077 0
    endloop
  endfacet
  facet normal -0.230756 -0.272156 0
    outer loop
      vertex -13.4013 14.2077 0
      vertex -13.4013 14.2077 1
      vertex -13.6735 14.4385 1
    endloop
  endfacet
  facet normal -0.230756 -0.272156 0
    outer loop
      vertex -13.4013 14.2077 0
      vertex -13.6735 14.4385 1
      vertex -13.6735 14.4385 0
    endloop
  endfacet
  facet normal -0.216716 -0.259316 0
    outer loop
      vertex -13.6735 14.4385 0
      vertex -13.6735 14.4385 1
      vertex -13.9328 14.6552 1
    endloop
  endfacet
  facet normal -0.216716 -0.259316 0
    outer loop
      vertex -13.6735 14.4385 0
      vertex -13.9328 14.6552 1
      vertex -13.9328 14.6552 0
    endloop
  endfacet
  facet normal -0.202292 -0.246092 0
    outer loop
      vertex -13.9328 14.6552 0
      vertex -13.9328 14.6552 1
      vertex -14.1789 14.8575 1
    endloop
  endfacet
  facet normal -0.202292 -0.246092 0
    outer loop
      vertex -13.9328 14.6552 0
      vertex -14.1789 14.8575 1
      vertex -14.1789 14.8575 0
    endloop
  endfacet
  facet normal -0.187484 -0.232484 0
    outer loop
      vertex -14.1789 14.8575 0
      vertex -14.1789 14.8575 1
      vertex -14.4114 15.045 1
    endloop
  endfacet
  facet normal -0.187484 -0.232484 0
    outer loop
      vertex -14.1789 14.8575 0
      vertex -14.4114 15.045 1
      vertex -14.4114 15.045 0
    endloop
  endfacet
  facet normal -0.172292 -0.218492 0
    outer loop
      vertex -14.4114 15.045 0
      vertex -14.4114 15.045 1
      vertex -14.6299 15.2173 1
    endloop
  endfacet
  facet normal -0.172292 -0.218492 0
    outer loop
      vertex -14.4114 15.045 0
      vertex -14.6299 15.2173 1
      vertex -14.6299 15.2173 0
    endloop
  endfacet
  facet normal -0.156716 -0.204116 0
    outer loop
      vertex -14.6299 15.2173 0
      vertex -14.6299 15.2173 1
      vertex -14.834 15.374 1
    endloop
  endfacet
  facet normal -0.156716 -0.204116 0
    outer loop
      vertex -14.6299 15.2173 0
      vertex -14.834 15.374 1
      vertex -14.834 15.374 0
    endloop
  endfacet
  facet normal -0.140756 -0.189356 0
    outer loop
      vertex -14.834 15.374 0
      vertex -14.834 15.374 1
      vertex -15.0234 15.5148 1
    endloop
  endfacet
  facet normal -0.140756 -0.189356 0
    outer loop
      vertex -14.834 15.374 0
      vertex -15.0234 15.5148 1
      vertex -15.0234 15.5148 0
    endloop
  endfacet
  facet normal -0.124412 -0.174212 0
    outer loop
      vertex -15.0234 15.5148 0
      vertex -15.0234 15.5148 1
      vertex -15.1976 15.6392 1
    endloop
  endfacet
  facet normal -0.124412 -0.174212 0
    outer loop
      vertex -15.0234 15.5148 0
      vertex -15.1976 15.6392 1
      vertex -15.1976 15.6392 0
    endloop
  endfacet
  facet normal -0.107684 -0.158684 0
    outer loop
      vertex -15.1976 15.6392 0
      vertex -15.1976 15.6392 1
      vertex -15.3563 15.7469 1
    endloop
  endfacet
  facet normal -0.107684 -0.158684 0
    outer loop
      vertex -15.1976 15.6392 0
      vertex -15.3563 15.7469 1
      vertex -15.3563 15.7469 0
    endloop
  endfacet
  facet normal -0.090572 -0.142772 0
    outer loop
      vertex -15.3563 15.7469 0
      vertex -15.3563 15.7469 1
      vertex -15.499 15.8374 1
    endloop
  endfacet
  facet normal -0.090572 -0.142772 0
    outer loop
      vertex -15.3563 15.7469 0
      vertex -15.499 15.8374 1
      vertex -15.499 15.8374 0
    endloop
  endfacet
  facet normal -0.073076 -0.126476 0
    outer loop
      vertex -15.499 15.8374 0
      vertex -15.499 15.8374 1
      vertex -15.6255 15.9105 1
    endloop
  endfacet
  facet normal -0.073076 -0.126476 0
    outer loop
      vertex -15.499 15.8374 0
      vertex -15.6255 15.9105 1
      vertex -15.6255 15.9105 0
    endloop
  endfacet
  facet normal -0.055196 -0.109796 0
    outer loop
      vertex -15.6255 15.9105 0
      vertex -15.6255 15.9105 1
      vertex -15.7353 15.9657 1
    endloop
  endfacet
  facet normal -0.055196 -0.109796 0
    outer loop
      vertex -15.6255 15.9105 0
      vertex -15.7353 15.9657 1
      vertex -15.7353 15.9657 0
    endloop
  endfacet
  facet normal -0.036932 -0.092732 0
    outer loop
      vertex -15.7353 15.9657 0
      vertex -15.7353 15.9657 1
      vertex -15.828 16.0026 1
    endloop
  endfacet
  facet normal -0.036932 -0.092732 0
    outer loop
      vertex -15.7353 15.9657 0
      vertex -15.828 16.0026 1
      vertex -15.828 16.0026 0
    endloop
  endfacet
  facet normal -0.018284 -0.075284 0
    outer loop
      vertex -15.828 16.0026 0
      vertex -15.828 16.0026 1
      vertex -15.9033 16.0209 1
    endloop
  endfacet
  facet normal -0.018284 -0.075284 0
    outer loop
      vertex -15.828 16.0026 0
      vertex -15.9033 16.0209 1
      vertex -15.9033 16.0209 0
    endloop
  endfacet
  facet normal 0.000748 -0.057452 0
    outer loop
      vertex -15.9033 16.0209 0
      vertex -15.9033 16.0209 1
      vertex -15.9608 16.0202 1
    endloop
  endfacet
  facet normal 0.000748 -0.057452 0
    outer loop
      vertex -15.9033 16.0209 0
      vertex -15.9608 16.0202 1
      vertex -15.9608 16.0202 0
    endloop
  endfacet
  facet normal 0.020164 -0.039236 0
    outer loop
      vertex -15.9608 16.0202 0
      vertex -15.9608 16.0202 1
      vertex -16 16 1
    endloop
  endfacet
  facet normal 0.020164 -0.039236 0
    outer loop
      vertex -15.9608 16.0202 0
      vertex -16 16 1
      vertex -16 16 0
    endloop
  endfacet
endsolid fault
