solid ff
  facet normal -0.000736886 0.43421 0
    outer loop
      vertex -12 10 0
      vertex -12 10 1
      vertex -11.5658 10.0007 1
    endloop
  endfacet
  facet normal -0.000736886 0.43421 0
    outer loop
      vertex -12 10 0
      vertex -11.5658 10.0007 1
      vertex -11.5658 10.0007 0
    endloop
  endfacet
  facet normal -0.00209729 0.423924 0
    outer loop
      vertex -11.5658 10.0007 0
      vertex -11.5658 10.0007 1
      vertex -11.1419 10.0028 1
    endloop
  endfacet
  facet normal -0.00209729 0.423924 0
    outer loop
      vertex -11.5658 10.0007 0
      vertex -11.1419 10.0028 1
      vertex -11.1419 10.0028 0
    endloop
  endfacet
  facet normal -0.00328765 0.413758 0
    outer loop
      vertex -11.1419 10.0028 0
      vertex -11.1419 10.0028 1
      vertex -10.7281 10.0061 1
    endloop
  endfacet
  facet normal -0.00328765 0.413758 0
    outer loop
      vertex -11.1419 10.0028 0
      vertex -10.7281 10.0061 1
      vertex -10.7281 10.0061 0
    endloop
  endfacet
  facet normal -0.00430795 0.403713 0
    outer loop
      vertex -10.7281 10.0061 0
      vertex -10.7281 10.0061 1
      vertex -10.3244 10.0104 1
    endloop
  endfacet
  facet normal -0.00430795 0.403713 0
    outer loop
      vertex -10.7281 10.0061 0
      vertex -10.3244 10.0104 1
      vertex -10.3244 10.0104 0
    endloop
  endfacet
  facet normal -0.0051582 0.393788 0
    outer loop
      vertex -10.3244 10.0104 0
      vertex -10.3244 10.0104 1
      vertex -9.93061 10.0156 1
    endloop
  endfacet
  facet normal -0.0051582 0.393788 0
    outer loop
      vertex -10.3244 10.0104 0
      vertex -9.93061 10.0156 1
      vertex -9.93061 10.0156 0
    endloop
  endfacet
  facet normal -0.00583841 0.383984 0
    outer loop
      vertex -9.93061 10.0156 0
      vertex -9.93061 10.0156 1
      vertex -9.54662 10.0214 1
    endloop
  endfacet
  facet normal -0.00583841 0.383984 0
    outer loop
      vertex -9.93061 10.0156 0
      vertex -9.54662 10.0214 1
      vertex -9.54662 10.0214 0
    endloop
  endfacet
  facet normal -0.00634856 0.3743 0
    outer loop
      vertex -9.54662 10.0214 0
      vertex -9.54662 10.0214 1
      vertex -9.17232 10.0278 1
    endloop
  endfacet
  facet normal -0.00634856 0.3743 0
    outer loop
      vertex -9.54662 10.0214 0
      vertex -9.17232 10.0278 1
      vertex -9.17232 10.0278 0
    endloop
  endfacet
  facet normal -0.00668866 0.364737 0
    outer loop
      vertex -9.17232 10.0278 0
      vertex -9.17232 10.0278 1
      vertex -8.80759 10.0345 1
    endloop
  endfacet
  facet normal -0.00668866 0.364737 0
    outer loop
      vertex -9.17232 10.0278 0
      vertex -8.80759 10.0345 1
      vertex -8.80759 10.0345 0
    endloop
  endfacet
  facet normal -0.00685871 0.355295 0
    outer loop
      vertex -8.80759 10.0345 0
      vertex -8.80759 10.0345 1
      vertex -8.45229 10.0413 1
    endloop
  endfacet
  facet normal -0.00685871 0.355295 0
    outer loop
      vertex -8.80759 10.0345 0
      vertex -8.45229 10.0413 1
      vertex -8.45229 10.0413 0
    endloop
  endfacet
  facet normal -0.00685871 0.345973 0
    outer loop
      vertex -8.45229 10.0413 0
      vertex -8.45229 10.0413 1
      vertex -8.10632 10.0482 1
    endloop
  endfacet
  facet normal -0.00685871 0.345973 0
    outer loop
      vertex -8.45229 10.0413 0
      vertex -8.10632 10.0482 1
      vertex -8.10632 10.0482 0
    endloop
  endfacet
  facet normal -0.00668866 0.336771 0
    outer loop
      vertex -8.10632 10.0482 0
      vertex -8.10632 10.0482 1
      vertex -7.76955 10.0549 1
    endloop
  endfacet
  facet normal -0.00668866 0.336771 0
    outer loop
      vertex -8.10632 10.0482 0
      vertex -7.76955 10.0549 1
      vertex -7.76955 10.0549 0
    endloop
  endfacet
  facet normal -0.00634856 0.327691 0
    outer loop
      vertex -7.76955 10.0549 0
      vertex -7.76955 10.0549 1
      vertex -7.44186 10.0612 1
    endloop
  endfacet
  facet normal -0.00634856 0.327691 0
    outer loop
      vertex -7.76955 10.0549 0
      vertex -7.44186 10.0612 1
      vertex -7.44186 10.0612 0
    endloop
  endfacet
  facet normal -0.00583841 0.318731 0
    outer loop
      vertex -7.44186 10.0612 0
      vertex -7.44186 10.0612 1
      vertex -7.12313 10.0671 1
    endloop
  endfacet
  facet normal -0.00583841 0.318731 0
    outer loop
      vertex -7.44186 10.0612 0
      vertex -7.12313 10.0671 1
      vertex -7.12313 10.0671 0
    endloop
  endfacet
  facet normal -0.0051582 0.309891 0
    outer loop
      vertex -7.12313 10.0671 0
      vertex -7.12313 10.0671 1
      vertex -6.81323 10.0722 1
    endloop
  endfacet
  facet normal -0.0051582 0.309891 0
    outer loop
      vertex -7.12313 10.0671 0
      vertex -6.81323 10.0722 1
      vertex -6.81323 10.0722 0
    endloop
  endfacet
  facet normal -0.00430795 0.301172 0
    outer loop
      vertex -6.81323 10.0722 0
      vertex -6.81323 10.0722 1
      vertex -6.51206 10.0765 1
    endloop
  endfacet
  facet normal -0.00430795 0.301172 0
    outer loop
      vertex -6.81323 10.0722 0
      vertex -6.51206 10.0765 1
      vertex -6.51206 10.0765 0
    endloop
  endfacet
  facet normal -0.00328765 0.292574 0
    outer loop
      vertex -6.51206 10.0765 0
      vertex -6.51206 10.0765 1
      vertex -6.21949 10.0798 1
    endloop
  endfacet
  facet normal -0.00328765 0.292574 0
    outer loop
      vertex -6.51206 10.0765 0
      vertex -6.21949 10.0798 1
      vertex -6.21949 10.0798 0
    endloop
  endfacet
  facet normal -0.00209729 0.284096 0
    outer loop
      vertex -6.21949 10.0798 0
      vertex -6.21949 10.0798 1
      vertex -5.93539 10.0819 1
    endloop
  endfacet
  facet normal -0.00209729 0.284096 0
    outer loop
      vertex -6.21949 10.0798 0
      vertex -5.93539 10.0819 1
      vertex -5.93539 10.0819 0
    endloop
  endfacet
  facet normal -0.000736886 0.275739 0
    outer loop
      vertex -5.93539 10.0819 0
      vertex -5.93539 10.0819 1
      vertex -5.65965 10.0826 1
    endloop
  endfacet
  facet normal -0.000736886 0.275739 0
    outer loop
      vertex -5.93539 10.0819 0
      vertex -5.65965 10.0826 1
      vertex -5.65965 10.0826 0
    endloop
  endfacet
  facet normal 0.00079357 0.267502 -0
    outer loop
      vertex -5.65965 10.0826 0
      vertex -5.65965 10.0826 1
      vertex -5.39215 10.0819 1
    endloop
  endfacet
  facet normal 0.00079357 0.267502 0
    outer loop
      vertex -5.65965 10.0826 0
      vertex -5.39215 10.0819 1
      vertex -5.39215 10.0819 0
    endloop
  endfacet
  facet normal 0.00249408 0.259386 -0
    outer loop
      vertex -5.39215 10.0819 0
      vertex -5.39215 10.0819 1
      vertex -5.13277 10.0794 1
    endloop
  endfacet
  facet normal 0.00249408 0.259386 0
    outer loop
      vertex -5.39215 10.0819 0
      vertex -5.13277 10.0794 1
      vertex -5.13277 10.0794 0
    endloop
  endfacet
  facet normal 0.00436463 0.251391 -0
    outer loop
      vertex -5.13277 10.0794 0
      vertex -5.13277 10.0794 1
      vertex -4.88138 10.075 1
    endloop
  endfacet
  facet normal 0.00436463 0.251391 0
    outer loop
      vertex -5.13277 10.0794 0
      vertex -4.88138 10.075 1
      vertex -4.88138 10.075 0
    endloop
  endfacet
  facet normal 0.00640524 0.243516 -0
    outer loop
      vertex -4.88138 10.075 0
      vertex -4.88138 10.075 1
      vertex -4.63786 10.0686 1
    endloop
  endfacet
  facet normal 0.00640524 0.243516 0
    outer loop
      vertex -4.88138 10.075 0
      vertex -4.63786 10.0686 1
      vertex -4.63786 10.0686 0
    endloop
  endfacet
  facet normal 0.0086159 0.235761 -0
    outer loop
      vertex -4.63786 10.0686 0
      vertex -4.63786 10.0686 1
      vertex -4.4021 10.06 1
    endloop
  endfacet
  facet normal 0.0086159 0.235761 0
    outer loop
      vertex -4.63786 10.0686 0
      vertex -4.4021 10.06 1
      vertex -4.4021 10.06 0
    endloop
  endfacet
  facet normal 0.0109966 0.228128 -0
    outer loop
      vertex -4.4021 10.06 0
      vertex -4.4021 10.06 1
      vertex -4.17397 10.049 1
    endloop
  endfacet
  facet normal 0.0109966 0.228128 0
    outer loop
      vertex -4.4021 10.06 0
      vertex -4.17397 10.049 1
      vertex -4.17397 10.049 0
    endloop
  endfacet
  facet normal 0.0135474 0.220614 -0
    outer loop
      vertex -4.17397 10.049 0
      vertex -4.17397 10.049 1
      vertex -3.95336 10.0354 1
    endloop
  endfacet
  facet normal 0.0135474 0.220614 0
    outer loop
      vertex -4.17397 10.049 0
      vertex -3.95336 10.0354 1
      vertex -3.95336 10.0354 0
    endloop
  endfacet
  facet normal 0.0162682 0.213222 -0
    outer loop
      vertex -3.95336 10.0354 0
      vertex -3.95336 10.0354 1
      vertex -3.74013 10.0192 1
    endloop
  endfacet
  facet normal 0.0162682 0.213222 0
    outer loop
      vertex -3.95336 10.0354 0
      vertex -3.74013 10.0192 1
      vertex -3.74013 10.0192 0
    endloop
  endfacet
  facet normal 0.019159 0.20595 -0
    outer loop
      vertex -3.74013 10.0192 0
      vertex -3.74013 10.0192 1
      vertex -3.53418 10 1
    endloop
  endfacet
  facet normal 0.019159 0.20595 0
    outer loop
      vertex -3.74013 10.0192 0
      vertex -3.53418 10 1
      vertex -3.53418 10 0
    endloop
  endfacet
  facet normal 0.02222 0.198799 -0
    outer loop
      vertex -3.53418 10 0
      vertex -3.53418 10 1
      vertex -3.33539 9.97778 1
    endloop
  endfacet
  facet normal 0.02222 0.198799 0
    outer loop
      vertex -3.53418 10 0
      vertex -3.33539 9.97778 1
      vertex -3.33539 9.97778 0
    endloop
  endfacet
  facet normal 0.0254509 0.191768 -0
    outer loop
      vertex -3.33539 9.97778 0
      vertex -3.33539 9.97778 1
      vertex -3.14362 9.95233 1
    endloop
  endfacet
  facet normal 0.0254509 0.191768 0
    outer loop
      vertex -3.33539 9.97778 0
      vertex -3.14362 9.95233 1
      vertex -3.14362 9.95233 0
    endloop
  endfacet
  facet normal 0.0288519 0.184857 -0
    outer loop
      vertex -3.14362 9.95233 0
      vertex -3.14362 9.95233 1
      vertex -2.95876 9.92348 1
    endloop
  endfacet
  facet normal 0.0288519 0.184857 0
    outer loop
      vertex -3.14362 9.95233 0
      vertex -2.95876 9.92348 1
      vertex -2.95876 9.92348 0
    endloop
  endfacet
  facet normal 0.032423 0.178068 -0
    outer loop
      vertex -2.95876 9.92348 0
      vertex -2.95876 9.92348 1
      vertex -2.78069 9.89105 1
    endloop
  endfacet
  facet normal 0.032423 0.178068 0
    outer loop
      vertex -2.95876 9.92348 0
      vertex -2.78069 9.89105 1
      vertex -2.78069 9.89105 0
    endloop
  endfacet
  facet normal 0.0361641 0.171399 -0
    outer loop
      vertex -2.78069 9.89105 0
      vertex -2.78069 9.89105 1
      vertex -2.60929 9.85489 1
    endloop
  endfacet
  facet normal 0.0361641 0.171399 0
    outer loop
      vertex -2.78069 9.89105 0
      vertex -2.60929 9.85489 1
      vertex -2.60929 9.85489 0
    endloop
  endfacet
  facet normal 0.0400753 0.16485 -0
    outer loop
      vertex -2.60929 9.85489 0
      vertex -2.60929 9.85489 1
      vertex -2.44444 9.81481 1
    endloop
  endfacet
  facet normal 0.0400753 0.16485 0
    outer loop
      vertex -2.60929 9.85489 0
      vertex -2.44444 9.81481 1
      vertex -2.44444 9.81481 0
    endloop
  endfacet
  facet normal 0.0441565 0.158422 -0
    outer loop
      vertex -2.44444 9.81481 0
      vertex -2.44444 9.81481 1
      vertex -2.28602 9.77066 1
    endloop
  endfacet
  facet normal 0.0441565 0.158422 0
    outer loop
      vertex -2.44444 9.81481 0
      vertex -2.28602 9.77066 1
      vertex -2.28602 9.77066 0
    endloop
  endfacet
  facet normal 0.0484078 0.152115 -0
    outer loop
      vertex -2.28602 9.77066 0
      vertex -2.28602 9.77066 1
      vertex -2.13391 9.72225 1
    endloop
  endfacet
  facet normal 0.0484078 0.152115 0
    outer loop
      vertex -2.28602 9.77066 0
      vertex -2.13391 9.72225 1
      vertex -2.13391 9.72225 0
    endloop
  endfacet
  facet normal 0.0528291 0.145928 -0
    outer loop
      vertex -2.13391 9.72225 0
      vertex -2.13391 9.72225 1
      vertex -1.98798 9.66942 1
    endloop
  endfacet
  facet normal 0.0528291 0.145928 0
    outer loop
      vertex -2.13391 9.72225 0
      vertex -1.98798 9.66942 1
      vertex -1.98798 9.66942 0
    endloop
  endfacet
  facet normal 0.0574204 0.139862 -0
    outer loop
      vertex -1.98798 9.66942 0
      vertex -1.98798 9.66942 1
      vertex -1.84812 9.612 1
    endloop
  endfacet
  facet normal 0.0574204 0.139862 0
    outer loop
      vertex -1.98798 9.66942 0
      vertex -1.84812 9.612 1
      vertex -1.84812 9.612 0
    endloop
  endfacet
  facet normal 0.0621819 0.133916 -0
    outer loop
      vertex -1.84812 9.612 0
      vertex -1.84812 9.612 1
      vertex -1.7142 9.54982 1
    endloop
  endfacet
  facet normal 0.0621819 0.133916 0
    outer loop
      vertex -1.84812 9.612 0
      vertex -1.7142 9.54982 1
      vertex -1.7142 9.54982 0
    endloop
  endfacet
  facet normal 0.0671133 0.128091 -0
    outer loop
      vertex -1.7142 9.54982 0
      vertex -1.7142 9.54982 1
      vertex -1.58611 9.48271 1
    endloop
  endfacet
  facet normal 0.0671133 0.128091 0
    outer loop
      vertex -1.7142 9.54982 0
      vertex -1.58611 9.48271 1
      vertex -1.58611 9.48271 0
    endloop
  endfacet
  facet normal 0.0722149 0.122387 -0
    outer loop
      vertex -1.58611 9.48271 0
      vertex -1.58611 9.48271 1
      vertex -1.46372 9.41049 1
    endloop
  endfacet
  facet normal 0.0722149 0.122387 0
    outer loop
      vertex -1.58611 9.48271 0
      vertex -1.46372 9.41049 1
      vertex -1.46372 9.41049 0
    endloop
  endfacet
  facet normal 0.0774864 0.116803 -0
    outer loop
      vertex -1.46372 9.41049 0
      vertex -1.46372 9.41049 1
      vertex -1.34692 9.333 1
    endloop
  endfacet
  facet normal 0.0774864 0.116803 0
    outer loop
      vertex -1.46372 9.41049 0
      vertex -1.34692 9.333 1
      vertex -1.34692 9.333 0
    endloop
  endfacet
  facet normal 0.082928 0.11134 -0
    outer loop
      vertex -1.34692 9.333 0
      vertex -1.34692 9.333 1
      vertex -1.23558 9.25008 1
    endloop
  endfacet
  facet normal 0.082928 0.11134 0
    outer loop
      vertex -1.34692 9.333 0
      vertex -1.23558 9.25008 1
      vertex -1.23558 9.25008 0
    endloop
  endfacet
  facet normal 0.0885397 0.105997 -0
    outer loop
      vertex -1.23558 9.25008 0
      vertex -1.23558 9.25008 1
      vertex -1.12958 9.16154 1
    endloop
  endfacet
  facet normal 0.0885397 0.105997 0
    outer loop
      vertex -1.23558 9.25008 0
      vertex -1.12958 9.16154 1
      vertex -1.12958 9.16154 0
    endloop
  endfacet
  facet normal 0.0943214 0.100775 -0
    outer loop
      vertex -1.12958 9.16154 0
      vertex -1.12958 9.16154 1
      vertex -1.02881 9.06722 1
    endloop
  endfacet
  facet normal 0.0943214 0.100775 0
    outer loop
      vertex -1.12958 9.16154 0
      vertex -1.02881 9.06722 1
      vertex -1.02881 9.06722 0
    endloop
  endfacet
  facet normal 0.100273 0.0956736 -0
    outer loop
      vertex -1.02881 9.06722 0
      vertex -1.02881 9.06722 1
      vertex -0.933133 8.96694 1
    endloop
  endfacet
  facet normal 0.100273 0.0956736 0
    outer loop
      vertex -1.02881 9.06722 0
      vertex -0.933133 8.96694 1
      vertex -0.933133 8.96694 0
    endloop
  endfacet
  facet normal 0.106395 0.0906927 -0
    outer loop
      vertex -0.933133 8.96694 0
      vertex -0.933133 8.96694 1
      vertex -0.84244 8.86055 1
    endloop
  endfacet
  facet normal 0.106395 0.0906927 0
    outer loop
      vertex -0.933133 8.96694 0
      vertex -0.84244 8.86055 1
      vertex -0.84244 8.86055 0
    endloop
  endfacet
  facet normal 0.112687 0.0858323 -0
    outer loop
      vertex -0.84244 8.86055 0
      vertex -0.84244 8.86055 1
      vertex -0.756608 8.74786 1
    endloop
  endfacet
  facet normal 0.112687 0.0858323 0
    outer loop
      vertex -0.84244 8.86055 0
      vertex -0.756608 8.74786 1
      vertex -0.756608 8.74786 0
    endloop
  endfacet
  facet normal 0.119149 0.0810925 -0
    outer loop
      vertex -0.756608 8.74786 0
      vertex -0.756608 8.74786 1
      vertex -0.675515 8.62871 1
    endloop
  endfacet
  facet normal 0.119149 0.0810925 0
    outer loop
      vertex -0.756608 8.74786 0
      vertex -0.675515 8.62871 1
      vertex -0.675515 8.62871 0
    endloop
  endfacet
  facet normal 0.125781 0.0764733 -0
    outer loop
      vertex -0.675515 8.62871 0
      vertex -0.675515 8.62871 1
      vertex -0.599042 8.50293 1
    endloop
  endfacet
  facet normal 0.125781 0.0764733 0
    outer loop
      vertex -0.675515 8.62871 0
      vertex -0.599042 8.50293 1
      vertex -0.599042 8.50293 0
    endloop
  endfacet
  facet normal 0.132583 0.0719747 -0
    outer loop
      vertex -0.599042 8.50293 0
      vertex -0.599042 8.50293 1
      vertex -0.527067 8.37035 1
    endloop
  endfacet
  facet normal 0.132583 0.0719747 0
    outer loop
      vertex -0.599042 8.50293 0
      vertex -0.527067 8.37035 1
      vertex -0.527067 8.37035 0
    endloop
  endfacet
  facet normal 0.139555 0.0675967 -0
    outer loop
      vertex -0.527067 8.37035 0
      vertex -0.527067 8.37035 1
      vertex -0.459471 8.23079 1
    endloop
  endfacet
  facet normal 0.139555 0.0675967 0
    outer loop
      vertex -0.527067 8.37035 0
      vertex -0.459471 8.23079 1
      vertex -0.459471 8.23079 0
    endloop
  endfacet
  facet normal 0.146697 0.0633392 -0
    outer loop
      vertex -0.459471 8.23079 0
      vertex -0.459471 8.23079 1
      vertex -0.396132 8.0841 1
    endloop
  endfacet
  facet normal 0.146697 0.0633392 0
    outer loop
      vertex -0.459471 8.23079 0
      vertex -0.396132 8.0841 1
      vertex -0.396132 8.0841 0
    endloop
  endfacet
  facet normal 0.154009 0.0592024 -0
    outer loop
      vertex -0.396132 8.0841 0
      vertex -0.396132 8.0841 1
      vertex -0.336929 7.93009 1
    endloop
  endfacet
  facet normal 0.154009 0.0592024 0
    outer loop
      vertex -0.396132 8.0841 0
      vertex -0.336929 7.93009 1
      vertex -0.336929 7.93009 0
    endloop
  endfacet
  facet normal 0.161491 0.0551861 -0
    outer loop
      vertex -0.336929 7.93009 0
      vertex -0.336929 7.93009 1
      vertex -0.281743 7.7686 1
    endloop
  endfacet
  facet normal 0.161491 0.0551861 0
    outer loop
      vertex -0.336929 7.93009 0
      vertex -0.281743 7.7686 1
      vertex -0.281743 7.7686 0
    endloop
  endfacet
  facet normal 0.169144 0.0512904 -0
    outer loop
      vertex -0.281743 7.7686 0
      vertex -0.281743 7.7686 1
      vertex -0.230453 7.59945 1
    endloop
  endfacet
  facet normal 0.169144 0.0512904 0
    outer loop
      vertex -0.281743 7.7686 0
      vertex -0.230453 7.59945 1
      vertex -0.230453 7.59945 0
    endloop
  endfacet
  facet normal 0.176966 0.0475153 -0
    outer loop
      vertex -0.230453 7.59945 0
      vertex -0.230453 7.59945 1
      vertex -0.182937 7.42249 1
    endloop
  endfacet
  facet normal 0.176966 0.0475153 0
    outer loop
      vertex -0.230453 7.59945 0
      vertex -0.182937 7.42249 1
      vertex -0.182937 7.42249 0
    endloop
  endfacet
  facet normal 0.184958 0.0438607 -0
    outer loop
      vertex -0.182937 7.42249 0
      vertex -0.182937 7.42249 1
      vertex -0.139077 7.23753 1
    endloop
  endfacet
  facet normal 0.184958 0.0438607 0
    outer loop
      vertex -0.182937 7.42249 0
      vertex -0.139077 7.23753 1
      vertex -0.139077 7.23753 0
    endloop
  endfacet
  facet normal 0.193121 0.0403267 -0
    outer loop
      vertex -0.139077 7.23753 0
      vertex -0.139077 7.23753 1
      vertex -0.09875 7.04441 1
    endloop
  endfacet
  facet normal 0.193121 0.0403267 0
    outer loop
      vertex -0.139077 7.23753 0
      vertex -0.09875 7.04441 1
      vertex -0.09875 7.04441 0
    endloop
  endfacet
  facet normal 0.201453 0.0369134 -0
    outer loop
      vertex -0.09875 7.04441 0
      vertex -0.09875 7.04441 1
      vertex -0.0618366 6.84295 1
    endloop
  endfacet
  facet normal 0.201453 0.0369134 0
    outer loop
      vertex -0.09875 7.04441 0
      vertex -0.0618366 6.84295 1
      vertex -0.0618366 6.84295 0
    endloop
  endfacet
  facet normal 0.209956 0.0336206 -0
    outer loop
      vertex -0.0618366 6.84295 0
      vertex -0.0618366 6.84295 1
      vertex -0.028216 6.633 1
    endloop
  endfacet
  facet normal 0.209956 0.0336206 0
    outer loop
      vertex -0.0618366 6.84295 0
      vertex -0.028216 6.633 1
      vertex -0.028216 6.633 0
    endloop
  endfacet
  facet normal 0.218628 0.0304483 -0
    outer loop
      vertex -0.028216 6.633 0
      vertex -0.028216 6.633 1
      vertex 0.0022323 6.41437 1
    endloop
  endfacet
  facet normal 0.218628 0.0304483 0
    outer loop
      vertex -0.028216 6.633 0
      vertex 0.0022323 6.41437 1
      vertex 0.0022323 6.41437 0
    endloop
  endfacet
  facet normal 0.227471 0.0273967 -0
    outer loop
      vertex 0.0022323 6.41437 0
      vertex 0.0022323 6.41437 1
      vertex 0.029629 6.1869 1
    endloop
  endfacet
  facet normal 0.227471 0.0273967 0
    outer loop
      vertex 0.0022323 6.41437 0
      vertex 0.029629 6.1869 1
      vertex 0.029629 6.1869 0
    endloop
  endfacet
  facet normal 0.236484 0.0244657 -0
    outer loop
      vertex 0.029629 6.1869 0
      vertex 0.029629 6.1869 1
      vertex 0.0540947 5.95041 1
    endloop
  endfacet
  facet normal 0.236484 0.0244657 0
    outer loop
      vertex 0.029629 6.1869 0
      vertex 0.0540947 5.95041 1
      vertex 0.0540947 5.95041 0
    endloop
  endfacet
  facet normal 0.245667 0.0216552 -0
    outer loop
      vertex 0.0540947 5.95041 0
      vertex 0.0540947 5.95041 1
      vertex 0.0757498 5.70475 1
    endloop
  endfacet
  facet normal 0.245667 0.0216552 0
    outer loop
      vertex 0.0540947 5.95041 0
      vertex 0.0757498 5.70475 1
      vertex 0.0757498 5.70475 0
    endloop
  endfacet
  facet normal 0.255019 0.0189653 -0
    outer loop
      vertex 0.0757498 5.70475 0
      vertex 0.0757498 5.70475 1
      vertex 0.0947151 5.44973 1
    endloop
  endfacet
  facet normal 0.255019 0.0189653 0
    outer loop
      vertex 0.0757498 5.70475 0
      vertex 0.0947151 5.44973 1
      vertex 0.0947151 5.44973 0
    endloop
  endfacet
  facet normal 0.264542 0.016396 -0
    outer loop
      vertex 0.0947151 5.44973 0
      vertex 0.0947151 5.44973 1
      vertex 0.111111 5.18519 1
    endloop
  endfacet
  facet normal 0.264542 0.016396 0
    outer loop
      vertex 0.0947151 5.44973 0
      vertex 0.111111 5.18519 1
      vertex 0.111111 5.18519 0
    endloop
  endfacet
  facet normal 0.274235 0.0139472 -0
    outer loop
      vertex 0.111111 5.18519 0
      vertex 0.111111 5.18519 1
      vertex 0.125058 4.91095 1
    endloop
  endfacet
  facet normal 0.274235 0.0139472 0
    outer loop
      vertex 0.111111 5.18519 0
      vertex 0.125058 4.91095 1
      vertex 0.125058 4.91095 0
    endloop
  endfacet
  facet normal 0.284098 0.0116191 -0
    outer loop
      vertex 0.125058 4.91095 0
      vertex 0.125058 4.91095 1
      vertex 0.136677 4.62685 1
    endloop
  endfacet
  facet normal 0.284098 0.0116191 0
    outer loop
      vertex 0.125058 4.91095 0
      vertex 0.136677 4.62685 1
      vertex 0.136677 4.62685 0
    endloop
  endfacet
  facet normal 0.294131 0.00941153 -0
    outer loop
      vertex 0.136677 4.62685 0
      vertex 0.136677 4.62685 1
      vertex 0.146089 4.33272 1
    endloop
  endfacet
  facet normal 0.294131 0.00941153 0
    outer loop
      vertex 0.136677 4.62685 0
      vertex 0.146089 4.33272 1
      vertex 0.146089 4.33272 0
    endloop
  endfacet
  facet normal 0.304334 0.00732455 -0
    outer loop
      vertex 0.146089 4.33272 0
      vertex 0.146089 4.33272 1
      vertex 0.153414 4.02839 1
    endloop
  endfacet
  facet normal 0.304334 0.00732455 0
    outer loop
      vertex 0.146089 4.33272 0
      vertex 0.153414 4.02839 1
      vertex 0.153414 4.02839 0
    endloop
  endfacet
  facet normal 0.314707 0.00535814 -0
    outer loop
      vertex 0.153414 4.02839 0
      vertex 0.153414 4.02839 1
      vertex 0.158772 3.71368 1
    endloop
  endfacet
  facet normal 0.314707 0.00535814 0
    outer loop
      vertex 0.153414 4.02839 0
      vertex 0.158772 3.71368 1
      vertex 0.158772 3.71368 0
    endloop
  endfacet
  facet normal 0.32525 0.00351232 -0
    outer loop
      vertex 0.158772 3.71368 0
      vertex 0.158772 3.71368 1
      vertex 0.162284 3.38843 1
    endloop
  endfacet
  facet normal 0.32525 0.00351232 0
    outer loop
      vertex 0.158772 3.71368 0
      vertex 0.162284 3.38843 1
      vertex 0.162284 3.38843 0
    endloop
  endfacet
  facet normal 0.335963 0.00178708 -0
    outer loop
      vertex 0.162284 3.38843 0
      vertex 0.162284 3.38843 1
      vertex 0.164071 3.05247 1
    endloop
  endfacet
  facet normal 0.335963 0.00178708 0
    outer loop
      vertex 0.162284 3.38843 0
      vertex 0.164071 3.05247 1
      vertex 0.164071 3.05247 0
    endloop
  endfacet
  facet normal 0.346847 0.000182418 -0
    outer loop
      vertex 0.164071 3.05247 0
      vertex 0.164071 3.05247 1
      vertex 0.164253 2.70562 1
    endloop
  endfacet
  facet normal 0.346847 0.000182418 0
    outer loop
      vertex 0.164071 3.05247 0
      vertex 0.164253 2.70562 1
      vertex 0.164253 2.70562 0
    endloop
  endfacet
  facet normal 0.3579 -0.00130166 0
    outer loop
      vertex 0.164253 2.70562 0
      vertex 0.164253 2.70562 1
      vertex 0.162952 2.34772 1
    endloop
  endfacet
  facet normal 0.3579 -0.00130166 0
    outer loop
      vertex 0.164253 2.70562 0
      vertex 0.162952 2.34772 1
      vertex 0.162952 2.34772 0
    endloop
  endfacet
  facet normal 0.369123 -0.00266516 0
    outer loop
      vertex 0.162952 2.34772 0
      vertex 0.162952 2.34772 1
      vertex 0.160287 1.9786 1
    endloop
  endfacet
  facet normal 0.369123 -0.00266516 0
    outer loop
      vertex 0.162952 2.34772 0
      vertex 0.160287 1.9786 1
      vertex 0.160287 1.9786 0
    endloop
  endfacet
  facet normal 0.380517 -0.00390807 0
    outer loop
      vertex 0.160287 1.9786 0
      vertex 0.160287 1.9786 1
      vertex 0.156379 1.59808 1
    endloop
  endfacet
  facet normal 0.380517 -0.00390807 0
    outer loop
      vertex 0.160287 1.9786 0
      vertex 0.156379 1.59808 1
      vertex 0.156379 1.59808 0
    endloop
  endfacet
  facet normal 0.39208 -0.00503041 0
    outer loop
      vertex 0.156379 1.59808 0
      vertex 0.156379 1.59808 1
      vertex 0.151348 1.206 1
    endloop
  endfacet
  facet normal 0.39208 -0.00503041 0
    outer loop
      vertex 0.156379 1.59808 0
      vertex 0.151348 1.206 1
      vertex 0.151348 1.206 0
    endloop
  endfacet
  facet normal 0.403814 -0.00603216 0
    outer loop
      vertex 0.151348 1.206 0
      vertex 0.151348 1.206 1
      vertex 0.145316 0.802186 1
    endloop
  endfacet
  facet normal 0.403814 -0.00603216 0
    outer loop
      vertex 0.151348 1.206 0
      vertex 0.145316 0.802186 1
      vertex 0.145316 0.802186 0
    endloop
  endfacet
  facet normal 0.415717 -0.00691333 0
    outer loop
      vertex 0.145316 0.802186 0
      vertex 0.145316 0.802186 1
      vertex 0.138403 0.386469 1
    endloop
  endfacet
  facet normal 0.415717 -0.00691333 0
    outer loop
      vertex 0.145316 0.802186 0
      vertex 0.138403 0.386469 1
      vertex 0.138403 0.386469 0
    endloop
  endfacet
  facet normal 0.427791 -0.00767392 0
    outer loop
      vertex 0.138403 0.386469 0
      vertex 0.138403 0.386469 1
      vertex 0.130729 -0.0413223 1
    endloop
  endfacet
  facet normal 0.427791 -0.00767392 0
    outer loop
      vertex 0.138403 0.386469 0
      vertex 0.130729 -0.0413223 1
      vertex 0.130729 -0.0413223 0
    endloop
  endfacet
  facet normal 0.440034 -0.00831393 0
    outer loop
      vertex 0.130729 -0.0413223 0
      vertex 0.130729 -0.0413223 1
      vertex 0.122415 -0.481357 1
    endloop
  endfacet
  facet normal 0.440034 -0.00831393 0
    outer loop
      vertex 0.130729 -0.0413223 0
      vertex 0.122415 -0.481357 1
      vertex 0.122415 -0.481357 0
    endloop
  endfacet
  facet normal 0.452448 -0.00883336 0
    outer loop
      vertex 0.122415 -0.481357 0
      vertex 0.122415 -0.481357 1
      vertex 0.113581 -0.933805 1
    endloop
  endfacet
  facet normal 0.452448 -0.00883336 0
    outer loop
      vertex 0.122415 -0.481357 0
      vertex 0.113581 -0.933805 1
      vertex 0.113581 -0.933805 0
    endloop
  endfacet
  facet normal 0.465032 -0.00923221 0
    outer loop
      vertex 0.113581 -0.933805 0
      vertex 0.113581 -0.933805 1
      vertex 0.104349 -1.39884 1
    endloop
  endfacet
  facet normal 0.465032 -0.00923221 0
    outer loop
      vertex 0.113581 -0.933805 0
      vertex 0.104349 -1.39884 1
      vertex 0.104349 -1.39884 0
    endloop
  endfacet
  facet normal 0.477786 -0.00951047 0
    outer loop
      vertex 0.104349 -1.39884 0
      vertex 0.104349 -1.39884 1
      vertex 0.0948388 -1.87662 1
    endloop
  endfacet
  facet normal 0.477786 -0.00951047 0
    outer loop
      vertex 0.104349 -1.39884 0
      vertex 0.0948388 -1.87662 1
      vertex 0.0948388 -1.87662 0
    endloop
  endfacet
  facet normal 0.49071 -0.00966815 0
    outer loop
      vertex 0.0948388 -1.87662 0
      vertex 0.0948388 -1.87662 1
      vertex 0.0851707 -2.36733 1
    endloop
  endfacet
  facet normal 0.49071 -0.00966815 0
    outer loop
      vertex 0.0948388 -1.87662 0
      vertex 0.0851707 -2.36733 1
      vertex 0.0851707 -2.36733 0
    endloop
  endfacet
  facet normal 0.503803 -0.00970526 0
    outer loop
      vertex 0.0851707 -2.36733 0
      vertex 0.0851707 -2.36733 1
      vertex 0.0754654 -2.87114 1
    endloop
  endfacet
  facet normal 0.503803 -0.00970526 0
    outer loop
      vertex 0.0851707 -2.36733 0
      vertex 0.0754654 -2.87114 1
      vertex 0.0754654 -2.87114 0
    endloop
  endfacet
  facet normal 0.517067 -0.00962178 0
    outer loop
      vertex 0.0754654 -2.87114 0
      vertex 0.0754654 -2.87114 1
      vertex 0.0658436 -3.3882 1
    endloop
  endfacet
  facet normal 0.517067 -0.00962178 0
    outer loop
      vertex 0.0754654 -2.87114 0
      vertex 0.0658436 -3.3882 1
      vertex 0.0658436 -3.3882 0
    endloop
  endfacet
  facet normal 0.530501 -0.00941772 0
    outer loop
      vertex 0.0658436 -3.3882 0
      vertex 0.0658436 -3.3882 1
      vertex 0.0564259 -3.9187 1
    endloop
  endfacet
  facet normal 0.530501 -0.00941772 0
    outer loop
      vertex 0.0658436 -3.3882 0
      vertex 0.0564259 -3.9187 1
      vertex 0.0564259 -3.9187 0
    endloop
  endfacet
  facet normal 0.544105 -0.00909307 0
    outer loop
      vertex 0.0564259 -3.9187 0
      vertex 0.0564259 -3.9187 1
      vertex 0.0473328 -4.46281 1
    endloop
  endfacet
  facet normal 0.544105 -0.00909307 0
    outer loop
      vertex 0.0564259 -3.9187 0
      vertex 0.0473328 -4.46281 1
      vertex 0.0473328 -4.46281 0
    endloop
  endfacet
  facet normal 0.55788 -0.00864785 0
    outer loop
      vertex 0.0473328 -4.46281 0
      vertex 0.0473328 -4.46281 1
      vertex 0.038685 -5.02069 1
    endloop
  endfacet
  facet normal 0.55788 -0.00864785 0
    outer loop
      vertex 0.0473328 -4.46281 0
      vertex 0.038685 -5.02069 1
      vertex 0.038685 -5.02069 0
    endloop
  endfacet
  facet normal 0.571824 -0.00808204 0
    outer loop
      vertex 0.038685 -5.02069 0
      vertex 0.038685 -5.02069 1
      vertex 0.0306029 -5.59251 1
    endloop
  endfacet
  facet normal 0.571824 -0.00808204 0
    outer loop
      vertex 0.038685 -5.02069 0
      vertex 0.0306029 -5.59251 1
      vertex 0.0306029 -5.59251 0
    endloop
  endfacet
  facet normal 0.585938 -0.00739566 0
    outer loop
      vertex 0.0306029 -5.59251 0
      vertex 0.0306029 -5.59251 1
      vertex 0.0232073 -6.17845 1
    endloop
  endfacet
  facet normal 0.585938 -0.00739566 0
    outer loop
      vertex 0.0306029 -5.59251 0
      vertex 0.0232073 -6.17845 1
      vertex 0.0232073 -6.17845 0
    endloop
  endfacet
  facet normal 0.600222 -0.00658869 0
    outer loop
      vertex 0.0232073 -6.17845 0
      vertex 0.0232073 -6.17845 1
      vertex 0.0166186 -6.77867 1
    endloop
  endfacet
  facet normal 0.600222 -0.00658869 0
    outer loop
      vertex 0.0232073 -6.17845 0
      vertex 0.0166186 -6.77867 1
      vertex 0.0166186 -6.77867 0
    endloop
  endfacet
  facet normal 0.614677 -0.00566114 0
    outer loop
      vertex 0.0166186 -6.77867 0
      vertex 0.0166186 -6.77867 1
      vertex 0.0109574 -7.39335 1
    endloop
  endfacet
  facet normal 0.614677 -0.00566114 0
    outer loop
      vertex 0.0166186 -6.77867 0
      vertex 0.0109574 -7.39335 1
      vertex 0.0109574 -7.39335 0
    endloop
  endfacet
  facet normal 0.629301 -0.00461301 0
    outer loop
      vertex 0.0109574 -7.39335 0
      vertex 0.0109574 -7.39335 1
      vertex 0.00634444 -8.02265 1
    endloop
  endfacet
  facet normal 0.629301 -0.00461301 0
    outer loop
      vertex 0.0109574 -7.39335 0
      vertex 0.00634444 -8.02265 1
      vertex 0.00634444 -8.02265 0
    endloop
  endfacet
  facet normal 0.644095 -0.0034443 0
    outer loop
      vertex 0.00634444 -8.02265 0
      vertex 0.00634444 -8.02265 1
      vertex 0.00290014 -8.66675 1
    endloop
  endfacet
  facet normal 0.644095 -0.0034443 0
    outer loop
      vertex 0.00634444 -8.02265 0
      vertex 0.00290014 -8.66675 1
      vertex 0.00290014 -8.66675 0
    endloop
  endfacet
  facet normal 0.65906 -0.00215501 0
    outer loop
      vertex 0.00290014 -8.66675 0
      vertex 0.00290014 -8.66675 1
      vertex 0.000745131 -9.32581 1
    endloop
  endfacet
  facet normal 0.65906 -0.00215501 0
    outer loop
      vertex 0.00290014 -8.66675 0
      vertex 0.000745131 -9.32581 1
      vertex 0.000745131 -9.32581 0
    endloop
  endfacet
  facet normal 0.674194 -0.000745131 0
    outer loop
      vertex 0.000745131 -9.32581 0
      vertex 0.000745131 -9.32581 1
      vertex 0 -10 1
    endloop
  endfacet
  facet normal 0.674194 -0.000745131 0
    outer loop
      vertex 0.000745131 -9.32581 0
      vertex 0 -10 1
      vertex 0 -10 0
    endloop
  endfacet
  facet normal 0.0007225 -0.42992 0
    outer loop
      vertex 0 -10 0
      vertex 0 -10 1
      vertex -0.42992 -10.0007 1
    endloop
  endfacet
  facet normal 0.0007225 -0.42992 0
    outer loop
      vertex 0 -10 0
      vertex -0.42992 -10.0007 1
      vertex -0.42992 -10.0007 0
    endloop
  endfacet
  facet normal 0.0020575 -0.419837 0
    outer loop
      vertex -0.42992 -10.0007 0
      vertex -0.42992 -10.0007 1
      vertex -0.849756 -10.0028 1
    endloop
  endfacet
  facet normal 0.0020575 -0.419837 0
    outer loop
      vertex -0.42992 -10.0007 0
      vertex -0.849756 -10.0028 1
      vertex -0.849756 -10.0028 0
    endloop
  endfacet
  facet normal 0.0032275 -0.409871 0
    outer loop
      vertex -0.849756 -10.0028 0
      vertex -0.849756 -10.0028 1
      vertex -1.25963 -10.006 1
    endloop
  endfacet
  facet normal 0.0032275 -0.409871 0
    outer loop
      vertex -0.849756 -10.0028 0
      vertex -1.25963 -10.006 1
      vertex -1.25963 -10.006 0
    endloop
  endfacet
  facet normal 0.0042325 -0.400022 0
    outer loop
      vertex -1.25963 -10.006 0
      vertex -1.25963 -10.006 1
      vertex -1.65965 -10.0102 1
    endloop
  endfacet
  facet normal 0.0042325 -0.400022 0
    outer loop
      vertex -1.25963 -10.006 0
      vertex -1.65965 -10.0102 1
      vertex -1.65965 -10.0102 0
    endloop
  endfacet
  facet normal 0.0050725 -0.390289 0
    outer loop
      vertex -1.65965 -10.0102 0
      vertex -1.65965 -10.0102 1
      vertex -2.04994 -10.0153 1
    endloop
  endfacet
  facet normal 0.0050725 -0.390289 0
    outer loop
      vertex -1.65965 -10.0102 0
      vertex -2.04994 -10.0153 1
      vertex -2.04994 -10.0153 0
    endloop
  endfacet
  facet normal 0.0057475 -0.380675 0
    outer loop
      vertex -2.04994 -10.0153 0
      vertex -2.04994 -10.0153 1
      vertex -2.43061 -10.0211 1
    endloop
  endfacet
  facet normal 0.0057475 -0.380675 0
    outer loop
      vertex -2.04994 -10.0153 0
      vertex -2.43061 -10.0211 1
      vertex -2.43061 -10.0211 0
    endloop
  endfacet
  facet normal 0.0062575 -0.371177 0
    outer loop
      vertex -2.43061 -10.0211 0
      vertex -2.43061 -10.0211 1
      vertex -2.80179 -10.0273 1
    endloop
  endfacet
  facet normal 0.0062575 -0.371177 0
    outer loop
      vertex -2.43061 -10.0211 0
      vertex -2.80179 -10.0273 1
      vertex -2.80179 -10.0273 0
    endloop
  endfacet
  facet normal 0.0066025 -0.361796 0
    outer loop
      vertex -2.80179 -10.0273 0
      vertex -2.80179 -10.0273 1
      vertex -3.16358 -10.0339 1
    endloop
  endfacet
  facet normal 0.0066025 -0.361796 0
    outer loop
      vertex -2.80179 -10.0273 0
      vertex -3.16358 -10.0339 1
      vertex -3.16358 -10.0339 0
    endloop
  endfacet
  facet normal 0.0067825 -0.352532 0
    outer loop
      vertex -3.16358 -10.0339 0
      vertex -3.16358 -10.0339 1
      vertex -3.51612 -10.0407 1
    endloop
  endfacet
  facet normal 0.0067825 -0.352532 0
    outer loop
      vertex -3.16358 -10.0339 0
      vertex -3.51612 -10.0407 1
      vertex -3.51612 -10.0407 0
    endloop
  endfacet
  facet normal 0.0067975 -0.343385 0
    outer loop
      vertex -3.51612 -10.0407 0
      vertex -3.51612 -10.0407 1
      vertex -3.8595 -10.0475 1
    endloop
  endfacet
  facet normal 0.0067975 -0.343385 0
    outer loop
      vertex -3.51612 -10.0407 0
      vertex -3.8595 -10.0475 1
      vertex -3.8595 -10.0475 0
    endloop
  endfacet
  facet normal 0.0066475 -0.334355 0
    outer loop
      vertex -3.8595 -10.0475 0
      vertex -3.8595 -10.0475 1
      vertex -4.19385 -10.0541 1
    endloop
  endfacet
  facet normal 0.0066475 -0.334355 0
    outer loop
      vertex -3.8595 -10.0475 0
      vertex -4.19385 -10.0541 1
      vertex -4.19385 -10.0541 0
    endloop
  endfacet
  facet normal 0.0063325 -0.325442 0
    outer loop
      vertex -4.19385 -10.0541 0
      vertex -4.19385 -10.0541 1
      vertex -4.5193 -10.0605 1
    endloop
  endfacet
  facet normal 0.0063325 -0.325442 0
    outer loop
      vertex -4.19385 -10.0541 0
      vertex -4.5193 -10.0605 1
      vertex -4.5193 -10.0605 0
    endloop
  endfacet
  facet normal 0.0058525 -0.316646 0
    outer loop
      vertex -4.5193 -10.0605 0
      vertex -4.5193 -10.0605 1
      vertex -4.83594 -10.0663 1
    endloop
  endfacet
  facet normal 0.0058525 -0.316646 0
    outer loop
      vertex -4.5193 -10.0605 0
      vertex -4.83594 -10.0663 1
      vertex -4.83594 -10.0663 0
    endloop
  endfacet
  facet normal 0.0052075 -0.307967 0
    outer loop
      vertex -4.83594 -10.0663 0
      vertex -4.83594 -10.0663 1
      vertex -5.14391 -10.0715 1
    endloop
  endfacet
  facet normal 0.0052075 -0.307967 0
    outer loop
      vertex -4.83594 -10.0663 0
      vertex -5.14391 -10.0715 1
      vertex -5.14391 -10.0715 0
    endloop
  endfacet
  facet normal 0.0043975 -0.299404 0
    outer loop
      vertex -5.14391 -10.0715 0
      vertex -5.14391 -10.0715 1
      vertex -5.44331 -10.0759 1
    endloop
  endfacet
  facet normal 0.0043975 -0.299404 0
    outer loop
      vertex -5.14391 -10.0715 0
      vertex -5.44331 -10.0759 1
      vertex -5.44331 -10.0759 0
    endloop
  endfacet
  facet normal 0.0034225 -0.29096 0
    outer loop
      vertex -5.44331 -10.0759 0
      vertex -5.44331 -10.0759 1
      vertex -5.73427 -10.0794 1
    endloop
  endfacet
  facet normal 0.0034225 -0.29096 0
    outer loop
      vertex -5.44331 -10.0759 0
      vertex -5.73427 -10.0794 1
      vertex -5.73427 -10.0794 0
    endloop
  endfacet
  facet normal 0.0022825 -0.282631 0
    outer loop
      vertex -5.73427 -10.0794 0
      vertex -5.73427 -10.0794 1
      vertex -6.0169 -10.0816 1
    endloop
  endfacet
  facet normal 0.0022825 -0.282631 0
    outer loop
      vertex -5.73427 -10.0794 0
      vertex -6.0169 -10.0816 1
      vertex -6.0169 -10.0816 0
    endloop
  endfacet
  facet normal 0.0009775 -0.27442 0
    outer loop
      vertex -6.0169 -10.0816 0
      vertex -6.0169 -10.0816 1
      vertex -6.29132 -10.0826 1
    endloop
  endfacet
  facet normal 0.0009775 -0.27442 0
    outer loop
      vertex -6.0169 -10.0816 0
      vertex -6.29132 -10.0826 1
      vertex -6.29132 -10.0826 0
    endloop
  endfacet
  facet normal -0.0004925 -0.266327 0
    outer loop
      vertex -6.29132 -10.0826 0
      vertex -6.29132 -10.0826 1
      vertex -6.55765 -10.0821 1
    endloop
  endfacet
  facet normal -0.0004925 -0.266327 0
    outer loop
      vertex -6.29132 -10.0826 0
      vertex -6.55765 -10.0821 1
      vertex -6.55765 -10.0821 0
    endloop
  endfacet
  facet normal -0.0021275 -0.25835 0
    outer loop
      vertex -6.55765 -10.0821 0
      vertex -6.55765 -10.0821 1
      vertex -6.816 -10.08 1
    endloop
  endfacet
  facet normal -0.0021275 -0.25835 0
    outer loop
      vertex -6.55765 -10.0821 0
      vertex -6.816 -10.08 1
      vertex -6.816 -10.08 0
    endloop
  endfacet
  facet normal -0.0039275 -0.250489 0
    outer loop
      vertex -6.816 -10.08 0
      vertex -6.816 -10.08 1
      vertex -7.06649 -10.0761 1
    endloop
  endfacet
  facet normal -0.0039275 -0.250489 0
    outer loop
      vertex -6.816 -10.08 0
      vertex -7.06649 -10.0761 1
      vertex -7.06649 -10.0761 0
    endloop
  endfacet
  facet normal -0.0058925 -0.242746 0
    outer loop
      vertex -7.06649 -10.0761 0
      vertex -7.06649 -10.0761 1
      vertex -7.30924 -10.0702 1
    endloop
  endfacet
  facet normal -0.0058925 -0.242746 0
    outer loop
      vertex -7.06649 -10.0761 0
      vertex -7.30924 -10.0702 1
      vertex -7.30924 -10.0702 0
    endloop
  endfacet
  facet normal -0.0080225 -0.23512 0
    outer loop
      vertex -7.30924 -10.0702 0
      vertex -7.30924 -10.0702 1
      vertex -7.54436 -10.0622 1
    endloop
  endfacet
  facet normal -0.0080225 -0.23512 0
    outer loop
      vertex -7.30924 -10.0702 0
      vertex -7.54436 -10.0622 1
      vertex -7.54436 -10.0622 0
    endloop
  endfacet
  facet normal -0.0103175 -0.227612 0
    outer loop
      vertex -7.54436 -10.0622 0
      vertex -7.54436 -10.0622 1
      vertex -7.77197 -10.0518 1
    endloop
  endfacet
  facet normal -0.0103175 -0.227612 0
    outer loop
      vertex -7.54436 -10.0622 0
      vertex -7.77197 -10.0518 1
      vertex -7.77197 -10.0518 0
    endloop
  endfacet
  facet normal -0.0127775 -0.22022 0
    outer loop
      vertex -7.77197 -10.0518 0
      vertex -7.77197 -10.0518 1
      vertex -7.99219 -10.0391 1
    endloop
  endfacet
  facet normal -0.0127775 -0.22022 0
    outer loop
      vertex -7.77197 -10.0518 0
      vertex -7.99219 -10.0391 1
      vertex -7.99219 -10.0391 0
    endloop
  endfacet
  facet normal -0.0154025 -0.212945 0
    outer loop
      vertex -7.99219 -10.0391 0
      vertex -7.99219 -10.0391 1
      vertex -8.20513 -10.0237 1
    endloop
  endfacet
  facet normal -0.0154025 -0.212945 0
    outer loop
      vertex -7.99219 -10.0391 0
      vertex -8.20513 -10.0237 1
      vertex -8.20513 -10.0237 0
    endloop
  endfacet
  facet normal -0.0181925 -0.205786 0
    outer loop
      vertex -8.20513 -10.0237 0
      vertex -8.20513 -10.0237 1
      vertex -8.41092 -10.0055 1
    endloop
  endfacet
  facet normal -0.0181925 -0.205786 0
    outer loop
      vertex -8.20513 -10.0237 0
      vertex -8.41092 -10.0055 1
      vertex -8.41092 -10.0055 0
    endloop
  endfacet
  facet normal -0.0211475 -0.198746 0
    outer loop
      vertex -8.41092 -10.0055 0
      vertex -8.41092 -10.0055 1
      vertex -8.60966 -9.98432 1
    endloop
  endfacet
  facet normal -0.0211475 -0.198746 0
    outer loop
      vertex -8.41092 -10.0055 0
      vertex -8.60966 -9.98432 1
      vertex -8.60966 -9.98432 0
    endloop
  endfacet
  facet normal -0.0242675 -0.191822 0
    outer loop
      vertex -8.60966 -9.98432 0
      vertex -8.60966 -9.98432 1
      vertex -8.80149 -9.96005 1
    endloop
  endfacet
  facet normal -0.0242675 -0.191822 0
    outer loop
      vertex -8.60966 -9.98432 0
      vertex -8.80149 -9.96005 1
      vertex -8.80149 -9.96005 0
    endloop
  endfacet
  facet normal -0.0275525 -0.185014 0
    outer loop
      vertex -8.80149 -9.96005 0
      vertex -8.80149 -9.96005 1
      vertex -8.9865 -9.9325 1
    endloop
  endfacet
  facet normal -0.0275525 -0.185014 0
    outer loop
      vertex -8.80149 -9.96005 0
      vertex -8.9865 -9.9325 1
      vertex -8.9865 -9.9325 0
    endloop
  endfacet
  facet normal -0.0310025 -0.178324 0
    outer loop
      vertex -8.9865 -9.9325 0
      vertex -8.9865 -9.9325 1
      vertex -9.16482 -9.9015 1
    endloop
  endfacet
  facet normal -0.0310025 -0.178324 0
    outer loop
      vertex -8.9865 -9.9325 0
      vertex -9.16482 -9.9015 1
      vertex -9.16482 -9.9015 0
    endloop
  endfacet
  facet normal -0.0346175 -0.171752 0
    outer loop
      vertex -9.16482 -9.9015 0
      vertex -9.16482 -9.9015 1
      vertex -9.33658 -9.86688 1
    endloop
  endfacet
  facet normal -0.0346175 -0.171752 0
    outer loop
      vertex -9.16482 -9.9015 0
      vertex -9.33658 -9.86688 1
      vertex -9.33658 -9.86688 0
    endloop
  endfacet
  facet normal -0.0383975 -0.165296 0
    outer loop
      vertex -9.33658 -9.86688 0
      vertex -9.33658 -9.86688 1
      vertex -9.50187 -9.82848 1
    endloop
  endfacet
  facet normal -0.0383975 -0.165296 0
    outer loop
      vertex -9.33658 -9.86688 0
      vertex -9.50187 -9.82848 1
      vertex -9.50187 -9.82848 0
    endloop
  endfacet
  facet normal -0.0423425 -0.158957 0
    outer loop
      vertex -9.50187 -9.82848 0
      vertex -9.50187 -9.82848 1
      vertex -9.66083 -9.78614 1
    endloop
  endfacet
  facet normal -0.0423425 -0.158957 0
    outer loop
      vertex -9.50187 -9.82848 0
      vertex -9.66083 -9.78614 1
      vertex -9.66083 -9.78614 0
    endloop
  endfacet
  facet normal -0.0464525 -0.152734 0
    outer loop
      vertex -9.66083 -9.78614 0
      vertex -9.66083 -9.78614 1
      vertex -9.81356 -9.73969 1
    endloop
  endfacet
  facet normal -0.0464525 -0.152734 0
    outer loop
      vertex -9.66083 -9.78614 0
      vertex -9.81356 -9.73969 1
      vertex -9.81356 -9.73969 0
    endloop
  endfacet
  facet normal -0.0507275 -0.146629 0
    outer loop
      vertex -9.81356 -9.73969 0
      vertex -9.81356 -9.73969 1
      vertex -9.96019 -9.68896 1
    endloop
  endfacet
  facet normal -0.0507275 -0.146629 0
    outer loop
      vertex -9.81356 -9.73969 0
      vertex -9.96019 -9.68896 1
      vertex -9.96019 -9.68896 0
    endloop
  endfacet
  facet normal -0.0551675 -0.140642 0
    outer loop
      vertex -9.96019 -9.68896 0
      vertex -9.96019 -9.68896 1
      vertex -10.1008 -9.63379 1
    endloop
  endfacet
  facet normal -0.0551675 -0.140642 0
    outer loop
      vertex -9.96019 -9.68896 0
      vertex -10.1008 -9.63379 1
      vertex -10.1008 -9.63379 0
    endloop
  endfacet
  facet normal -0.0597725 -0.134771 0
    outer loop
      vertex -10.1008 -9.63379 0
      vertex -10.1008 -9.63379 1
      vertex -10.2356 -9.57402 1
    endloop
  endfacet
  facet normal -0.0597725 -0.134771 0
    outer loop
      vertex -10.1008 -9.63379 0
      vertex -10.2356 -9.57402 1
      vertex -10.2356 -9.57402 0
    endloop
  endfacet
  facet normal -0.0645425 -0.129016 0
    outer loop
      vertex -10.2356 -9.57402 0
      vertex -10.2356 -9.57402 1
      vertex -10.3646 -9.50948 1
    endloop
  endfacet
  facet normal -0.0645425 -0.129016 0
    outer loop
      vertex -10.2356 -9.57402 0
      vertex -10.3646 -9.50948 1
      vertex -10.3646 -9.50948 0
    endloop
  endfacet
  facet normal -0.0694775 -0.12338 0
    outer loop
      vertex -10.3646 -9.50948 0
      vertex -10.3646 -9.50948 1
      vertex -10.488 -9.44 1
    endloop
  endfacet
  facet normal -0.0694775 -0.12338 0
    outer loop
      vertex -10.3646 -9.50948 0
      vertex -10.488 -9.44 1
      vertex -10.488 -9.44 0
    endloop
  endfacet
  facet normal -0.0745775 -0.117859 0
    outer loop
      vertex -10.488 -9.44 0
      vertex -10.488 -9.44 1
      vertex -10.6059 -9.36542 1
    endloop
  endfacet
  facet normal -0.0745775 -0.117859 0
    outer loop
      vertex -10.488 -9.44 0
      vertex -10.6059 -9.36542 1
      vertex -10.6059 -9.36542 0
    endloop
  endfacet
  facet normal -0.0798425 -0.112457 0
    outer loop
      vertex -10.6059 -9.36542 0
      vertex -10.6059 -9.36542 1
      vertex -10.7183 -9.28558 1
    endloop
  endfacet
  facet normal -0.0798425 -0.112457 0
    outer loop
      vertex -10.6059 -9.36542 0
      vertex -10.7183 -9.28558 1
      vertex -10.7183 -9.28558 0
    endloop
  endfacet
  facet normal -0.0852725 -0.10717 0
    outer loop
      vertex -10.7183 -9.28558 0
      vertex -10.7183 -9.28558 1
      vertex -10.8255 -9.20031 1
    endloop
  endfacet
  facet normal -0.0852725 -0.10717 0
    outer loop
      vertex -10.7183 -9.28558 0
      vertex -10.8255 -9.20031 1
      vertex -10.8255 -9.20031 0
    endloop
  endfacet
  facet normal -0.0908675 -0.102002 0
    outer loop
      vertex -10.8255 -9.20031 0
      vertex -10.8255 -9.20031 1
      vertex -10.9275 -9.10944 1
    endloop
  endfacet
  facet normal -0.0908675 -0.102002 0
    outer loop
      vertex -10.8255 -9.20031 0
      vertex -10.9275 -9.10944 1
      vertex -10.9275 -9.10944 0
    endloop
  endfacet
  facet normal -0.0966275 -0.0969495 0
    outer loop
      vertex -10.9275 -9.10944 0
      vertex -10.9275 -9.10944 1
      vertex -11.0244 -9.01281 1
    endloop
  endfacet
  facet normal -0.0966275 -0.0969495 0
    outer loop
      vertex -10.9275 -9.10944 0
      vertex -11.0244 -9.01281 1
      vertex -11.0244 -9.01281 0
    endloop
  endfacet
  facet normal -0.102553 -0.0920145 0
    outer loop
      vertex -11.0244 -9.01281 0
      vertex -11.0244 -9.01281 1
      vertex -11.1165 -8.91026 1
    endloop
  endfacet
  facet normal -0.102553 -0.0920145 0
    outer loop
      vertex -11.0244 -9.01281 0
      vertex -11.1165 -8.91026 1
      vertex -11.1165 -8.91026 0
    endloop
  endfacet
  facet normal -0.108642 -0.0871965 0
    outer loop
      vertex -11.1165 -8.91026 0
      vertex -11.1165 -8.91026 1
      vertex -11.2036 -8.80162 1
    endloop
  endfacet
  facet normal -0.108642 -0.0871965 0
    outer loop
      vertex -11.1165 -8.91026 0
      vertex -11.2036 -8.80162 1
      vertex -11.2036 -8.80162 0
    endloop
  endfacet
  facet normal -0.114897 -0.0824955 0
    outer loop
      vertex -11.2036 -8.80162 0
      vertex -11.2036 -8.80162 1
      vertex -11.2861 -8.68672 1
    endloop
  endfacet
  facet normal -0.114897 -0.0824955 0
    outer loop
      vertex -11.2036 -8.80162 0
      vertex -11.2861 -8.68672 1
      vertex -11.2861 -8.68672 0
    endloop
  endfacet
  facet normal -0.121318 -0.0779115 0
    outer loop
      vertex -11.2861 -8.68672 0
      vertex -11.2861 -8.68672 1
      vertex -11.3641 -8.5654 1
    endloop
  endfacet
  facet normal -0.121318 -0.0779115 0
    outer loop
      vertex -11.2861 -8.68672 0
      vertex -11.3641 -8.5654 1
      vertex -11.3641 -8.5654 0
    endloop
  endfacet
  facet normal -0.127902 -0.0734445 0
    outer loop
      vertex -11.3641 -8.5654 0
      vertex -11.3641 -8.5654 1
      vertex -11.4375 -8.4375 1
    endloop
  endfacet
  facet normal -0.127902 -0.0734445 0
    outer loop
      vertex -11.3641 -8.5654 0
      vertex -11.4375 -8.4375 1
      vertex -11.4375 -8.4375 0
    endloop
  endfacet
  facet normal -0.134653 -0.0690945 0
    outer loop
      vertex -11.4375 -8.4375 0
      vertex -11.4375 -8.4375 1
      vertex -11.5066 -8.30285 1
    endloop
  endfacet
  facet normal -0.134653 -0.0690945 0
    outer loop
      vertex -11.4375 -8.4375 0
      vertex -11.5066 -8.30285 1
      vertex -11.5066 -8.30285 0
    endloop
  endfacet
  facet normal -0.141567 -0.0648615 0
    outer loop
      vertex -11.5066 -8.30285 0
      vertex -11.5066 -8.30285 1
      vertex -11.5715 -8.16128 1
    endloop
  endfacet
  facet normal -0.141567 -0.0648615 0
    outer loop
      vertex -11.5066 -8.30285 0
      vertex -11.5715 -8.16128 1
      vertex -11.5715 -8.16128 0
    endloop
  endfacet
  facet normal -0.148647 -0.0607455 0
    outer loop
      vertex -11.5715 -8.16128 0
      vertex -11.5715 -8.16128 1
      vertex -11.6322 -8.01263 1
    endloop
  endfacet
  facet normal -0.148647 -0.0607455 0
    outer loop
      vertex -11.5715 -8.16128 0
      vertex -11.6322 -8.01263 1
      vertex -11.6322 -8.01263 0
    endloop
  endfacet
  facet normal -0.155893 -0.0567465 0
    outer loop
      vertex -11.6322 -8.01263 0
      vertex -11.6322 -8.01263 1
      vertex -11.6889 -7.85674 1
    endloop
  endfacet
  facet normal -0.155893 -0.0567465 0
    outer loop
      vertex -11.6322 -8.01263 0
      vertex -11.6889 -7.85674 1
      vertex -11.6889 -7.85674 0
    endloop
  endfacet
  facet normal -0.163302 -0.0528645 0
    outer loop
      vertex -11.6889 -7.85674 0
      vertex -11.6889 -7.85674 1
      vertex -11.7418 -7.69344 1
    endloop
  endfacet
  facet normal -0.163302 -0.0528645 0
    outer loop
      vertex -11.6889 -7.85674 0
      vertex -11.7418 -7.69344 1
      vertex -11.7418 -7.69344 0
    endloop
  endfacet
  facet normal -0.170878 -0.0490995 0
    outer loop
      vertex -11.7418 -7.69344 0
      vertex -11.7418 -7.69344 1
      vertex -11.7909 -7.52256 1
    endloop
  endfacet
  facet normal -0.170878 -0.0490995 0
    outer loop
      vertex -11.7418 -7.69344 0
      vertex -11.7909 -7.52256 1
      vertex -11.7909 -7.52256 0
    endloop
  endfacet
  facet normal -0.178617 -0.0454515 0
    outer loop
      vertex -11.7909 -7.52256 0
      vertex -11.7909 -7.52256 1
      vertex -11.8364 -7.34394 1
    endloop
  endfacet
  facet normal -0.178617 -0.0454515 0
    outer loop
      vertex -11.7909 -7.52256 0
      vertex -11.8364 -7.34394 1
      vertex -11.8364 -7.34394 0
    endloop
  endfacet
  facet normal -0.186523 -0.0419205 0
    outer loop
      vertex -11.8364 -7.34394 0
      vertex -11.8364 -7.34394 1
      vertex -11.8783 -7.15742 1
    endloop
  endfacet
  facet normal -0.186523 -0.0419205 0
    outer loop
      vertex -11.8364 -7.34394 0
      vertex -11.8783 -7.15742 1
      vertex -11.8783 -7.15742 0
    endloop
  endfacet
  facet normal -0.194593 -0.0385065 0
    outer loop
      vertex -11.8783 -7.15742 0
      vertex -11.8783 -7.15742 1
      vertex -11.9168 -6.96283 1
    endloop
  endfacet
  facet normal -0.194593 -0.0385065 0
    outer loop
      vertex -11.8783 -7.15742 0
      vertex -11.9168 -6.96283 1
      vertex -11.9168 -6.96283 0
    endloop
  endfacet
  facet normal -0.202827 -0.0352095 0
    outer loop
      vertex -11.9168 -6.96283 0
      vertex -11.9168 -6.96283 1
      vertex -11.952 -6.76 1
    endloop
  endfacet
  facet normal -0.202827 -0.0352095 0
    outer loop
      vertex -11.9168 -6.96283 0
      vertex -11.952 -6.76 1
      vertex -11.952 -6.76 0
    endloop
  endfacet
  facet normal -0.211228 -0.0320295 0
    outer loop
      vertex -11.952 -6.76 0
      vertex -11.952 -6.76 1
      vertex -11.984 -6.54877 1
    endloop
  endfacet
  facet normal -0.211228 -0.0320295 0
    outer loop
      vertex -11.952 -6.76 0
      vertex -11.984 -6.54877 1
      vertex -11.984 -6.54877 0
    endloop
  endfacet
  facet normal -0.219792 -0.0289665 0
    outer loop
      vertex -11.984 -6.54877 0
      vertex -11.984 -6.54877 1
      vertex -12.013 -6.32898 1
    endloop
  endfacet
  facet normal -0.219792 -0.0289665 0
    outer loop
      vertex -11.984 -6.54877 0
      vertex -12.013 -6.32898 1
      vertex -12.013 -6.32898 0
    endloop
  endfacet
  facet normal -0.228523 -0.0260205 0
    outer loop
      vertex -12.013 -6.32898 0
      vertex -12.013 -6.32898 1
      vertex -12.039 -6.10046 1
    endloop
  endfacet
  facet normal -0.228523 -0.0260205 0
    outer loop
      vertex -12.013 -6.32898 0
      vertex -12.039 -6.10046 1
      vertex -12.039 -6.10046 0
    endloop
  endfacet
  facet normal -0.237418 -0.0231915 0
    outer loop
      vertex -12.039 -6.10046 0
      vertex -12.039 -6.10046 1
      vertex -12.0622 -5.86304 1
    endloop
  endfacet
  facet normal -0.237418 -0.0231915 0
    outer loop
      vertex -12.039 -6.10046 0
      vertex -12.0622 -5.86304 1
      vertex -12.0622 -5.86304 0
    endloop
  endfacet
  facet normal -0.246478 -0.0204795 0
    outer loop
      vertex -12.0622 -5.86304 0
      vertex -12.0622 -5.86304 1
      vertex -12.0827 -5.61656 1
    endloop
  endfacet
  facet normal -0.246478 -0.0204795 0
    outer loop
      vertex -12.0622 -5.86304 0
      vertex -12.0827 -5.61656 1
      vertex -12.0827 -5.61656 0
    endloop
  endfacet
  facet normal -0.255702 -0.0178845 0
    outer loop
      vertex -12.0827 -5.61656 0
      vertex -12.0827 -5.61656 1
      vertex -12.1006 -5.36086 1
    endloop
  endfacet
  facet normal -0.255702 -0.0178845 0
    outer loop
      vertex -12.0827 -5.61656 0
      vertex -12.1006 -5.36086 1
      vertex -12.1006 -5.36086 0
    endloop
  endfacet
  facet normal -0.265092 -0.0154065 0
    outer loop
      vertex -12.1006 -5.36086 0
      vertex -12.1006 -5.36086 1
      vertex -12.116 -5.09577 1
    endloop
  endfacet
  facet normal -0.265092 -0.0154065 0
    outer loop
      vertex -12.1006 -5.36086 0
      vertex -12.116 -5.09577 1
      vertex -12.116 -5.09577 0
    endloop
  endfacet
  facet normal -0.274648 -0.0130455 0
    outer loop
      vertex -12.116 -5.09577 0
      vertex -12.116 -5.09577 1
      vertex -12.129 -4.82112 1
    endloop
  endfacet
  facet normal -0.274648 -0.0130455 0
    outer loop
      vertex -12.116 -5.09577 0
      vertex -12.129 -4.82112 1
      vertex -12.129 -4.82112 0
    endloop
  endfacet
  facet normal -0.284368 -0.0108015 0
    outer loop
      vertex -12.129 -4.82112 0
      vertex -12.129 -4.82112 1
      vertex -12.1398 -4.53675 1
    endloop
  endfacet
  facet normal -0.284368 -0.0108015 0
    outer loop
      vertex -12.129 -4.82112 0
      vertex -12.1398 -4.53675 1
      vertex -12.1398 -4.53675 0
    endloop
  endfacet
  facet normal -0.294252 -0.0086745 0
    outer loop
      vertex -12.1398 -4.53675 0
      vertex -12.1398 -4.53675 1
      vertex -12.1485 -4.2425 1
    endloop
  endfacet
  facet normal -0.294252 -0.0086745 0
    outer loop
      vertex -12.1398 -4.53675 0
      vertex -12.1485 -4.2425 1
      vertex -12.1485 -4.2425 0
    endloop
  endfacet
  facet normal -0.304302 -0.0066645 0
    outer loop
      vertex -12.1485 -4.2425 0
      vertex -12.1485 -4.2425 1
      vertex -12.1552 -3.9382 1
    endloop
  endfacet
  facet normal -0.304302 -0.0066645 0
    outer loop
      vertex -12.1485 -4.2425 0
      vertex -12.1552 -3.9382 1
      vertex -12.1552 -3.9382 0
    endloop
  endfacet
  facet normal -0.314517 -0.0047715 0
    outer loop
      vertex -12.1552 -3.9382 0
      vertex -12.1552 -3.9382 1
      vertex -12.1599 -3.62368 1
    endloop
  endfacet
  facet normal -0.314517 -0.0047715 0
    outer loop
      vertex -12.1552 -3.9382 0
      vertex -12.1599 -3.62368 1
      vertex -12.1599 -3.62368 0
    endloop
  endfacet
  facet normal -0.324898 -0.0029955 0
    outer loop
      vertex -12.1599 -3.62368 0
      vertex -12.1599 -3.62368 1
      vertex -12.1629 -3.29878 1
    endloop
  endfacet
  facet normal -0.324898 -0.0029955 0
    outer loop
      vertex -12.1599 -3.62368 0
      vertex -12.1629 -3.29878 1
      vertex -12.1629 -3.29878 0
    endloop
  endfacet
  facet normal -0.335442 -0.0013365 0
    outer loop
      vertex -12.1629 -3.29878 0
      vertex -12.1629 -3.29878 1
      vertex -12.1643 -2.96334 1
    endloop
  endfacet
  facet normal -0.335442 -0.0013365 0
    outer loop
      vertex -12.1629 -3.29878 0
      vertex -12.1643 -2.96334 1
      vertex -12.1643 -2.96334 0
    endloop
  endfacet
  facet normal -0.346153 0.0002055 0
    outer loop
      vertex -12.1643 -2.96334 0
      vertex -12.1643 -2.96334 1
      vertex -12.1641 -2.61719 1
    endloop
  endfacet
  facet normal -0.346153 0.0002055 0
    outer loop
      vertex -12.1643 -2.96334 0
      vertex -12.1641 -2.61719 1
      vertex -12.1641 -2.61719 0
    endloop
  endfacet
  facet normal -0.357028 0.0016305 0
    outer loop
      vertex -12.1641 -2.61719 0
      vertex -12.1641 -2.61719 1
      vertex -12.1624 -2.26016 1
    endloop
  endfacet
  facet normal -0.357028 0.0016305 0
    outer loop
      vertex -12.1641 -2.61719 0
      vertex -12.1624 -2.26016 1
      vertex -12.1624 -2.26016 0
    endloop
  endfacet
  facet normal -0.368067 0.0029385 0
    outer loop
      vertex -12.1624 -2.26016 0
      vertex -12.1624 -2.26016 1
      vertex -12.1595 -1.89209 1
    endloop
  endfacet
  facet normal -0.368067 0.0029385 0
    outer loop
      vertex -12.1624 -2.26016 0
      vertex -12.1595 -1.89209 1
      vertex -12.1595 -1.89209 0
    endloop
  endfacet
  facet normal -0.379272 0.0041295 0
    outer loop
      vertex -12.1595 -1.89209 0
      vertex -12.1595 -1.89209 1
      vertex -12.1554 -1.51282 1
    endloop
  endfacet
  facet normal -0.379272 0.0041295 0
    outer loop
      vertex -12.1595 -1.89209 0
      vertex -12.1554 -1.51282 1
      vertex -12.1554 -1.51282 0
    endloop
  endfacet
  facet normal -0.390643 0.0052035 0
    outer loop
      vertex -12.1554 -1.51282 0
      vertex -12.1554 -1.51282 1
      vertex -12.1502 -1.12218 1
    endloop
  endfacet
  facet normal -0.390643 0.0052035 0
    outer loop
      vertex -12.1554 -1.51282 0
      vertex -12.1502 -1.12218 1
      vertex -12.1502 -1.12218 0
    endloop
  endfacet
  facet normal -0.402177 0.0061605 0
    outer loop
      vertex -12.1502 -1.12218 0
      vertex -12.1502 -1.12218 1
      vertex -12.144 -0.72 1
    endloop
  endfacet
  facet normal -0.402177 0.0061605 0
    outer loop
      vertex -12.1502 -1.12218 0
      vertex -12.144 -0.72 1
      vertex -12.144 -0.72 0
    endloop
  endfacet
  facet normal -0.413877 0.0070005 0
    outer loop
      vertex -12.144 -0.72 0
      vertex -12.144 -0.72 1
      vertex -12.137 -0.306123 1
    endloop
  endfacet
  facet normal -0.413877 0.0070005 0
    outer loop
      vertex -12.144 -0.72 0
      vertex -12.137 -0.306123 1
      vertex -12.137 -0.306123 0
    endloop
  endfacet
  facet normal -0.425743 0.0077235 0
    outer loop
      vertex -12.137 -0.306123 0
      vertex -12.137 -0.306123 1
      vertex -12.1293 0.11962 1
    endloop
  endfacet
  facet normal -0.425743 0.0077235 0
    outer loop
      vertex -12.137 -0.306123 0
      vertex -12.1293 0.11962 1
      vertex -12.1293 0.11962 0
    endloop
  endfacet
  facet normal -0.437773 0.0083295 0
    outer loop
      vertex -12.1293 0.11962 0
      vertex -12.1293 0.11962 1
      vertex -12.1209 0.557392 1
    endloop
  endfacet
  facet normal -0.437773 0.0083295 0
    outer loop
      vertex -12.1293 0.11962 0
      vertex -12.1209 0.557392 1
      vertex -12.1209 0.557392 0
    endloop
  endfacet
  facet normal -0.449967 0.0088185 0
    outer loop
      vertex -12.1209 0.557392 0
      vertex -12.1209 0.557392 1
      vertex -12.1121 1.00736 1
    endloop
  endfacet
  facet normal -0.449967 0.0088185 0
    outer loop
      vertex -12.1209 0.557392 0
      vertex -12.1121 1.00736 1
      vertex -12.1121 1.00736 0
    endloop
  endfacet
  facet normal -0.462328 0.0091905 0
    outer loop
      vertex -12.1121 1.00736 0
      vertex -12.1121 1.00736 1
      vertex -12.1029 1.46969 1
    endloop
  endfacet
  facet normal -0.462328 0.0091905 0
    outer loop
      vertex -12.1121 1.00736 0
      vertex -12.1029 1.46969 1
      vertex -12.1029 1.46969 0
    endloop
  endfacet
  facet normal -0.474852 0.0094455 0
    outer loop
      vertex -12.1029 1.46969 0
      vertex -12.1029 1.46969 1
      vertex -12.0935 1.94454 1
    endloop
  endfacet
  facet normal -0.474852 0.0094455 0
    outer loop
      vertex -12.1029 1.46969 0
      vertex -12.0935 1.94454 1
      vertex -12.0935 1.94454 0
    endloop
  endfacet
  facet normal -0.487542 0.0095835 0
    outer loop
      vertex -12.0935 1.94454 0
      vertex -12.0935 1.94454 1
      vertex -12.0839 2.43208 1
    endloop
  endfacet
  facet normal -0.487542 0.0095835 0
    outer loop
      vertex -12.0935 1.94454 0
      vertex -12.0839 2.43208 1
      vertex -12.0839 2.43208 0
    endloop
  endfacet
  facet normal -0.500398 0.0096045 0
    outer loop
      vertex -12.0839 2.43208 0
      vertex -12.0839 2.43208 1
      vertex -12.0743 2.93248 1
    endloop
  endfacet
  facet normal -0.500398 0.0096045 0
    outer loop
      vertex -12.0839 2.43208 0
      vertex -12.0743 2.93248 1
      vertex -12.0743 2.93248 0
    endloop
  endfacet
  facet normal -0.513418 0.0095085 0
    outer loop
      vertex -12.0743 2.93248 0
      vertex -12.0743 2.93248 1
      vertex -12.0648 3.4459 1
    endloop
  endfacet
  facet normal -0.513418 0.0095085 0
    outer loop
      vertex -12.0743 2.93248 0
      vertex -12.0648 3.4459 1
      vertex -12.0648 3.4459 0
    endloop
  endfacet
  facet normal -0.526603 0.0092955 0
    outer loop
      vertex -12.0648 3.4459 0
      vertex -12.0648 3.4459 1
      vertex -12.0555 3.9725 1
    endloop
  endfacet
  facet normal -0.526603 0.0092955 0
    outer loop
      vertex -12.0648 3.4459 0
      vertex -12.0555 3.9725 1
      vertex -12.0555 3.9725 0
    endloop
  endfacet
  facet normal -0.539952 0.0089655 0
    outer loop
      vertex -12.0555 3.9725 0
      vertex -12.0555 3.9725 1
      vertex -12.0465 4.51245 1
    endloop
  endfacet
  facet normal -0.539952 0.0089655 0
    outer loop
      vertex -12.0555 3.9725 0
      vertex -12.0465 4.51245 1
      vertex -12.0465 4.51245 0
    endloop
  endfacet
  facet normal -0.553468 0.0085185 0
    outer loop
      vertex -12.0465 4.51245 0
      vertex -12.0465 4.51245 1
      vertex -12.038 5.06592 1
    endloop
  endfacet
  facet normal -0.553468 0.0085185 0
    outer loop
      vertex -12.0465 4.51245 0
      vertex -12.038 5.06592 1
      vertex -12.038 5.06592 0
    endloop
  endfacet
  facet normal -0.567147 0.0079545 0
    outer loop
      vertex -12.038 5.06592 0
      vertex -12.038 5.06592 1
      vertex -12.0301 5.63307 1
    endloop
  endfacet
  facet normal -0.567147 0.0079545 0
    outer loop
      vertex -12.038 5.06592 0
      vertex -12.0301 5.63307 1
      vertex -12.0301 5.63307 0
    endloop
  endfacet
  facet normal -0.580992 0.0072735 0
    outer loop
      vertex -12.0301 5.63307 0
      vertex -12.0301 5.63307 1
      vertex -12.0228 6.21406 1
    endloop
  endfacet
  facet normal -0.580992 0.0072735 0
    outer loop
      vertex -12.0301 5.63307 0
      vertex -12.0228 6.21406 1
      vertex -12.0228 6.21406 0
    endloop
  endfacet
  facet normal -0.595003 0.0064755 0
    outer loop
      vertex -12.0228 6.21406 0
      vertex -12.0228 6.21406 1
      vertex -12.0163 6.80906 1
    endloop
  endfacet
  facet normal -0.595003 0.0064755 0
    outer loop
      vertex -12.0228 6.21406 0
      vertex -12.0163 6.80906 1
      vertex -12.0163 6.80906 0
    endloop
  endfacet
  facet normal -0.609178 0.0055605 0
    outer loop
      vertex -12.0163 6.80906 0
      vertex -12.0163 6.80906 1
      vertex -12.0108 7.41824 1
    endloop
  endfacet
  facet normal -0.609178 0.0055605 0
    outer loop
      vertex -12.0163 6.80906 0
      vertex -12.0108 7.41824 1
      vertex -12.0108 7.41824 0
    endloop
  endfacet
  facet normal -0.623518 0.0045285 0
    outer loop
      vertex -12.0108 7.41824 0
      vertex -12.0108 7.41824 1
      vertex -12.0062 8.04176 1
    endloop
  endfacet
  facet normal -0.623518 0.0045285 0
    outer loop
      vertex -12.0108 7.41824 0
      vertex -12.0062 8.04176 1
      vertex -12.0062 8.04176 0
    endloop
  endfacet
  facet normal -0.638022 0.0033795 0
    outer loop
      vertex -12.0062 8.04176 0
      vertex -12.0062 8.04176 1
      vertex -12.0028 8.67978 1
    endloop
  endfacet
  facet normal -0.638022 0.0033795 0
    outer loop
      vertex -12.0062 8.04176 0
      vertex -12.0028 8.67978 1
      vertex -12.0028 8.67978 0
    endloop
  endfacet
  facet normal -0.652693 0.0021135 0
    outer loop
      vertex -12.0028 8.67978 0
      vertex -12.0028 8.67978 1
      vertex -12.0007 9.33247 1
    endloop
  endfacet
  facet normal -0.652693 0.0021135 0
    outer loop
      vertex -12.0028 8.67978 0
      vertex -12.0007 9.33247 1
      vertex -12.0007 9.33247 0
    endloop
  endfacet
  facet normal -0.667527 0.0007305 0
    outer loop
      vertex -12.0007 9.33247 0
      vertex -12.0007 9.33247 1
      vertex -12 10 1
    endloop
  endfacet
  facet normal -0.667527 0.0007305 0
    outer loop
      vertex -12.0007 9.33247 0
      vertex -12 10 1
      vertex -12 10 0
    endloop
  endfacet
endsolid ff
solid fault1
  facet normal 0 20 0
    outer loop
      vertex -20 20 0
      vertex -20 20 1
      vertex 0 20 1
    endloop
  endfacet
  facet normal 0 20 0
    outer loop
      vertex -20 20 0
      vertex 0 20 1
      vertex 0 20 0
    endloop
  endfacet
endsolid fault1
solid fault3
  facet normal 40 0 0
    outer loop
      vertex 0 20 0
      vertex 0 20 1
      vertex 0 -20 1
    endloop
  endfacet
  facet normal 40 0 0
    outer loop
      vertex 0 20 0
      vertex 0 -20 1
      vertex 0 -20 0
    endloop
  endfacet
endsolid fault3
solid fault2
  facet normal 0 -20 0
    outer loop
      vertex 0 -20 0
      vertex 0 -20 1
      vertex -20 -20 1
    endloop
  endfacet
  facet normal 0 -20 0
    outer loop
      vertex 0 -20 0
      vertex -20 -20 1
      vertex -20 -20 0
    endloop
  endfacet
endsolid fault2
solid fault4
  facet normal -40 0 0
    outer loop
      vertex -20 -20 0
      vertex -20 -20 1
      vertex -20 20 1
    endloop
  endfacet
  facet normal -40 0 0
    outer loop
      vertex -20 -20 0
      vertex -20 20 1
      vertex -20 20 0
    endloop
  endfacet
endsolid fault4
